G04 #@! TF.GenerationSoftware,KiCad,Pcbnew,(5.1.2)-1*
G04 #@! TF.CreationDate,2019-11-23T21:49:29-05:00*
G04 #@! TF.ProjectId,c128-sram,63313238-2d73-4726-916d-2e6b69636164,rev?*
G04 #@! TF.SameCoordinates,Original*
G04 #@! TF.FileFunction,Copper,L1,Top*
G04 #@! TF.FilePolarity,Positive*
%FSLAX46Y46*%
G04 Gerber Fmt 4.6, Leading zero omitted, Abs format (unit mm)*
G04 Created by KiCad (PCBNEW (5.1.2)-1) date 2019-11-23 21:49:29*
%MOMM*%
%LPD*%
G04 APERTURE LIST*
%ADD10O,1.600000X1.600000*%
%ADD11C,1.600000*%
%ADD12C,0.500000*%
%ADD13C,0.100000*%
%ADD14R,1.500000X0.600000*%
%ADD15R,1.100000X0.250000*%
%ADD16R,1.700000X1.700000*%
%ADD17O,1.700000X1.700000*%
%ADD18R,1.200000X1.200000*%
%ADD19C,1.200000*%
%ADD20C,0.400000*%
%ADD21C,0.800000*%
%ADD22C,0.454000*%
%ADD23C,0.250000*%
%ADD24C,0.233000*%
G04 APERTURE END LIST*
D10*
X83819880Y-83821160D03*
X83819880Y-86361160D03*
X83819880Y-88901160D03*
X83819880Y-91441160D03*
X83819880Y-93981160D03*
X83819880Y-96521160D03*
X83819880Y-99061160D03*
D11*
X86995000Y-110490000D03*
X86995000Y-112990000D03*
X74930000Y-81915000D03*
X72430000Y-81915000D03*
X86995000Y-94575000D03*
X86995000Y-92075000D03*
D12*
X86345000Y-99060000D03*
D13*
G36*
X86845000Y-99810000D02*
G01*
X86345000Y-99810000D01*
X86345000Y-99809398D01*
X86320466Y-99809398D01*
X86271635Y-99804588D01*
X86223510Y-99795016D01*
X86176555Y-99780772D01*
X86131222Y-99761995D01*
X86087949Y-99738864D01*
X86047150Y-99711604D01*
X86009221Y-99680476D01*
X85974524Y-99645779D01*
X85943396Y-99607850D01*
X85916136Y-99567051D01*
X85893005Y-99523778D01*
X85874228Y-99478445D01*
X85859984Y-99431490D01*
X85850412Y-99383365D01*
X85845602Y-99334534D01*
X85845602Y-99310000D01*
X85845000Y-99310000D01*
X85845000Y-98810000D01*
X85845602Y-98810000D01*
X85845602Y-98785466D01*
X85850412Y-98736635D01*
X85859984Y-98688510D01*
X85874228Y-98641555D01*
X85893005Y-98596222D01*
X85916136Y-98552949D01*
X85943396Y-98512150D01*
X85974524Y-98474221D01*
X86009221Y-98439524D01*
X86047150Y-98408396D01*
X86087949Y-98381136D01*
X86131222Y-98358005D01*
X86176555Y-98339228D01*
X86223510Y-98324984D01*
X86271635Y-98315412D01*
X86320466Y-98310602D01*
X86345000Y-98310602D01*
X86345000Y-98310000D01*
X86845000Y-98310000D01*
X86845000Y-99810000D01*
X86845000Y-99810000D01*
G37*
D12*
X87645000Y-99060000D03*
D13*
G36*
X87645000Y-98310602D02*
G01*
X87669534Y-98310602D01*
X87718365Y-98315412D01*
X87766490Y-98324984D01*
X87813445Y-98339228D01*
X87858778Y-98358005D01*
X87902051Y-98381136D01*
X87942850Y-98408396D01*
X87980779Y-98439524D01*
X88015476Y-98474221D01*
X88046604Y-98512150D01*
X88073864Y-98552949D01*
X88096995Y-98596222D01*
X88115772Y-98641555D01*
X88130016Y-98688510D01*
X88139588Y-98736635D01*
X88144398Y-98785466D01*
X88144398Y-98810000D01*
X88145000Y-98810000D01*
X88145000Y-99310000D01*
X88144398Y-99310000D01*
X88144398Y-99334534D01*
X88139588Y-99383365D01*
X88130016Y-99431490D01*
X88115772Y-99478445D01*
X88096995Y-99523778D01*
X88073864Y-99567051D01*
X88046604Y-99607850D01*
X88015476Y-99645779D01*
X87980779Y-99680476D01*
X87942850Y-99711604D01*
X87902051Y-99738864D01*
X87858778Y-99761995D01*
X87813445Y-99780772D01*
X87766490Y-99795016D01*
X87718365Y-99804588D01*
X87669534Y-99809398D01*
X87645000Y-99809398D01*
X87645000Y-99810000D01*
X87145000Y-99810000D01*
X87145000Y-98310000D01*
X87645000Y-98310000D01*
X87645000Y-98310602D01*
X87645000Y-98310602D01*
G37*
D12*
X87645000Y-101600000D03*
D13*
G36*
X87645000Y-100850602D02*
G01*
X87669534Y-100850602D01*
X87718365Y-100855412D01*
X87766490Y-100864984D01*
X87813445Y-100879228D01*
X87858778Y-100898005D01*
X87902051Y-100921136D01*
X87942850Y-100948396D01*
X87980779Y-100979524D01*
X88015476Y-101014221D01*
X88046604Y-101052150D01*
X88073864Y-101092949D01*
X88096995Y-101136222D01*
X88115772Y-101181555D01*
X88130016Y-101228510D01*
X88139588Y-101276635D01*
X88144398Y-101325466D01*
X88144398Y-101350000D01*
X88145000Y-101350000D01*
X88145000Y-101850000D01*
X88144398Y-101850000D01*
X88144398Y-101874534D01*
X88139588Y-101923365D01*
X88130016Y-101971490D01*
X88115772Y-102018445D01*
X88096995Y-102063778D01*
X88073864Y-102107051D01*
X88046604Y-102147850D01*
X88015476Y-102185779D01*
X87980779Y-102220476D01*
X87942850Y-102251604D01*
X87902051Y-102278864D01*
X87858778Y-102301995D01*
X87813445Y-102320772D01*
X87766490Y-102335016D01*
X87718365Y-102344588D01*
X87669534Y-102349398D01*
X87645000Y-102349398D01*
X87645000Y-102350000D01*
X87145000Y-102350000D01*
X87145000Y-100850000D01*
X87645000Y-100850000D01*
X87645000Y-100850602D01*
X87645000Y-100850602D01*
G37*
D12*
X86345000Y-101600000D03*
D13*
G36*
X86845000Y-102350000D02*
G01*
X86345000Y-102350000D01*
X86345000Y-102349398D01*
X86320466Y-102349398D01*
X86271635Y-102344588D01*
X86223510Y-102335016D01*
X86176555Y-102320772D01*
X86131222Y-102301995D01*
X86087949Y-102278864D01*
X86047150Y-102251604D01*
X86009221Y-102220476D01*
X85974524Y-102185779D01*
X85943396Y-102147850D01*
X85916136Y-102107051D01*
X85893005Y-102063778D01*
X85874228Y-102018445D01*
X85859984Y-101971490D01*
X85850412Y-101923365D01*
X85845602Y-101874534D01*
X85845602Y-101850000D01*
X85845000Y-101850000D01*
X85845000Y-101350000D01*
X85845602Y-101350000D01*
X85845602Y-101325466D01*
X85850412Y-101276635D01*
X85859984Y-101228510D01*
X85874228Y-101181555D01*
X85893005Y-101136222D01*
X85916136Y-101092949D01*
X85943396Y-101052150D01*
X85974524Y-101014221D01*
X86009221Y-100979524D01*
X86047150Y-100948396D01*
X86087949Y-100921136D01*
X86131222Y-100898005D01*
X86176555Y-100879228D01*
X86223510Y-100864984D01*
X86271635Y-100855412D01*
X86320466Y-100850602D01*
X86345000Y-100850602D01*
X86345000Y-100850000D01*
X86845000Y-100850000D01*
X86845000Y-102350000D01*
X86845000Y-102350000D01*
G37*
D12*
X86345000Y-104140000D03*
D13*
G36*
X86845000Y-104890000D02*
G01*
X86345000Y-104890000D01*
X86345000Y-104889398D01*
X86320466Y-104889398D01*
X86271635Y-104884588D01*
X86223510Y-104875016D01*
X86176555Y-104860772D01*
X86131222Y-104841995D01*
X86087949Y-104818864D01*
X86047150Y-104791604D01*
X86009221Y-104760476D01*
X85974524Y-104725779D01*
X85943396Y-104687850D01*
X85916136Y-104647051D01*
X85893005Y-104603778D01*
X85874228Y-104558445D01*
X85859984Y-104511490D01*
X85850412Y-104463365D01*
X85845602Y-104414534D01*
X85845602Y-104390000D01*
X85845000Y-104390000D01*
X85845000Y-103890000D01*
X85845602Y-103890000D01*
X85845602Y-103865466D01*
X85850412Y-103816635D01*
X85859984Y-103768510D01*
X85874228Y-103721555D01*
X85893005Y-103676222D01*
X85916136Y-103632949D01*
X85943396Y-103592150D01*
X85974524Y-103554221D01*
X86009221Y-103519524D01*
X86047150Y-103488396D01*
X86087949Y-103461136D01*
X86131222Y-103438005D01*
X86176555Y-103419228D01*
X86223510Y-103404984D01*
X86271635Y-103395412D01*
X86320466Y-103390602D01*
X86345000Y-103390602D01*
X86345000Y-103390000D01*
X86845000Y-103390000D01*
X86845000Y-104890000D01*
X86845000Y-104890000D01*
G37*
D12*
X87645000Y-104140000D03*
D13*
G36*
X87645000Y-103390602D02*
G01*
X87669534Y-103390602D01*
X87718365Y-103395412D01*
X87766490Y-103404984D01*
X87813445Y-103419228D01*
X87858778Y-103438005D01*
X87902051Y-103461136D01*
X87942850Y-103488396D01*
X87980779Y-103519524D01*
X88015476Y-103554221D01*
X88046604Y-103592150D01*
X88073864Y-103632949D01*
X88096995Y-103676222D01*
X88115772Y-103721555D01*
X88130016Y-103768510D01*
X88139588Y-103816635D01*
X88144398Y-103865466D01*
X88144398Y-103890000D01*
X88145000Y-103890000D01*
X88145000Y-104390000D01*
X88144398Y-104390000D01*
X88144398Y-104414534D01*
X88139588Y-104463365D01*
X88130016Y-104511490D01*
X88115772Y-104558445D01*
X88096995Y-104603778D01*
X88073864Y-104647051D01*
X88046604Y-104687850D01*
X88015476Y-104725779D01*
X87980779Y-104760476D01*
X87942850Y-104791604D01*
X87902051Y-104818864D01*
X87858778Y-104841995D01*
X87813445Y-104860772D01*
X87766490Y-104875016D01*
X87718365Y-104884588D01*
X87669534Y-104889398D01*
X87645000Y-104889398D01*
X87645000Y-104890000D01*
X87145000Y-104890000D01*
X87145000Y-103390000D01*
X87645000Y-103390000D01*
X87645000Y-103390602D01*
X87645000Y-103390602D01*
G37*
D12*
X87645000Y-106680000D03*
D13*
G36*
X87645000Y-105930602D02*
G01*
X87669534Y-105930602D01*
X87718365Y-105935412D01*
X87766490Y-105944984D01*
X87813445Y-105959228D01*
X87858778Y-105978005D01*
X87902051Y-106001136D01*
X87942850Y-106028396D01*
X87980779Y-106059524D01*
X88015476Y-106094221D01*
X88046604Y-106132150D01*
X88073864Y-106172949D01*
X88096995Y-106216222D01*
X88115772Y-106261555D01*
X88130016Y-106308510D01*
X88139588Y-106356635D01*
X88144398Y-106405466D01*
X88144398Y-106430000D01*
X88145000Y-106430000D01*
X88145000Y-106930000D01*
X88144398Y-106930000D01*
X88144398Y-106954534D01*
X88139588Y-107003365D01*
X88130016Y-107051490D01*
X88115772Y-107098445D01*
X88096995Y-107143778D01*
X88073864Y-107187051D01*
X88046604Y-107227850D01*
X88015476Y-107265779D01*
X87980779Y-107300476D01*
X87942850Y-107331604D01*
X87902051Y-107358864D01*
X87858778Y-107381995D01*
X87813445Y-107400772D01*
X87766490Y-107415016D01*
X87718365Y-107424588D01*
X87669534Y-107429398D01*
X87645000Y-107429398D01*
X87645000Y-107430000D01*
X87145000Y-107430000D01*
X87145000Y-105930000D01*
X87645000Y-105930000D01*
X87645000Y-105930602D01*
X87645000Y-105930602D01*
G37*
D12*
X86345000Y-106680000D03*
D13*
G36*
X86845000Y-107430000D02*
G01*
X86345000Y-107430000D01*
X86345000Y-107429398D01*
X86320466Y-107429398D01*
X86271635Y-107424588D01*
X86223510Y-107415016D01*
X86176555Y-107400772D01*
X86131222Y-107381995D01*
X86087949Y-107358864D01*
X86047150Y-107331604D01*
X86009221Y-107300476D01*
X85974524Y-107265779D01*
X85943396Y-107227850D01*
X85916136Y-107187051D01*
X85893005Y-107143778D01*
X85874228Y-107098445D01*
X85859984Y-107051490D01*
X85850412Y-107003365D01*
X85845602Y-106954534D01*
X85845602Y-106930000D01*
X85845000Y-106930000D01*
X85845000Y-106430000D01*
X85845602Y-106430000D01*
X85845602Y-106405466D01*
X85850412Y-106356635D01*
X85859984Y-106308510D01*
X85874228Y-106261555D01*
X85893005Y-106216222D01*
X85916136Y-106172949D01*
X85943396Y-106132150D01*
X85974524Y-106094221D01*
X86009221Y-106059524D01*
X86047150Y-106028396D01*
X86087949Y-106001136D01*
X86131222Y-105978005D01*
X86176555Y-105959228D01*
X86223510Y-105944984D01*
X86271635Y-105935412D01*
X86320466Y-105930602D01*
X86345000Y-105930602D01*
X86345000Y-105930000D01*
X86845000Y-105930000D01*
X86845000Y-107430000D01*
X86845000Y-107430000D01*
G37*
D14*
X68910000Y-90805000D03*
X68910000Y-89535000D03*
X68910000Y-88265000D03*
X68910000Y-86995000D03*
X68910000Y-85725000D03*
X68910000Y-84455000D03*
X68910000Y-92075000D03*
X68910000Y-93345000D03*
X68910000Y-94615000D03*
X68910000Y-95885000D03*
X78410000Y-95885000D03*
X78410000Y-94615000D03*
X78410000Y-93345000D03*
X78410000Y-92075000D03*
X78410000Y-90805000D03*
X78410000Y-89535000D03*
X78410000Y-88265000D03*
X78410000Y-86995000D03*
X78410000Y-85725000D03*
X78410000Y-84455000D03*
D15*
X63910000Y-104200000D03*
X83410000Y-111700000D03*
X63910000Y-104700000D03*
X63910000Y-105200000D03*
X63910000Y-105700000D03*
X63910000Y-106200000D03*
X63910000Y-106700000D03*
X63910000Y-107200000D03*
X63910000Y-107700000D03*
X63910000Y-108200000D03*
X63910000Y-108700000D03*
X63910000Y-109200000D03*
X63910000Y-109700000D03*
X63910000Y-110200000D03*
X63910000Y-110700000D03*
X63910000Y-111200000D03*
X63910000Y-111700000D03*
X83410000Y-111200000D03*
X83410000Y-110700000D03*
X83410000Y-110200000D03*
X83410000Y-109700000D03*
X83410000Y-109200000D03*
X83410000Y-108700000D03*
X83410000Y-108200000D03*
X83410000Y-107700000D03*
X83410000Y-107200000D03*
X83410000Y-106700000D03*
X83410000Y-106200000D03*
X83410000Y-105700000D03*
X83410000Y-105200000D03*
X83410000Y-104700000D03*
X83410000Y-104200000D03*
D16*
X77470000Y-114300000D03*
D17*
X80010000Y-114300000D03*
X82550000Y-114300000D03*
X69850000Y-114300000D03*
X67310000Y-114300000D03*
D16*
X64770000Y-114300000D03*
X73660000Y-114300000D03*
D10*
X63499880Y-83821160D03*
X71119880Y-99061160D03*
X63499880Y-86361160D03*
X63499880Y-88901160D03*
X63499880Y-91441160D03*
X63499880Y-93981160D03*
X63499880Y-96521160D03*
X63499880Y-99061160D03*
X63499880Y-101601160D03*
D18*
X86995000Y-84455000D03*
D19*
X86995000Y-86455000D03*
D20*
X72136000Y-108712000D03*
D21*
X68580000Y-103505000D03*
D20*
X61849000Y-110617000D03*
X83439000Y-102235000D03*
X84064010Y-101600000D03*
X85090000Y-103505000D03*
X81661000Y-103378000D03*
X81661000Y-105283000D03*
X84836000Y-106299000D03*
X77325999Y-107967001D03*
X78994000Y-97409000D03*
X81534000Y-97409000D03*
X69830000Y-106700000D03*
X76581000Y-107442000D03*
X78232000Y-106299000D03*
X61214000Y-103886000D03*
X67310000Y-89535000D03*
X63881000Y-103632000D03*
X67310000Y-91440000D03*
X66040000Y-87630000D03*
X82169000Y-95631000D03*
X71120000Y-86995000D03*
X65659000Y-84744000D03*
X65532000Y-104521000D03*
X73660000Y-85725000D03*
X70485000Y-85725000D03*
X66802000Y-104775000D03*
X67546500Y-92438500D03*
X68326000Y-98679000D03*
X66022999Y-103106999D03*
X66222998Y-97718998D03*
X74041000Y-111252000D03*
X75201001Y-109364001D03*
X73279000Y-111125000D03*
X74676000Y-109728000D03*
X72644000Y-111252000D03*
X74041000Y-109347000D03*
X72243841Y-97936159D03*
X67310000Y-108585000D03*
X72009000Y-101081650D03*
X85344000Y-107950000D03*
X84824000Y-107200000D03*
X82296000Y-109601000D03*
X82296000Y-112776000D03*
X81978500Y-109029500D03*
X81770999Y-112250999D03*
X81534000Y-108585000D03*
X78613000Y-111506000D03*
D22*
X83186040Y-84455000D02*
X83819880Y-83821160D01*
X78410000Y-84455000D02*
X83186040Y-84455000D01*
X86361160Y-83821160D02*
X86995000Y-84455000D01*
X83819880Y-83821160D02*
X86361160Y-83821160D01*
X75870000Y-81915000D02*
X78410000Y-84455000D01*
X74930000Y-81915000D02*
X75870000Y-81915000D01*
X87794999Y-91275001D02*
X86995000Y-92075000D01*
X88022001Y-91047999D02*
X87794999Y-91275001D01*
X88022001Y-85962039D02*
X88022001Y-91047999D01*
X86995000Y-84935038D02*
X88022001Y-85962039D01*
X86995000Y-84455000D02*
X86995000Y-84935038D01*
D23*
X67202002Y-107700000D02*
X68341002Y-108839000D01*
X63910000Y-107700000D02*
X67202002Y-107700000D01*
X68341002Y-108839000D02*
X72009000Y-108839000D01*
X72009000Y-108839000D02*
X72136000Y-108712000D01*
X72136000Y-108712000D02*
X72136000Y-108712000D01*
D22*
X68910000Y-96191040D02*
X68910000Y-95885000D01*
X63499880Y-101601160D02*
X68910000Y-96191040D01*
X71630001Y-82714999D02*
X72430000Y-81915000D01*
X69890000Y-84455000D02*
X71630001Y-82714999D01*
X68910000Y-84455000D02*
X69890000Y-84455000D01*
X72430000Y-83046370D02*
X72430000Y-81915000D01*
X72430000Y-92815000D02*
X72430000Y-83046370D01*
X69360000Y-95885000D02*
X72430000Y-92815000D01*
X68910000Y-95885000D02*
X69360000Y-95885000D01*
X69890000Y-84455000D02*
X70485000Y-84455000D01*
X70485000Y-84455000D02*
X72390000Y-86360000D01*
X64299879Y-102401159D02*
X67476159Y-102401159D01*
X63499880Y-101601160D02*
X64299879Y-102401159D01*
X67476159Y-102401159D02*
X68580000Y-103505000D01*
X68580000Y-103505000D02*
X68580000Y-103505000D01*
D23*
X84705000Y-108200000D02*
X86995000Y-110490000D01*
X83410000Y-108200000D02*
X84705000Y-108200000D01*
X83812009Y-101074999D02*
X83439000Y-101448008D01*
X86345000Y-99060000D02*
X84330001Y-101074999D01*
X84330001Y-101074999D02*
X83812009Y-101074999D01*
X83439000Y-101448008D02*
X83439000Y-102235000D01*
X83439000Y-102235000D02*
X83439000Y-102235000D01*
X87645000Y-99060000D02*
X87645000Y-101600000D01*
X87645000Y-104140000D02*
X87645000Y-106680000D01*
X84350000Y-102885000D02*
X87645000Y-102885000D01*
X83410000Y-103825000D02*
X84350000Y-102885000D01*
X83410000Y-104200000D02*
X83410000Y-103825000D01*
X87645000Y-101600000D02*
X87645000Y-102885000D01*
X87645000Y-102885000D02*
X87645000Y-104140000D01*
X84261000Y-104200000D02*
X83410000Y-104200000D01*
X84455000Y-104394000D02*
X84261000Y-104200000D01*
X84455000Y-105029000D02*
X84455000Y-104394000D01*
X83410000Y-105200000D02*
X84284000Y-105200000D01*
X84284000Y-105200000D02*
X84455000Y-105029000D01*
X84064010Y-101600000D02*
X85090000Y-101600000D01*
X84709000Y-101600000D02*
X85090000Y-101600000D01*
X85090000Y-101600000D02*
X86345000Y-101600000D01*
X85710000Y-103505000D02*
X86345000Y-104140000D01*
X85090000Y-103505000D02*
X85710000Y-103505000D01*
X81661000Y-103378000D02*
X81661000Y-103660842D01*
X81661000Y-103660842D02*
X81661000Y-105283000D01*
X81661000Y-105283000D02*
X81661000Y-105283000D01*
X85964000Y-106299000D02*
X86345000Y-106680000D01*
X84836000Y-106299000D02*
X85964000Y-106299000D01*
X78740000Y-98679000D02*
X78740000Y-98679000D01*
X78994000Y-96469000D02*
X78410000Y-95885000D01*
X78994000Y-97409000D02*
X78994000Y-96469000D01*
X82040840Y-93981160D02*
X83819880Y-93981160D01*
X81534000Y-97409000D02*
X81534000Y-94488000D01*
X81534000Y-94488000D02*
X82040840Y-93981160D01*
X78740000Y-97663000D02*
X78994000Y-97409000D01*
X78740000Y-106029998D02*
X78740000Y-97663000D01*
X78757001Y-106046999D02*
X78740000Y-106029998D01*
X77325999Y-107967001D02*
X78757001Y-106535999D01*
X78757001Y-106535999D02*
X78757001Y-106046999D01*
X63910000Y-106700000D02*
X69830000Y-106700000D01*
X69830000Y-106700000D02*
X69830000Y-106700000D01*
X77089000Y-107442000D02*
X78232000Y-106299000D01*
X76581000Y-107442000D02*
X77089000Y-107442000D01*
X65403720Y-90805000D02*
X68910000Y-90805000D01*
X63499880Y-88901160D02*
X65403720Y-90805000D01*
X63110000Y-109700000D02*
X63910000Y-109700000D01*
X62877178Y-109700000D02*
X63110000Y-109700000D01*
X60688999Y-107511821D02*
X62877178Y-109700000D01*
X60688999Y-90580671D02*
X60688999Y-107511821D01*
X62368510Y-88901160D02*
X60688999Y-90580671D01*
X63499880Y-88901160D02*
X62368510Y-88901160D01*
X67310000Y-89535000D02*
X68910000Y-89535000D01*
X61474861Y-103625139D02*
X61214000Y-103886000D01*
X63499880Y-91441160D02*
X61474860Y-93466180D01*
X61474860Y-93466180D02*
X61474861Y-103625139D01*
X64631250Y-91441160D02*
X64632410Y-91440000D01*
X63499880Y-91441160D02*
X64631250Y-91441160D01*
X64632410Y-91440000D02*
X67310000Y-91440000D01*
X67310000Y-91440000D02*
X67310000Y-91440000D01*
X63881000Y-104171000D02*
X63910000Y-104200000D01*
X63881000Y-103632000D02*
X63881000Y-104171000D01*
X68910000Y-88265000D02*
X67307310Y-88265000D01*
X67307310Y-88265000D02*
X66675000Y-88265000D01*
X66675000Y-88265000D02*
X66040000Y-87630000D01*
X66040000Y-87630000D02*
X66040000Y-87630000D01*
X83410000Y-104700000D02*
X82602000Y-104700000D01*
X82534999Y-104632999D02*
X82534999Y-103235999D01*
X82602000Y-104700000D02*
X82534999Y-104632999D01*
X82534999Y-103235999D02*
X82169000Y-102870000D01*
X82169000Y-102870000D02*
X82169000Y-95631000D01*
X82169000Y-95631000D02*
X82169000Y-95631000D01*
X71120000Y-86995000D02*
X68910000Y-86995000D01*
X67910000Y-86995000D02*
X65659000Y-84744000D01*
X68910000Y-86995000D02*
X67910000Y-86995000D01*
X65659000Y-84744000D02*
X65659000Y-84744000D01*
X63910000Y-104700000D02*
X64591000Y-104700000D01*
X64695000Y-104700000D02*
X64874000Y-104521000D01*
X64591000Y-104700000D02*
X64695000Y-104700000D01*
X64874000Y-104521000D02*
X65532000Y-104521000D01*
X65532000Y-104521000D02*
X65532000Y-104521000D01*
X68910000Y-85725000D02*
X70485000Y-85725000D01*
X70485000Y-85725000D02*
X70485000Y-85725000D01*
X63910000Y-105200000D02*
X64727410Y-105200000D01*
X83019881Y-90641161D02*
X83819880Y-91441160D01*
X81429039Y-89050319D02*
X83019881Y-90641161D01*
X81429039Y-87109037D02*
X81429039Y-89050319D01*
X79410002Y-85090000D02*
X81429039Y-87109037D01*
X74295000Y-85090000D02*
X79410002Y-85090000D01*
X73660000Y-85725000D02*
X74295000Y-85090000D01*
X64727410Y-105200000D02*
X66377000Y-105200000D01*
X66377000Y-105200000D02*
X66802000Y-104775000D01*
X66802000Y-104775000D02*
X66802000Y-104775000D01*
X67834999Y-88809999D02*
X67925000Y-88900000D01*
X63499880Y-86361160D02*
X65948719Y-88809999D01*
X65948719Y-88809999D02*
X67834999Y-88809999D01*
X67925000Y-88900000D02*
X69850000Y-88900000D01*
X69850000Y-88900000D02*
X70485000Y-89535000D01*
X69360000Y-92075000D02*
X68910000Y-92075000D01*
X70485000Y-90950000D02*
X69360000Y-92075000D01*
X70485000Y-89535000D02*
X70485000Y-90950000D01*
X63910000Y-105700000D02*
X64863820Y-105700000D01*
X67910000Y-92075000D02*
X67546500Y-92438500D01*
X68910000Y-92075000D02*
X67910000Y-92075000D01*
X67546500Y-92438500D02*
X67529000Y-92456000D01*
X64863820Y-105700000D02*
X69814000Y-105700000D01*
X69814000Y-105700000D02*
X70866000Y-104648000D01*
X70866000Y-104648000D02*
X70866000Y-101981000D01*
X70866000Y-101981000D02*
X68961000Y-100076000D01*
X68961000Y-99596842D02*
X68961000Y-100076000D01*
X68326000Y-98961842D02*
X68961000Y-99596842D01*
X68326000Y-98679000D02*
X68326000Y-98961842D01*
X63499880Y-93981160D02*
X66673840Y-93981160D01*
X66673840Y-93981160D02*
X67310000Y-93345000D01*
X67310000Y-93345000D02*
X68910000Y-93345000D01*
X63110000Y-109200000D02*
X63910000Y-109200000D01*
X63013588Y-109200000D02*
X63110000Y-109200000D01*
X61924870Y-108111282D02*
X63013588Y-109200000D01*
X61924869Y-95556171D02*
X61924870Y-108111282D01*
X63499880Y-93981160D02*
X61924869Y-95556171D01*
X67318719Y-87639999D02*
X69859999Y-87639999D01*
X63499880Y-83821160D02*
X67318719Y-87639999D01*
X69859999Y-87639999D02*
X71120000Y-88900000D01*
X69360000Y-94615000D02*
X68910000Y-94615000D01*
X71120000Y-92855000D02*
X69360000Y-94615000D01*
X71120000Y-88900000D02*
X71120000Y-92855000D01*
X67910000Y-94615000D02*
X67310000Y-95215000D01*
X68910000Y-94615000D02*
X67910000Y-94615000D01*
X67310000Y-95215000D02*
X67310000Y-95215000D01*
X63149998Y-107200000D02*
X62824889Y-106874891D01*
X63910000Y-107200000D02*
X63149998Y-107200000D01*
X62824889Y-106874891D02*
X62824889Y-104394000D01*
X62824889Y-104394000D02*
X62824889Y-103545111D01*
X62824889Y-103545111D02*
X63246000Y-103124000D01*
X63246000Y-103124000D02*
X63246000Y-103124000D01*
X63628999Y-103106999D02*
X66022999Y-103106999D01*
X63246000Y-103124000D02*
X63611998Y-103124000D01*
X63611998Y-103124000D02*
X63628999Y-103106999D01*
X66022999Y-103106999D02*
X66022999Y-103106999D01*
X67310000Y-96631996D02*
X66222998Y-97718998D01*
X67310000Y-95215000D02*
X67310000Y-96631996D01*
X75692000Y-95123000D02*
X76200000Y-94615000D01*
X75692000Y-108204000D02*
X75692000Y-95123000D01*
X76200000Y-94615000D02*
X78410000Y-94615000D01*
X75726002Y-108238002D02*
X75692000Y-108204000D01*
X75726002Y-109616002D02*
X75726002Y-108238002D01*
X66324360Y-110200000D02*
X66876390Y-109647970D01*
X63910000Y-110200000D02*
X66324360Y-110200000D01*
X73564968Y-109647970D02*
X74169999Y-110253001D01*
X66876390Y-109647970D02*
X73564968Y-109647970D01*
X74169999Y-110253001D02*
X75089003Y-110253001D01*
X75089003Y-110253001D02*
X75726002Y-109616002D01*
X73914000Y-110998000D02*
X73914000Y-110998000D01*
X73914000Y-111125000D02*
X74041000Y-111252000D01*
X73914000Y-110998000D02*
X73914000Y-111125000D01*
X73013980Y-110097980D02*
X73914000Y-110998000D01*
X67062790Y-110097980D02*
X73013980Y-110097980D01*
X63910000Y-110700000D02*
X66460770Y-110700000D01*
X66460770Y-110700000D02*
X67062790Y-110097980D01*
X75819000Y-93345000D02*
X78410000Y-93345000D01*
X75201001Y-109364001D02*
X75201001Y-93962999D01*
X75201001Y-93962999D02*
X75819000Y-93345000D01*
X64583001Y-111200000D02*
X64632991Y-111249990D01*
X63910000Y-111200000D02*
X64583001Y-111200000D01*
X65405600Y-111249990D02*
X65472600Y-111182990D01*
X64632991Y-111249990D02*
X65405600Y-111249990D01*
X66614190Y-111182990D02*
X67249190Y-110547990D01*
X65472600Y-111182990D02*
X66614190Y-111182990D01*
X72716992Y-110547990D02*
X73152000Y-110982998D01*
X67249190Y-110547990D02*
X72716992Y-110547990D01*
X73152000Y-110982998D02*
X73152000Y-110998000D01*
X73152000Y-110998000D02*
X73279000Y-111125000D01*
X73279000Y-111125000D02*
X73279000Y-111125000D01*
X75311000Y-92075000D02*
X78410000Y-92075000D01*
X74676000Y-109728000D02*
X74676000Y-92710000D01*
X74676000Y-92710000D02*
X75311000Y-92075000D01*
X63910000Y-111700000D02*
X65592000Y-111700000D01*
X66800590Y-111633000D02*
X67435590Y-110998000D01*
X65592000Y-111700000D02*
X65659000Y-111633000D01*
X65659000Y-111633000D02*
X66800590Y-111633000D01*
X67435590Y-110998000D02*
X72390000Y-110998000D01*
X72390000Y-110998000D02*
X72517000Y-111125000D01*
X72517000Y-111125000D02*
X72644000Y-111252000D01*
X72644000Y-111252000D02*
X72644000Y-111252000D01*
X75311000Y-90805000D02*
X78410000Y-90805000D01*
X74041000Y-109347000D02*
X74041000Y-92075000D01*
X74041000Y-92075000D02*
X75311000Y-90805000D01*
X80077000Y-111700000D02*
X83410000Y-111700000D01*
X79629000Y-111252000D02*
X80077000Y-111700000D01*
X79629000Y-89754000D02*
X79629000Y-111252000D01*
X78410000Y-89535000D02*
X79410000Y-89535000D01*
X79410000Y-89535000D02*
X79629000Y-89754000D01*
X80339000Y-111200000D02*
X83410000Y-111200000D01*
X80079010Y-110940010D02*
X80339000Y-111200000D01*
X80079010Y-89567600D02*
X80079010Y-110940010D01*
X78410000Y-88265000D02*
X78776410Y-88265000D01*
X78776410Y-88265000D02*
X80079010Y-89567600D01*
X80728000Y-110700000D02*
X83410000Y-110700000D01*
X78860000Y-86995000D02*
X79485001Y-87620001D01*
X78410000Y-86995000D02*
X78860000Y-86995000D01*
X79485001Y-87620001D02*
X79485001Y-88337181D01*
X80529020Y-89381200D02*
X80529020Y-110501020D01*
X79485001Y-88337181D02*
X80529020Y-89381200D01*
X80529020Y-110501020D02*
X80728000Y-110700000D01*
X81371000Y-110200000D02*
X83410000Y-110200000D01*
X78860000Y-85725000D02*
X80010000Y-86875000D01*
X78410000Y-85725000D02*
X78860000Y-85725000D01*
X80010000Y-86875000D02*
X80010000Y-88225770D01*
X80010000Y-88225770D02*
X80979030Y-89194800D01*
X80979030Y-89194800D02*
X80979030Y-109808030D01*
X80979030Y-109808030D02*
X81371000Y-110200000D01*
X69723000Y-99949000D02*
X69723000Y-98793038D01*
X67211000Y-106200000D02*
X67239000Y-106172000D01*
X63910000Y-106200000D02*
X67211000Y-106200000D01*
X69723000Y-98793038D02*
X70579879Y-97936159D01*
X67239000Y-106172000D02*
X70104000Y-106172000D01*
X70104000Y-106172000D02*
X71628000Y-104648000D01*
X71628000Y-104648000D02*
X71628000Y-101854000D01*
X71628000Y-101854000D02*
X69723000Y-99949000D01*
X70579879Y-97936159D02*
X72243841Y-97936159D01*
X72243841Y-97936159D02*
X72243841Y-97936159D01*
X64710000Y-108700000D02*
X64825000Y-108585000D01*
X63910000Y-108700000D02*
X64710000Y-108700000D01*
X64825000Y-108585000D02*
X67310000Y-108585000D01*
X67310000Y-108585000D02*
X67310000Y-108585000D01*
X62699881Y-99861159D02*
X63499880Y-99061160D01*
X62374879Y-100186161D02*
X62699881Y-99861159D01*
X62374879Y-107924881D02*
X62374879Y-100186161D01*
X63149998Y-108700000D02*
X62374879Y-107924881D01*
X63910000Y-108700000D02*
X63149998Y-108700000D01*
X83399999Y-113450001D02*
X82550000Y-114300000D01*
X84285001Y-112564999D02*
X83399999Y-113450001D01*
X84285001Y-109814999D02*
X84285001Y-112564999D01*
X84170002Y-109700000D02*
X84285001Y-109814999D01*
X83410000Y-109700000D02*
X84170002Y-109700000D01*
X84306412Y-109200000D02*
X84735011Y-109628599D01*
X83410000Y-109200000D02*
X84306412Y-109200000D01*
X80859999Y-115149999D02*
X80010000Y-114300000D01*
X81185001Y-115475001D02*
X80859999Y-115149999D01*
X83114001Y-115475001D02*
X81185001Y-115475001D01*
X84735009Y-113853993D02*
X83114001Y-115475001D01*
X84735011Y-109628599D02*
X84735009Y-113853993D01*
X84442820Y-108700000D02*
X85185020Y-109442200D01*
X83410000Y-108700000D02*
X84442820Y-108700000D01*
X83300401Y-115925011D02*
X79095011Y-115925011D01*
X85185020Y-109442200D02*
X85185018Y-114040394D01*
X85185018Y-114040394D02*
X83300401Y-115925011D01*
X79095011Y-115925011D02*
X77470000Y-114300000D01*
X71119880Y-100192530D02*
X72009000Y-101081650D01*
X71119880Y-99061160D02*
X71119880Y-100192530D01*
X72009000Y-101081650D02*
X72009000Y-101081650D01*
X85144001Y-107750001D02*
X85344000Y-107950000D01*
X85143990Y-107749990D02*
X85144001Y-107750001D01*
X84596988Y-107749990D02*
X85143990Y-107749990D01*
X84546998Y-107700000D02*
X84596988Y-107749990D01*
X83410000Y-107700000D02*
X84546998Y-107700000D01*
X83410000Y-107200000D02*
X84824000Y-107200000D01*
X84824000Y-107200000D02*
X84824000Y-107200000D01*
X71374000Y-112776000D02*
X69850000Y-114300000D01*
X76534000Y-112776000D02*
X71374000Y-112776000D01*
X82534999Y-106814999D02*
X82534999Y-108814999D01*
X83410000Y-106700000D02*
X82649998Y-106700000D01*
X82649998Y-106700000D02*
X82534999Y-106814999D01*
X82534999Y-108814999D02*
X82534999Y-109347000D01*
X82534999Y-109347000D02*
X82534999Y-109362001D01*
X82534999Y-109362001D02*
X82296000Y-109601000D01*
X82296000Y-109601000D02*
X82296000Y-109601000D01*
X76534000Y-112776000D02*
X82296000Y-112776000D01*
X83410000Y-106200000D02*
X82473590Y-106200000D01*
X82084990Y-106588600D02*
X82084990Y-108923010D01*
X82473590Y-106200000D02*
X82084990Y-106588600D01*
X82084990Y-108923010D02*
X81978500Y-109029500D01*
X76422591Y-112250999D02*
X81770999Y-112250999D01*
X76347600Y-112325990D02*
X76422591Y-112250999D01*
X67310000Y-114300000D02*
X69284010Y-112325990D01*
X69284010Y-112325990D02*
X76347600Y-112325990D01*
X76161200Y-111875980D02*
X67194020Y-111875980D01*
X83410000Y-105700000D02*
X82337180Y-105700000D01*
X67194020Y-111875980D02*
X64770000Y-114300000D01*
X82337180Y-105700000D02*
X81534000Y-106503180D01*
X81534000Y-106503180D02*
X81534000Y-108585000D01*
X81534000Y-108585000D02*
X81534000Y-108585000D01*
X76236191Y-111800989D02*
X76161200Y-111875980D01*
X78318011Y-111800989D02*
X76236191Y-111800989D01*
X78613000Y-111506000D02*
X78318011Y-111800989D01*
D24*
G36*
X62525177Y-110019043D02*
G01*
X62540033Y-110037145D01*
X62612285Y-110096441D01*
X62694716Y-110140501D01*
X62784160Y-110167634D01*
X62853875Y-110174500D01*
X62853884Y-110174500D01*
X62877177Y-110176794D01*
X62900470Y-110174500D01*
X63008809Y-110174500D01*
X63008809Y-110325000D01*
X63015557Y-110393514D01*
X63032692Y-110450000D01*
X63015557Y-110506486D01*
X63008809Y-110575000D01*
X63008809Y-110825000D01*
X63015557Y-110893514D01*
X63032692Y-110950000D01*
X63015557Y-111006486D01*
X63008809Y-111075000D01*
X63008809Y-111325000D01*
X63015557Y-111393514D01*
X63032692Y-111450000D01*
X63015557Y-111506486D01*
X63008809Y-111575000D01*
X63008809Y-111825000D01*
X63015557Y-111893514D01*
X63035542Y-111959395D01*
X63067995Y-112020111D01*
X63111670Y-112073330D01*
X63164889Y-112117005D01*
X63225605Y-112149458D01*
X63291486Y-112169443D01*
X63360000Y-112176191D01*
X64460000Y-112176191D01*
X64477169Y-112174500D01*
X65568700Y-112174500D01*
X65592000Y-112176795D01*
X65615300Y-112174500D01*
X65615303Y-112174500D01*
X65685018Y-112167634D01*
X65774462Y-112140501D01*
X65836203Y-112107500D01*
X66291456Y-112107500D01*
X65300148Y-113098809D01*
X63920000Y-113098809D01*
X63851486Y-113105557D01*
X63785605Y-113125542D01*
X63724889Y-113157995D01*
X63671670Y-113201670D01*
X63627995Y-113254889D01*
X63595542Y-113315605D01*
X63575557Y-113381486D01*
X63568809Y-113450000D01*
X63568809Y-115150000D01*
X63575557Y-115218514D01*
X63595542Y-115284395D01*
X63627995Y-115345111D01*
X63671670Y-115398330D01*
X63724889Y-115442005D01*
X63785605Y-115474458D01*
X63851486Y-115494443D01*
X63920000Y-115501191D01*
X65620000Y-115501191D01*
X65688514Y-115494443D01*
X65754395Y-115474458D01*
X65815111Y-115442005D01*
X65868330Y-115398330D01*
X65912005Y-115345111D01*
X65944458Y-115284395D01*
X65964443Y-115218514D01*
X65971191Y-115150000D01*
X65971191Y-113769852D01*
X67390564Y-112350480D01*
X68588475Y-112350480D01*
X67756872Y-113182084D01*
X67545143Y-113117857D01*
X67368918Y-113100500D01*
X67251082Y-113100500D01*
X67074857Y-113117857D01*
X66848751Y-113186445D01*
X66640370Y-113297827D01*
X66457722Y-113447722D01*
X66307827Y-113630370D01*
X66196445Y-113838751D01*
X66127857Y-114064857D01*
X66104697Y-114300000D01*
X66127857Y-114535143D01*
X66196445Y-114761249D01*
X66307827Y-114969630D01*
X66457722Y-115152278D01*
X66640370Y-115302173D01*
X66848751Y-115413555D01*
X67074857Y-115482143D01*
X67251082Y-115499500D01*
X67368918Y-115499500D01*
X67545143Y-115482143D01*
X67771249Y-115413555D01*
X67979630Y-115302173D01*
X68162278Y-115152278D01*
X68312173Y-114969630D01*
X68423555Y-114761249D01*
X68492143Y-114535143D01*
X68515303Y-114300000D01*
X68492143Y-114064857D01*
X68427916Y-113853128D01*
X69480555Y-112800490D01*
X70678466Y-112800490D01*
X70296873Y-113182084D01*
X70085143Y-113117857D01*
X69908918Y-113100500D01*
X69791082Y-113100500D01*
X69614857Y-113117857D01*
X69388751Y-113186445D01*
X69180370Y-113297827D01*
X68997722Y-113447722D01*
X68847827Y-113630370D01*
X68736445Y-113838751D01*
X68667857Y-114064857D01*
X68644697Y-114300000D01*
X68667857Y-114535143D01*
X68736445Y-114761249D01*
X68847827Y-114969630D01*
X68997722Y-115152278D01*
X69180370Y-115302173D01*
X69388751Y-115413555D01*
X69614857Y-115482143D01*
X69791082Y-115499500D01*
X69908918Y-115499500D01*
X70085143Y-115482143D01*
X70311249Y-115413555D01*
X70519630Y-115302173D01*
X70702278Y-115152278D01*
X70852173Y-114969630D01*
X70963555Y-114761249D01*
X71032143Y-114535143D01*
X71055303Y-114300000D01*
X71032143Y-114064857D01*
X70967916Y-113853127D01*
X71570544Y-113250500D01*
X72521597Y-113250500D01*
X72517995Y-113254889D01*
X72485542Y-113315605D01*
X72465557Y-113381486D01*
X72458809Y-113450000D01*
X72458809Y-115150000D01*
X72465557Y-115218514D01*
X72485542Y-115284395D01*
X72517995Y-115345111D01*
X72561670Y-115398330D01*
X72614889Y-115442005D01*
X72675605Y-115474458D01*
X72741486Y-115494443D01*
X72810000Y-115501191D01*
X74510000Y-115501191D01*
X74578514Y-115494443D01*
X74644395Y-115474458D01*
X74705111Y-115442005D01*
X74758330Y-115398330D01*
X74802005Y-115345111D01*
X74834458Y-115284395D01*
X74854443Y-115218514D01*
X74861191Y-115150000D01*
X74861191Y-113450000D01*
X74854443Y-113381486D01*
X74834458Y-113315605D01*
X74802005Y-113254889D01*
X74798403Y-113250500D01*
X76331597Y-113250500D01*
X76327995Y-113254889D01*
X76295542Y-113315605D01*
X76275557Y-113381486D01*
X76268809Y-113450000D01*
X76268809Y-115150000D01*
X76275557Y-115218514D01*
X76295542Y-115284395D01*
X76327995Y-115345111D01*
X76371670Y-115398330D01*
X76424889Y-115442005D01*
X76485605Y-115474458D01*
X76551486Y-115494443D01*
X76620000Y-115501191D01*
X78000147Y-115501191D01*
X78329456Y-115830500D01*
X60699500Y-115830500D01*
X60699500Y-108193365D01*
X62525177Y-110019043D01*
X62525177Y-110019043D01*
G37*
X62525177Y-110019043D02*
X62540033Y-110037145D01*
X62612285Y-110096441D01*
X62694716Y-110140501D01*
X62784160Y-110167634D01*
X62853875Y-110174500D01*
X62853884Y-110174500D01*
X62877177Y-110176794D01*
X62900470Y-110174500D01*
X63008809Y-110174500D01*
X63008809Y-110325000D01*
X63015557Y-110393514D01*
X63032692Y-110450000D01*
X63015557Y-110506486D01*
X63008809Y-110575000D01*
X63008809Y-110825000D01*
X63015557Y-110893514D01*
X63032692Y-110950000D01*
X63015557Y-111006486D01*
X63008809Y-111075000D01*
X63008809Y-111325000D01*
X63015557Y-111393514D01*
X63032692Y-111450000D01*
X63015557Y-111506486D01*
X63008809Y-111575000D01*
X63008809Y-111825000D01*
X63015557Y-111893514D01*
X63035542Y-111959395D01*
X63067995Y-112020111D01*
X63111670Y-112073330D01*
X63164889Y-112117005D01*
X63225605Y-112149458D01*
X63291486Y-112169443D01*
X63360000Y-112176191D01*
X64460000Y-112176191D01*
X64477169Y-112174500D01*
X65568700Y-112174500D01*
X65592000Y-112176795D01*
X65615300Y-112174500D01*
X65615303Y-112174500D01*
X65685018Y-112167634D01*
X65774462Y-112140501D01*
X65836203Y-112107500D01*
X66291456Y-112107500D01*
X65300148Y-113098809D01*
X63920000Y-113098809D01*
X63851486Y-113105557D01*
X63785605Y-113125542D01*
X63724889Y-113157995D01*
X63671670Y-113201670D01*
X63627995Y-113254889D01*
X63595542Y-113315605D01*
X63575557Y-113381486D01*
X63568809Y-113450000D01*
X63568809Y-115150000D01*
X63575557Y-115218514D01*
X63595542Y-115284395D01*
X63627995Y-115345111D01*
X63671670Y-115398330D01*
X63724889Y-115442005D01*
X63785605Y-115474458D01*
X63851486Y-115494443D01*
X63920000Y-115501191D01*
X65620000Y-115501191D01*
X65688514Y-115494443D01*
X65754395Y-115474458D01*
X65815111Y-115442005D01*
X65868330Y-115398330D01*
X65912005Y-115345111D01*
X65944458Y-115284395D01*
X65964443Y-115218514D01*
X65971191Y-115150000D01*
X65971191Y-113769852D01*
X67390564Y-112350480D01*
X68588475Y-112350480D01*
X67756872Y-113182084D01*
X67545143Y-113117857D01*
X67368918Y-113100500D01*
X67251082Y-113100500D01*
X67074857Y-113117857D01*
X66848751Y-113186445D01*
X66640370Y-113297827D01*
X66457722Y-113447722D01*
X66307827Y-113630370D01*
X66196445Y-113838751D01*
X66127857Y-114064857D01*
X66104697Y-114300000D01*
X66127857Y-114535143D01*
X66196445Y-114761249D01*
X66307827Y-114969630D01*
X66457722Y-115152278D01*
X66640370Y-115302173D01*
X66848751Y-115413555D01*
X67074857Y-115482143D01*
X67251082Y-115499500D01*
X67368918Y-115499500D01*
X67545143Y-115482143D01*
X67771249Y-115413555D01*
X67979630Y-115302173D01*
X68162278Y-115152278D01*
X68312173Y-114969630D01*
X68423555Y-114761249D01*
X68492143Y-114535143D01*
X68515303Y-114300000D01*
X68492143Y-114064857D01*
X68427916Y-113853128D01*
X69480555Y-112800490D01*
X70678466Y-112800490D01*
X70296873Y-113182084D01*
X70085143Y-113117857D01*
X69908918Y-113100500D01*
X69791082Y-113100500D01*
X69614857Y-113117857D01*
X69388751Y-113186445D01*
X69180370Y-113297827D01*
X68997722Y-113447722D01*
X68847827Y-113630370D01*
X68736445Y-113838751D01*
X68667857Y-114064857D01*
X68644697Y-114300000D01*
X68667857Y-114535143D01*
X68736445Y-114761249D01*
X68847827Y-114969630D01*
X68997722Y-115152278D01*
X69180370Y-115302173D01*
X69388751Y-115413555D01*
X69614857Y-115482143D01*
X69791082Y-115499500D01*
X69908918Y-115499500D01*
X70085143Y-115482143D01*
X70311249Y-115413555D01*
X70519630Y-115302173D01*
X70702278Y-115152278D01*
X70852173Y-114969630D01*
X70963555Y-114761249D01*
X71032143Y-114535143D01*
X71055303Y-114300000D01*
X71032143Y-114064857D01*
X70967916Y-113853127D01*
X71570544Y-113250500D01*
X72521597Y-113250500D01*
X72517995Y-113254889D01*
X72485542Y-113315605D01*
X72465557Y-113381486D01*
X72458809Y-113450000D01*
X72458809Y-115150000D01*
X72465557Y-115218514D01*
X72485542Y-115284395D01*
X72517995Y-115345111D01*
X72561670Y-115398330D01*
X72614889Y-115442005D01*
X72675605Y-115474458D01*
X72741486Y-115494443D01*
X72810000Y-115501191D01*
X74510000Y-115501191D01*
X74578514Y-115494443D01*
X74644395Y-115474458D01*
X74705111Y-115442005D01*
X74758330Y-115398330D01*
X74802005Y-115345111D01*
X74834458Y-115284395D01*
X74854443Y-115218514D01*
X74861191Y-115150000D01*
X74861191Y-113450000D01*
X74854443Y-113381486D01*
X74834458Y-113315605D01*
X74802005Y-113254889D01*
X74798403Y-113250500D01*
X76331597Y-113250500D01*
X76327995Y-113254889D01*
X76295542Y-113315605D01*
X76275557Y-113381486D01*
X76268809Y-113450000D01*
X76268809Y-115150000D01*
X76275557Y-115218514D01*
X76295542Y-115284395D01*
X76327995Y-115345111D01*
X76371670Y-115398330D01*
X76424889Y-115442005D01*
X76485605Y-115474458D01*
X76551486Y-115494443D01*
X76620000Y-115501191D01*
X78000147Y-115501191D01*
X78329456Y-115830500D01*
X60699500Y-115830500D01*
X60699500Y-108193365D01*
X62525177Y-110019043D01*
G36*
X90176501Y-115830500D02*
G01*
X84065955Y-115830500D01*
X85504065Y-114392391D01*
X85522162Y-114377539D01*
X85537013Y-114359443D01*
X85537017Y-114359439D01*
X85581458Y-114305288D01*
X85625519Y-114222856D01*
X85652651Y-114133413D01*
X85661813Y-114040394D01*
X85659517Y-114017084D01*
X85659517Y-112876784D01*
X85845500Y-112876784D01*
X85845500Y-113103216D01*
X85889675Y-113325297D01*
X85976326Y-113534492D01*
X86102125Y-113722764D01*
X86262236Y-113882875D01*
X86450508Y-114008674D01*
X86659703Y-114095325D01*
X86881784Y-114139500D01*
X87108216Y-114139500D01*
X87330297Y-114095325D01*
X87539492Y-114008674D01*
X87727764Y-113882875D01*
X87887875Y-113722764D01*
X88013674Y-113534492D01*
X88100325Y-113325297D01*
X88144500Y-113103216D01*
X88144500Y-112876784D01*
X88100325Y-112654703D01*
X88013674Y-112445508D01*
X87887875Y-112257236D01*
X87727764Y-112097125D01*
X87539492Y-111971326D01*
X87330297Y-111884675D01*
X87315399Y-111881712D01*
X87353692Y-111875724D01*
X87617142Y-111779120D01*
X87721221Y-111723487D01*
X87794267Y-111483721D01*
X86995000Y-110684454D01*
X86195733Y-111483721D01*
X86268779Y-111723487D01*
X86523374Y-111841465D01*
X86682820Y-111880077D01*
X86659703Y-111884675D01*
X86450508Y-111971326D01*
X86262236Y-112097125D01*
X86102125Y-112257236D01*
X85976326Y-112445508D01*
X85889675Y-112654703D01*
X85845500Y-112876784D01*
X85659517Y-112876784D01*
X85659519Y-110985710D01*
X85705880Y-111112142D01*
X85761513Y-111216221D01*
X86001279Y-111289267D01*
X86800546Y-110490000D01*
X87189454Y-110490000D01*
X87988721Y-111289267D01*
X88228487Y-111216221D01*
X88346465Y-110961626D01*
X88412507Y-110688906D01*
X88424074Y-110408541D01*
X88380724Y-110131308D01*
X88284120Y-109867858D01*
X88228487Y-109763779D01*
X87988721Y-109690733D01*
X87189454Y-110490000D01*
X86800546Y-110490000D01*
X86001279Y-109690733D01*
X85761513Y-109763779D01*
X85659520Y-109983879D01*
X85659520Y-109496279D01*
X86195733Y-109496279D01*
X86995000Y-110295546D01*
X87794267Y-109496279D01*
X87721221Y-109256513D01*
X87466626Y-109138535D01*
X87193906Y-109072493D01*
X86913541Y-109060926D01*
X86636308Y-109104276D01*
X86372858Y-109200880D01*
X86268779Y-109256513D01*
X86195733Y-109496279D01*
X85659520Y-109496279D01*
X85659520Y-109465492D01*
X85661814Y-109442199D01*
X85659520Y-109418906D01*
X85659520Y-109418898D01*
X85652654Y-109349183D01*
X85631516Y-109279501D01*
X85625521Y-109259738D01*
X85581460Y-109177306D01*
X85537019Y-109123155D01*
X85537016Y-109123152D01*
X85522165Y-109105056D01*
X85504068Y-109090204D01*
X84794825Y-108380962D01*
X84779965Y-108362855D01*
X84707713Y-108303559D01*
X84625282Y-108259499D01*
X84584500Y-108247128D01*
X84584500Y-108225555D01*
X84596988Y-108226785D01*
X84620291Y-108224490D01*
X84866530Y-108224490D01*
X84917175Y-108300286D01*
X84993714Y-108376825D01*
X85083714Y-108436961D01*
X85183717Y-108478383D01*
X85289879Y-108499500D01*
X85398121Y-108499500D01*
X85504283Y-108478383D01*
X85604286Y-108436961D01*
X85694286Y-108376825D01*
X85770825Y-108300286D01*
X85830961Y-108210286D01*
X85872383Y-108110283D01*
X85893500Y-108004121D01*
X85893500Y-107895879D01*
X85872383Y-107789717D01*
X85830961Y-107689714D01*
X85770825Y-107599714D01*
X85694286Y-107523175D01*
X85604286Y-107463039D01*
X85504283Y-107421617D01*
X85485223Y-107417826D01*
X85481135Y-107412845D01*
X85408883Y-107353549D01*
X85359024Y-107326899D01*
X85373500Y-107254121D01*
X85373500Y-107145879D01*
X85352383Y-107039717D01*
X85310961Y-106939714D01*
X85250825Y-106849714D01*
X85174611Y-106773500D01*
X85493809Y-106773500D01*
X85493809Y-106930000D01*
X85496217Y-106954449D01*
X85496217Y-106979009D01*
X85502965Y-107047523D01*
X85522087Y-107143656D01*
X85542071Y-107209535D01*
X85579580Y-107300091D01*
X85612035Y-107360810D01*
X85666491Y-107442309D01*
X85710165Y-107495527D01*
X85779473Y-107564835D01*
X85832691Y-107608509D01*
X85914190Y-107662965D01*
X85974909Y-107695420D01*
X86065465Y-107732929D01*
X86131344Y-107752913D01*
X86227477Y-107772035D01*
X86295991Y-107778783D01*
X86320551Y-107778783D01*
X86345000Y-107781191D01*
X86845000Y-107781191D01*
X86913514Y-107774443D01*
X86979395Y-107754458D01*
X86995000Y-107746117D01*
X87010605Y-107754458D01*
X87076486Y-107774443D01*
X87145000Y-107781191D01*
X87645000Y-107781191D01*
X87669449Y-107778783D01*
X87694009Y-107778783D01*
X87762523Y-107772035D01*
X87858656Y-107752913D01*
X87924535Y-107732929D01*
X88015091Y-107695420D01*
X88075810Y-107662965D01*
X88157309Y-107608509D01*
X88210527Y-107564835D01*
X88279835Y-107495527D01*
X88323509Y-107442309D01*
X88377965Y-107360810D01*
X88410420Y-107300091D01*
X88447929Y-107209535D01*
X88467913Y-107143656D01*
X88487035Y-107047523D01*
X88493783Y-106979009D01*
X88493783Y-106954449D01*
X88496191Y-106930000D01*
X88496191Y-106430000D01*
X88493783Y-106405551D01*
X88493783Y-106380991D01*
X88487035Y-106312477D01*
X88467913Y-106216344D01*
X88447929Y-106150465D01*
X88410420Y-106059909D01*
X88377965Y-105999190D01*
X88323509Y-105917691D01*
X88279835Y-105864473D01*
X88210527Y-105795165D01*
X88157309Y-105751491D01*
X88119500Y-105726228D01*
X88119500Y-105093772D01*
X88157309Y-105068509D01*
X88210527Y-105024835D01*
X88279835Y-104955527D01*
X88323509Y-104902309D01*
X88377965Y-104820810D01*
X88410420Y-104760091D01*
X88447929Y-104669535D01*
X88467913Y-104603656D01*
X88487035Y-104507523D01*
X88493783Y-104439009D01*
X88493783Y-104414449D01*
X88496191Y-104390000D01*
X88496191Y-103890000D01*
X88493783Y-103865551D01*
X88493783Y-103840991D01*
X88487035Y-103772477D01*
X88467913Y-103676344D01*
X88447929Y-103610465D01*
X88410420Y-103519909D01*
X88377965Y-103459190D01*
X88323509Y-103377691D01*
X88279835Y-103324473D01*
X88210527Y-103255165D01*
X88157309Y-103211491D01*
X88119500Y-103186228D01*
X88119500Y-102908303D01*
X88121795Y-102885000D01*
X88119500Y-102861697D01*
X88119500Y-102553772D01*
X88157309Y-102528509D01*
X88210527Y-102484835D01*
X88279835Y-102415527D01*
X88323509Y-102362309D01*
X88377965Y-102280810D01*
X88410420Y-102220091D01*
X88447929Y-102129535D01*
X88467913Y-102063656D01*
X88487035Y-101967523D01*
X88493783Y-101899009D01*
X88493783Y-101874449D01*
X88496191Y-101850000D01*
X88496191Y-101350000D01*
X88493783Y-101325551D01*
X88493783Y-101300991D01*
X88487035Y-101232477D01*
X88467913Y-101136344D01*
X88447929Y-101070465D01*
X88410420Y-100979909D01*
X88377965Y-100919190D01*
X88323509Y-100837691D01*
X88279835Y-100784473D01*
X88210527Y-100715165D01*
X88157309Y-100671491D01*
X88119500Y-100646228D01*
X88119500Y-100013772D01*
X88157309Y-99988509D01*
X88210527Y-99944835D01*
X88279835Y-99875527D01*
X88323509Y-99822309D01*
X88377965Y-99740810D01*
X88410420Y-99680091D01*
X88447929Y-99589535D01*
X88467913Y-99523656D01*
X88487035Y-99427523D01*
X88493783Y-99359009D01*
X88493783Y-99334449D01*
X88496191Y-99310000D01*
X88496191Y-98810000D01*
X88493783Y-98785551D01*
X88493783Y-98760991D01*
X88487035Y-98692477D01*
X88467913Y-98596344D01*
X88447929Y-98530465D01*
X88410420Y-98439909D01*
X88377965Y-98379190D01*
X88323509Y-98297691D01*
X88279835Y-98244473D01*
X88210527Y-98175165D01*
X88157309Y-98131491D01*
X88075810Y-98077035D01*
X88015091Y-98044580D01*
X87924535Y-98007071D01*
X87858656Y-97987087D01*
X87762523Y-97967965D01*
X87694009Y-97961217D01*
X87669449Y-97961217D01*
X87645000Y-97958809D01*
X87145000Y-97958809D01*
X87076486Y-97965557D01*
X87010605Y-97985542D01*
X86995000Y-97993883D01*
X86979395Y-97985542D01*
X86913514Y-97965557D01*
X86845000Y-97958809D01*
X86345000Y-97958809D01*
X86320551Y-97961217D01*
X86295991Y-97961217D01*
X86227477Y-97967965D01*
X86131344Y-97987087D01*
X86065465Y-98007071D01*
X85974909Y-98044580D01*
X85914190Y-98077035D01*
X85832691Y-98131491D01*
X85779473Y-98175165D01*
X85710165Y-98244473D01*
X85666491Y-98297691D01*
X85612035Y-98379190D01*
X85579580Y-98439909D01*
X85542071Y-98530465D01*
X85522087Y-98596344D01*
X85502965Y-98692477D01*
X85496217Y-98760991D01*
X85496217Y-98785551D01*
X85493809Y-98810000D01*
X85493809Y-99240147D01*
X84133458Y-100600499D01*
X83835301Y-100600499D01*
X83812008Y-100598205D01*
X83788715Y-100600499D01*
X83788706Y-100600499D01*
X83718991Y-100607365D01*
X83629547Y-100634498D01*
X83547116Y-100678558D01*
X83474864Y-100737854D01*
X83460009Y-100755955D01*
X83119962Y-101096003D01*
X83101855Y-101110863D01*
X83042559Y-101183115D01*
X82998499Y-101265547D01*
X82971366Y-101354991D01*
X82965737Y-101412144D01*
X82962205Y-101448008D01*
X82964500Y-101471309D01*
X82964501Y-101956064D01*
X82952039Y-101974714D01*
X82910617Y-102074717D01*
X82889500Y-102180879D01*
X82889500Y-102289121D01*
X82910617Y-102395283D01*
X82952039Y-102495286D01*
X83012175Y-102585286D01*
X83088714Y-102661825D01*
X83178714Y-102721961D01*
X83278717Y-102763383D01*
X83384879Y-102784500D01*
X83493121Y-102784500D01*
X83599283Y-102763383D01*
X83699286Y-102721961D01*
X83789286Y-102661825D01*
X83865825Y-102585286D01*
X83925961Y-102495286D01*
X83967383Y-102395283D01*
X83988500Y-102289121D01*
X83988500Y-102180879D01*
X83981120Y-102143777D01*
X84009889Y-102149500D01*
X84118131Y-102149500D01*
X84224293Y-102128383D01*
X84324296Y-102086961D01*
X84342945Y-102074500D01*
X85525376Y-102074500D01*
X85542071Y-102129535D01*
X85579580Y-102220091D01*
X85612035Y-102280810D01*
X85666491Y-102362309D01*
X85706040Y-102410500D01*
X84373300Y-102410500D01*
X84350000Y-102408205D01*
X84326700Y-102410500D01*
X84326697Y-102410500D01*
X84256982Y-102417366D01*
X84167538Y-102444499D01*
X84142663Y-102457795D01*
X84085106Y-102488559D01*
X84030955Y-102533000D01*
X84030951Y-102533004D01*
X84012855Y-102547855D01*
X83998003Y-102565952D01*
X83090958Y-103472999D01*
X83072856Y-103487855D01*
X83058001Y-103505956D01*
X83013560Y-103560107D01*
X83009499Y-103567705D01*
X83009499Y-103259299D01*
X83011794Y-103235999D01*
X83007745Y-103194889D01*
X83002633Y-103142981D01*
X82975500Y-103053537D01*
X82931440Y-102971105D01*
X82886999Y-102916954D01*
X82886995Y-102916950D01*
X82872144Y-102898854D01*
X82854047Y-102884002D01*
X82643500Y-102673456D01*
X82643500Y-99061160D01*
X82664819Y-99061160D01*
X82687013Y-99286501D01*
X82752743Y-99503183D01*
X82859482Y-99702878D01*
X83003129Y-99877911D01*
X83178162Y-100021558D01*
X83377857Y-100128297D01*
X83594539Y-100194027D01*
X83763418Y-100210660D01*
X83876342Y-100210660D01*
X84045221Y-100194027D01*
X84261903Y-100128297D01*
X84461598Y-100021558D01*
X84636631Y-99877911D01*
X84780278Y-99702878D01*
X84887017Y-99503183D01*
X84952747Y-99286501D01*
X84974941Y-99061160D01*
X84952747Y-98835819D01*
X84887017Y-98619137D01*
X84780278Y-98419442D01*
X84636631Y-98244409D01*
X84461598Y-98100762D01*
X84261903Y-97994023D01*
X84045221Y-97928293D01*
X83876342Y-97911660D01*
X83763418Y-97911660D01*
X83594539Y-97928293D01*
X83377857Y-97994023D01*
X83178162Y-98100762D01*
X83003129Y-98244409D01*
X82859482Y-98419442D01*
X82752743Y-98619137D01*
X82687013Y-98835819D01*
X82664819Y-99061160D01*
X82643500Y-99061160D01*
X82643500Y-96521160D01*
X82664819Y-96521160D01*
X82687013Y-96746501D01*
X82752743Y-96963183D01*
X82859482Y-97162878D01*
X83003129Y-97337911D01*
X83178162Y-97481558D01*
X83377857Y-97588297D01*
X83594539Y-97654027D01*
X83763418Y-97670660D01*
X83876342Y-97670660D01*
X84045221Y-97654027D01*
X84261903Y-97588297D01*
X84461598Y-97481558D01*
X84636631Y-97337911D01*
X84780278Y-97162878D01*
X84887017Y-96963183D01*
X84952747Y-96746501D01*
X84974941Y-96521160D01*
X84952747Y-96295819D01*
X84887017Y-96079137D01*
X84780278Y-95879442D01*
X84636631Y-95704409D01*
X84471296Y-95568721D01*
X86195733Y-95568721D01*
X86268779Y-95808487D01*
X86523374Y-95926465D01*
X86796094Y-95992507D01*
X87076459Y-96004074D01*
X87353692Y-95960724D01*
X87617142Y-95864120D01*
X87721221Y-95808487D01*
X87794267Y-95568721D01*
X86995000Y-94769454D01*
X86195733Y-95568721D01*
X84471296Y-95568721D01*
X84461598Y-95560762D01*
X84261903Y-95454023D01*
X84045221Y-95388293D01*
X83876342Y-95371660D01*
X83763418Y-95371660D01*
X83594539Y-95388293D01*
X83377857Y-95454023D01*
X83178162Y-95560762D01*
X83003129Y-95704409D01*
X82859482Y-95879442D01*
X82752743Y-96079137D01*
X82687013Y-96295819D01*
X82664819Y-96521160D01*
X82643500Y-96521160D01*
X82643500Y-95909935D01*
X82655961Y-95891286D01*
X82697383Y-95791283D01*
X82718500Y-95685121D01*
X82718500Y-95576879D01*
X82697383Y-95470717D01*
X82655961Y-95370714D01*
X82595825Y-95280714D01*
X82519286Y-95204175D01*
X82429286Y-95144039D01*
X82329283Y-95102617D01*
X82223121Y-95081500D01*
X82114879Y-95081500D01*
X82008717Y-95102617D01*
X82008500Y-95102707D01*
X82008500Y-94684543D01*
X82237384Y-94455660D01*
X82770102Y-94455660D01*
X82859482Y-94622878D01*
X83003129Y-94797911D01*
X83178162Y-94941558D01*
X83377857Y-95048297D01*
X83594539Y-95114027D01*
X83763418Y-95130660D01*
X83876342Y-95130660D01*
X84045221Y-95114027D01*
X84261903Y-95048297D01*
X84461598Y-94941558D01*
X84636631Y-94797911D01*
X84752718Y-94656459D01*
X85565926Y-94656459D01*
X85609276Y-94933692D01*
X85705880Y-95197142D01*
X85761513Y-95301221D01*
X86001279Y-95374267D01*
X86800546Y-94575000D01*
X87189454Y-94575000D01*
X87988721Y-95374267D01*
X88228487Y-95301221D01*
X88346465Y-95046626D01*
X88412507Y-94773906D01*
X88424074Y-94493541D01*
X88380724Y-94216308D01*
X88284120Y-93952858D01*
X88228487Y-93848779D01*
X87988721Y-93775733D01*
X87189454Y-94575000D01*
X86800546Y-94575000D01*
X86001279Y-93775733D01*
X85761513Y-93848779D01*
X85643535Y-94103374D01*
X85577493Y-94376094D01*
X85565926Y-94656459D01*
X84752718Y-94656459D01*
X84780278Y-94622878D01*
X84887017Y-94423183D01*
X84952747Y-94206501D01*
X84974941Y-93981160D01*
X84952747Y-93755819D01*
X84887017Y-93539137D01*
X84780278Y-93339442D01*
X84636631Y-93164409D01*
X84461598Y-93020762D01*
X84261903Y-92914023D01*
X84045221Y-92848293D01*
X83876342Y-92831660D01*
X83763418Y-92831660D01*
X83594539Y-92848293D01*
X83377857Y-92914023D01*
X83178162Y-93020762D01*
X83003129Y-93164409D01*
X82859482Y-93339442D01*
X82770102Y-93506660D01*
X82064139Y-93506660D01*
X82040839Y-93504365D01*
X82017539Y-93506660D01*
X82017537Y-93506660D01*
X81947822Y-93513526D01*
X81858378Y-93540659D01*
X81775947Y-93584719D01*
X81703695Y-93644015D01*
X81688840Y-93662116D01*
X81453530Y-93897426D01*
X81453530Y-89745853D01*
X82700836Y-90993160D01*
X82700841Y-90993164D01*
X82742053Y-91034376D01*
X82687013Y-91215819D01*
X82664819Y-91441160D01*
X82687013Y-91666501D01*
X82752743Y-91883183D01*
X82859482Y-92082878D01*
X83003129Y-92257911D01*
X83178162Y-92401558D01*
X83377857Y-92508297D01*
X83594539Y-92574027D01*
X83763418Y-92590660D01*
X83876342Y-92590660D01*
X84045221Y-92574027D01*
X84261903Y-92508297D01*
X84461598Y-92401558D01*
X84636631Y-92257911D01*
X84780278Y-92082878D01*
X84887017Y-91883183D01*
X84952747Y-91666501D01*
X84974941Y-91441160D01*
X84952747Y-91215819D01*
X84887017Y-90999137D01*
X84780278Y-90799442D01*
X84636631Y-90624409D01*
X84461598Y-90480762D01*
X84261903Y-90374023D01*
X84045221Y-90308293D01*
X83876342Y-90291660D01*
X83763418Y-90291660D01*
X83594539Y-90308293D01*
X83413096Y-90363333D01*
X83371884Y-90322121D01*
X83371880Y-90322116D01*
X81950924Y-88901160D01*
X82664819Y-88901160D01*
X82687013Y-89126501D01*
X82752743Y-89343183D01*
X82859482Y-89542878D01*
X83003129Y-89717911D01*
X83178162Y-89861558D01*
X83377857Y-89968297D01*
X83594539Y-90034027D01*
X83763418Y-90050660D01*
X83876342Y-90050660D01*
X84045221Y-90034027D01*
X84261903Y-89968297D01*
X84461598Y-89861558D01*
X84636631Y-89717911D01*
X84780278Y-89542878D01*
X84887017Y-89343183D01*
X84952747Y-89126501D01*
X84974941Y-88901160D01*
X84952747Y-88675819D01*
X84887017Y-88459137D01*
X84780278Y-88259442D01*
X84636631Y-88084409D01*
X84461598Y-87940762D01*
X84261903Y-87834023D01*
X84045221Y-87768293D01*
X83876342Y-87751660D01*
X83763418Y-87751660D01*
X83594539Y-87768293D01*
X83377857Y-87834023D01*
X83178162Y-87940762D01*
X83003129Y-88084409D01*
X82859482Y-88259442D01*
X82752743Y-88459137D01*
X82687013Y-88675819D01*
X82664819Y-88901160D01*
X81950924Y-88901160D01*
X81903539Y-88853776D01*
X81903539Y-87132340D01*
X81905834Y-87109037D01*
X81896673Y-87016018D01*
X81869540Y-86926576D01*
X81869540Y-86926575D01*
X81829518Y-86851698D01*
X81825480Y-86844143D01*
X81781039Y-86789992D01*
X81781035Y-86789988D01*
X81766184Y-86771892D01*
X81748087Y-86757040D01*
X81352207Y-86361160D01*
X82664819Y-86361160D01*
X82687013Y-86586501D01*
X82752743Y-86803183D01*
X82859482Y-87002878D01*
X83003129Y-87177911D01*
X83178162Y-87321558D01*
X83377857Y-87428297D01*
X83594539Y-87494027D01*
X83763418Y-87510660D01*
X83876342Y-87510660D01*
X84045221Y-87494027D01*
X84261903Y-87428297D01*
X84461598Y-87321558D01*
X84636631Y-87177911D01*
X84780278Y-87002878D01*
X84887017Y-86803183D01*
X84952747Y-86586501D01*
X84956894Y-86544390D01*
X85767825Y-86544390D01*
X85808845Y-86782083D01*
X85895447Y-87007206D01*
X85924980Y-87062456D01*
X86144376Y-87111170D01*
X86800546Y-86455000D01*
X86144376Y-85798830D01*
X85924980Y-85847544D01*
X85827031Y-86067967D01*
X85773966Y-86303263D01*
X85767825Y-86544390D01*
X84956894Y-86544390D01*
X84974941Y-86361160D01*
X84952747Y-86135819D01*
X84887017Y-85919137D01*
X84780278Y-85719442D01*
X84636631Y-85544409D01*
X84461598Y-85400762D01*
X84261903Y-85294023D01*
X84045221Y-85228293D01*
X83876342Y-85211660D01*
X83763418Y-85211660D01*
X83594539Y-85228293D01*
X83377857Y-85294023D01*
X83178162Y-85400762D01*
X83003129Y-85544409D01*
X82859482Y-85719442D01*
X82752743Y-85919137D01*
X82687013Y-86135819D01*
X82664819Y-86361160D01*
X81352207Y-86361160D01*
X80022545Y-85031500D01*
X83157731Y-85031500D01*
X83186040Y-85034288D01*
X83214349Y-85031500D01*
X83214357Y-85031500D01*
X83299054Y-85023158D01*
X83407724Y-84990193D01*
X83507876Y-84936661D01*
X83515814Y-84930146D01*
X83594539Y-84954027D01*
X83763418Y-84970660D01*
X83876342Y-84970660D01*
X84045221Y-84954027D01*
X84261903Y-84888297D01*
X84461598Y-84781558D01*
X84636631Y-84637911D01*
X84780278Y-84462878D01*
X84815138Y-84397660D01*
X86043809Y-84397660D01*
X86043809Y-85055000D01*
X86050557Y-85123514D01*
X86070542Y-85189395D01*
X86102995Y-85250111D01*
X86146670Y-85303330D01*
X86199889Y-85347005D01*
X86260605Y-85379458D01*
X86326486Y-85399443D01*
X86383095Y-85405018D01*
X86338830Y-85604376D01*
X86995000Y-86260546D01*
X87009143Y-86246404D01*
X87203597Y-86440858D01*
X87189454Y-86455000D01*
X87203597Y-86469143D01*
X87009143Y-86663597D01*
X86995000Y-86649454D01*
X86338830Y-87305624D01*
X86387544Y-87525020D01*
X86607967Y-87622969D01*
X86843263Y-87676034D01*
X87084390Y-87682175D01*
X87322083Y-87641155D01*
X87445501Y-87593678D01*
X87445502Y-90809205D01*
X87407380Y-90847327D01*
X87407374Y-90847332D01*
X87292541Y-90962165D01*
X87108216Y-90925500D01*
X86881784Y-90925500D01*
X86659703Y-90969675D01*
X86450508Y-91056326D01*
X86262236Y-91182125D01*
X86102125Y-91342236D01*
X85976326Y-91530508D01*
X85889675Y-91739703D01*
X85845500Y-91961784D01*
X85845500Y-92188216D01*
X85889675Y-92410297D01*
X85976326Y-92619492D01*
X86102125Y-92807764D01*
X86262236Y-92967875D01*
X86450508Y-93093674D01*
X86659703Y-93180325D01*
X86674601Y-93183288D01*
X86636308Y-93189276D01*
X86372858Y-93285880D01*
X86268779Y-93341513D01*
X86195733Y-93581279D01*
X86995000Y-94380546D01*
X87794267Y-93581279D01*
X87721221Y-93341513D01*
X87466626Y-93223535D01*
X87307180Y-93184923D01*
X87330297Y-93180325D01*
X87539492Y-93093674D01*
X87727764Y-92967875D01*
X87887875Y-92807764D01*
X88013674Y-92619492D01*
X88100325Y-92410297D01*
X88144500Y-92188216D01*
X88144500Y-91961784D01*
X88107835Y-91777459D01*
X88222668Y-91662626D01*
X88222673Y-91662620D01*
X88409620Y-91475673D01*
X88431620Y-91457618D01*
X88503662Y-91369835D01*
X88557194Y-91269683D01*
X88590159Y-91161013D01*
X88598501Y-91076316D01*
X88598501Y-91076307D01*
X88601289Y-91048000D01*
X88598501Y-91019693D01*
X88598501Y-85990348D01*
X88601289Y-85962039D01*
X88598501Y-85933730D01*
X88598501Y-85933722D01*
X88590159Y-85849025D01*
X88580753Y-85818018D01*
X88557194Y-85740354D01*
X88503662Y-85640203D01*
X88449671Y-85574415D01*
X88431620Y-85552420D01*
X88409626Y-85534370D01*
X87944762Y-85069507D01*
X87946191Y-85055000D01*
X87946191Y-83855000D01*
X87939443Y-83786486D01*
X87919458Y-83720605D01*
X87887005Y-83659889D01*
X87843330Y-83606670D01*
X87790111Y-83562995D01*
X87729395Y-83530542D01*
X87663514Y-83510557D01*
X87595000Y-83503809D01*
X86859102Y-83503809D01*
X86788834Y-83433540D01*
X86770779Y-83411541D01*
X86682996Y-83339499D01*
X86582844Y-83285967D01*
X86474174Y-83253002D01*
X86389477Y-83244660D01*
X86389469Y-83244660D01*
X86361160Y-83241872D01*
X86332851Y-83244660D01*
X84815138Y-83244660D01*
X84780278Y-83179442D01*
X84636631Y-83004409D01*
X84461598Y-82860762D01*
X84261903Y-82754023D01*
X84045221Y-82688293D01*
X83876342Y-82671660D01*
X83763418Y-82671660D01*
X83594539Y-82688293D01*
X83377857Y-82754023D01*
X83178162Y-82860762D01*
X83003129Y-83004409D01*
X82859482Y-83179442D01*
X82752743Y-83379137D01*
X82687013Y-83595819D01*
X82664819Y-83821160D01*
X82670466Y-83878500D01*
X79374004Y-83878500D01*
X79355111Y-83862995D01*
X79294395Y-83830542D01*
X79228514Y-83810557D01*
X79160000Y-83803809D01*
X78574103Y-83803809D01*
X76297674Y-81527381D01*
X76279619Y-81505381D01*
X76191836Y-81433339D01*
X76091684Y-81379807D01*
X75983014Y-81346842D01*
X75929328Y-81341554D01*
X75822875Y-81182236D01*
X75662764Y-81022125D01*
X75658835Y-81019500D01*
X90176500Y-81019500D01*
X90176501Y-115830500D01*
X90176501Y-115830500D01*
G37*
X90176501Y-115830500D02*
X84065955Y-115830500D01*
X85504065Y-114392391D01*
X85522162Y-114377539D01*
X85537013Y-114359443D01*
X85537017Y-114359439D01*
X85581458Y-114305288D01*
X85625519Y-114222856D01*
X85652651Y-114133413D01*
X85661813Y-114040394D01*
X85659517Y-114017084D01*
X85659517Y-112876784D01*
X85845500Y-112876784D01*
X85845500Y-113103216D01*
X85889675Y-113325297D01*
X85976326Y-113534492D01*
X86102125Y-113722764D01*
X86262236Y-113882875D01*
X86450508Y-114008674D01*
X86659703Y-114095325D01*
X86881784Y-114139500D01*
X87108216Y-114139500D01*
X87330297Y-114095325D01*
X87539492Y-114008674D01*
X87727764Y-113882875D01*
X87887875Y-113722764D01*
X88013674Y-113534492D01*
X88100325Y-113325297D01*
X88144500Y-113103216D01*
X88144500Y-112876784D01*
X88100325Y-112654703D01*
X88013674Y-112445508D01*
X87887875Y-112257236D01*
X87727764Y-112097125D01*
X87539492Y-111971326D01*
X87330297Y-111884675D01*
X87315399Y-111881712D01*
X87353692Y-111875724D01*
X87617142Y-111779120D01*
X87721221Y-111723487D01*
X87794267Y-111483721D01*
X86995000Y-110684454D01*
X86195733Y-111483721D01*
X86268779Y-111723487D01*
X86523374Y-111841465D01*
X86682820Y-111880077D01*
X86659703Y-111884675D01*
X86450508Y-111971326D01*
X86262236Y-112097125D01*
X86102125Y-112257236D01*
X85976326Y-112445508D01*
X85889675Y-112654703D01*
X85845500Y-112876784D01*
X85659517Y-112876784D01*
X85659519Y-110985710D01*
X85705880Y-111112142D01*
X85761513Y-111216221D01*
X86001279Y-111289267D01*
X86800546Y-110490000D01*
X87189454Y-110490000D01*
X87988721Y-111289267D01*
X88228487Y-111216221D01*
X88346465Y-110961626D01*
X88412507Y-110688906D01*
X88424074Y-110408541D01*
X88380724Y-110131308D01*
X88284120Y-109867858D01*
X88228487Y-109763779D01*
X87988721Y-109690733D01*
X87189454Y-110490000D01*
X86800546Y-110490000D01*
X86001279Y-109690733D01*
X85761513Y-109763779D01*
X85659520Y-109983879D01*
X85659520Y-109496279D01*
X86195733Y-109496279D01*
X86995000Y-110295546D01*
X87794267Y-109496279D01*
X87721221Y-109256513D01*
X87466626Y-109138535D01*
X87193906Y-109072493D01*
X86913541Y-109060926D01*
X86636308Y-109104276D01*
X86372858Y-109200880D01*
X86268779Y-109256513D01*
X86195733Y-109496279D01*
X85659520Y-109496279D01*
X85659520Y-109465492D01*
X85661814Y-109442199D01*
X85659520Y-109418906D01*
X85659520Y-109418898D01*
X85652654Y-109349183D01*
X85631516Y-109279501D01*
X85625521Y-109259738D01*
X85581460Y-109177306D01*
X85537019Y-109123155D01*
X85537016Y-109123152D01*
X85522165Y-109105056D01*
X85504068Y-109090204D01*
X84794825Y-108380962D01*
X84779965Y-108362855D01*
X84707713Y-108303559D01*
X84625282Y-108259499D01*
X84584500Y-108247128D01*
X84584500Y-108225555D01*
X84596988Y-108226785D01*
X84620291Y-108224490D01*
X84866530Y-108224490D01*
X84917175Y-108300286D01*
X84993714Y-108376825D01*
X85083714Y-108436961D01*
X85183717Y-108478383D01*
X85289879Y-108499500D01*
X85398121Y-108499500D01*
X85504283Y-108478383D01*
X85604286Y-108436961D01*
X85694286Y-108376825D01*
X85770825Y-108300286D01*
X85830961Y-108210286D01*
X85872383Y-108110283D01*
X85893500Y-108004121D01*
X85893500Y-107895879D01*
X85872383Y-107789717D01*
X85830961Y-107689714D01*
X85770825Y-107599714D01*
X85694286Y-107523175D01*
X85604286Y-107463039D01*
X85504283Y-107421617D01*
X85485223Y-107417826D01*
X85481135Y-107412845D01*
X85408883Y-107353549D01*
X85359024Y-107326899D01*
X85373500Y-107254121D01*
X85373500Y-107145879D01*
X85352383Y-107039717D01*
X85310961Y-106939714D01*
X85250825Y-106849714D01*
X85174611Y-106773500D01*
X85493809Y-106773500D01*
X85493809Y-106930000D01*
X85496217Y-106954449D01*
X85496217Y-106979009D01*
X85502965Y-107047523D01*
X85522087Y-107143656D01*
X85542071Y-107209535D01*
X85579580Y-107300091D01*
X85612035Y-107360810D01*
X85666491Y-107442309D01*
X85710165Y-107495527D01*
X85779473Y-107564835D01*
X85832691Y-107608509D01*
X85914190Y-107662965D01*
X85974909Y-107695420D01*
X86065465Y-107732929D01*
X86131344Y-107752913D01*
X86227477Y-107772035D01*
X86295991Y-107778783D01*
X86320551Y-107778783D01*
X86345000Y-107781191D01*
X86845000Y-107781191D01*
X86913514Y-107774443D01*
X86979395Y-107754458D01*
X86995000Y-107746117D01*
X87010605Y-107754458D01*
X87076486Y-107774443D01*
X87145000Y-107781191D01*
X87645000Y-107781191D01*
X87669449Y-107778783D01*
X87694009Y-107778783D01*
X87762523Y-107772035D01*
X87858656Y-107752913D01*
X87924535Y-107732929D01*
X88015091Y-107695420D01*
X88075810Y-107662965D01*
X88157309Y-107608509D01*
X88210527Y-107564835D01*
X88279835Y-107495527D01*
X88323509Y-107442309D01*
X88377965Y-107360810D01*
X88410420Y-107300091D01*
X88447929Y-107209535D01*
X88467913Y-107143656D01*
X88487035Y-107047523D01*
X88493783Y-106979009D01*
X88493783Y-106954449D01*
X88496191Y-106930000D01*
X88496191Y-106430000D01*
X88493783Y-106405551D01*
X88493783Y-106380991D01*
X88487035Y-106312477D01*
X88467913Y-106216344D01*
X88447929Y-106150465D01*
X88410420Y-106059909D01*
X88377965Y-105999190D01*
X88323509Y-105917691D01*
X88279835Y-105864473D01*
X88210527Y-105795165D01*
X88157309Y-105751491D01*
X88119500Y-105726228D01*
X88119500Y-105093772D01*
X88157309Y-105068509D01*
X88210527Y-105024835D01*
X88279835Y-104955527D01*
X88323509Y-104902309D01*
X88377965Y-104820810D01*
X88410420Y-104760091D01*
X88447929Y-104669535D01*
X88467913Y-104603656D01*
X88487035Y-104507523D01*
X88493783Y-104439009D01*
X88493783Y-104414449D01*
X88496191Y-104390000D01*
X88496191Y-103890000D01*
X88493783Y-103865551D01*
X88493783Y-103840991D01*
X88487035Y-103772477D01*
X88467913Y-103676344D01*
X88447929Y-103610465D01*
X88410420Y-103519909D01*
X88377965Y-103459190D01*
X88323509Y-103377691D01*
X88279835Y-103324473D01*
X88210527Y-103255165D01*
X88157309Y-103211491D01*
X88119500Y-103186228D01*
X88119500Y-102908303D01*
X88121795Y-102885000D01*
X88119500Y-102861697D01*
X88119500Y-102553772D01*
X88157309Y-102528509D01*
X88210527Y-102484835D01*
X88279835Y-102415527D01*
X88323509Y-102362309D01*
X88377965Y-102280810D01*
X88410420Y-102220091D01*
X88447929Y-102129535D01*
X88467913Y-102063656D01*
X88487035Y-101967523D01*
X88493783Y-101899009D01*
X88493783Y-101874449D01*
X88496191Y-101850000D01*
X88496191Y-101350000D01*
X88493783Y-101325551D01*
X88493783Y-101300991D01*
X88487035Y-101232477D01*
X88467913Y-101136344D01*
X88447929Y-101070465D01*
X88410420Y-100979909D01*
X88377965Y-100919190D01*
X88323509Y-100837691D01*
X88279835Y-100784473D01*
X88210527Y-100715165D01*
X88157309Y-100671491D01*
X88119500Y-100646228D01*
X88119500Y-100013772D01*
X88157309Y-99988509D01*
X88210527Y-99944835D01*
X88279835Y-99875527D01*
X88323509Y-99822309D01*
X88377965Y-99740810D01*
X88410420Y-99680091D01*
X88447929Y-99589535D01*
X88467913Y-99523656D01*
X88487035Y-99427523D01*
X88493783Y-99359009D01*
X88493783Y-99334449D01*
X88496191Y-99310000D01*
X88496191Y-98810000D01*
X88493783Y-98785551D01*
X88493783Y-98760991D01*
X88487035Y-98692477D01*
X88467913Y-98596344D01*
X88447929Y-98530465D01*
X88410420Y-98439909D01*
X88377965Y-98379190D01*
X88323509Y-98297691D01*
X88279835Y-98244473D01*
X88210527Y-98175165D01*
X88157309Y-98131491D01*
X88075810Y-98077035D01*
X88015091Y-98044580D01*
X87924535Y-98007071D01*
X87858656Y-97987087D01*
X87762523Y-97967965D01*
X87694009Y-97961217D01*
X87669449Y-97961217D01*
X87645000Y-97958809D01*
X87145000Y-97958809D01*
X87076486Y-97965557D01*
X87010605Y-97985542D01*
X86995000Y-97993883D01*
X86979395Y-97985542D01*
X86913514Y-97965557D01*
X86845000Y-97958809D01*
X86345000Y-97958809D01*
X86320551Y-97961217D01*
X86295991Y-97961217D01*
X86227477Y-97967965D01*
X86131344Y-97987087D01*
X86065465Y-98007071D01*
X85974909Y-98044580D01*
X85914190Y-98077035D01*
X85832691Y-98131491D01*
X85779473Y-98175165D01*
X85710165Y-98244473D01*
X85666491Y-98297691D01*
X85612035Y-98379190D01*
X85579580Y-98439909D01*
X85542071Y-98530465D01*
X85522087Y-98596344D01*
X85502965Y-98692477D01*
X85496217Y-98760991D01*
X85496217Y-98785551D01*
X85493809Y-98810000D01*
X85493809Y-99240147D01*
X84133458Y-100600499D01*
X83835301Y-100600499D01*
X83812008Y-100598205D01*
X83788715Y-100600499D01*
X83788706Y-100600499D01*
X83718991Y-100607365D01*
X83629547Y-100634498D01*
X83547116Y-100678558D01*
X83474864Y-100737854D01*
X83460009Y-100755955D01*
X83119962Y-101096003D01*
X83101855Y-101110863D01*
X83042559Y-101183115D01*
X82998499Y-101265547D01*
X82971366Y-101354991D01*
X82965737Y-101412144D01*
X82962205Y-101448008D01*
X82964500Y-101471309D01*
X82964501Y-101956064D01*
X82952039Y-101974714D01*
X82910617Y-102074717D01*
X82889500Y-102180879D01*
X82889500Y-102289121D01*
X82910617Y-102395283D01*
X82952039Y-102495286D01*
X83012175Y-102585286D01*
X83088714Y-102661825D01*
X83178714Y-102721961D01*
X83278717Y-102763383D01*
X83384879Y-102784500D01*
X83493121Y-102784500D01*
X83599283Y-102763383D01*
X83699286Y-102721961D01*
X83789286Y-102661825D01*
X83865825Y-102585286D01*
X83925961Y-102495286D01*
X83967383Y-102395283D01*
X83988500Y-102289121D01*
X83988500Y-102180879D01*
X83981120Y-102143777D01*
X84009889Y-102149500D01*
X84118131Y-102149500D01*
X84224293Y-102128383D01*
X84324296Y-102086961D01*
X84342945Y-102074500D01*
X85525376Y-102074500D01*
X85542071Y-102129535D01*
X85579580Y-102220091D01*
X85612035Y-102280810D01*
X85666491Y-102362309D01*
X85706040Y-102410500D01*
X84373300Y-102410500D01*
X84350000Y-102408205D01*
X84326700Y-102410500D01*
X84326697Y-102410500D01*
X84256982Y-102417366D01*
X84167538Y-102444499D01*
X84142663Y-102457795D01*
X84085106Y-102488559D01*
X84030955Y-102533000D01*
X84030951Y-102533004D01*
X84012855Y-102547855D01*
X83998003Y-102565952D01*
X83090958Y-103472999D01*
X83072856Y-103487855D01*
X83058001Y-103505956D01*
X83013560Y-103560107D01*
X83009499Y-103567705D01*
X83009499Y-103259299D01*
X83011794Y-103235999D01*
X83007745Y-103194889D01*
X83002633Y-103142981D01*
X82975500Y-103053537D01*
X82931440Y-102971105D01*
X82886999Y-102916954D01*
X82886995Y-102916950D01*
X82872144Y-102898854D01*
X82854047Y-102884002D01*
X82643500Y-102673456D01*
X82643500Y-99061160D01*
X82664819Y-99061160D01*
X82687013Y-99286501D01*
X82752743Y-99503183D01*
X82859482Y-99702878D01*
X83003129Y-99877911D01*
X83178162Y-100021558D01*
X83377857Y-100128297D01*
X83594539Y-100194027D01*
X83763418Y-100210660D01*
X83876342Y-100210660D01*
X84045221Y-100194027D01*
X84261903Y-100128297D01*
X84461598Y-100021558D01*
X84636631Y-99877911D01*
X84780278Y-99702878D01*
X84887017Y-99503183D01*
X84952747Y-99286501D01*
X84974941Y-99061160D01*
X84952747Y-98835819D01*
X84887017Y-98619137D01*
X84780278Y-98419442D01*
X84636631Y-98244409D01*
X84461598Y-98100762D01*
X84261903Y-97994023D01*
X84045221Y-97928293D01*
X83876342Y-97911660D01*
X83763418Y-97911660D01*
X83594539Y-97928293D01*
X83377857Y-97994023D01*
X83178162Y-98100762D01*
X83003129Y-98244409D01*
X82859482Y-98419442D01*
X82752743Y-98619137D01*
X82687013Y-98835819D01*
X82664819Y-99061160D01*
X82643500Y-99061160D01*
X82643500Y-96521160D01*
X82664819Y-96521160D01*
X82687013Y-96746501D01*
X82752743Y-96963183D01*
X82859482Y-97162878D01*
X83003129Y-97337911D01*
X83178162Y-97481558D01*
X83377857Y-97588297D01*
X83594539Y-97654027D01*
X83763418Y-97670660D01*
X83876342Y-97670660D01*
X84045221Y-97654027D01*
X84261903Y-97588297D01*
X84461598Y-97481558D01*
X84636631Y-97337911D01*
X84780278Y-97162878D01*
X84887017Y-96963183D01*
X84952747Y-96746501D01*
X84974941Y-96521160D01*
X84952747Y-96295819D01*
X84887017Y-96079137D01*
X84780278Y-95879442D01*
X84636631Y-95704409D01*
X84471296Y-95568721D01*
X86195733Y-95568721D01*
X86268779Y-95808487D01*
X86523374Y-95926465D01*
X86796094Y-95992507D01*
X87076459Y-96004074D01*
X87353692Y-95960724D01*
X87617142Y-95864120D01*
X87721221Y-95808487D01*
X87794267Y-95568721D01*
X86995000Y-94769454D01*
X86195733Y-95568721D01*
X84471296Y-95568721D01*
X84461598Y-95560762D01*
X84261903Y-95454023D01*
X84045221Y-95388293D01*
X83876342Y-95371660D01*
X83763418Y-95371660D01*
X83594539Y-95388293D01*
X83377857Y-95454023D01*
X83178162Y-95560762D01*
X83003129Y-95704409D01*
X82859482Y-95879442D01*
X82752743Y-96079137D01*
X82687013Y-96295819D01*
X82664819Y-96521160D01*
X82643500Y-96521160D01*
X82643500Y-95909935D01*
X82655961Y-95891286D01*
X82697383Y-95791283D01*
X82718500Y-95685121D01*
X82718500Y-95576879D01*
X82697383Y-95470717D01*
X82655961Y-95370714D01*
X82595825Y-95280714D01*
X82519286Y-95204175D01*
X82429286Y-95144039D01*
X82329283Y-95102617D01*
X82223121Y-95081500D01*
X82114879Y-95081500D01*
X82008717Y-95102617D01*
X82008500Y-95102707D01*
X82008500Y-94684543D01*
X82237384Y-94455660D01*
X82770102Y-94455660D01*
X82859482Y-94622878D01*
X83003129Y-94797911D01*
X83178162Y-94941558D01*
X83377857Y-95048297D01*
X83594539Y-95114027D01*
X83763418Y-95130660D01*
X83876342Y-95130660D01*
X84045221Y-95114027D01*
X84261903Y-95048297D01*
X84461598Y-94941558D01*
X84636631Y-94797911D01*
X84752718Y-94656459D01*
X85565926Y-94656459D01*
X85609276Y-94933692D01*
X85705880Y-95197142D01*
X85761513Y-95301221D01*
X86001279Y-95374267D01*
X86800546Y-94575000D01*
X87189454Y-94575000D01*
X87988721Y-95374267D01*
X88228487Y-95301221D01*
X88346465Y-95046626D01*
X88412507Y-94773906D01*
X88424074Y-94493541D01*
X88380724Y-94216308D01*
X88284120Y-93952858D01*
X88228487Y-93848779D01*
X87988721Y-93775733D01*
X87189454Y-94575000D01*
X86800546Y-94575000D01*
X86001279Y-93775733D01*
X85761513Y-93848779D01*
X85643535Y-94103374D01*
X85577493Y-94376094D01*
X85565926Y-94656459D01*
X84752718Y-94656459D01*
X84780278Y-94622878D01*
X84887017Y-94423183D01*
X84952747Y-94206501D01*
X84974941Y-93981160D01*
X84952747Y-93755819D01*
X84887017Y-93539137D01*
X84780278Y-93339442D01*
X84636631Y-93164409D01*
X84461598Y-93020762D01*
X84261903Y-92914023D01*
X84045221Y-92848293D01*
X83876342Y-92831660D01*
X83763418Y-92831660D01*
X83594539Y-92848293D01*
X83377857Y-92914023D01*
X83178162Y-93020762D01*
X83003129Y-93164409D01*
X82859482Y-93339442D01*
X82770102Y-93506660D01*
X82064139Y-93506660D01*
X82040839Y-93504365D01*
X82017539Y-93506660D01*
X82017537Y-93506660D01*
X81947822Y-93513526D01*
X81858378Y-93540659D01*
X81775947Y-93584719D01*
X81703695Y-93644015D01*
X81688840Y-93662116D01*
X81453530Y-93897426D01*
X81453530Y-89745853D01*
X82700836Y-90993160D01*
X82700841Y-90993164D01*
X82742053Y-91034376D01*
X82687013Y-91215819D01*
X82664819Y-91441160D01*
X82687013Y-91666501D01*
X82752743Y-91883183D01*
X82859482Y-92082878D01*
X83003129Y-92257911D01*
X83178162Y-92401558D01*
X83377857Y-92508297D01*
X83594539Y-92574027D01*
X83763418Y-92590660D01*
X83876342Y-92590660D01*
X84045221Y-92574027D01*
X84261903Y-92508297D01*
X84461598Y-92401558D01*
X84636631Y-92257911D01*
X84780278Y-92082878D01*
X84887017Y-91883183D01*
X84952747Y-91666501D01*
X84974941Y-91441160D01*
X84952747Y-91215819D01*
X84887017Y-90999137D01*
X84780278Y-90799442D01*
X84636631Y-90624409D01*
X84461598Y-90480762D01*
X84261903Y-90374023D01*
X84045221Y-90308293D01*
X83876342Y-90291660D01*
X83763418Y-90291660D01*
X83594539Y-90308293D01*
X83413096Y-90363333D01*
X83371884Y-90322121D01*
X83371880Y-90322116D01*
X81950924Y-88901160D01*
X82664819Y-88901160D01*
X82687013Y-89126501D01*
X82752743Y-89343183D01*
X82859482Y-89542878D01*
X83003129Y-89717911D01*
X83178162Y-89861558D01*
X83377857Y-89968297D01*
X83594539Y-90034027D01*
X83763418Y-90050660D01*
X83876342Y-90050660D01*
X84045221Y-90034027D01*
X84261903Y-89968297D01*
X84461598Y-89861558D01*
X84636631Y-89717911D01*
X84780278Y-89542878D01*
X84887017Y-89343183D01*
X84952747Y-89126501D01*
X84974941Y-88901160D01*
X84952747Y-88675819D01*
X84887017Y-88459137D01*
X84780278Y-88259442D01*
X84636631Y-88084409D01*
X84461598Y-87940762D01*
X84261903Y-87834023D01*
X84045221Y-87768293D01*
X83876342Y-87751660D01*
X83763418Y-87751660D01*
X83594539Y-87768293D01*
X83377857Y-87834023D01*
X83178162Y-87940762D01*
X83003129Y-88084409D01*
X82859482Y-88259442D01*
X82752743Y-88459137D01*
X82687013Y-88675819D01*
X82664819Y-88901160D01*
X81950924Y-88901160D01*
X81903539Y-88853776D01*
X81903539Y-87132340D01*
X81905834Y-87109037D01*
X81896673Y-87016018D01*
X81869540Y-86926576D01*
X81869540Y-86926575D01*
X81829518Y-86851698D01*
X81825480Y-86844143D01*
X81781039Y-86789992D01*
X81781035Y-86789988D01*
X81766184Y-86771892D01*
X81748087Y-86757040D01*
X81352207Y-86361160D01*
X82664819Y-86361160D01*
X82687013Y-86586501D01*
X82752743Y-86803183D01*
X82859482Y-87002878D01*
X83003129Y-87177911D01*
X83178162Y-87321558D01*
X83377857Y-87428297D01*
X83594539Y-87494027D01*
X83763418Y-87510660D01*
X83876342Y-87510660D01*
X84045221Y-87494027D01*
X84261903Y-87428297D01*
X84461598Y-87321558D01*
X84636631Y-87177911D01*
X84780278Y-87002878D01*
X84887017Y-86803183D01*
X84952747Y-86586501D01*
X84956894Y-86544390D01*
X85767825Y-86544390D01*
X85808845Y-86782083D01*
X85895447Y-87007206D01*
X85924980Y-87062456D01*
X86144376Y-87111170D01*
X86800546Y-86455000D01*
X86144376Y-85798830D01*
X85924980Y-85847544D01*
X85827031Y-86067967D01*
X85773966Y-86303263D01*
X85767825Y-86544390D01*
X84956894Y-86544390D01*
X84974941Y-86361160D01*
X84952747Y-86135819D01*
X84887017Y-85919137D01*
X84780278Y-85719442D01*
X84636631Y-85544409D01*
X84461598Y-85400762D01*
X84261903Y-85294023D01*
X84045221Y-85228293D01*
X83876342Y-85211660D01*
X83763418Y-85211660D01*
X83594539Y-85228293D01*
X83377857Y-85294023D01*
X83178162Y-85400762D01*
X83003129Y-85544409D01*
X82859482Y-85719442D01*
X82752743Y-85919137D01*
X82687013Y-86135819D01*
X82664819Y-86361160D01*
X81352207Y-86361160D01*
X80022545Y-85031500D01*
X83157731Y-85031500D01*
X83186040Y-85034288D01*
X83214349Y-85031500D01*
X83214357Y-85031500D01*
X83299054Y-85023158D01*
X83407724Y-84990193D01*
X83507876Y-84936661D01*
X83515814Y-84930146D01*
X83594539Y-84954027D01*
X83763418Y-84970660D01*
X83876342Y-84970660D01*
X84045221Y-84954027D01*
X84261903Y-84888297D01*
X84461598Y-84781558D01*
X84636631Y-84637911D01*
X84780278Y-84462878D01*
X84815138Y-84397660D01*
X86043809Y-84397660D01*
X86043809Y-85055000D01*
X86050557Y-85123514D01*
X86070542Y-85189395D01*
X86102995Y-85250111D01*
X86146670Y-85303330D01*
X86199889Y-85347005D01*
X86260605Y-85379458D01*
X86326486Y-85399443D01*
X86383095Y-85405018D01*
X86338830Y-85604376D01*
X86995000Y-86260546D01*
X87009143Y-86246404D01*
X87203597Y-86440858D01*
X87189454Y-86455000D01*
X87203597Y-86469143D01*
X87009143Y-86663597D01*
X86995000Y-86649454D01*
X86338830Y-87305624D01*
X86387544Y-87525020D01*
X86607967Y-87622969D01*
X86843263Y-87676034D01*
X87084390Y-87682175D01*
X87322083Y-87641155D01*
X87445501Y-87593678D01*
X87445502Y-90809205D01*
X87407380Y-90847327D01*
X87407374Y-90847332D01*
X87292541Y-90962165D01*
X87108216Y-90925500D01*
X86881784Y-90925500D01*
X86659703Y-90969675D01*
X86450508Y-91056326D01*
X86262236Y-91182125D01*
X86102125Y-91342236D01*
X85976326Y-91530508D01*
X85889675Y-91739703D01*
X85845500Y-91961784D01*
X85845500Y-92188216D01*
X85889675Y-92410297D01*
X85976326Y-92619492D01*
X86102125Y-92807764D01*
X86262236Y-92967875D01*
X86450508Y-93093674D01*
X86659703Y-93180325D01*
X86674601Y-93183288D01*
X86636308Y-93189276D01*
X86372858Y-93285880D01*
X86268779Y-93341513D01*
X86195733Y-93581279D01*
X86995000Y-94380546D01*
X87794267Y-93581279D01*
X87721221Y-93341513D01*
X87466626Y-93223535D01*
X87307180Y-93184923D01*
X87330297Y-93180325D01*
X87539492Y-93093674D01*
X87727764Y-92967875D01*
X87887875Y-92807764D01*
X88013674Y-92619492D01*
X88100325Y-92410297D01*
X88144500Y-92188216D01*
X88144500Y-91961784D01*
X88107835Y-91777459D01*
X88222668Y-91662626D01*
X88222673Y-91662620D01*
X88409620Y-91475673D01*
X88431620Y-91457618D01*
X88503662Y-91369835D01*
X88557194Y-91269683D01*
X88590159Y-91161013D01*
X88598501Y-91076316D01*
X88598501Y-91076307D01*
X88601289Y-91048000D01*
X88598501Y-91019693D01*
X88598501Y-85990348D01*
X88601289Y-85962039D01*
X88598501Y-85933730D01*
X88598501Y-85933722D01*
X88590159Y-85849025D01*
X88580753Y-85818018D01*
X88557194Y-85740354D01*
X88503662Y-85640203D01*
X88449671Y-85574415D01*
X88431620Y-85552420D01*
X88409626Y-85534370D01*
X87944762Y-85069507D01*
X87946191Y-85055000D01*
X87946191Y-83855000D01*
X87939443Y-83786486D01*
X87919458Y-83720605D01*
X87887005Y-83659889D01*
X87843330Y-83606670D01*
X87790111Y-83562995D01*
X87729395Y-83530542D01*
X87663514Y-83510557D01*
X87595000Y-83503809D01*
X86859102Y-83503809D01*
X86788834Y-83433540D01*
X86770779Y-83411541D01*
X86682996Y-83339499D01*
X86582844Y-83285967D01*
X86474174Y-83253002D01*
X86389477Y-83244660D01*
X86389469Y-83244660D01*
X86361160Y-83241872D01*
X86332851Y-83244660D01*
X84815138Y-83244660D01*
X84780278Y-83179442D01*
X84636631Y-83004409D01*
X84461598Y-82860762D01*
X84261903Y-82754023D01*
X84045221Y-82688293D01*
X83876342Y-82671660D01*
X83763418Y-82671660D01*
X83594539Y-82688293D01*
X83377857Y-82754023D01*
X83178162Y-82860762D01*
X83003129Y-83004409D01*
X82859482Y-83179442D01*
X82752743Y-83379137D01*
X82687013Y-83595819D01*
X82664819Y-83821160D01*
X82670466Y-83878500D01*
X79374004Y-83878500D01*
X79355111Y-83862995D01*
X79294395Y-83830542D01*
X79228514Y-83810557D01*
X79160000Y-83803809D01*
X78574103Y-83803809D01*
X76297674Y-81527381D01*
X76279619Y-81505381D01*
X76191836Y-81433339D01*
X76091684Y-81379807D01*
X75983014Y-81346842D01*
X75929328Y-81341554D01*
X75822875Y-81182236D01*
X75662764Y-81022125D01*
X75658835Y-81019500D01*
X90176500Y-81019500D01*
X90176501Y-115830500D01*
G36*
X71436277Y-81115734D02*
G01*
X71196513Y-81188779D01*
X71078535Y-81443374D01*
X71012493Y-81716094D01*
X71000926Y-81996459D01*
X71044276Y-82273692D01*
X71140880Y-82537142D01*
X71196513Y-82641221D01*
X71436279Y-82714267D01*
X72235546Y-81915000D01*
X72221404Y-81900858D01*
X72415858Y-81706404D01*
X72430000Y-81720546D01*
X72444143Y-81706404D01*
X72638597Y-81900858D01*
X72624454Y-81915000D01*
X73423721Y-82714267D01*
X73663487Y-82641221D01*
X73781465Y-82386626D01*
X73820077Y-82227180D01*
X73824675Y-82250297D01*
X73911326Y-82459492D01*
X74037125Y-82647764D01*
X74197236Y-82807875D01*
X74385508Y-82933674D01*
X74594703Y-83020325D01*
X74816784Y-83064500D01*
X75043216Y-83064500D01*
X75265297Y-83020325D01*
X75474492Y-82933674D01*
X75662764Y-82807875D01*
X75805173Y-82665466D01*
X77308809Y-84169103D01*
X77308809Y-84615500D01*
X74318303Y-84615500D01*
X74295000Y-84613205D01*
X74201981Y-84622366D01*
X74157260Y-84635932D01*
X74112538Y-84649499D01*
X74030106Y-84693559D01*
X73975955Y-84738000D01*
X73975951Y-84738004D01*
X73957855Y-84752855D01*
X73943003Y-84770952D01*
X73521715Y-85192241D01*
X73499717Y-85196617D01*
X73399714Y-85238039D01*
X73309714Y-85298175D01*
X73233175Y-85374714D01*
X73173039Y-85464714D01*
X73131617Y-85564717D01*
X73110500Y-85670879D01*
X73110500Y-85779121D01*
X73131617Y-85885283D01*
X73173039Y-85985286D01*
X73233175Y-86075286D01*
X73309714Y-86151825D01*
X73399714Y-86211961D01*
X73499717Y-86253383D01*
X73605879Y-86274500D01*
X73714121Y-86274500D01*
X73820283Y-86253383D01*
X73920286Y-86211961D01*
X74010286Y-86151825D01*
X74086825Y-86075286D01*
X74146961Y-85985286D01*
X74188383Y-85885283D01*
X74192759Y-85863285D01*
X74491545Y-85564500D01*
X77308809Y-85564500D01*
X77308809Y-86025000D01*
X77315557Y-86093514D01*
X77335542Y-86159395D01*
X77367995Y-86220111D01*
X77411670Y-86273330D01*
X77464889Y-86317005D01*
X77525605Y-86349458D01*
X77560357Y-86360000D01*
X77525605Y-86370542D01*
X77464889Y-86402995D01*
X77411670Y-86446670D01*
X77367995Y-86499889D01*
X77335542Y-86560605D01*
X77315557Y-86626486D01*
X77308809Y-86695000D01*
X77308809Y-87295000D01*
X77315557Y-87363514D01*
X77335542Y-87429395D01*
X77367995Y-87490111D01*
X77411670Y-87543330D01*
X77464889Y-87587005D01*
X77525605Y-87619458D01*
X77560357Y-87630000D01*
X77525605Y-87640542D01*
X77464889Y-87672995D01*
X77411670Y-87716670D01*
X77367995Y-87769889D01*
X77335542Y-87830605D01*
X77315557Y-87896486D01*
X77308809Y-87965000D01*
X77308809Y-88565000D01*
X77315557Y-88633514D01*
X77335542Y-88699395D01*
X77367995Y-88760111D01*
X77411670Y-88813330D01*
X77464889Y-88857005D01*
X77525605Y-88889458D01*
X77560357Y-88900000D01*
X77525605Y-88910542D01*
X77464889Y-88942995D01*
X77411670Y-88986670D01*
X77367995Y-89039889D01*
X77335542Y-89100605D01*
X77315557Y-89166486D01*
X77308809Y-89235000D01*
X77308809Y-89835000D01*
X77315557Y-89903514D01*
X77335542Y-89969395D01*
X77367995Y-90030111D01*
X77411670Y-90083330D01*
X77464889Y-90127005D01*
X77525605Y-90159458D01*
X77560357Y-90170000D01*
X77525605Y-90180542D01*
X77464889Y-90212995D01*
X77411670Y-90256670D01*
X77367995Y-90309889D01*
X77356978Y-90330500D01*
X75334292Y-90330500D01*
X75310999Y-90328206D01*
X75287706Y-90330500D01*
X75287697Y-90330500D01*
X75217982Y-90337366D01*
X75128538Y-90364499D01*
X75046107Y-90408559D01*
X74973855Y-90467855D01*
X74959001Y-90485955D01*
X73721958Y-91722999D01*
X73703856Y-91737855D01*
X73686467Y-91759044D01*
X73644560Y-91810107D01*
X73600499Y-91892539D01*
X73573367Y-91981982D01*
X73564205Y-92075000D01*
X73566501Y-92098310D01*
X73566500Y-109068065D01*
X73554039Y-109086714D01*
X73518104Y-109173470D01*
X72434436Y-109173470D01*
X72486286Y-109138825D01*
X72562825Y-109062286D01*
X72622961Y-108972286D01*
X72664383Y-108872283D01*
X72685500Y-108766121D01*
X72685500Y-108657879D01*
X72664383Y-108551717D01*
X72622961Y-108451714D01*
X72562825Y-108361714D01*
X72486286Y-108285175D01*
X72396286Y-108225039D01*
X72296283Y-108183617D01*
X72190121Y-108162500D01*
X72081879Y-108162500D01*
X71975717Y-108183617D01*
X71875714Y-108225039D01*
X71785714Y-108285175D01*
X71709175Y-108361714D01*
X71707313Y-108364500D01*
X68537546Y-108364500D01*
X67554007Y-107380962D01*
X67539147Y-107362855D01*
X67466895Y-107303559D01*
X67384464Y-107259499D01*
X67295020Y-107232366D01*
X67225305Y-107225500D01*
X67225302Y-107225500D01*
X67202002Y-107223205D01*
X67178702Y-107225500D01*
X64811191Y-107225500D01*
X64811191Y-107174500D01*
X69551065Y-107174500D01*
X69569714Y-107186961D01*
X69669717Y-107228383D01*
X69775879Y-107249500D01*
X69884121Y-107249500D01*
X69990283Y-107228383D01*
X70090286Y-107186961D01*
X70180286Y-107126825D01*
X70256825Y-107050286D01*
X70316961Y-106960286D01*
X70358383Y-106860283D01*
X70379500Y-106754121D01*
X70379500Y-106645879D01*
X70364558Y-106570758D01*
X70368893Y-106568441D01*
X70441145Y-106509145D01*
X70456006Y-106491038D01*
X71947043Y-105000001D01*
X71965145Y-104985145D01*
X72024441Y-104912893D01*
X72068501Y-104830462D01*
X72095634Y-104741018D01*
X72102500Y-104671303D01*
X72102500Y-104671294D01*
X72104794Y-104648001D01*
X72102500Y-104624708D01*
X72102500Y-101877300D01*
X72104795Y-101854000D01*
X72102500Y-101830697D01*
X72095634Y-101760982D01*
X72068501Y-101671538D01*
X72046913Y-101631150D01*
X72063121Y-101631150D01*
X72169283Y-101610033D01*
X72269286Y-101568611D01*
X72359286Y-101508475D01*
X72435825Y-101431936D01*
X72495961Y-101341936D01*
X72537383Y-101241933D01*
X72558500Y-101135771D01*
X72558500Y-101027529D01*
X72537383Y-100921367D01*
X72495961Y-100821364D01*
X72435825Y-100731364D01*
X72359286Y-100654825D01*
X72269286Y-100594689D01*
X72169283Y-100553267D01*
X72147286Y-100548892D01*
X71669291Y-100070897D01*
X71761598Y-100021558D01*
X71936631Y-99877911D01*
X72080278Y-99702878D01*
X72187017Y-99503183D01*
X72252747Y-99286501D01*
X72274941Y-99061160D01*
X72252747Y-98835819D01*
X72187017Y-98619137D01*
X72106862Y-98469177D01*
X72189720Y-98485659D01*
X72297962Y-98485659D01*
X72404124Y-98464542D01*
X72504127Y-98423120D01*
X72594127Y-98362984D01*
X72670666Y-98286445D01*
X72730802Y-98196445D01*
X72772224Y-98096442D01*
X72793341Y-97990280D01*
X72793341Y-97882038D01*
X72772224Y-97775876D01*
X72730802Y-97675873D01*
X72670666Y-97585873D01*
X72594127Y-97509334D01*
X72504127Y-97449198D01*
X72404124Y-97407776D01*
X72297962Y-97386659D01*
X72189720Y-97386659D01*
X72083558Y-97407776D01*
X71983555Y-97449198D01*
X71964906Y-97461659D01*
X70603179Y-97461659D01*
X70579879Y-97459364D01*
X70556579Y-97461659D01*
X70556576Y-97461659D01*
X70486861Y-97468525D01*
X70397417Y-97495658D01*
X70314986Y-97539718D01*
X70242734Y-97599014D01*
X70227878Y-97617116D01*
X69403958Y-98441037D01*
X69385856Y-98455893D01*
X69371001Y-98473994D01*
X69326560Y-98528145D01*
X69282499Y-98610577D01*
X69255367Y-98700020D01*
X69246205Y-98793038D01*
X69248501Y-98816348D01*
X69248501Y-99213298D01*
X68857718Y-98822516D01*
X68875500Y-98733121D01*
X68875500Y-98624879D01*
X68854383Y-98518717D01*
X68812961Y-98418714D01*
X68752825Y-98328714D01*
X68676286Y-98252175D01*
X68586286Y-98192039D01*
X68486283Y-98150617D01*
X68380121Y-98129500D01*
X68271879Y-98129500D01*
X68165717Y-98150617D01*
X68065714Y-98192039D01*
X67975714Y-98252175D01*
X67899175Y-98328714D01*
X67839039Y-98418714D01*
X67797617Y-98518717D01*
X67776500Y-98624879D01*
X67776500Y-98733121D01*
X67797617Y-98839283D01*
X67839039Y-98939286D01*
X67849835Y-98955444D01*
X67849205Y-98961842D01*
X67851500Y-98985142D01*
X67851500Y-98985145D01*
X67858366Y-99054860D01*
X67885499Y-99144304D01*
X67929560Y-99226735D01*
X67988856Y-99298987D01*
X68006957Y-99313843D01*
X68486500Y-99793387D01*
X68486501Y-100052691D01*
X68484205Y-100076000D01*
X68493367Y-100169018D01*
X68520499Y-100258461D01*
X68552608Y-100318533D01*
X68564560Y-100340893D01*
X68623856Y-100413145D01*
X68641958Y-100428001D01*
X70391501Y-102177545D01*
X70391500Y-104451455D01*
X69617457Y-105225500D01*
X67116854Y-105225500D01*
X67152286Y-105201825D01*
X67228825Y-105125286D01*
X67288961Y-105035286D01*
X67330383Y-104935283D01*
X67351500Y-104829121D01*
X67351500Y-104720879D01*
X67330383Y-104614717D01*
X67288961Y-104514714D01*
X67228825Y-104424714D01*
X67152286Y-104348175D01*
X67062286Y-104288039D01*
X66962283Y-104246617D01*
X66856121Y-104225500D01*
X66747879Y-104225500D01*
X66641717Y-104246617D01*
X66541714Y-104288039D01*
X66451714Y-104348175D01*
X66375175Y-104424714D01*
X66315039Y-104514714D01*
X66273617Y-104614717D01*
X66269241Y-104636715D01*
X66180456Y-104725500D01*
X66042068Y-104725500D01*
X66060383Y-104681283D01*
X66081500Y-104575121D01*
X66081500Y-104466879D01*
X66060383Y-104360717D01*
X66018961Y-104260714D01*
X65958825Y-104170714D01*
X65882286Y-104094175D01*
X65792286Y-104034039D01*
X65692283Y-103992617D01*
X65586121Y-103971500D01*
X65477879Y-103971500D01*
X65371717Y-103992617D01*
X65271714Y-104034039D01*
X65253065Y-104046500D01*
X64897292Y-104046500D01*
X64873999Y-104044206D01*
X64850706Y-104046500D01*
X64850697Y-104046500D01*
X64808791Y-104050627D01*
X64804443Y-104006486D01*
X64784458Y-103940605D01*
X64752005Y-103879889D01*
X64708330Y-103826670D01*
X64655111Y-103782995D01*
X64594395Y-103750542D01*
X64528514Y-103730557D01*
X64460000Y-103723809D01*
X64423003Y-103723809D01*
X64430500Y-103686121D01*
X64430500Y-103581499D01*
X65744064Y-103581499D01*
X65762713Y-103593960D01*
X65862716Y-103635382D01*
X65968878Y-103656499D01*
X66077120Y-103656499D01*
X66183282Y-103635382D01*
X66283285Y-103593960D01*
X66373285Y-103533824D01*
X66449824Y-103457285D01*
X66509960Y-103367285D01*
X66551382Y-103267282D01*
X66572499Y-103161120D01*
X66572499Y-103052878D01*
X66551382Y-102946716D01*
X66509960Y-102846713D01*
X66449824Y-102756713D01*
X66373285Y-102680174D01*
X66283285Y-102620038D01*
X66183282Y-102578616D01*
X66077120Y-102557499D01*
X65968878Y-102557499D01*
X65862716Y-102578616D01*
X65762713Y-102620038D01*
X65744064Y-102632499D01*
X64472674Y-102632499D01*
X64563289Y-102548987D01*
X64727768Y-102323314D01*
X64845060Y-102069889D01*
X64878762Y-101958767D01*
X64760780Y-101738660D01*
X63637380Y-101738660D01*
X63637380Y-101758660D01*
X63362380Y-101758660D01*
X63362380Y-101738660D01*
X63342380Y-101738660D01*
X63342380Y-101463660D01*
X63362380Y-101463660D01*
X63362380Y-101443660D01*
X63637380Y-101443660D01*
X63637380Y-101463660D01*
X64760780Y-101463660D01*
X64878762Y-101243553D01*
X64845060Y-101132431D01*
X64727768Y-100879006D01*
X64563289Y-100653333D01*
X64357944Y-100464084D01*
X64119624Y-100318533D01*
X63857488Y-100222272D01*
X63637382Y-100339430D01*
X63637382Y-100202678D01*
X63725221Y-100194027D01*
X63941903Y-100128297D01*
X64141598Y-100021558D01*
X64316631Y-99877911D01*
X64460278Y-99702878D01*
X64567017Y-99503183D01*
X64632747Y-99286501D01*
X64654941Y-99061160D01*
X64632747Y-98835819D01*
X64567017Y-98619137D01*
X64460278Y-98419442D01*
X64316631Y-98244409D01*
X64141598Y-98100762D01*
X63941903Y-97994023D01*
X63725221Y-97928293D01*
X63556342Y-97911660D01*
X63443418Y-97911660D01*
X63274539Y-97928293D01*
X63057857Y-97994023D01*
X62858162Y-98100762D01*
X62683129Y-98244409D01*
X62539482Y-98419442D01*
X62432743Y-98619137D01*
X62399369Y-98729158D01*
X62399368Y-96853161D01*
X62432743Y-96963183D01*
X62539482Y-97162878D01*
X62683129Y-97337911D01*
X62858162Y-97481558D01*
X63057857Y-97588297D01*
X63274539Y-97654027D01*
X63443418Y-97670660D01*
X63556342Y-97670660D01*
X63725221Y-97654027D01*
X63941903Y-97588297D01*
X64141598Y-97481558D01*
X64316631Y-97337911D01*
X64460278Y-97162878D01*
X64567017Y-96963183D01*
X64632747Y-96746501D01*
X64654941Y-96521160D01*
X64632747Y-96295819D01*
X64567017Y-96079137D01*
X64460278Y-95879442D01*
X64316631Y-95704409D01*
X64141598Y-95560762D01*
X63941903Y-95454023D01*
X63725221Y-95388293D01*
X63556342Y-95371660D01*
X63443418Y-95371660D01*
X63274539Y-95388293D01*
X63057857Y-95454023D01*
X62858162Y-95560762D01*
X62683129Y-95704409D01*
X62539482Y-95879442D01*
X62432743Y-96079137D01*
X62399368Y-96189159D01*
X62399368Y-95752715D01*
X63093097Y-95058987D01*
X63274539Y-95114027D01*
X63443418Y-95130660D01*
X63556342Y-95130660D01*
X63725221Y-95114027D01*
X63941903Y-95048297D01*
X64141598Y-94941558D01*
X64316631Y-94797911D01*
X64460278Y-94622878D01*
X64549658Y-94455660D01*
X66650540Y-94455660D01*
X66673840Y-94457955D01*
X66697140Y-94455660D01*
X66697143Y-94455660D01*
X66766858Y-94448794D01*
X66856302Y-94421661D01*
X66938733Y-94377601D01*
X67010985Y-94318305D01*
X67025845Y-94300198D01*
X67506544Y-93819500D01*
X67856978Y-93819500D01*
X67867995Y-93840111D01*
X67911670Y-93893330D01*
X67964889Y-93937005D01*
X68025605Y-93969458D01*
X68060357Y-93980000D01*
X68025605Y-93990542D01*
X67964889Y-94022995D01*
X67911670Y-94066670D01*
X67867995Y-94119889D01*
X67855327Y-94143590D01*
X67816982Y-94147366D01*
X67727538Y-94174499D01*
X67645107Y-94218559D01*
X67572855Y-94277855D01*
X67558000Y-94295956D01*
X66990962Y-94862995D01*
X66972855Y-94877855D01*
X66913559Y-94950107D01*
X66869499Y-95032538D01*
X66842366Y-95121982D01*
X66833205Y-95215000D01*
X66835500Y-95238303D01*
X66835501Y-96435451D01*
X66084714Y-97186239D01*
X66062715Y-97190615D01*
X65962712Y-97232037D01*
X65872712Y-97292173D01*
X65796173Y-97368712D01*
X65736037Y-97458712D01*
X65694615Y-97558715D01*
X65673498Y-97664877D01*
X65673498Y-97773119D01*
X65694615Y-97879281D01*
X65736037Y-97979284D01*
X65796173Y-98069284D01*
X65872712Y-98145823D01*
X65962712Y-98205959D01*
X66062715Y-98247381D01*
X66168877Y-98268498D01*
X66277119Y-98268498D01*
X66383281Y-98247381D01*
X66483284Y-98205959D01*
X66573284Y-98145823D01*
X66649823Y-98069284D01*
X66709959Y-97979284D01*
X66751381Y-97879281D01*
X66755757Y-97857282D01*
X67629043Y-96983997D01*
X67647145Y-96969141D01*
X67706441Y-96896889D01*
X67750501Y-96814458D01*
X67777634Y-96725014D01*
X67781819Y-96682516D01*
X67811367Y-96706765D01*
X67919858Y-96764755D01*
X68037577Y-96800464D01*
X68160000Y-96812522D01*
X68616375Y-96809500D01*
X68772500Y-96653375D01*
X68772500Y-96022500D01*
X69047500Y-96022500D01*
X69047500Y-96653375D01*
X69203625Y-96809500D01*
X69660000Y-96812522D01*
X69782423Y-96800464D01*
X69900142Y-96764755D01*
X70008633Y-96706765D01*
X70103725Y-96628725D01*
X70181765Y-96533633D01*
X70239755Y-96425142D01*
X70275464Y-96307423D01*
X70287522Y-96185000D01*
X70284500Y-96178625D01*
X70128375Y-96022500D01*
X69047500Y-96022500D01*
X68772500Y-96022500D01*
X68752500Y-96022500D01*
X68752500Y-95747500D01*
X68772500Y-95747500D01*
X68772500Y-95727500D01*
X69047500Y-95727500D01*
X69047500Y-95747500D01*
X70128375Y-95747500D01*
X70284500Y-95591375D01*
X70287522Y-95585000D01*
X70275464Y-95462577D01*
X70239755Y-95344858D01*
X70181765Y-95236367D01*
X70103725Y-95141275D01*
X70008633Y-95063235D01*
X69984076Y-95050109D01*
X69984458Y-95049395D01*
X70004443Y-94983514D01*
X70011191Y-94915000D01*
X70011191Y-94634852D01*
X71439043Y-93207001D01*
X71457145Y-93192145D01*
X71516441Y-93119893D01*
X71560501Y-93037462D01*
X71587634Y-92948018D01*
X71594500Y-92878303D01*
X71594500Y-92878300D01*
X71596795Y-92855000D01*
X71594500Y-92831700D01*
X71594500Y-88923303D01*
X71596795Y-88900000D01*
X71587634Y-88806981D01*
X71573416Y-88760111D01*
X71560501Y-88717538D01*
X71537404Y-88674326D01*
X71516441Y-88635106D01*
X71472000Y-88580955D01*
X71471996Y-88580951D01*
X71457145Y-88562855D01*
X71439048Y-88548003D01*
X70360543Y-87469500D01*
X70841065Y-87469500D01*
X70859714Y-87481961D01*
X70959717Y-87523383D01*
X71065879Y-87544500D01*
X71174121Y-87544500D01*
X71280283Y-87523383D01*
X71380286Y-87481961D01*
X71470286Y-87421825D01*
X71546825Y-87345286D01*
X71606961Y-87255286D01*
X71648383Y-87155283D01*
X71669500Y-87049121D01*
X71669500Y-86940879D01*
X71648383Y-86834717D01*
X71606961Y-86734714D01*
X71546825Y-86644714D01*
X71470286Y-86568175D01*
X71380286Y-86508039D01*
X71280283Y-86466617D01*
X71174121Y-86445500D01*
X71065879Y-86445500D01*
X70959717Y-86466617D01*
X70859714Y-86508039D01*
X70841065Y-86520500D01*
X69963022Y-86520500D01*
X69952005Y-86499889D01*
X69908330Y-86446670D01*
X69855111Y-86402995D01*
X69794395Y-86370542D01*
X69759643Y-86360000D01*
X69794395Y-86349458D01*
X69855111Y-86317005D01*
X69908330Y-86273330D01*
X69952005Y-86220111D01*
X69963022Y-86199500D01*
X70206065Y-86199500D01*
X70224714Y-86211961D01*
X70324717Y-86253383D01*
X70430879Y-86274500D01*
X70539121Y-86274500D01*
X70645283Y-86253383D01*
X70745286Y-86211961D01*
X70835286Y-86151825D01*
X70911825Y-86075286D01*
X70971961Y-85985286D01*
X71013383Y-85885283D01*
X71034500Y-85779121D01*
X71034500Y-85670879D01*
X71013383Y-85564717D01*
X70971961Y-85464714D01*
X70911825Y-85374714D01*
X70835286Y-85298175D01*
X70745286Y-85238039D01*
X70645283Y-85196617D01*
X70539121Y-85175500D01*
X70430879Y-85175500D01*
X70324717Y-85196617D01*
X70224714Y-85238039D01*
X70206065Y-85250500D01*
X70040637Y-85250500D01*
X70103725Y-85198725D01*
X70181765Y-85103633D01*
X70239755Y-84995142D01*
X70275464Y-84877423D01*
X70287522Y-84755000D01*
X70284500Y-84748625D01*
X70128375Y-84592500D01*
X69047500Y-84592500D01*
X69047500Y-84612500D01*
X68772500Y-84612500D01*
X68772500Y-84592500D01*
X67691625Y-84592500D01*
X67535500Y-84748625D01*
X67532478Y-84755000D01*
X67544536Y-84877423D01*
X67580245Y-84995142D01*
X67638235Y-85103633D01*
X67716275Y-85198725D01*
X67811367Y-85276765D01*
X67835924Y-85289891D01*
X67835542Y-85290605D01*
X67815557Y-85356486D01*
X67808809Y-85425000D01*
X67808809Y-86025000D01*
X67815557Y-86093514D01*
X67835542Y-86159395D01*
X67867995Y-86220111D01*
X67911670Y-86273330D01*
X67964889Y-86317005D01*
X68025605Y-86349458D01*
X68060357Y-86360000D01*
X68025605Y-86370542D01*
X67980627Y-86394583D01*
X66191759Y-84605716D01*
X66187383Y-84583717D01*
X66145961Y-84483714D01*
X66085825Y-84393714D01*
X66009286Y-84317175D01*
X65919286Y-84257039D01*
X65819283Y-84215617D01*
X65713121Y-84194500D01*
X65604879Y-84194500D01*
X65498717Y-84215617D01*
X65398714Y-84257039D01*
X65308714Y-84317175D01*
X65232175Y-84393714D01*
X65172039Y-84483714D01*
X65130617Y-84583717D01*
X65109500Y-84689879D01*
X65109500Y-84759737D01*
X64577707Y-84227944D01*
X64599834Y-84155000D01*
X67532478Y-84155000D01*
X67535500Y-84161375D01*
X67691625Y-84317500D01*
X68772500Y-84317500D01*
X68772500Y-83686625D01*
X69047500Y-83686625D01*
X69047500Y-84317500D01*
X70128375Y-84317500D01*
X70284500Y-84161375D01*
X70287522Y-84155000D01*
X70275464Y-84032577D01*
X70239755Y-83914858D01*
X70181765Y-83806367D01*
X70103725Y-83711275D01*
X70008633Y-83633235D01*
X69900142Y-83575245D01*
X69782423Y-83539536D01*
X69660000Y-83527478D01*
X69203625Y-83530500D01*
X69047500Y-83686625D01*
X68772500Y-83686625D01*
X68616375Y-83530500D01*
X68160000Y-83527478D01*
X68037577Y-83539536D01*
X67919858Y-83575245D01*
X67811367Y-83633235D01*
X67716275Y-83711275D01*
X67638235Y-83806367D01*
X67580245Y-83914858D01*
X67544536Y-84032577D01*
X67532478Y-84155000D01*
X64599834Y-84155000D01*
X64632747Y-84046501D01*
X64654941Y-83821160D01*
X64632747Y-83595819D01*
X64567017Y-83379137D01*
X64460278Y-83179442D01*
X64316631Y-83004409D01*
X64200036Y-82908721D01*
X71630733Y-82908721D01*
X71703779Y-83148487D01*
X71958374Y-83266465D01*
X72231094Y-83332507D01*
X72511459Y-83344074D01*
X72788692Y-83300724D01*
X73052142Y-83204120D01*
X73156221Y-83148487D01*
X73229267Y-82908721D01*
X72430000Y-82109454D01*
X71630733Y-82908721D01*
X64200036Y-82908721D01*
X64141598Y-82860762D01*
X63941903Y-82754023D01*
X63725221Y-82688293D01*
X63556342Y-82671660D01*
X63443418Y-82671660D01*
X63274539Y-82688293D01*
X63057857Y-82754023D01*
X62858162Y-82860762D01*
X62683129Y-83004409D01*
X62539482Y-83179442D01*
X62432743Y-83379137D01*
X62367013Y-83595819D01*
X62344819Y-83821160D01*
X62367013Y-84046501D01*
X62432743Y-84263183D01*
X62539482Y-84462878D01*
X62683129Y-84637911D01*
X62858162Y-84781558D01*
X63057857Y-84888297D01*
X63274539Y-84954027D01*
X63443418Y-84970660D01*
X63556342Y-84970660D01*
X63725221Y-84954027D01*
X63906664Y-84898987D01*
X66088176Y-87080500D01*
X65985879Y-87080500D01*
X65879717Y-87101617D01*
X65779714Y-87143039D01*
X65689714Y-87203175D01*
X65613175Y-87279714D01*
X65553039Y-87369714D01*
X65511617Y-87469717D01*
X65490500Y-87575879D01*
X65490500Y-87680736D01*
X64577707Y-86767944D01*
X64632747Y-86586501D01*
X64654941Y-86361160D01*
X64632747Y-86135819D01*
X64567017Y-85919137D01*
X64460278Y-85719442D01*
X64316631Y-85544409D01*
X64141598Y-85400762D01*
X63941903Y-85294023D01*
X63725221Y-85228293D01*
X63556342Y-85211660D01*
X63443418Y-85211660D01*
X63274539Y-85228293D01*
X63057857Y-85294023D01*
X62858162Y-85400762D01*
X62683129Y-85544409D01*
X62539482Y-85719442D01*
X62432743Y-85919137D01*
X62367013Y-86135819D01*
X62344819Y-86361160D01*
X62367013Y-86586501D01*
X62432743Y-86803183D01*
X62539482Y-87002878D01*
X62683129Y-87177911D01*
X62858162Y-87321558D01*
X63057857Y-87428297D01*
X63274539Y-87494027D01*
X63443418Y-87510660D01*
X63556342Y-87510660D01*
X63725221Y-87494027D01*
X63906664Y-87438987D01*
X65596718Y-89129042D01*
X65611574Y-89147144D01*
X65683826Y-89206440D01*
X65766257Y-89250500D01*
X65855701Y-89277633D01*
X65925416Y-89284499D01*
X65925425Y-89284499D01*
X65948718Y-89286793D01*
X65972011Y-89284499D01*
X66818986Y-89284499D01*
X66781617Y-89374717D01*
X66760500Y-89480879D01*
X66760500Y-89589121D01*
X66781617Y-89695283D01*
X66823039Y-89795286D01*
X66883175Y-89885286D01*
X66959714Y-89961825D01*
X67049714Y-90021961D01*
X67149717Y-90063383D01*
X67255879Y-90084500D01*
X67364121Y-90084500D01*
X67470283Y-90063383D01*
X67570286Y-90021961D01*
X67588935Y-90009500D01*
X67856978Y-90009500D01*
X67867995Y-90030111D01*
X67911670Y-90083330D01*
X67964889Y-90127005D01*
X68025605Y-90159458D01*
X68060357Y-90170000D01*
X68025605Y-90180542D01*
X67964889Y-90212995D01*
X67911670Y-90256670D01*
X67867995Y-90309889D01*
X67856978Y-90330500D01*
X65600264Y-90330500D01*
X64577707Y-89307943D01*
X64632747Y-89126501D01*
X64654941Y-88901160D01*
X64632747Y-88675819D01*
X64567017Y-88459137D01*
X64460278Y-88259442D01*
X64316631Y-88084409D01*
X64141598Y-87940762D01*
X63941903Y-87834023D01*
X63725221Y-87768293D01*
X63556342Y-87751660D01*
X63443418Y-87751660D01*
X63274539Y-87768293D01*
X63057857Y-87834023D01*
X62858162Y-87940762D01*
X62683129Y-88084409D01*
X62539482Y-88259442D01*
X62450102Y-88426660D01*
X62391802Y-88426660D01*
X62368509Y-88424366D01*
X62345216Y-88426660D01*
X62345207Y-88426660D01*
X62275492Y-88433526D01*
X62186048Y-88460659D01*
X62103617Y-88504719D01*
X62031365Y-88564015D01*
X62016509Y-88582117D01*
X60699500Y-89899127D01*
X60699500Y-81019500D01*
X71340043Y-81019500D01*
X71436277Y-81115734D01*
X71436277Y-81115734D01*
G37*
X71436277Y-81115734D02*
X71196513Y-81188779D01*
X71078535Y-81443374D01*
X71012493Y-81716094D01*
X71000926Y-81996459D01*
X71044276Y-82273692D01*
X71140880Y-82537142D01*
X71196513Y-82641221D01*
X71436279Y-82714267D01*
X72235546Y-81915000D01*
X72221404Y-81900858D01*
X72415858Y-81706404D01*
X72430000Y-81720546D01*
X72444143Y-81706404D01*
X72638597Y-81900858D01*
X72624454Y-81915000D01*
X73423721Y-82714267D01*
X73663487Y-82641221D01*
X73781465Y-82386626D01*
X73820077Y-82227180D01*
X73824675Y-82250297D01*
X73911326Y-82459492D01*
X74037125Y-82647764D01*
X74197236Y-82807875D01*
X74385508Y-82933674D01*
X74594703Y-83020325D01*
X74816784Y-83064500D01*
X75043216Y-83064500D01*
X75265297Y-83020325D01*
X75474492Y-82933674D01*
X75662764Y-82807875D01*
X75805173Y-82665466D01*
X77308809Y-84169103D01*
X77308809Y-84615500D01*
X74318303Y-84615500D01*
X74295000Y-84613205D01*
X74201981Y-84622366D01*
X74157260Y-84635932D01*
X74112538Y-84649499D01*
X74030106Y-84693559D01*
X73975955Y-84738000D01*
X73975951Y-84738004D01*
X73957855Y-84752855D01*
X73943003Y-84770952D01*
X73521715Y-85192241D01*
X73499717Y-85196617D01*
X73399714Y-85238039D01*
X73309714Y-85298175D01*
X73233175Y-85374714D01*
X73173039Y-85464714D01*
X73131617Y-85564717D01*
X73110500Y-85670879D01*
X73110500Y-85779121D01*
X73131617Y-85885283D01*
X73173039Y-85985286D01*
X73233175Y-86075286D01*
X73309714Y-86151825D01*
X73399714Y-86211961D01*
X73499717Y-86253383D01*
X73605879Y-86274500D01*
X73714121Y-86274500D01*
X73820283Y-86253383D01*
X73920286Y-86211961D01*
X74010286Y-86151825D01*
X74086825Y-86075286D01*
X74146961Y-85985286D01*
X74188383Y-85885283D01*
X74192759Y-85863285D01*
X74491545Y-85564500D01*
X77308809Y-85564500D01*
X77308809Y-86025000D01*
X77315557Y-86093514D01*
X77335542Y-86159395D01*
X77367995Y-86220111D01*
X77411670Y-86273330D01*
X77464889Y-86317005D01*
X77525605Y-86349458D01*
X77560357Y-86360000D01*
X77525605Y-86370542D01*
X77464889Y-86402995D01*
X77411670Y-86446670D01*
X77367995Y-86499889D01*
X77335542Y-86560605D01*
X77315557Y-86626486D01*
X77308809Y-86695000D01*
X77308809Y-87295000D01*
X77315557Y-87363514D01*
X77335542Y-87429395D01*
X77367995Y-87490111D01*
X77411670Y-87543330D01*
X77464889Y-87587005D01*
X77525605Y-87619458D01*
X77560357Y-87630000D01*
X77525605Y-87640542D01*
X77464889Y-87672995D01*
X77411670Y-87716670D01*
X77367995Y-87769889D01*
X77335542Y-87830605D01*
X77315557Y-87896486D01*
X77308809Y-87965000D01*
X77308809Y-88565000D01*
X77315557Y-88633514D01*
X77335542Y-88699395D01*
X77367995Y-88760111D01*
X77411670Y-88813330D01*
X77464889Y-88857005D01*
X77525605Y-88889458D01*
X77560357Y-88900000D01*
X77525605Y-88910542D01*
X77464889Y-88942995D01*
X77411670Y-88986670D01*
X77367995Y-89039889D01*
X77335542Y-89100605D01*
X77315557Y-89166486D01*
X77308809Y-89235000D01*
X77308809Y-89835000D01*
X77315557Y-89903514D01*
X77335542Y-89969395D01*
X77367995Y-90030111D01*
X77411670Y-90083330D01*
X77464889Y-90127005D01*
X77525605Y-90159458D01*
X77560357Y-90170000D01*
X77525605Y-90180542D01*
X77464889Y-90212995D01*
X77411670Y-90256670D01*
X77367995Y-90309889D01*
X77356978Y-90330500D01*
X75334292Y-90330500D01*
X75310999Y-90328206D01*
X75287706Y-90330500D01*
X75287697Y-90330500D01*
X75217982Y-90337366D01*
X75128538Y-90364499D01*
X75046107Y-90408559D01*
X74973855Y-90467855D01*
X74959001Y-90485955D01*
X73721958Y-91722999D01*
X73703856Y-91737855D01*
X73686467Y-91759044D01*
X73644560Y-91810107D01*
X73600499Y-91892539D01*
X73573367Y-91981982D01*
X73564205Y-92075000D01*
X73566501Y-92098310D01*
X73566500Y-109068065D01*
X73554039Y-109086714D01*
X73518104Y-109173470D01*
X72434436Y-109173470D01*
X72486286Y-109138825D01*
X72562825Y-109062286D01*
X72622961Y-108972286D01*
X72664383Y-108872283D01*
X72685500Y-108766121D01*
X72685500Y-108657879D01*
X72664383Y-108551717D01*
X72622961Y-108451714D01*
X72562825Y-108361714D01*
X72486286Y-108285175D01*
X72396286Y-108225039D01*
X72296283Y-108183617D01*
X72190121Y-108162500D01*
X72081879Y-108162500D01*
X71975717Y-108183617D01*
X71875714Y-108225039D01*
X71785714Y-108285175D01*
X71709175Y-108361714D01*
X71707313Y-108364500D01*
X68537546Y-108364500D01*
X67554007Y-107380962D01*
X67539147Y-107362855D01*
X67466895Y-107303559D01*
X67384464Y-107259499D01*
X67295020Y-107232366D01*
X67225305Y-107225500D01*
X67225302Y-107225500D01*
X67202002Y-107223205D01*
X67178702Y-107225500D01*
X64811191Y-107225500D01*
X64811191Y-107174500D01*
X69551065Y-107174500D01*
X69569714Y-107186961D01*
X69669717Y-107228383D01*
X69775879Y-107249500D01*
X69884121Y-107249500D01*
X69990283Y-107228383D01*
X70090286Y-107186961D01*
X70180286Y-107126825D01*
X70256825Y-107050286D01*
X70316961Y-106960286D01*
X70358383Y-106860283D01*
X70379500Y-106754121D01*
X70379500Y-106645879D01*
X70364558Y-106570758D01*
X70368893Y-106568441D01*
X70441145Y-106509145D01*
X70456006Y-106491038D01*
X71947043Y-105000001D01*
X71965145Y-104985145D01*
X72024441Y-104912893D01*
X72068501Y-104830462D01*
X72095634Y-104741018D01*
X72102500Y-104671303D01*
X72102500Y-104671294D01*
X72104794Y-104648001D01*
X72102500Y-104624708D01*
X72102500Y-101877300D01*
X72104795Y-101854000D01*
X72102500Y-101830697D01*
X72095634Y-101760982D01*
X72068501Y-101671538D01*
X72046913Y-101631150D01*
X72063121Y-101631150D01*
X72169283Y-101610033D01*
X72269286Y-101568611D01*
X72359286Y-101508475D01*
X72435825Y-101431936D01*
X72495961Y-101341936D01*
X72537383Y-101241933D01*
X72558500Y-101135771D01*
X72558500Y-101027529D01*
X72537383Y-100921367D01*
X72495961Y-100821364D01*
X72435825Y-100731364D01*
X72359286Y-100654825D01*
X72269286Y-100594689D01*
X72169283Y-100553267D01*
X72147286Y-100548892D01*
X71669291Y-100070897D01*
X71761598Y-100021558D01*
X71936631Y-99877911D01*
X72080278Y-99702878D01*
X72187017Y-99503183D01*
X72252747Y-99286501D01*
X72274941Y-99061160D01*
X72252747Y-98835819D01*
X72187017Y-98619137D01*
X72106862Y-98469177D01*
X72189720Y-98485659D01*
X72297962Y-98485659D01*
X72404124Y-98464542D01*
X72504127Y-98423120D01*
X72594127Y-98362984D01*
X72670666Y-98286445D01*
X72730802Y-98196445D01*
X72772224Y-98096442D01*
X72793341Y-97990280D01*
X72793341Y-97882038D01*
X72772224Y-97775876D01*
X72730802Y-97675873D01*
X72670666Y-97585873D01*
X72594127Y-97509334D01*
X72504127Y-97449198D01*
X72404124Y-97407776D01*
X72297962Y-97386659D01*
X72189720Y-97386659D01*
X72083558Y-97407776D01*
X71983555Y-97449198D01*
X71964906Y-97461659D01*
X70603179Y-97461659D01*
X70579879Y-97459364D01*
X70556579Y-97461659D01*
X70556576Y-97461659D01*
X70486861Y-97468525D01*
X70397417Y-97495658D01*
X70314986Y-97539718D01*
X70242734Y-97599014D01*
X70227878Y-97617116D01*
X69403958Y-98441037D01*
X69385856Y-98455893D01*
X69371001Y-98473994D01*
X69326560Y-98528145D01*
X69282499Y-98610577D01*
X69255367Y-98700020D01*
X69246205Y-98793038D01*
X69248501Y-98816348D01*
X69248501Y-99213298D01*
X68857718Y-98822516D01*
X68875500Y-98733121D01*
X68875500Y-98624879D01*
X68854383Y-98518717D01*
X68812961Y-98418714D01*
X68752825Y-98328714D01*
X68676286Y-98252175D01*
X68586286Y-98192039D01*
X68486283Y-98150617D01*
X68380121Y-98129500D01*
X68271879Y-98129500D01*
X68165717Y-98150617D01*
X68065714Y-98192039D01*
X67975714Y-98252175D01*
X67899175Y-98328714D01*
X67839039Y-98418714D01*
X67797617Y-98518717D01*
X67776500Y-98624879D01*
X67776500Y-98733121D01*
X67797617Y-98839283D01*
X67839039Y-98939286D01*
X67849835Y-98955444D01*
X67849205Y-98961842D01*
X67851500Y-98985142D01*
X67851500Y-98985145D01*
X67858366Y-99054860D01*
X67885499Y-99144304D01*
X67929560Y-99226735D01*
X67988856Y-99298987D01*
X68006957Y-99313843D01*
X68486500Y-99793387D01*
X68486501Y-100052691D01*
X68484205Y-100076000D01*
X68493367Y-100169018D01*
X68520499Y-100258461D01*
X68552608Y-100318533D01*
X68564560Y-100340893D01*
X68623856Y-100413145D01*
X68641958Y-100428001D01*
X70391501Y-102177545D01*
X70391500Y-104451455D01*
X69617457Y-105225500D01*
X67116854Y-105225500D01*
X67152286Y-105201825D01*
X67228825Y-105125286D01*
X67288961Y-105035286D01*
X67330383Y-104935283D01*
X67351500Y-104829121D01*
X67351500Y-104720879D01*
X67330383Y-104614717D01*
X67288961Y-104514714D01*
X67228825Y-104424714D01*
X67152286Y-104348175D01*
X67062286Y-104288039D01*
X66962283Y-104246617D01*
X66856121Y-104225500D01*
X66747879Y-104225500D01*
X66641717Y-104246617D01*
X66541714Y-104288039D01*
X66451714Y-104348175D01*
X66375175Y-104424714D01*
X66315039Y-104514714D01*
X66273617Y-104614717D01*
X66269241Y-104636715D01*
X66180456Y-104725500D01*
X66042068Y-104725500D01*
X66060383Y-104681283D01*
X66081500Y-104575121D01*
X66081500Y-104466879D01*
X66060383Y-104360717D01*
X66018961Y-104260714D01*
X65958825Y-104170714D01*
X65882286Y-104094175D01*
X65792286Y-104034039D01*
X65692283Y-103992617D01*
X65586121Y-103971500D01*
X65477879Y-103971500D01*
X65371717Y-103992617D01*
X65271714Y-104034039D01*
X65253065Y-104046500D01*
X64897292Y-104046500D01*
X64873999Y-104044206D01*
X64850706Y-104046500D01*
X64850697Y-104046500D01*
X64808791Y-104050627D01*
X64804443Y-104006486D01*
X64784458Y-103940605D01*
X64752005Y-103879889D01*
X64708330Y-103826670D01*
X64655111Y-103782995D01*
X64594395Y-103750542D01*
X64528514Y-103730557D01*
X64460000Y-103723809D01*
X64423003Y-103723809D01*
X64430500Y-103686121D01*
X64430500Y-103581499D01*
X65744064Y-103581499D01*
X65762713Y-103593960D01*
X65862716Y-103635382D01*
X65968878Y-103656499D01*
X66077120Y-103656499D01*
X66183282Y-103635382D01*
X66283285Y-103593960D01*
X66373285Y-103533824D01*
X66449824Y-103457285D01*
X66509960Y-103367285D01*
X66551382Y-103267282D01*
X66572499Y-103161120D01*
X66572499Y-103052878D01*
X66551382Y-102946716D01*
X66509960Y-102846713D01*
X66449824Y-102756713D01*
X66373285Y-102680174D01*
X66283285Y-102620038D01*
X66183282Y-102578616D01*
X66077120Y-102557499D01*
X65968878Y-102557499D01*
X65862716Y-102578616D01*
X65762713Y-102620038D01*
X65744064Y-102632499D01*
X64472674Y-102632499D01*
X64563289Y-102548987D01*
X64727768Y-102323314D01*
X64845060Y-102069889D01*
X64878762Y-101958767D01*
X64760780Y-101738660D01*
X63637380Y-101738660D01*
X63637380Y-101758660D01*
X63362380Y-101758660D01*
X63362380Y-101738660D01*
X63342380Y-101738660D01*
X63342380Y-101463660D01*
X63362380Y-101463660D01*
X63362380Y-101443660D01*
X63637380Y-101443660D01*
X63637380Y-101463660D01*
X64760780Y-101463660D01*
X64878762Y-101243553D01*
X64845060Y-101132431D01*
X64727768Y-100879006D01*
X64563289Y-100653333D01*
X64357944Y-100464084D01*
X64119624Y-100318533D01*
X63857488Y-100222272D01*
X63637382Y-100339430D01*
X63637382Y-100202678D01*
X63725221Y-100194027D01*
X63941903Y-100128297D01*
X64141598Y-100021558D01*
X64316631Y-99877911D01*
X64460278Y-99702878D01*
X64567017Y-99503183D01*
X64632747Y-99286501D01*
X64654941Y-99061160D01*
X64632747Y-98835819D01*
X64567017Y-98619137D01*
X64460278Y-98419442D01*
X64316631Y-98244409D01*
X64141598Y-98100762D01*
X63941903Y-97994023D01*
X63725221Y-97928293D01*
X63556342Y-97911660D01*
X63443418Y-97911660D01*
X63274539Y-97928293D01*
X63057857Y-97994023D01*
X62858162Y-98100762D01*
X62683129Y-98244409D01*
X62539482Y-98419442D01*
X62432743Y-98619137D01*
X62399369Y-98729158D01*
X62399368Y-96853161D01*
X62432743Y-96963183D01*
X62539482Y-97162878D01*
X62683129Y-97337911D01*
X62858162Y-97481558D01*
X63057857Y-97588297D01*
X63274539Y-97654027D01*
X63443418Y-97670660D01*
X63556342Y-97670660D01*
X63725221Y-97654027D01*
X63941903Y-97588297D01*
X64141598Y-97481558D01*
X64316631Y-97337911D01*
X64460278Y-97162878D01*
X64567017Y-96963183D01*
X64632747Y-96746501D01*
X64654941Y-96521160D01*
X64632747Y-96295819D01*
X64567017Y-96079137D01*
X64460278Y-95879442D01*
X64316631Y-95704409D01*
X64141598Y-95560762D01*
X63941903Y-95454023D01*
X63725221Y-95388293D01*
X63556342Y-95371660D01*
X63443418Y-95371660D01*
X63274539Y-95388293D01*
X63057857Y-95454023D01*
X62858162Y-95560762D01*
X62683129Y-95704409D01*
X62539482Y-95879442D01*
X62432743Y-96079137D01*
X62399368Y-96189159D01*
X62399368Y-95752715D01*
X63093097Y-95058987D01*
X63274539Y-95114027D01*
X63443418Y-95130660D01*
X63556342Y-95130660D01*
X63725221Y-95114027D01*
X63941903Y-95048297D01*
X64141598Y-94941558D01*
X64316631Y-94797911D01*
X64460278Y-94622878D01*
X64549658Y-94455660D01*
X66650540Y-94455660D01*
X66673840Y-94457955D01*
X66697140Y-94455660D01*
X66697143Y-94455660D01*
X66766858Y-94448794D01*
X66856302Y-94421661D01*
X66938733Y-94377601D01*
X67010985Y-94318305D01*
X67025845Y-94300198D01*
X67506544Y-93819500D01*
X67856978Y-93819500D01*
X67867995Y-93840111D01*
X67911670Y-93893330D01*
X67964889Y-93937005D01*
X68025605Y-93969458D01*
X68060357Y-93980000D01*
X68025605Y-93990542D01*
X67964889Y-94022995D01*
X67911670Y-94066670D01*
X67867995Y-94119889D01*
X67855327Y-94143590D01*
X67816982Y-94147366D01*
X67727538Y-94174499D01*
X67645107Y-94218559D01*
X67572855Y-94277855D01*
X67558000Y-94295956D01*
X66990962Y-94862995D01*
X66972855Y-94877855D01*
X66913559Y-94950107D01*
X66869499Y-95032538D01*
X66842366Y-95121982D01*
X66833205Y-95215000D01*
X66835500Y-95238303D01*
X66835501Y-96435451D01*
X66084714Y-97186239D01*
X66062715Y-97190615D01*
X65962712Y-97232037D01*
X65872712Y-97292173D01*
X65796173Y-97368712D01*
X65736037Y-97458712D01*
X65694615Y-97558715D01*
X65673498Y-97664877D01*
X65673498Y-97773119D01*
X65694615Y-97879281D01*
X65736037Y-97979284D01*
X65796173Y-98069284D01*
X65872712Y-98145823D01*
X65962712Y-98205959D01*
X66062715Y-98247381D01*
X66168877Y-98268498D01*
X66277119Y-98268498D01*
X66383281Y-98247381D01*
X66483284Y-98205959D01*
X66573284Y-98145823D01*
X66649823Y-98069284D01*
X66709959Y-97979284D01*
X66751381Y-97879281D01*
X66755757Y-97857282D01*
X67629043Y-96983997D01*
X67647145Y-96969141D01*
X67706441Y-96896889D01*
X67750501Y-96814458D01*
X67777634Y-96725014D01*
X67781819Y-96682516D01*
X67811367Y-96706765D01*
X67919858Y-96764755D01*
X68037577Y-96800464D01*
X68160000Y-96812522D01*
X68616375Y-96809500D01*
X68772500Y-96653375D01*
X68772500Y-96022500D01*
X69047500Y-96022500D01*
X69047500Y-96653375D01*
X69203625Y-96809500D01*
X69660000Y-96812522D01*
X69782423Y-96800464D01*
X69900142Y-96764755D01*
X70008633Y-96706765D01*
X70103725Y-96628725D01*
X70181765Y-96533633D01*
X70239755Y-96425142D01*
X70275464Y-96307423D01*
X70287522Y-96185000D01*
X70284500Y-96178625D01*
X70128375Y-96022500D01*
X69047500Y-96022500D01*
X68772500Y-96022500D01*
X68752500Y-96022500D01*
X68752500Y-95747500D01*
X68772500Y-95747500D01*
X68772500Y-95727500D01*
X69047500Y-95727500D01*
X69047500Y-95747500D01*
X70128375Y-95747500D01*
X70284500Y-95591375D01*
X70287522Y-95585000D01*
X70275464Y-95462577D01*
X70239755Y-95344858D01*
X70181765Y-95236367D01*
X70103725Y-95141275D01*
X70008633Y-95063235D01*
X69984076Y-95050109D01*
X69984458Y-95049395D01*
X70004443Y-94983514D01*
X70011191Y-94915000D01*
X70011191Y-94634852D01*
X71439043Y-93207001D01*
X71457145Y-93192145D01*
X71516441Y-93119893D01*
X71560501Y-93037462D01*
X71587634Y-92948018D01*
X71594500Y-92878303D01*
X71594500Y-92878300D01*
X71596795Y-92855000D01*
X71594500Y-92831700D01*
X71594500Y-88923303D01*
X71596795Y-88900000D01*
X71587634Y-88806981D01*
X71573416Y-88760111D01*
X71560501Y-88717538D01*
X71537404Y-88674326D01*
X71516441Y-88635106D01*
X71472000Y-88580955D01*
X71471996Y-88580951D01*
X71457145Y-88562855D01*
X71439048Y-88548003D01*
X70360543Y-87469500D01*
X70841065Y-87469500D01*
X70859714Y-87481961D01*
X70959717Y-87523383D01*
X71065879Y-87544500D01*
X71174121Y-87544500D01*
X71280283Y-87523383D01*
X71380286Y-87481961D01*
X71470286Y-87421825D01*
X71546825Y-87345286D01*
X71606961Y-87255286D01*
X71648383Y-87155283D01*
X71669500Y-87049121D01*
X71669500Y-86940879D01*
X71648383Y-86834717D01*
X71606961Y-86734714D01*
X71546825Y-86644714D01*
X71470286Y-86568175D01*
X71380286Y-86508039D01*
X71280283Y-86466617D01*
X71174121Y-86445500D01*
X71065879Y-86445500D01*
X70959717Y-86466617D01*
X70859714Y-86508039D01*
X70841065Y-86520500D01*
X69963022Y-86520500D01*
X69952005Y-86499889D01*
X69908330Y-86446670D01*
X69855111Y-86402995D01*
X69794395Y-86370542D01*
X69759643Y-86360000D01*
X69794395Y-86349458D01*
X69855111Y-86317005D01*
X69908330Y-86273330D01*
X69952005Y-86220111D01*
X69963022Y-86199500D01*
X70206065Y-86199500D01*
X70224714Y-86211961D01*
X70324717Y-86253383D01*
X70430879Y-86274500D01*
X70539121Y-86274500D01*
X70645283Y-86253383D01*
X70745286Y-86211961D01*
X70835286Y-86151825D01*
X70911825Y-86075286D01*
X70971961Y-85985286D01*
X71013383Y-85885283D01*
X71034500Y-85779121D01*
X71034500Y-85670879D01*
X71013383Y-85564717D01*
X70971961Y-85464714D01*
X70911825Y-85374714D01*
X70835286Y-85298175D01*
X70745286Y-85238039D01*
X70645283Y-85196617D01*
X70539121Y-85175500D01*
X70430879Y-85175500D01*
X70324717Y-85196617D01*
X70224714Y-85238039D01*
X70206065Y-85250500D01*
X70040637Y-85250500D01*
X70103725Y-85198725D01*
X70181765Y-85103633D01*
X70239755Y-84995142D01*
X70275464Y-84877423D01*
X70287522Y-84755000D01*
X70284500Y-84748625D01*
X70128375Y-84592500D01*
X69047500Y-84592500D01*
X69047500Y-84612500D01*
X68772500Y-84612500D01*
X68772500Y-84592500D01*
X67691625Y-84592500D01*
X67535500Y-84748625D01*
X67532478Y-84755000D01*
X67544536Y-84877423D01*
X67580245Y-84995142D01*
X67638235Y-85103633D01*
X67716275Y-85198725D01*
X67811367Y-85276765D01*
X67835924Y-85289891D01*
X67835542Y-85290605D01*
X67815557Y-85356486D01*
X67808809Y-85425000D01*
X67808809Y-86025000D01*
X67815557Y-86093514D01*
X67835542Y-86159395D01*
X67867995Y-86220111D01*
X67911670Y-86273330D01*
X67964889Y-86317005D01*
X68025605Y-86349458D01*
X68060357Y-86360000D01*
X68025605Y-86370542D01*
X67980627Y-86394583D01*
X66191759Y-84605716D01*
X66187383Y-84583717D01*
X66145961Y-84483714D01*
X66085825Y-84393714D01*
X66009286Y-84317175D01*
X65919286Y-84257039D01*
X65819283Y-84215617D01*
X65713121Y-84194500D01*
X65604879Y-84194500D01*
X65498717Y-84215617D01*
X65398714Y-84257039D01*
X65308714Y-84317175D01*
X65232175Y-84393714D01*
X65172039Y-84483714D01*
X65130617Y-84583717D01*
X65109500Y-84689879D01*
X65109500Y-84759737D01*
X64577707Y-84227944D01*
X64599834Y-84155000D01*
X67532478Y-84155000D01*
X67535500Y-84161375D01*
X67691625Y-84317500D01*
X68772500Y-84317500D01*
X68772500Y-83686625D01*
X69047500Y-83686625D01*
X69047500Y-84317500D01*
X70128375Y-84317500D01*
X70284500Y-84161375D01*
X70287522Y-84155000D01*
X70275464Y-84032577D01*
X70239755Y-83914858D01*
X70181765Y-83806367D01*
X70103725Y-83711275D01*
X70008633Y-83633235D01*
X69900142Y-83575245D01*
X69782423Y-83539536D01*
X69660000Y-83527478D01*
X69203625Y-83530500D01*
X69047500Y-83686625D01*
X68772500Y-83686625D01*
X68616375Y-83530500D01*
X68160000Y-83527478D01*
X68037577Y-83539536D01*
X67919858Y-83575245D01*
X67811367Y-83633235D01*
X67716275Y-83711275D01*
X67638235Y-83806367D01*
X67580245Y-83914858D01*
X67544536Y-84032577D01*
X67532478Y-84155000D01*
X64599834Y-84155000D01*
X64632747Y-84046501D01*
X64654941Y-83821160D01*
X64632747Y-83595819D01*
X64567017Y-83379137D01*
X64460278Y-83179442D01*
X64316631Y-83004409D01*
X64200036Y-82908721D01*
X71630733Y-82908721D01*
X71703779Y-83148487D01*
X71958374Y-83266465D01*
X72231094Y-83332507D01*
X72511459Y-83344074D01*
X72788692Y-83300724D01*
X73052142Y-83204120D01*
X73156221Y-83148487D01*
X73229267Y-82908721D01*
X72430000Y-82109454D01*
X71630733Y-82908721D01*
X64200036Y-82908721D01*
X64141598Y-82860762D01*
X63941903Y-82754023D01*
X63725221Y-82688293D01*
X63556342Y-82671660D01*
X63443418Y-82671660D01*
X63274539Y-82688293D01*
X63057857Y-82754023D01*
X62858162Y-82860762D01*
X62683129Y-83004409D01*
X62539482Y-83179442D01*
X62432743Y-83379137D01*
X62367013Y-83595819D01*
X62344819Y-83821160D01*
X62367013Y-84046501D01*
X62432743Y-84263183D01*
X62539482Y-84462878D01*
X62683129Y-84637911D01*
X62858162Y-84781558D01*
X63057857Y-84888297D01*
X63274539Y-84954027D01*
X63443418Y-84970660D01*
X63556342Y-84970660D01*
X63725221Y-84954027D01*
X63906664Y-84898987D01*
X66088176Y-87080500D01*
X65985879Y-87080500D01*
X65879717Y-87101617D01*
X65779714Y-87143039D01*
X65689714Y-87203175D01*
X65613175Y-87279714D01*
X65553039Y-87369714D01*
X65511617Y-87469717D01*
X65490500Y-87575879D01*
X65490500Y-87680736D01*
X64577707Y-86767944D01*
X64632747Y-86586501D01*
X64654941Y-86361160D01*
X64632747Y-86135819D01*
X64567017Y-85919137D01*
X64460278Y-85719442D01*
X64316631Y-85544409D01*
X64141598Y-85400762D01*
X63941903Y-85294023D01*
X63725221Y-85228293D01*
X63556342Y-85211660D01*
X63443418Y-85211660D01*
X63274539Y-85228293D01*
X63057857Y-85294023D01*
X62858162Y-85400762D01*
X62683129Y-85544409D01*
X62539482Y-85719442D01*
X62432743Y-85919137D01*
X62367013Y-86135819D01*
X62344819Y-86361160D01*
X62367013Y-86586501D01*
X62432743Y-86803183D01*
X62539482Y-87002878D01*
X62683129Y-87177911D01*
X62858162Y-87321558D01*
X63057857Y-87428297D01*
X63274539Y-87494027D01*
X63443418Y-87510660D01*
X63556342Y-87510660D01*
X63725221Y-87494027D01*
X63906664Y-87438987D01*
X65596718Y-89129042D01*
X65611574Y-89147144D01*
X65683826Y-89206440D01*
X65766257Y-89250500D01*
X65855701Y-89277633D01*
X65925416Y-89284499D01*
X65925425Y-89284499D01*
X65948718Y-89286793D01*
X65972011Y-89284499D01*
X66818986Y-89284499D01*
X66781617Y-89374717D01*
X66760500Y-89480879D01*
X66760500Y-89589121D01*
X66781617Y-89695283D01*
X66823039Y-89795286D01*
X66883175Y-89885286D01*
X66959714Y-89961825D01*
X67049714Y-90021961D01*
X67149717Y-90063383D01*
X67255879Y-90084500D01*
X67364121Y-90084500D01*
X67470283Y-90063383D01*
X67570286Y-90021961D01*
X67588935Y-90009500D01*
X67856978Y-90009500D01*
X67867995Y-90030111D01*
X67911670Y-90083330D01*
X67964889Y-90127005D01*
X68025605Y-90159458D01*
X68060357Y-90170000D01*
X68025605Y-90180542D01*
X67964889Y-90212995D01*
X67911670Y-90256670D01*
X67867995Y-90309889D01*
X67856978Y-90330500D01*
X65600264Y-90330500D01*
X64577707Y-89307943D01*
X64632747Y-89126501D01*
X64654941Y-88901160D01*
X64632747Y-88675819D01*
X64567017Y-88459137D01*
X64460278Y-88259442D01*
X64316631Y-88084409D01*
X64141598Y-87940762D01*
X63941903Y-87834023D01*
X63725221Y-87768293D01*
X63556342Y-87751660D01*
X63443418Y-87751660D01*
X63274539Y-87768293D01*
X63057857Y-87834023D01*
X62858162Y-87940762D01*
X62683129Y-88084409D01*
X62539482Y-88259442D01*
X62450102Y-88426660D01*
X62391802Y-88426660D01*
X62368509Y-88424366D01*
X62345216Y-88426660D01*
X62345207Y-88426660D01*
X62275492Y-88433526D01*
X62186048Y-88460659D01*
X62103617Y-88504719D01*
X62031365Y-88564015D01*
X62016509Y-88582117D01*
X60699500Y-89899127D01*
X60699500Y-81019500D01*
X71340043Y-81019500D01*
X71436277Y-81115734D01*
G36*
X83547500Y-108191500D02*
G01*
X83567500Y-108191500D01*
X83567500Y-108208500D01*
X83547500Y-108208500D01*
X83547500Y-108223809D01*
X83272500Y-108223809D01*
X83272500Y-108208500D01*
X83252500Y-108208500D01*
X83252500Y-108191500D01*
X83272500Y-108191500D01*
X83272500Y-108176191D01*
X83547500Y-108176191D01*
X83547500Y-108191500D01*
X83547500Y-108191500D01*
G37*
X83547500Y-108191500D02*
X83567500Y-108191500D01*
X83567500Y-108208500D01*
X83547500Y-108208500D01*
X83547500Y-108223809D01*
X83272500Y-108223809D01*
X83272500Y-108208500D01*
X83252500Y-108208500D01*
X83252500Y-108191500D01*
X83272500Y-108191500D01*
X83272500Y-108176191D01*
X83547500Y-108176191D01*
X83547500Y-108191500D01*
M02*
