G04 #@! TF.GenerationSoftware,KiCad,Pcbnew,(5.1.2)-1*
G04 #@! TF.CreationDate,2019-11-23T21:49:29-05:00*
G04 #@! TF.ProjectId,c128-sram,63313238-2d73-4726-916d-2e6b69636164,rev?*
G04 #@! TF.SameCoordinates,Original*
G04 #@! TF.FileFunction,Soldermask,Top*
G04 #@! TF.FilePolarity,Negative*
%FSLAX46Y46*%
G04 Gerber Fmt 4.6, Leading zero omitted, Abs format (unit mm)*
G04 Created by KiCad (PCBNEW (5.1.2)-1) date 2019-11-23 21:49:29*
%MOMM*%
%LPD*%
G04 APERTURE LIST*
%ADD10C,0.100000*%
G04 APERTURE END LIST*
D10*
G36*
X82660443Y-113405519D02*
G01*
X82726627Y-113412037D01*
X82896466Y-113463557D01*
X83052991Y-113547222D01*
X83088729Y-113576552D01*
X83190186Y-113659814D01*
X83259395Y-113744147D01*
X83302778Y-113797009D01*
X83386443Y-113953534D01*
X83437963Y-114123373D01*
X83455359Y-114300000D01*
X83437963Y-114476627D01*
X83386443Y-114646466D01*
X83302778Y-114802991D01*
X83273448Y-114838729D01*
X83190186Y-114940186D01*
X83088729Y-115023448D01*
X83052991Y-115052778D01*
X82896466Y-115136443D01*
X82726627Y-115187963D01*
X82660442Y-115194482D01*
X82594260Y-115201000D01*
X82505740Y-115201000D01*
X82439558Y-115194482D01*
X82373373Y-115187963D01*
X82203534Y-115136443D01*
X82047009Y-115052778D01*
X82011271Y-115023448D01*
X81909814Y-114940186D01*
X81826552Y-114838729D01*
X81797222Y-114802991D01*
X81713557Y-114646466D01*
X81662037Y-114476627D01*
X81644641Y-114300000D01*
X81662037Y-114123373D01*
X81713557Y-113953534D01*
X81797222Y-113797009D01*
X81840605Y-113744147D01*
X81909814Y-113659814D01*
X82011271Y-113576552D01*
X82047009Y-113547222D01*
X82203534Y-113463557D01*
X82373373Y-113412037D01*
X82439557Y-113405519D01*
X82505740Y-113399000D01*
X82594260Y-113399000D01*
X82660443Y-113405519D01*
X82660443Y-113405519D01*
G37*
G36*
X80120443Y-113405519D02*
G01*
X80186627Y-113412037D01*
X80356466Y-113463557D01*
X80512991Y-113547222D01*
X80548729Y-113576552D01*
X80650186Y-113659814D01*
X80719395Y-113744147D01*
X80762778Y-113797009D01*
X80846443Y-113953534D01*
X80897963Y-114123373D01*
X80915359Y-114300000D01*
X80897963Y-114476627D01*
X80846443Y-114646466D01*
X80762778Y-114802991D01*
X80733448Y-114838729D01*
X80650186Y-114940186D01*
X80548729Y-115023448D01*
X80512991Y-115052778D01*
X80356466Y-115136443D01*
X80186627Y-115187963D01*
X80120442Y-115194482D01*
X80054260Y-115201000D01*
X79965740Y-115201000D01*
X79899558Y-115194482D01*
X79833373Y-115187963D01*
X79663534Y-115136443D01*
X79507009Y-115052778D01*
X79471271Y-115023448D01*
X79369814Y-114940186D01*
X79286552Y-114838729D01*
X79257222Y-114802991D01*
X79173557Y-114646466D01*
X79122037Y-114476627D01*
X79104641Y-114300000D01*
X79122037Y-114123373D01*
X79173557Y-113953534D01*
X79257222Y-113797009D01*
X79300605Y-113744147D01*
X79369814Y-113659814D01*
X79471271Y-113576552D01*
X79507009Y-113547222D01*
X79663534Y-113463557D01*
X79833373Y-113412037D01*
X79899557Y-113405519D01*
X79965740Y-113399000D01*
X80054260Y-113399000D01*
X80120443Y-113405519D01*
X80120443Y-113405519D01*
G37*
G36*
X74561000Y-115201000D02*
G01*
X72759000Y-115201000D01*
X72759000Y-113399000D01*
X74561000Y-113399000D01*
X74561000Y-115201000D01*
X74561000Y-115201000D01*
G37*
G36*
X65671000Y-115201000D02*
G01*
X63869000Y-115201000D01*
X63869000Y-113399000D01*
X65671000Y-113399000D01*
X65671000Y-115201000D01*
X65671000Y-115201000D01*
G37*
G36*
X69960443Y-113405519D02*
G01*
X70026627Y-113412037D01*
X70196466Y-113463557D01*
X70352991Y-113547222D01*
X70388729Y-113576552D01*
X70490186Y-113659814D01*
X70559395Y-113744147D01*
X70602778Y-113797009D01*
X70686443Y-113953534D01*
X70737963Y-114123373D01*
X70755359Y-114300000D01*
X70737963Y-114476627D01*
X70686443Y-114646466D01*
X70602778Y-114802991D01*
X70573448Y-114838729D01*
X70490186Y-114940186D01*
X70388729Y-115023448D01*
X70352991Y-115052778D01*
X70196466Y-115136443D01*
X70026627Y-115187963D01*
X69960442Y-115194482D01*
X69894260Y-115201000D01*
X69805740Y-115201000D01*
X69739558Y-115194482D01*
X69673373Y-115187963D01*
X69503534Y-115136443D01*
X69347009Y-115052778D01*
X69311271Y-115023448D01*
X69209814Y-114940186D01*
X69126552Y-114838729D01*
X69097222Y-114802991D01*
X69013557Y-114646466D01*
X68962037Y-114476627D01*
X68944641Y-114300000D01*
X68962037Y-114123373D01*
X69013557Y-113953534D01*
X69097222Y-113797009D01*
X69140605Y-113744147D01*
X69209814Y-113659814D01*
X69311271Y-113576552D01*
X69347009Y-113547222D01*
X69503534Y-113463557D01*
X69673373Y-113412037D01*
X69739557Y-113405519D01*
X69805740Y-113399000D01*
X69894260Y-113399000D01*
X69960443Y-113405519D01*
X69960443Y-113405519D01*
G37*
G36*
X78371000Y-115201000D02*
G01*
X76569000Y-115201000D01*
X76569000Y-113399000D01*
X78371000Y-113399000D01*
X78371000Y-115201000D01*
X78371000Y-115201000D01*
G37*
G36*
X67420443Y-113405519D02*
G01*
X67486627Y-113412037D01*
X67656466Y-113463557D01*
X67812991Y-113547222D01*
X67848729Y-113576552D01*
X67950186Y-113659814D01*
X68019395Y-113744147D01*
X68062778Y-113797009D01*
X68146443Y-113953534D01*
X68197963Y-114123373D01*
X68215359Y-114300000D01*
X68197963Y-114476627D01*
X68146443Y-114646466D01*
X68062778Y-114802991D01*
X68033448Y-114838729D01*
X67950186Y-114940186D01*
X67848729Y-115023448D01*
X67812991Y-115052778D01*
X67656466Y-115136443D01*
X67486627Y-115187963D01*
X67420442Y-115194482D01*
X67354260Y-115201000D01*
X67265740Y-115201000D01*
X67199558Y-115194482D01*
X67133373Y-115187963D01*
X66963534Y-115136443D01*
X66807009Y-115052778D01*
X66771271Y-115023448D01*
X66669814Y-114940186D01*
X66586552Y-114838729D01*
X66557222Y-114802991D01*
X66473557Y-114646466D01*
X66422037Y-114476627D01*
X66404641Y-114300000D01*
X66422037Y-114123373D01*
X66473557Y-113953534D01*
X66557222Y-113797009D01*
X66600605Y-113744147D01*
X66669814Y-113659814D01*
X66771271Y-113576552D01*
X66807009Y-113547222D01*
X66963534Y-113463557D01*
X67133373Y-113412037D01*
X67199557Y-113405519D01*
X67265740Y-113399000D01*
X67354260Y-113399000D01*
X67420443Y-113405519D01*
X67420443Y-113405519D01*
G37*
G36*
X87243228Y-112171703D02*
G01*
X87398100Y-112235853D01*
X87537481Y-112328985D01*
X87656015Y-112447519D01*
X87749147Y-112586900D01*
X87813297Y-112741772D01*
X87846000Y-112906184D01*
X87846000Y-113073816D01*
X87813297Y-113238228D01*
X87749147Y-113393100D01*
X87656015Y-113532481D01*
X87537481Y-113651015D01*
X87398100Y-113744147D01*
X87243228Y-113808297D01*
X87078816Y-113841000D01*
X86911184Y-113841000D01*
X86746772Y-113808297D01*
X86591900Y-113744147D01*
X86452519Y-113651015D01*
X86333985Y-113532481D01*
X86240853Y-113393100D01*
X86176703Y-113238228D01*
X86144000Y-113073816D01*
X86144000Y-112906184D01*
X86176703Y-112741772D01*
X86240853Y-112586900D01*
X86333985Y-112447519D01*
X86452519Y-112328985D01*
X86591900Y-112235853D01*
X86746772Y-112171703D01*
X86911184Y-112139000D01*
X87078816Y-112139000D01*
X87243228Y-112171703D01*
X87243228Y-112171703D01*
G37*
G36*
X84011000Y-111876000D02*
G01*
X82809000Y-111876000D01*
X82809000Y-104024000D01*
X84011000Y-104024000D01*
X84011000Y-111876000D01*
X84011000Y-111876000D01*
G37*
G36*
X64511000Y-111876000D02*
G01*
X63309000Y-111876000D01*
X63309000Y-104024000D01*
X64511000Y-104024000D01*
X64511000Y-111876000D01*
X64511000Y-111876000D01*
G37*
G36*
X87243228Y-109671703D02*
G01*
X87398100Y-109735853D01*
X87537481Y-109828985D01*
X87656015Y-109947519D01*
X87749147Y-110086900D01*
X87813297Y-110241772D01*
X87846000Y-110406184D01*
X87846000Y-110573816D01*
X87813297Y-110738228D01*
X87749147Y-110893100D01*
X87656015Y-111032481D01*
X87537481Y-111151015D01*
X87398100Y-111244147D01*
X87243228Y-111308297D01*
X87078816Y-111341000D01*
X86911184Y-111341000D01*
X86746772Y-111308297D01*
X86591900Y-111244147D01*
X86452519Y-111151015D01*
X86333985Y-111032481D01*
X86240853Y-110893100D01*
X86176703Y-110738228D01*
X86144000Y-110573816D01*
X86144000Y-110406184D01*
X86176703Y-110241772D01*
X86240853Y-110086900D01*
X86333985Y-109947519D01*
X86452519Y-109828985D01*
X86591900Y-109735853D01*
X86746772Y-109671703D01*
X86911184Y-109639000D01*
X87078816Y-109639000D01*
X87243228Y-109671703D01*
X87243228Y-109671703D01*
G37*
G36*
X86854999Y-105879737D02*
G01*
X86864608Y-105882652D01*
X86873472Y-105887390D01*
X86881237Y-105893763D01*
X86891448Y-105906206D01*
X86898378Y-105916575D01*
X86915705Y-105933902D01*
X86936080Y-105947515D01*
X86958720Y-105956891D01*
X86982753Y-105961671D01*
X87007257Y-105961670D01*
X87031290Y-105956888D01*
X87053929Y-105947510D01*
X87074302Y-105933895D01*
X87091629Y-105916568D01*
X87098558Y-105906198D01*
X87108763Y-105893763D01*
X87116528Y-105887390D01*
X87125392Y-105882652D01*
X87135001Y-105879737D01*
X87151140Y-105878148D01*
X87638861Y-105878148D01*
X87657199Y-105879954D01*
X87669450Y-105880556D01*
X87687869Y-105880556D01*
X87710149Y-105882750D01*
X87794233Y-105899476D01*
X87815660Y-105905976D01*
X87894858Y-105938780D01*
X87900303Y-105941691D01*
X87900309Y-105941693D01*
X87909169Y-105946429D01*
X87909173Y-105946432D01*
X87914614Y-105949340D01*
X87985899Y-105996971D01*
X88003204Y-106011172D01*
X88063828Y-106071796D01*
X88078029Y-106089101D01*
X88125660Y-106160386D01*
X88128568Y-106165827D01*
X88128571Y-106165831D01*
X88133307Y-106174691D01*
X88133309Y-106174697D01*
X88136220Y-106180142D01*
X88169024Y-106259340D01*
X88175524Y-106280767D01*
X88192250Y-106364851D01*
X88194444Y-106387131D01*
X88194444Y-106405550D01*
X88195046Y-106417801D01*
X88196852Y-106436139D01*
X88196852Y-106923862D01*
X88195046Y-106942199D01*
X88194444Y-106954450D01*
X88194444Y-106972869D01*
X88192250Y-106995149D01*
X88175524Y-107079233D01*
X88169024Y-107100660D01*
X88136220Y-107179858D01*
X88133309Y-107185303D01*
X88133307Y-107185309D01*
X88128571Y-107194169D01*
X88128568Y-107194173D01*
X88125660Y-107199614D01*
X88078029Y-107270899D01*
X88063828Y-107288204D01*
X88003204Y-107348828D01*
X87985899Y-107363029D01*
X87914614Y-107410660D01*
X87909173Y-107413568D01*
X87909169Y-107413571D01*
X87900309Y-107418307D01*
X87900303Y-107418309D01*
X87894858Y-107421220D01*
X87815660Y-107454024D01*
X87794233Y-107460524D01*
X87710149Y-107477250D01*
X87687869Y-107479444D01*
X87669450Y-107479444D01*
X87657199Y-107480046D01*
X87638862Y-107481852D01*
X87151140Y-107481852D01*
X87135001Y-107480263D01*
X87125392Y-107477348D01*
X87116528Y-107472610D01*
X87108763Y-107466237D01*
X87098552Y-107453794D01*
X87091622Y-107443425D01*
X87074295Y-107426098D01*
X87053920Y-107412485D01*
X87031280Y-107403109D01*
X87007247Y-107398329D01*
X86982743Y-107398330D01*
X86958710Y-107403112D01*
X86936071Y-107412490D01*
X86915698Y-107426105D01*
X86898371Y-107443432D01*
X86891442Y-107453802D01*
X86881237Y-107466237D01*
X86873472Y-107472610D01*
X86864608Y-107477348D01*
X86854999Y-107480263D01*
X86838860Y-107481852D01*
X86351138Y-107481852D01*
X86332801Y-107480046D01*
X86320550Y-107479444D01*
X86302131Y-107479444D01*
X86279851Y-107477250D01*
X86195767Y-107460524D01*
X86174340Y-107454024D01*
X86095142Y-107421220D01*
X86089697Y-107418309D01*
X86089691Y-107418307D01*
X86080831Y-107413571D01*
X86080827Y-107413568D01*
X86075386Y-107410660D01*
X86004101Y-107363029D01*
X85986796Y-107348828D01*
X85926172Y-107288204D01*
X85911971Y-107270899D01*
X85864340Y-107199614D01*
X85861432Y-107194173D01*
X85861429Y-107194169D01*
X85856693Y-107185309D01*
X85856691Y-107185303D01*
X85853780Y-107179858D01*
X85820976Y-107100660D01*
X85814476Y-107079233D01*
X85797750Y-106995149D01*
X85795556Y-106972869D01*
X85795556Y-106954450D01*
X85794954Y-106942199D01*
X85793148Y-106923862D01*
X85793148Y-106436139D01*
X85794954Y-106417801D01*
X85795556Y-106405550D01*
X85795556Y-106387131D01*
X85797750Y-106364851D01*
X85814476Y-106280767D01*
X85820976Y-106259340D01*
X85853780Y-106180142D01*
X85856691Y-106174697D01*
X85856693Y-106174691D01*
X85861429Y-106165831D01*
X85861432Y-106165827D01*
X85864340Y-106160386D01*
X85911971Y-106089101D01*
X85926172Y-106071796D01*
X85986796Y-106011172D01*
X86004101Y-105996971D01*
X86075386Y-105949340D01*
X86080827Y-105946432D01*
X86080831Y-105946429D01*
X86089691Y-105941693D01*
X86089697Y-105941691D01*
X86095142Y-105938780D01*
X86174340Y-105905976D01*
X86195767Y-105899476D01*
X86279851Y-105882750D01*
X86302131Y-105880556D01*
X86320550Y-105880556D01*
X86332801Y-105879954D01*
X86351139Y-105878148D01*
X86838860Y-105878148D01*
X86854999Y-105879737D01*
X86854999Y-105879737D01*
G37*
G36*
X86854999Y-103339737D02*
G01*
X86864608Y-103342652D01*
X86873472Y-103347390D01*
X86881237Y-103353763D01*
X86891448Y-103366206D01*
X86898378Y-103376575D01*
X86915705Y-103393902D01*
X86936080Y-103407515D01*
X86958720Y-103416891D01*
X86982753Y-103421671D01*
X87007257Y-103421670D01*
X87031290Y-103416888D01*
X87053929Y-103407510D01*
X87074302Y-103393895D01*
X87091629Y-103376568D01*
X87098558Y-103366198D01*
X87108763Y-103353763D01*
X87116528Y-103347390D01*
X87125392Y-103342652D01*
X87135001Y-103339737D01*
X87151140Y-103338148D01*
X87638861Y-103338148D01*
X87657199Y-103339954D01*
X87669450Y-103340556D01*
X87687869Y-103340556D01*
X87710149Y-103342750D01*
X87794233Y-103359476D01*
X87815660Y-103365976D01*
X87894858Y-103398780D01*
X87900303Y-103401691D01*
X87900309Y-103401693D01*
X87909169Y-103406429D01*
X87909173Y-103406432D01*
X87914614Y-103409340D01*
X87985899Y-103456971D01*
X88003204Y-103471172D01*
X88063828Y-103531796D01*
X88078029Y-103549101D01*
X88125660Y-103620386D01*
X88128568Y-103625827D01*
X88128571Y-103625831D01*
X88133307Y-103634691D01*
X88133309Y-103634697D01*
X88136220Y-103640142D01*
X88169024Y-103719340D01*
X88175524Y-103740767D01*
X88192250Y-103824851D01*
X88194444Y-103847131D01*
X88194444Y-103865550D01*
X88195046Y-103877801D01*
X88196852Y-103896139D01*
X88196852Y-104383862D01*
X88195046Y-104402199D01*
X88194444Y-104414450D01*
X88194444Y-104432869D01*
X88192250Y-104455149D01*
X88175524Y-104539233D01*
X88169024Y-104560660D01*
X88136220Y-104639858D01*
X88133309Y-104645303D01*
X88133307Y-104645309D01*
X88128571Y-104654169D01*
X88128568Y-104654173D01*
X88125660Y-104659614D01*
X88078029Y-104730899D01*
X88063828Y-104748204D01*
X88003204Y-104808828D01*
X87985899Y-104823029D01*
X87914614Y-104870660D01*
X87909173Y-104873568D01*
X87909169Y-104873571D01*
X87900309Y-104878307D01*
X87900303Y-104878309D01*
X87894858Y-104881220D01*
X87815660Y-104914024D01*
X87794233Y-104920524D01*
X87710149Y-104937250D01*
X87687869Y-104939444D01*
X87669450Y-104939444D01*
X87657199Y-104940046D01*
X87638862Y-104941852D01*
X87151140Y-104941852D01*
X87135001Y-104940263D01*
X87125392Y-104937348D01*
X87116528Y-104932610D01*
X87108763Y-104926237D01*
X87098552Y-104913794D01*
X87091622Y-104903425D01*
X87074295Y-104886098D01*
X87053920Y-104872485D01*
X87031280Y-104863109D01*
X87007247Y-104858329D01*
X86982743Y-104858330D01*
X86958710Y-104863112D01*
X86936071Y-104872490D01*
X86915698Y-104886105D01*
X86898371Y-104903432D01*
X86891442Y-104913802D01*
X86881237Y-104926237D01*
X86873472Y-104932610D01*
X86864608Y-104937348D01*
X86854999Y-104940263D01*
X86838860Y-104941852D01*
X86351138Y-104941852D01*
X86332801Y-104940046D01*
X86320550Y-104939444D01*
X86302131Y-104939444D01*
X86279851Y-104937250D01*
X86195767Y-104920524D01*
X86174340Y-104914024D01*
X86095142Y-104881220D01*
X86089697Y-104878309D01*
X86089691Y-104878307D01*
X86080831Y-104873571D01*
X86080827Y-104873568D01*
X86075386Y-104870660D01*
X86004101Y-104823029D01*
X85986796Y-104808828D01*
X85926172Y-104748204D01*
X85911971Y-104730899D01*
X85864340Y-104659614D01*
X85861432Y-104654173D01*
X85861429Y-104654169D01*
X85856693Y-104645309D01*
X85856691Y-104645303D01*
X85853780Y-104639858D01*
X85820976Y-104560660D01*
X85814476Y-104539233D01*
X85797750Y-104455149D01*
X85795556Y-104432869D01*
X85795556Y-104414450D01*
X85794954Y-104402199D01*
X85793148Y-104383862D01*
X85793148Y-103896139D01*
X85794954Y-103877801D01*
X85795556Y-103865550D01*
X85795556Y-103847131D01*
X85797750Y-103824851D01*
X85814476Y-103740767D01*
X85820976Y-103719340D01*
X85853780Y-103640142D01*
X85856691Y-103634697D01*
X85856693Y-103634691D01*
X85861429Y-103625831D01*
X85861432Y-103625827D01*
X85864340Y-103620386D01*
X85911971Y-103549101D01*
X85926172Y-103531796D01*
X85986796Y-103471172D01*
X86004101Y-103456971D01*
X86075386Y-103409340D01*
X86080827Y-103406432D01*
X86080831Y-103406429D01*
X86089691Y-103401693D01*
X86089697Y-103401691D01*
X86095142Y-103398780D01*
X86174340Y-103365976D01*
X86195767Y-103359476D01*
X86279851Y-103342750D01*
X86302131Y-103340556D01*
X86320550Y-103340556D01*
X86332801Y-103339954D01*
X86351139Y-103338148D01*
X86838860Y-103338148D01*
X86854999Y-103339737D01*
X86854999Y-103339737D01*
G37*
G36*
X63666703Y-100762473D02*
G01*
X63827122Y-100811136D01*
X63936014Y-100869340D01*
X63974958Y-100890156D01*
X64104539Y-100996501D01*
X64210884Y-101126082D01*
X64210885Y-101126084D01*
X64289904Y-101273918D01*
X64338567Y-101434337D01*
X64354997Y-101601160D01*
X64338567Y-101767983D01*
X64289904Y-101928402D01*
X64243748Y-102014753D01*
X64210884Y-102076238D01*
X64104539Y-102205819D01*
X63974958Y-102312164D01*
X63974956Y-102312165D01*
X63827122Y-102391184D01*
X63666703Y-102439847D01*
X63541684Y-102452160D01*
X63458076Y-102452160D01*
X63333057Y-102439847D01*
X63172638Y-102391184D01*
X63024804Y-102312165D01*
X63024802Y-102312164D01*
X62895221Y-102205819D01*
X62788876Y-102076238D01*
X62756012Y-102014753D01*
X62709856Y-101928402D01*
X62661193Y-101767983D01*
X62644763Y-101601160D01*
X62661193Y-101434337D01*
X62709856Y-101273918D01*
X62788875Y-101126084D01*
X62788876Y-101126082D01*
X62895221Y-100996501D01*
X63024802Y-100890156D01*
X63063746Y-100869340D01*
X63172638Y-100811136D01*
X63333057Y-100762473D01*
X63458076Y-100750160D01*
X63541684Y-100750160D01*
X63666703Y-100762473D01*
X63666703Y-100762473D01*
G37*
G36*
X86854999Y-100799737D02*
G01*
X86864608Y-100802652D01*
X86873472Y-100807390D01*
X86881237Y-100813763D01*
X86891448Y-100826206D01*
X86898378Y-100836575D01*
X86915705Y-100853902D01*
X86936080Y-100867515D01*
X86958720Y-100876891D01*
X86982753Y-100881671D01*
X87007257Y-100881670D01*
X87031290Y-100876888D01*
X87053929Y-100867510D01*
X87074302Y-100853895D01*
X87091629Y-100836568D01*
X87098558Y-100826198D01*
X87108763Y-100813763D01*
X87116528Y-100807390D01*
X87125392Y-100802652D01*
X87135001Y-100799737D01*
X87151140Y-100798148D01*
X87638861Y-100798148D01*
X87657199Y-100799954D01*
X87669450Y-100800556D01*
X87687869Y-100800556D01*
X87710149Y-100802750D01*
X87794233Y-100819476D01*
X87815660Y-100825976D01*
X87894858Y-100858780D01*
X87900303Y-100861691D01*
X87900309Y-100861693D01*
X87909169Y-100866429D01*
X87909173Y-100866432D01*
X87914614Y-100869340D01*
X87985899Y-100916971D01*
X88003204Y-100931172D01*
X88063828Y-100991796D01*
X88078029Y-101009101D01*
X88125660Y-101080386D01*
X88128568Y-101085827D01*
X88128571Y-101085831D01*
X88133307Y-101094691D01*
X88133309Y-101094697D01*
X88136220Y-101100142D01*
X88169024Y-101179340D01*
X88175524Y-101200767D01*
X88192250Y-101284851D01*
X88194444Y-101307131D01*
X88194444Y-101325550D01*
X88195046Y-101337801D01*
X88196852Y-101356139D01*
X88196852Y-101843862D01*
X88195046Y-101862199D01*
X88194444Y-101874450D01*
X88194444Y-101892869D01*
X88192250Y-101915149D01*
X88175524Y-101999233D01*
X88169024Y-102020660D01*
X88136220Y-102099858D01*
X88133309Y-102105303D01*
X88133307Y-102105309D01*
X88128571Y-102114169D01*
X88128568Y-102114173D01*
X88125660Y-102119614D01*
X88078029Y-102190899D01*
X88063828Y-102208204D01*
X88003204Y-102268828D01*
X87985899Y-102283029D01*
X87914614Y-102330660D01*
X87909173Y-102333568D01*
X87909169Y-102333571D01*
X87900309Y-102338307D01*
X87900303Y-102338309D01*
X87894858Y-102341220D01*
X87815660Y-102374024D01*
X87794233Y-102380524D01*
X87710149Y-102397250D01*
X87687869Y-102399444D01*
X87669450Y-102399444D01*
X87657199Y-102400046D01*
X87638862Y-102401852D01*
X87151140Y-102401852D01*
X87135001Y-102400263D01*
X87125392Y-102397348D01*
X87116528Y-102392610D01*
X87108763Y-102386237D01*
X87098552Y-102373794D01*
X87091622Y-102363425D01*
X87074295Y-102346098D01*
X87053920Y-102332485D01*
X87031280Y-102323109D01*
X87007247Y-102318329D01*
X86982743Y-102318330D01*
X86958710Y-102323112D01*
X86936071Y-102332490D01*
X86915698Y-102346105D01*
X86898371Y-102363432D01*
X86891442Y-102373802D01*
X86881237Y-102386237D01*
X86873472Y-102392610D01*
X86864608Y-102397348D01*
X86854999Y-102400263D01*
X86838860Y-102401852D01*
X86351138Y-102401852D01*
X86332801Y-102400046D01*
X86320550Y-102399444D01*
X86302131Y-102399444D01*
X86279851Y-102397250D01*
X86195767Y-102380524D01*
X86174340Y-102374024D01*
X86095142Y-102341220D01*
X86089697Y-102338309D01*
X86089691Y-102338307D01*
X86080831Y-102333571D01*
X86080827Y-102333568D01*
X86075386Y-102330660D01*
X86004101Y-102283029D01*
X85986796Y-102268828D01*
X85926172Y-102208204D01*
X85911971Y-102190899D01*
X85864340Y-102119614D01*
X85861432Y-102114173D01*
X85861429Y-102114169D01*
X85856693Y-102105309D01*
X85856691Y-102105303D01*
X85853780Y-102099858D01*
X85820976Y-102020660D01*
X85814476Y-101999233D01*
X85797750Y-101915149D01*
X85795556Y-101892869D01*
X85795556Y-101874450D01*
X85794954Y-101862199D01*
X85793148Y-101843862D01*
X85793148Y-101356139D01*
X85794954Y-101337801D01*
X85795556Y-101325550D01*
X85795556Y-101307131D01*
X85797750Y-101284851D01*
X85814476Y-101200767D01*
X85820976Y-101179340D01*
X85853780Y-101100142D01*
X85856691Y-101094697D01*
X85856693Y-101094691D01*
X85861429Y-101085831D01*
X85861432Y-101085827D01*
X85864340Y-101080386D01*
X85911971Y-101009101D01*
X85926172Y-100991796D01*
X85986796Y-100931172D01*
X86004101Y-100916971D01*
X86075386Y-100869340D01*
X86080827Y-100866432D01*
X86080831Y-100866429D01*
X86089691Y-100861693D01*
X86089697Y-100861691D01*
X86095142Y-100858780D01*
X86174340Y-100825976D01*
X86195767Y-100819476D01*
X86279851Y-100802750D01*
X86302131Y-100800556D01*
X86320550Y-100800556D01*
X86332801Y-100799954D01*
X86351139Y-100798148D01*
X86838860Y-100798148D01*
X86854999Y-100799737D01*
X86854999Y-100799737D01*
G37*
G36*
X83986703Y-98222473D02*
G01*
X84147122Y-98271136D01*
X84256014Y-98329340D01*
X84294958Y-98350156D01*
X84424539Y-98456501D01*
X84530884Y-98586082D01*
X84530885Y-98586084D01*
X84609904Y-98733918D01*
X84658567Y-98894337D01*
X84674997Y-99061160D01*
X84658567Y-99227983D01*
X84609904Y-99388402D01*
X84563748Y-99474753D01*
X84530884Y-99536238D01*
X84424539Y-99665819D01*
X84294958Y-99772164D01*
X84294956Y-99772165D01*
X84147122Y-99851184D01*
X83986703Y-99899847D01*
X83861684Y-99912160D01*
X83778076Y-99912160D01*
X83653057Y-99899847D01*
X83492638Y-99851184D01*
X83344804Y-99772165D01*
X83344802Y-99772164D01*
X83215221Y-99665819D01*
X83108876Y-99536238D01*
X83076012Y-99474753D01*
X83029856Y-99388402D01*
X82981193Y-99227983D01*
X82964763Y-99061160D01*
X82981193Y-98894337D01*
X83029856Y-98733918D01*
X83108875Y-98586084D01*
X83108876Y-98586082D01*
X83215221Y-98456501D01*
X83344802Y-98350156D01*
X83383746Y-98329340D01*
X83492638Y-98271136D01*
X83653057Y-98222473D01*
X83778076Y-98210160D01*
X83861684Y-98210160D01*
X83986703Y-98222473D01*
X83986703Y-98222473D01*
G37*
G36*
X71286703Y-98222473D02*
G01*
X71447122Y-98271136D01*
X71556014Y-98329340D01*
X71594958Y-98350156D01*
X71724539Y-98456501D01*
X71830884Y-98586082D01*
X71830885Y-98586084D01*
X71909904Y-98733918D01*
X71958567Y-98894337D01*
X71974997Y-99061160D01*
X71958567Y-99227983D01*
X71909904Y-99388402D01*
X71863748Y-99474753D01*
X71830884Y-99536238D01*
X71724539Y-99665819D01*
X71594958Y-99772164D01*
X71594956Y-99772165D01*
X71447122Y-99851184D01*
X71286703Y-99899847D01*
X71161684Y-99912160D01*
X71078076Y-99912160D01*
X70953057Y-99899847D01*
X70792638Y-99851184D01*
X70644804Y-99772165D01*
X70644802Y-99772164D01*
X70515221Y-99665819D01*
X70408876Y-99536238D01*
X70376012Y-99474753D01*
X70329856Y-99388402D01*
X70281193Y-99227983D01*
X70264763Y-99061160D01*
X70281193Y-98894337D01*
X70329856Y-98733918D01*
X70408875Y-98586084D01*
X70408876Y-98586082D01*
X70515221Y-98456501D01*
X70644802Y-98350156D01*
X70683746Y-98329340D01*
X70792638Y-98271136D01*
X70953057Y-98222473D01*
X71078076Y-98210160D01*
X71161684Y-98210160D01*
X71286703Y-98222473D01*
X71286703Y-98222473D01*
G37*
G36*
X63666703Y-98222473D02*
G01*
X63827122Y-98271136D01*
X63936014Y-98329340D01*
X63974958Y-98350156D01*
X64104539Y-98456501D01*
X64210884Y-98586082D01*
X64210885Y-98586084D01*
X64289904Y-98733918D01*
X64338567Y-98894337D01*
X64354997Y-99061160D01*
X64338567Y-99227983D01*
X64289904Y-99388402D01*
X64243748Y-99474753D01*
X64210884Y-99536238D01*
X64104539Y-99665819D01*
X63974958Y-99772164D01*
X63974956Y-99772165D01*
X63827122Y-99851184D01*
X63666703Y-99899847D01*
X63541684Y-99912160D01*
X63458076Y-99912160D01*
X63333057Y-99899847D01*
X63172638Y-99851184D01*
X63024804Y-99772165D01*
X63024802Y-99772164D01*
X62895221Y-99665819D01*
X62788876Y-99536238D01*
X62756012Y-99474753D01*
X62709856Y-99388402D01*
X62661193Y-99227983D01*
X62644763Y-99061160D01*
X62661193Y-98894337D01*
X62709856Y-98733918D01*
X62788875Y-98586084D01*
X62788876Y-98586082D01*
X62895221Y-98456501D01*
X63024802Y-98350156D01*
X63063746Y-98329340D01*
X63172638Y-98271136D01*
X63333057Y-98222473D01*
X63458076Y-98210160D01*
X63541684Y-98210160D01*
X63666703Y-98222473D01*
X63666703Y-98222473D01*
G37*
G36*
X86854999Y-98259737D02*
G01*
X86864608Y-98262652D01*
X86873472Y-98267390D01*
X86881237Y-98273763D01*
X86891448Y-98286206D01*
X86898378Y-98296575D01*
X86915705Y-98313902D01*
X86936080Y-98327515D01*
X86958720Y-98336891D01*
X86982753Y-98341671D01*
X87007257Y-98341670D01*
X87031290Y-98336888D01*
X87053929Y-98327510D01*
X87074302Y-98313895D01*
X87091629Y-98296568D01*
X87098558Y-98286198D01*
X87108763Y-98273763D01*
X87116528Y-98267390D01*
X87125392Y-98262652D01*
X87135001Y-98259737D01*
X87151140Y-98258148D01*
X87638861Y-98258148D01*
X87657199Y-98259954D01*
X87669450Y-98260556D01*
X87687869Y-98260556D01*
X87710149Y-98262750D01*
X87794233Y-98279476D01*
X87815660Y-98285976D01*
X87894858Y-98318780D01*
X87900303Y-98321691D01*
X87900309Y-98321693D01*
X87909169Y-98326429D01*
X87909173Y-98326432D01*
X87914614Y-98329340D01*
X87985899Y-98376971D01*
X88003204Y-98391172D01*
X88063828Y-98451796D01*
X88078029Y-98469101D01*
X88125660Y-98540386D01*
X88128568Y-98545827D01*
X88128571Y-98545831D01*
X88133307Y-98554691D01*
X88133309Y-98554697D01*
X88136220Y-98560142D01*
X88169024Y-98639340D01*
X88175524Y-98660767D01*
X88192250Y-98744851D01*
X88194444Y-98767131D01*
X88194444Y-98785550D01*
X88195046Y-98797801D01*
X88196852Y-98816139D01*
X88196852Y-99303862D01*
X88195046Y-99322199D01*
X88194444Y-99334450D01*
X88194444Y-99352869D01*
X88192250Y-99375149D01*
X88175524Y-99459233D01*
X88169024Y-99480660D01*
X88136220Y-99559858D01*
X88133309Y-99565303D01*
X88133307Y-99565309D01*
X88128571Y-99574169D01*
X88128568Y-99574173D01*
X88125660Y-99579614D01*
X88078029Y-99650899D01*
X88063828Y-99668204D01*
X88003204Y-99728828D01*
X87985899Y-99743029D01*
X87914614Y-99790660D01*
X87909173Y-99793568D01*
X87909169Y-99793571D01*
X87900309Y-99798307D01*
X87900303Y-99798309D01*
X87894858Y-99801220D01*
X87815660Y-99834024D01*
X87794233Y-99840524D01*
X87710149Y-99857250D01*
X87687869Y-99859444D01*
X87669450Y-99859444D01*
X87657199Y-99860046D01*
X87638862Y-99861852D01*
X87151140Y-99861852D01*
X87135001Y-99860263D01*
X87125392Y-99857348D01*
X87116528Y-99852610D01*
X87108763Y-99846237D01*
X87098552Y-99833794D01*
X87091622Y-99823425D01*
X87074295Y-99806098D01*
X87053920Y-99792485D01*
X87031280Y-99783109D01*
X87007247Y-99778329D01*
X86982743Y-99778330D01*
X86958710Y-99783112D01*
X86936071Y-99792490D01*
X86915698Y-99806105D01*
X86898371Y-99823432D01*
X86891442Y-99833802D01*
X86881237Y-99846237D01*
X86873472Y-99852610D01*
X86864608Y-99857348D01*
X86854999Y-99860263D01*
X86838860Y-99861852D01*
X86351138Y-99861852D01*
X86332801Y-99860046D01*
X86320550Y-99859444D01*
X86302131Y-99859444D01*
X86279851Y-99857250D01*
X86195767Y-99840524D01*
X86174340Y-99834024D01*
X86095142Y-99801220D01*
X86089697Y-99798309D01*
X86089691Y-99798307D01*
X86080831Y-99793571D01*
X86080827Y-99793568D01*
X86075386Y-99790660D01*
X86004101Y-99743029D01*
X85986796Y-99728828D01*
X85926172Y-99668204D01*
X85911971Y-99650899D01*
X85864340Y-99579614D01*
X85861432Y-99574173D01*
X85861429Y-99574169D01*
X85856693Y-99565309D01*
X85856691Y-99565303D01*
X85853780Y-99559858D01*
X85820976Y-99480660D01*
X85814476Y-99459233D01*
X85797750Y-99375149D01*
X85795556Y-99352869D01*
X85795556Y-99334450D01*
X85794954Y-99322199D01*
X85793148Y-99303862D01*
X85793148Y-98816139D01*
X85794954Y-98797801D01*
X85795556Y-98785550D01*
X85795556Y-98767131D01*
X85797750Y-98744851D01*
X85814476Y-98660767D01*
X85820976Y-98639340D01*
X85853780Y-98560142D01*
X85856691Y-98554697D01*
X85856693Y-98554691D01*
X85861429Y-98545831D01*
X85861432Y-98545827D01*
X85864340Y-98540386D01*
X85911971Y-98469101D01*
X85926172Y-98451796D01*
X85986796Y-98391172D01*
X86004101Y-98376971D01*
X86075386Y-98329340D01*
X86080827Y-98326432D01*
X86080831Y-98326429D01*
X86089691Y-98321693D01*
X86089697Y-98321691D01*
X86095142Y-98318780D01*
X86174340Y-98285976D01*
X86195767Y-98279476D01*
X86279851Y-98262750D01*
X86302131Y-98260556D01*
X86320550Y-98260556D01*
X86332801Y-98259954D01*
X86351139Y-98258148D01*
X86838860Y-98258148D01*
X86854999Y-98259737D01*
X86854999Y-98259737D01*
G37*
G36*
X63666703Y-95682473D02*
G01*
X63827122Y-95731136D01*
X63959786Y-95802046D01*
X63974958Y-95810156D01*
X64104539Y-95916501D01*
X64210884Y-96046082D01*
X64210885Y-96046084D01*
X64289904Y-96193918D01*
X64338567Y-96354337D01*
X64354997Y-96521160D01*
X64338567Y-96687983D01*
X64289904Y-96848402D01*
X64218994Y-96981066D01*
X64210884Y-96996238D01*
X64104539Y-97125819D01*
X63974958Y-97232164D01*
X63974956Y-97232165D01*
X63827122Y-97311184D01*
X63666703Y-97359847D01*
X63541684Y-97372160D01*
X63458076Y-97372160D01*
X63333057Y-97359847D01*
X63172638Y-97311184D01*
X63024804Y-97232165D01*
X63024802Y-97232164D01*
X62895221Y-97125819D01*
X62788876Y-96996238D01*
X62780766Y-96981066D01*
X62709856Y-96848402D01*
X62661193Y-96687983D01*
X62644763Y-96521160D01*
X62661193Y-96354337D01*
X62709856Y-96193918D01*
X62788875Y-96046084D01*
X62788876Y-96046082D01*
X62895221Y-95916501D01*
X63024802Y-95810156D01*
X63039974Y-95802046D01*
X63172638Y-95731136D01*
X63333057Y-95682473D01*
X63458076Y-95670160D01*
X63541684Y-95670160D01*
X63666703Y-95682473D01*
X63666703Y-95682473D01*
G37*
G36*
X83986703Y-95682473D02*
G01*
X84147122Y-95731136D01*
X84279786Y-95802046D01*
X84294958Y-95810156D01*
X84424539Y-95916501D01*
X84530884Y-96046082D01*
X84530885Y-96046084D01*
X84609904Y-96193918D01*
X84658567Y-96354337D01*
X84674997Y-96521160D01*
X84658567Y-96687983D01*
X84609904Y-96848402D01*
X84538994Y-96981066D01*
X84530884Y-96996238D01*
X84424539Y-97125819D01*
X84294958Y-97232164D01*
X84294956Y-97232165D01*
X84147122Y-97311184D01*
X83986703Y-97359847D01*
X83861684Y-97372160D01*
X83778076Y-97372160D01*
X83653057Y-97359847D01*
X83492638Y-97311184D01*
X83344804Y-97232165D01*
X83344802Y-97232164D01*
X83215221Y-97125819D01*
X83108876Y-96996238D01*
X83100766Y-96981066D01*
X83029856Y-96848402D01*
X82981193Y-96687983D01*
X82964763Y-96521160D01*
X82981193Y-96354337D01*
X83029856Y-96193918D01*
X83108875Y-96046084D01*
X83108876Y-96046082D01*
X83215221Y-95916501D01*
X83344802Y-95810156D01*
X83359974Y-95802046D01*
X83492638Y-95731136D01*
X83653057Y-95682473D01*
X83778076Y-95670160D01*
X83861684Y-95670160D01*
X83986703Y-95682473D01*
X83986703Y-95682473D01*
G37*
G36*
X79211000Y-96236000D02*
G01*
X77609000Y-96236000D01*
X77609000Y-95534000D01*
X79211000Y-95534000D01*
X79211000Y-96236000D01*
X79211000Y-96236000D01*
G37*
G36*
X69711000Y-96236000D02*
G01*
X68109000Y-96236000D01*
X68109000Y-95534000D01*
X69711000Y-95534000D01*
X69711000Y-96236000D01*
X69711000Y-96236000D01*
G37*
G36*
X87243228Y-93756703D02*
G01*
X87398100Y-93820853D01*
X87537481Y-93913985D01*
X87656015Y-94032519D01*
X87749147Y-94171900D01*
X87813297Y-94326772D01*
X87846000Y-94491184D01*
X87846000Y-94658816D01*
X87813297Y-94823228D01*
X87749147Y-94978100D01*
X87656015Y-95117481D01*
X87537481Y-95236015D01*
X87398100Y-95329147D01*
X87243228Y-95393297D01*
X87078816Y-95426000D01*
X86911184Y-95426000D01*
X86746772Y-95393297D01*
X86591900Y-95329147D01*
X86452519Y-95236015D01*
X86333985Y-95117481D01*
X86240853Y-94978100D01*
X86176703Y-94823228D01*
X86144000Y-94658816D01*
X86144000Y-94491184D01*
X86176703Y-94326772D01*
X86240853Y-94171900D01*
X86333985Y-94032519D01*
X86452519Y-93913985D01*
X86591900Y-93820853D01*
X86746772Y-93756703D01*
X86911184Y-93724000D01*
X87078816Y-93724000D01*
X87243228Y-93756703D01*
X87243228Y-93756703D01*
G37*
G36*
X79211000Y-94966000D02*
G01*
X77609000Y-94966000D01*
X77609000Y-94264000D01*
X79211000Y-94264000D01*
X79211000Y-94966000D01*
X79211000Y-94966000D01*
G37*
G36*
X69711000Y-94966000D02*
G01*
X68109000Y-94966000D01*
X68109000Y-94264000D01*
X69711000Y-94264000D01*
X69711000Y-94966000D01*
X69711000Y-94966000D01*
G37*
G36*
X83986703Y-93142473D02*
G01*
X84147122Y-93191136D01*
X84279786Y-93262046D01*
X84294958Y-93270156D01*
X84424539Y-93376501D01*
X84530884Y-93506082D01*
X84530885Y-93506084D01*
X84609904Y-93653918D01*
X84658567Y-93814337D01*
X84674997Y-93981160D01*
X84658567Y-94147983D01*
X84609904Y-94308402D01*
X84600085Y-94326772D01*
X84530884Y-94456238D01*
X84424539Y-94585819D01*
X84294958Y-94692164D01*
X84294956Y-94692165D01*
X84147122Y-94771184D01*
X83986703Y-94819847D01*
X83861684Y-94832160D01*
X83778076Y-94832160D01*
X83653057Y-94819847D01*
X83492638Y-94771184D01*
X83344804Y-94692165D01*
X83344802Y-94692164D01*
X83215221Y-94585819D01*
X83108876Y-94456238D01*
X83039675Y-94326772D01*
X83029856Y-94308402D01*
X82981193Y-94147983D01*
X82964763Y-93981160D01*
X82981193Y-93814337D01*
X83029856Y-93653918D01*
X83108875Y-93506084D01*
X83108876Y-93506082D01*
X83215221Y-93376501D01*
X83344802Y-93270156D01*
X83359974Y-93262046D01*
X83492638Y-93191136D01*
X83653057Y-93142473D01*
X83778076Y-93130160D01*
X83861684Y-93130160D01*
X83986703Y-93142473D01*
X83986703Y-93142473D01*
G37*
G36*
X63666703Y-93142473D02*
G01*
X63827122Y-93191136D01*
X63959786Y-93262046D01*
X63974958Y-93270156D01*
X64104539Y-93376501D01*
X64210884Y-93506082D01*
X64210885Y-93506084D01*
X64289904Y-93653918D01*
X64338567Y-93814337D01*
X64354997Y-93981160D01*
X64338567Y-94147983D01*
X64289904Y-94308402D01*
X64280085Y-94326772D01*
X64210884Y-94456238D01*
X64104539Y-94585819D01*
X63974958Y-94692164D01*
X63974956Y-94692165D01*
X63827122Y-94771184D01*
X63666703Y-94819847D01*
X63541684Y-94832160D01*
X63458076Y-94832160D01*
X63333057Y-94819847D01*
X63172638Y-94771184D01*
X63024804Y-94692165D01*
X63024802Y-94692164D01*
X62895221Y-94585819D01*
X62788876Y-94456238D01*
X62719675Y-94326772D01*
X62709856Y-94308402D01*
X62661193Y-94147983D01*
X62644763Y-93981160D01*
X62661193Y-93814337D01*
X62709856Y-93653918D01*
X62788875Y-93506084D01*
X62788876Y-93506082D01*
X62895221Y-93376501D01*
X63024802Y-93270156D01*
X63039974Y-93262046D01*
X63172638Y-93191136D01*
X63333057Y-93142473D01*
X63458076Y-93130160D01*
X63541684Y-93130160D01*
X63666703Y-93142473D01*
X63666703Y-93142473D01*
G37*
G36*
X79211000Y-93696000D02*
G01*
X77609000Y-93696000D01*
X77609000Y-92994000D01*
X79211000Y-92994000D01*
X79211000Y-93696000D01*
X79211000Y-93696000D01*
G37*
G36*
X69711000Y-93696000D02*
G01*
X68109000Y-93696000D01*
X68109000Y-92994000D01*
X69711000Y-92994000D01*
X69711000Y-93696000D01*
X69711000Y-93696000D01*
G37*
G36*
X87243228Y-91256703D02*
G01*
X87398100Y-91320853D01*
X87537481Y-91413985D01*
X87656015Y-91532519D01*
X87749147Y-91671900D01*
X87813297Y-91826772D01*
X87846000Y-91991184D01*
X87846000Y-92158816D01*
X87813297Y-92323228D01*
X87749147Y-92478100D01*
X87656015Y-92617481D01*
X87537481Y-92736015D01*
X87398100Y-92829147D01*
X87243228Y-92893297D01*
X87078816Y-92926000D01*
X86911184Y-92926000D01*
X86746772Y-92893297D01*
X86591900Y-92829147D01*
X86452519Y-92736015D01*
X86333985Y-92617481D01*
X86240853Y-92478100D01*
X86176703Y-92323228D01*
X86144000Y-92158816D01*
X86144000Y-91991184D01*
X86176703Y-91826772D01*
X86240853Y-91671900D01*
X86333985Y-91532519D01*
X86452519Y-91413985D01*
X86591900Y-91320853D01*
X86746772Y-91256703D01*
X86911184Y-91224000D01*
X87078816Y-91224000D01*
X87243228Y-91256703D01*
X87243228Y-91256703D01*
G37*
G36*
X79211000Y-92426000D02*
G01*
X77609000Y-92426000D01*
X77609000Y-91724000D01*
X79211000Y-91724000D01*
X79211000Y-92426000D01*
X79211000Y-92426000D01*
G37*
G36*
X69711000Y-92426000D02*
G01*
X68109000Y-92426000D01*
X68109000Y-91724000D01*
X69711000Y-91724000D01*
X69711000Y-92426000D01*
X69711000Y-92426000D01*
G37*
G36*
X63666703Y-90602473D02*
G01*
X63827122Y-90651136D01*
X63959786Y-90722046D01*
X63974958Y-90730156D01*
X64104539Y-90836501D01*
X64210884Y-90966082D01*
X64210885Y-90966084D01*
X64289904Y-91113918D01*
X64338567Y-91274337D01*
X64354997Y-91441160D01*
X64338567Y-91607983D01*
X64289904Y-91768402D01*
X64218994Y-91901066D01*
X64210884Y-91916238D01*
X64104539Y-92045819D01*
X63974958Y-92152164D01*
X63974956Y-92152165D01*
X63827122Y-92231184D01*
X63666703Y-92279847D01*
X63541684Y-92292160D01*
X63458076Y-92292160D01*
X63333057Y-92279847D01*
X63172638Y-92231184D01*
X63024804Y-92152165D01*
X63024802Y-92152164D01*
X62895221Y-92045819D01*
X62788876Y-91916238D01*
X62780766Y-91901066D01*
X62709856Y-91768402D01*
X62661193Y-91607983D01*
X62644763Y-91441160D01*
X62661193Y-91274337D01*
X62709856Y-91113918D01*
X62788875Y-90966084D01*
X62788876Y-90966082D01*
X62895221Y-90836501D01*
X63024802Y-90730156D01*
X63039974Y-90722046D01*
X63172638Y-90651136D01*
X63333057Y-90602473D01*
X63458076Y-90590160D01*
X63541684Y-90590160D01*
X63666703Y-90602473D01*
X63666703Y-90602473D01*
G37*
G36*
X83986703Y-90602473D02*
G01*
X84147122Y-90651136D01*
X84279786Y-90722046D01*
X84294958Y-90730156D01*
X84424539Y-90836501D01*
X84530884Y-90966082D01*
X84530885Y-90966084D01*
X84609904Y-91113918D01*
X84658567Y-91274337D01*
X84674997Y-91441160D01*
X84658567Y-91607983D01*
X84609904Y-91768402D01*
X84538994Y-91901066D01*
X84530884Y-91916238D01*
X84424539Y-92045819D01*
X84294958Y-92152164D01*
X84294956Y-92152165D01*
X84147122Y-92231184D01*
X83986703Y-92279847D01*
X83861684Y-92292160D01*
X83778076Y-92292160D01*
X83653057Y-92279847D01*
X83492638Y-92231184D01*
X83344804Y-92152165D01*
X83344802Y-92152164D01*
X83215221Y-92045819D01*
X83108876Y-91916238D01*
X83100766Y-91901066D01*
X83029856Y-91768402D01*
X82981193Y-91607983D01*
X82964763Y-91441160D01*
X82981193Y-91274337D01*
X83029856Y-91113918D01*
X83108875Y-90966084D01*
X83108876Y-90966082D01*
X83215221Y-90836501D01*
X83344802Y-90730156D01*
X83359974Y-90722046D01*
X83492638Y-90651136D01*
X83653057Y-90602473D01*
X83778076Y-90590160D01*
X83861684Y-90590160D01*
X83986703Y-90602473D01*
X83986703Y-90602473D01*
G37*
G36*
X79211000Y-91156000D02*
G01*
X77609000Y-91156000D01*
X77609000Y-90454000D01*
X79211000Y-90454000D01*
X79211000Y-91156000D01*
X79211000Y-91156000D01*
G37*
G36*
X69711000Y-91156000D02*
G01*
X68109000Y-91156000D01*
X68109000Y-90454000D01*
X69711000Y-90454000D01*
X69711000Y-91156000D01*
X69711000Y-91156000D01*
G37*
G36*
X79211000Y-89886000D02*
G01*
X77609000Y-89886000D01*
X77609000Y-89184000D01*
X79211000Y-89184000D01*
X79211000Y-89886000D01*
X79211000Y-89886000D01*
G37*
G36*
X69711000Y-89886000D02*
G01*
X68109000Y-89886000D01*
X68109000Y-89184000D01*
X69711000Y-89184000D01*
X69711000Y-89886000D01*
X69711000Y-89886000D01*
G37*
G36*
X63666703Y-88062473D02*
G01*
X63827122Y-88111136D01*
X63959786Y-88182046D01*
X63974958Y-88190156D01*
X64104539Y-88296501D01*
X64210884Y-88426082D01*
X64210885Y-88426084D01*
X64289904Y-88573918D01*
X64338567Y-88734337D01*
X64354997Y-88901160D01*
X64338567Y-89067983D01*
X64289904Y-89228402D01*
X64218994Y-89361066D01*
X64210884Y-89376238D01*
X64104539Y-89505819D01*
X63974958Y-89612164D01*
X63974956Y-89612165D01*
X63827122Y-89691184D01*
X63666703Y-89739847D01*
X63541684Y-89752160D01*
X63458076Y-89752160D01*
X63333057Y-89739847D01*
X63172638Y-89691184D01*
X63024804Y-89612165D01*
X63024802Y-89612164D01*
X62895221Y-89505819D01*
X62788876Y-89376238D01*
X62780766Y-89361066D01*
X62709856Y-89228402D01*
X62661193Y-89067983D01*
X62644763Y-88901160D01*
X62661193Y-88734337D01*
X62709856Y-88573918D01*
X62788875Y-88426084D01*
X62788876Y-88426082D01*
X62895221Y-88296501D01*
X63024802Y-88190156D01*
X63039974Y-88182046D01*
X63172638Y-88111136D01*
X63333057Y-88062473D01*
X63458076Y-88050160D01*
X63541684Y-88050160D01*
X63666703Y-88062473D01*
X63666703Y-88062473D01*
G37*
G36*
X83986703Y-88062473D02*
G01*
X84147122Y-88111136D01*
X84279786Y-88182046D01*
X84294958Y-88190156D01*
X84424539Y-88296501D01*
X84530884Y-88426082D01*
X84530885Y-88426084D01*
X84609904Y-88573918D01*
X84658567Y-88734337D01*
X84674997Y-88901160D01*
X84658567Y-89067983D01*
X84609904Y-89228402D01*
X84538994Y-89361066D01*
X84530884Y-89376238D01*
X84424539Y-89505819D01*
X84294958Y-89612164D01*
X84294956Y-89612165D01*
X84147122Y-89691184D01*
X83986703Y-89739847D01*
X83861684Y-89752160D01*
X83778076Y-89752160D01*
X83653057Y-89739847D01*
X83492638Y-89691184D01*
X83344804Y-89612165D01*
X83344802Y-89612164D01*
X83215221Y-89505819D01*
X83108876Y-89376238D01*
X83100766Y-89361066D01*
X83029856Y-89228402D01*
X82981193Y-89067983D01*
X82964763Y-88901160D01*
X82981193Y-88734337D01*
X83029856Y-88573918D01*
X83108875Y-88426084D01*
X83108876Y-88426082D01*
X83215221Y-88296501D01*
X83344802Y-88190156D01*
X83359974Y-88182046D01*
X83492638Y-88111136D01*
X83653057Y-88062473D01*
X83778076Y-88050160D01*
X83861684Y-88050160D01*
X83986703Y-88062473D01*
X83986703Y-88062473D01*
G37*
G36*
X79211000Y-88616000D02*
G01*
X77609000Y-88616000D01*
X77609000Y-87914000D01*
X79211000Y-87914000D01*
X79211000Y-88616000D01*
X79211000Y-88616000D01*
G37*
G36*
X69711000Y-88616000D02*
G01*
X68109000Y-88616000D01*
X68109000Y-87914000D01*
X69711000Y-87914000D01*
X69711000Y-88616000D01*
X69711000Y-88616000D01*
G37*
G36*
X69711000Y-87346000D02*
G01*
X68109000Y-87346000D01*
X68109000Y-86644000D01*
X69711000Y-86644000D01*
X69711000Y-87346000D01*
X69711000Y-87346000D01*
G37*
G36*
X79211000Y-87346000D02*
G01*
X77609000Y-87346000D01*
X77609000Y-86644000D01*
X79211000Y-86644000D01*
X79211000Y-87346000D01*
X79211000Y-87346000D01*
G37*
G36*
X83986703Y-85522473D02*
G01*
X84147122Y-85571136D01*
X84279786Y-85642046D01*
X84294958Y-85650156D01*
X84424539Y-85756501D01*
X84530884Y-85886082D01*
X84530885Y-85886084D01*
X84609904Y-86033918D01*
X84658567Y-86194337D01*
X84674997Y-86361160D01*
X84658567Y-86527983D01*
X84609904Y-86688402D01*
X84569837Y-86763362D01*
X84530884Y-86836238D01*
X84424539Y-86965819D01*
X84294958Y-87072164D01*
X84294956Y-87072165D01*
X84147122Y-87151184D01*
X83986703Y-87199847D01*
X83861684Y-87212160D01*
X83778076Y-87212160D01*
X83653057Y-87199847D01*
X83492638Y-87151184D01*
X83344804Y-87072165D01*
X83344802Y-87072164D01*
X83215221Y-86965819D01*
X83108876Y-86836238D01*
X83069923Y-86763362D01*
X83029856Y-86688402D01*
X82981193Y-86527983D01*
X82964763Y-86361160D01*
X82981193Y-86194337D01*
X83029856Y-86033918D01*
X83108875Y-85886084D01*
X83108876Y-85886082D01*
X83215221Y-85756501D01*
X83344802Y-85650156D01*
X83359974Y-85642046D01*
X83492638Y-85571136D01*
X83653057Y-85522473D01*
X83778076Y-85510160D01*
X83861684Y-85510160D01*
X83986703Y-85522473D01*
X83986703Y-85522473D01*
G37*
G36*
X63666703Y-85522473D02*
G01*
X63827122Y-85571136D01*
X63959786Y-85642046D01*
X63974958Y-85650156D01*
X64104539Y-85756501D01*
X64210884Y-85886082D01*
X64210885Y-85886084D01*
X64289904Y-86033918D01*
X64338567Y-86194337D01*
X64354997Y-86361160D01*
X64338567Y-86527983D01*
X64289904Y-86688402D01*
X64249837Y-86763362D01*
X64210884Y-86836238D01*
X64104539Y-86965819D01*
X63974958Y-87072164D01*
X63974956Y-87072165D01*
X63827122Y-87151184D01*
X63666703Y-87199847D01*
X63541684Y-87212160D01*
X63458076Y-87212160D01*
X63333057Y-87199847D01*
X63172638Y-87151184D01*
X63024804Y-87072165D01*
X63024802Y-87072164D01*
X62895221Y-86965819D01*
X62788876Y-86836238D01*
X62749923Y-86763362D01*
X62709856Y-86688402D01*
X62661193Y-86527983D01*
X62644763Y-86361160D01*
X62661193Y-86194337D01*
X62709856Y-86033918D01*
X62788875Y-85886084D01*
X62788876Y-85886082D01*
X62895221Y-85756501D01*
X63024802Y-85650156D01*
X63039974Y-85642046D01*
X63172638Y-85571136D01*
X63333057Y-85522473D01*
X63458076Y-85510160D01*
X63541684Y-85510160D01*
X63666703Y-85522473D01*
X63666703Y-85522473D01*
G37*
G36*
X87184890Y-85829017D02*
G01*
X87303364Y-85878091D01*
X87409988Y-85949335D01*
X87500665Y-86040012D01*
X87571909Y-86146636D01*
X87620983Y-86265110D01*
X87646000Y-86390882D01*
X87646000Y-86519118D01*
X87620983Y-86644890D01*
X87571909Y-86763364D01*
X87500665Y-86869988D01*
X87409988Y-86960665D01*
X87303364Y-87031909D01*
X87303363Y-87031910D01*
X87303362Y-87031910D01*
X87184890Y-87080983D01*
X87059119Y-87106000D01*
X86930881Y-87106000D01*
X86805110Y-87080983D01*
X86686638Y-87031910D01*
X86686637Y-87031910D01*
X86686636Y-87031909D01*
X86580012Y-86960665D01*
X86489335Y-86869988D01*
X86418091Y-86763364D01*
X86369017Y-86644890D01*
X86344000Y-86519118D01*
X86344000Y-86390882D01*
X86369017Y-86265110D01*
X86418091Y-86146636D01*
X86489335Y-86040012D01*
X86580012Y-85949335D01*
X86686636Y-85878091D01*
X86805110Y-85829017D01*
X86930881Y-85804000D01*
X87059119Y-85804000D01*
X87184890Y-85829017D01*
X87184890Y-85829017D01*
G37*
G36*
X79211000Y-86076000D02*
G01*
X77609000Y-86076000D01*
X77609000Y-85374000D01*
X79211000Y-85374000D01*
X79211000Y-86076000D01*
X79211000Y-86076000D01*
G37*
G36*
X69711000Y-86076000D02*
G01*
X68109000Y-86076000D01*
X68109000Y-85374000D01*
X69711000Y-85374000D01*
X69711000Y-86076000D01*
X69711000Y-86076000D01*
G37*
G36*
X87646000Y-85106000D02*
G01*
X86344000Y-85106000D01*
X86344000Y-83804000D01*
X87646000Y-83804000D01*
X87646000Y-85106000D01*
X87646000Y-85106000D01*
G37*
G36*
X79211000Y-84806000D02*
G01*
X77609000Y-84806000D01*
X77609000Y-84104000D01*
X79211000Y-84104000D01*
X79211000Y-84806000D01*
X79211000Y-84806000D01*
G37*
G36*
X69711000Y-84806000D02*
G01*
X68109000Y-84806000D01*
X68109000Y-84104000D01*
X69711000Y-84104000D01*
X69711000Y-84806000D01*
X69711000Y-84806000D01*
G37*
G36*
X83986703Y-82982473D02*
G01*
X84147122Y-83031136D01*
X84279786Y-83102046D01*
X84294958Y-83110156D01*
X84424539Y-83216501D01*
X84530884Y-83346082D01*
X84530885Y-83346084D01*
X84609904Y-83493918D01*
X84658567Y-83654337D01*
X84674997Y-83821160D01*
X84658567Y-83987983D01*
X84609904Y-84148402D01*
X84538994Y-84281066D01*
X84530884Y-84296238D01*
X84424539Y-84425819D01*
X84294958Y-84532164D01*
X84294956Y-84532165D01*
X84147122Y-84611184D01*
X83986703Y-84659847D01*
X83861684Y-84672160D01*
X83778076Y-84672160D01*
X83653057Y-84659847D01*
X83492638Y-84611184D01*
X83344804Y-84532165D01*
X83344802Y-84532164D01*
X83215221Y-84425819D01*
X83108876Y-84296238D01*
X83100766Y-84281066D01*
X83029856Y-84148402D01*
X82981193Y-83987983D01*
X82964763Y-83821160D01*
X82981193Y-83654337D01*
X83029856Y-83493918D01*
X83108875Y-83346084D01*
X83108876Y-83346082D01*
X83215221Y-83216501D01*
X83344802Y-83110156D01*
X83359974Y-83102046D01*
X83492638Y-83031136D01*
X83653057Y-82982473D01*
X83778076Y-82970160D01*
X83861684Y-82970160D01*
X83986703Y-82982473D01*
X83986703Y-82982473D01*
G37*
G36*
X63666703Y-82982473D02*
G01*
X63827122Y-83031136D01*
X63959786Y-83102046D01*
X63974958Y-83110156D01*
X64104539Y-83216501D01*
X64210884Y-83346082D01*
X64210885Y-83346084D01*
X64289904Y-83493918D01*
X64338567Y-83654337D01*
X64354997Y-83821160D01*
X64338567Y-83987983D01*
X64289904Y-84148402D01*
X64218994Y-84281066D01*
X64210884Y-84296238D01*
X64104539Y-84425819D01*
X63974958Y-84532164D01*
X63974956Y-84532165D01*
X63827122Y-84611184D01*
X63666703Y-84659847D01*
X63541684Y-84672160D01*
X63458076Y-84672160D01*
X63333057Y-84659847D01*
X63172638Y-84611184D01*
X63024804Y-84532165D01*
X63024802Y-84532164D01*
X62895221Y-84425819D01*
X62788876Y-84296238D01*
X62780766Y-84281066D01*
X62709856Y-84148402D01*
X62661193Y-83987983D01*
X62644763Y-83821160D01*
X62661193Y-83654337D01*
X62709856Y-83493918D01*
X62788875Y-83346084D01*
X62788876Y-83346082D01*
X62895221Y-83216501D01*
X63024802Y-83110156D01*
X63039974Y-83102046D01*
X63172638Y-83031136D01*
X63333057Y-82982473D01*
X63458076Y-82970160D01*
X63541684Y-82970160D01*
X63666703Y-82982473D01*
X63666703Y-82982473D01*
G37*
G36*
X72678228Y-81096703D02*
G01*
X72833100Y-81160853D01*
X72972481Y-81253985D01*
X73091015Y-81372519D01*
X73184147Y-81511900D01*
X73248297Y-81666772D01*
X73281000Y-81831184D01*
X73281000Y-81998816D01*
X73248297Y-82163228D01*
X73184147Y-82318100D01*
X73091015Y-82457481D01*
X72972481Y-82576015D01*
X72833100Y-82669147D01*
X72678228Y-82733297D01*
X72513816Y-82766000D01*
X72346184Y-82766000D01*
X72181772Y-82733297D01*
X72026900Y-82669147D01*
X71887519Y-82576015D01*
X71768985Y-82457481D01*
X71675853Y-82318100D01*
X71611703Y-82163228D01*
X71579000Y-81998816D01*
X71579000Y-81831184D01*
X71611703Y-81666772D01*
X71675853Y-81511900D01*
X71768985Y-81372519D01*
X71887519Y-81253985D01*
X72026900Y-81160853D01*
X72181772Y-81096703D01*
X72346184Y-81064000D01*
X72513816Y-81064000D01*
X72678228Y-81096703D01*
X72678228Y-81096703D01*
G37*
G36*
X75178228Y-81096703D02*
G01*
X75333100Y-81160853D01*
X75472481Y-81253985D01*
X75591015Y-81372519D01*
X75684147Y-81511900D01*
X75748297Y-81666772D01*
X75781000Y-81831184D01*
X75781000Y-81998816D01*
X75748297Y-82163228D01*
X75684147Y-82318100D01*
X75591015Y-82457481D01*
X75472481Y-82576015D01*
X75333100Y-82669147D01*
X75178228Y-82733297D01*
X75013816Y-82766000D01*
X74846184Y-82766000D01*
X74681772Y-82733297D01*
X74526900Y-82669147D01*
X74387519Y-82576015D01*
X74268985Y-82457481D01*
X74175853Y-82318100D01*
X74111703Y-82163228D01*
X74079000Y-81998816D01*
X74079000Y-81831184D01*
X74111703Y-81666772D01*
X74175853Y-81511900D01*
X74268985Y-81372519D01*
X74387519Y-81253985D01*
X74526900Y-81160853D01*
X74681772Y-81096703D01*
X74846184Y-81064000D01*
X75013816Y-81064000D01*
X75178228Y-81096703D01*
X75178228Y-81096703D01*
G37*
M02*
