M48
; DRILL file {KiCad (5.1.2)-1} date 11/23/2019 9:49:33 PM
; FORMAT={-:-/ absolute / inch / decimal}
; #@! TF.CreationDate,2019-11-23T21:49:33-05:00
; #@! TF.GenerationSoftware,Kicad,Pcbnew,(5.1.2)-1
; #@! TF.FileFunction,Plated,1,2,PTH
FMAT,2
INCH
T1C0.0118
T2C0.0157
T3C0.0236
T4C0.0315
T5C0.0394
%
G90
G05
T1
X2.41Y-4.09
X2.435Y-4.355
X2.515Y-4.08
X2.58Y-4.115
X2.585Y-3.3364
X2.5993Y-4.0593
X2.6Y-3.45
X2.6072Y-3.8472
X2.63Y-4.125
X2.65Y-3.525
X2.65Y-3.6
X2.65Y-4.275
X2.6593Y-3.6393
X2.69Y-3.885
X2.7492Y-4.2008
X2.775Y-3.375
X2.8Y-3.425
X2.835Y-3.9796
X2.84Y-4.28
X2.8442Y-3.8558
X2.86Y-4.38
X2.885Y-4.375
X2.9Y-3.375
X2.915Y-4.305
X2.915Y-4.38
X2.94Y-4.32
X2.9607Y-4.3057
X3.015Y-4.23
X3.0443Y-4.2507
X3.08Y-4.185
X3.095Y-4.39
X3.11Y-3.835
X3.21Y-3.835
X3.21Y-4.275
X3.215Y-4.07
X3.215Y-4.145
X3.2193Y-4.4193
X3.2275Y-4.2925
X3.235Y-3.765
X3.24Y-4.315
X3.24Y-4.44
X3.285Y-4.025
X3.3096Y-4.0
X3.3395Y-4.2205
X3.34Y-4.185
X3.35Y-4.075
X3.36Y-4.25
T2
X2.7Y-4.075
T3
X3.425Y-3.325
X3.425Y-3.4037
T4
X3.3Y-3.3
X3.3Y-3.4
X3.3Y-3.5
X3.3Y-3.6
X3.3Y-3.7
X3.3Y-3.8
X3.3Y-3.9
X2.5Y-3.3
X2.5Y-3.4
X2.5Y-3.5
X2.5Y-3.6
X2.5Y-3.7
X2.5Y-3.8
X2.5Y-3.9
X2.5Y-4.0
X2.8Y-3.9
X3.425Y-4.35
X3.425Y-4.4484
X3.425Y-3.625
X3.425Y-3.7234
X2.8516Y-3.225
X2.95Y-3.225
T5
X2.9Y-4.5
X3.05Y-4.5
X3.15Y-4.5
X3.25Y-4.5
X2.55Y-4.5
X2.65Y-4.5
X2.75Y-4.5
T0
M30
