G04 #@! TF.GenerationSoftware,KiCad,Pcbnew,(5.1.2)-1*
G04 #@! TF.CreationDate,2019-11-23T21:49:29-05:00*
G04 #@! TF.ProjectId,c128-sram,63313238-2d73-4726-916d-2e6b69636164,rev?*
G04 #@! TF.SameCoordinates,Original*
G04 #@! TF.FileFunction,Copper,L2,Bot*
G04 #@! TF.FilePolarity,Positive*
%FSLAX46Y46*%
G04 Gerber Fmt 4.6, Leading zero omitted, Abs format (unit mm)*
G04 Created by KiCad (PCBNEW (5.1.2)-1) date 2019-11-23 21:49:29*
%MOMM*%
%LPD*%
G04 APERTURE LIST*
%ADD10O,1.600000X1.600000*%
%ADD11C,1.600000*%
%ADD12C,0.100000*%
%ADD13C,0.600000*%
%ADD14R,0.700000X0.510000*%
%ADD15R,1.700000X1.700000*%
%ADD16O,1.700000X1.700000*%
%ADD17R,1.200000X1.200000*%
%ADD18C,1.200000*%
%ADD19C,0.400000*%
%ADD20C,0.800000*%
%ADD21C,0.454000*%
%ADD22C,0.250000*%
%ADD23C,0.233000*%
G04 APERTURE END LIST*
D10*
X83819880Y-83821160D03*
X83819880Y-86361160D03*
X83819880Y-88901160D03*
X83819880Y-91441160D03*
X83819880Y-93981160D03*
X83819880Y-96521160D03*
X83819880Y-99061160D03*
D11*
X86995000Y-110490000D03*
X86995000Y-112990000D03*
X74930000Y-81915000D03*
X72430000Y-81915000D03*
X86995000Y-94575000D03*
X86995000Y-92075000D03*
D12*
G36*
X75834703Y-107650722D02*
G01*
X75849264Y-107652882D01*
X75863543Y-107656459D01*
X75877403Y-107661418D01*
X75890710Y-107667712D01*
X75903336Y-107675280D01*
X75915159Y-107684048D01*
X75926066Y-107693934D01*
X75935952Y-107704841D01*
X75944720Y-107716664D01*
X75952288Y-107729290D01*
X75958582Y-107742597D01*
X75963541Y-107756457D01*
X75967118Y-107770736D01*
X75969278Y-107785297D01*
X75970000Y-107800000D01*
X75970000Y-108100000D01*
X75969278Y-108114703D01*
X75967118Y-108129264D01*
X75963541Y-108143543D01*
X75958582Y-108157403D01*
X75952288Y-108170710D01*
X75944720Y-108183336D01*
X75935952Y-108195159D01*
X75926066Y-108206066D01*
X75915159Y-108215952D01*
X75903336Y-108224720D01*
X75890710Y-108232288D01*
X75877403Y-108238582D01*
X75863543Y-108243541D01*
X75849264Y-108247118D01*
X75834703Y-108249278D01*
X75820000Y-108250000D01*
X74170000Y-108250000D01*
X74155297Y-108249278D01*
X74140736Y-108247118D01*
X74126457Y-108243541D01*
X74112597Y-108238582D01*
X74099290Y-108232288D01*
X74086664Y-108224720D01*
X74074841Y-108215952D01*
X74063934Y-108206066D01*
X74054048Y-108195159D01*
X74045280Y-108183336D01*
X74037712Y-108170710D01*
X74031418Y-108157403D01*
X74026459Y-108143543D01*
X74022882Y-108129264D01*
X74020722Y-108114703D01*
X74020000Y-108100000D01*
X74020000Y-107800000D01*
X74020722Y-107785297D01*
X74022882Y-107770736D01*
X74026459Y-107756457D01*
X74031418Y-107742597D01*
X74037712Y-107729290D01*
X74045280Y-107716664D01*
X74054048Y-107704841D01*
X74063934Y-107693934D01*
X74074841Y-107684048D01*
X74086664Y-107675280D01*
X74099290Y-107667712D01*
X74112597Y-107661418D01*
X74126457Y-107656459D01*
X74140736Y-107652882D01*
X74155297Y-107650722D01*
X74170000Y-107650000D01*
X75820000Y-107650000D01*
X75834703Y-107650722D01*
X75834703Y-107650722D01*
G37*
D13*
X74995000Y-107950000D03*
D12*
G36*
X75834703Y-106380722D02*
G01*
X75849264Y-106382882D01*
X75863543Y-106386459D01*
X75877403Y-106391418D01*
X75890710Y-106397712D01*
X75903336Y-106405280D01*
X75915159Y-106414048D01*
X75926066Y-106423934D01*
X75935952Y-106434841D01*
X75944720Y-106446664D01*
X75952288Y-106459290D01*
X75958582Y-106472597D01*
X75963541Y-106486457D01*
X75967118Y-106500736D01*
X75969278Y-106515297D01*
X75970000Y-106530000D01*
X75970000Y-106830000D01*
X75969278Y-106844703D01*
X75967118Y-106859264D01*
X75963541Y-106873543D01*
X75958582Y-106887403D01*
X75952288Y-106900710D01*
X75944720Y-106913336D01*
X75935952Y-106925159D01*
X75926066Y-106936066D01*
X75915159Y-106945952D01*
X75903336Y-106954720D01*
X75890710Y-106962288D01*
X75877403Y-106968582D01*
X75863543Y-106973541D01*
X75849264Y-106977118D01*
X75834703Y-106979278D01*
X75820000Y-106980000D01*
X74170000Y-106980000D01*
X74155297Y-106979278D01*
X74140736Y-106977118D01*
X74126457Y-106973541D01*
X74112597Y-106968582D01*
X74099290Y-106962288D01*
X74086664Y-106954720D01*
X74074841Y-106945952D01*
X74063934Y-106936066D01*
X74054048Y-106925159D01*
X74045280Y-106913336D01*
X74037712Y-106900710D01*
X74031418Y-106887403D01*
X74026459Y-106873543D01*
X74022882Y-106859264D01*
X74020722Y-106844703D01*
X74020000Y-106830000D01*
X74020000Y-106530000D01*
X74020722Y-106515297D01*
X74022882Y-106500736D01*
X74026459Y-106486457D01*
X74031418Y-106472597D01*
X74037712Y-106459290D01*
X74045280Y-106446664D01*
X74054048Y-106434841D01*
X74063934Y-106423934D01*
X74074841Y-106414048D01*
X74086664Y-106405280D01*
X74099290Y-106397712D01*
X74112597Y-106391418D01*
X74126457Y-106386459D01*
X74140736Y-106382882D01*
X74155297Y-106380722D01*
X74170000Y-106380000D01*
X75820000Y-106380000D01*
X75834703Y-106380722D01*
X75834703Y-106380722D01*
G37*
D13*
X74995000Y-106680000D03*
D12*
G36*
X75834703Y-105110722D02*
G01*
X75849264Y-105112882D01*
X75863543Y-105116459D01*
X75877403Y-105121418D01*
X75890710Y-105127712D01*
X75903336Y-105135280D01*
X75915159Y-105144048D01*
X75926066Y-105153934D01*
X75935952Y-105164841D01*
X75944720Y-105176664D01*
X75952288Y-105189290D01*
X75958582Y-105202597D01*
X75963541Y-105216457D01*
X75967118Y-105230736D01*
X75969278Y-105245297D01*
X75970000Y-105260000D01*
X75970000Y-105560000D01*
X75969278Y-105574703D01*
X75967118Y-105589264D01*
X75963541Y-105603543D01*
X75958582Y-105617403D01*
X75952288Y-105630710D01*
X75944720Y-105643336D01*
X75935952Y-105655159D01*
X75926066Y-105666066D01*
X75915159Y-105675952D01*
X75903336Y-105684720D01*
X75890710Y-105692288D01*
X75877403Y-105698582D01*
X75863543Y-105703541D01*
X75849264Y-105707118D01*
X75834703Y-105709278D01*
X75820000Y-105710000D01*
X74170000Y-105710000D01*
X74155297Y-105709278D01*
X74140736Y-105707118D01*
X74126457Y-105703541D01*
X74112597Y-105698582D01*
X74099290Y-105692288D01*
X74086664Y-105684720D01*
X74074841Y-105675952D01*
X74063934Y-105666066D01*
X74054048Y-105655159D01*
X74045280Y-105643336D01*
X74037712Y-105630710D01*
X74031418Y-105617403D01*
X74026459Y-105603543D01*
X74022882Y-105589264D01*
X74020722Y-105574703D01*
X74020000Y-105560000D01*
X74020000Y-105260000D01*
X74020722Y-105245297D01*
X74022882Y-105230736D01*
X74026459Y-105216457D01*
X74031418Y-105202597D01*
X74037712Y-105189290D01*
X74045280Y-105176664D01*
X74054048Y-105164841D01*
X74063934Y-105153934D01*
X74074841Y-105144048D01*
X74086664Y-105135280D01*
X74099290Y-105127712D01*
X74112597Y-105121418D01*
X74126457Y-105116459D01*
X74140736Y-105112882D01*
X74155297Y-105110722D01*
X74170000Y-105110000D01*
X75820000Y-105110000D01*
X75834703Y-105110722D01*
X75834703Y-105110722D01*
G37*
D13*
X74995000Y-105410000D03*
D12*
G36*
X75834703Y-103840722D02*
G01*
X75849264Y-103842882D01*
X75863543Y-103846459D01*
X75877403Y-103851418D01*
X75890710Y-103857712D01*
X75903336Y-103865280D01*
X75915159Y-103874048D01*
X75926066Y-103883934D01*
X75935952Y-103894841D01*
X75944720Y-103906664D01*
X75952288Y-103919290D01*
X75958582Y-103932597D01*
X75963541Y-103946457D01*
X75967118Y-103960736D01*
X75969278Y-103975297D01*
X75970000Y-103990000D01*
X75970000Y-104290000D01*
X75969278Y-104304703D01*
X75967118Y-104319264D01*
X75963541Y-104333543D01*
X75958582Y-104347403D01*
X75952288Y-104360710D01*
X75944720Y-104373336D01*
X75935952Y-104385159D01*
X75926066Y-104396066D01*
X75915159Y-104405952D01*
X75903336Y-104414720D01*
X75890710Y-104422288D01*
X75877403Y-104428582D01*
X75863543Y-104433541D01*
X75849264Y-104437118D01*
X75834703Y-104439278D01*
X75820000Y-104440000D01*
X74170000Y-104440000D01*
X74155297Y-104439278D01*
X74140736Y-104437118D01*
X74126457Y-104433541D01*
X74112597Y-104428582D01*
X74099290Y-104422288D01*
X74086664Y-104414720D01*
X74074841Y-104405952D01*
X74063934Y-104396066D01*
X74054048Y-104385159D01*
X74045280Y-104373336D01*
X74037712Y-104360710D01*
X74031418Y-104347403D01*
X74026459Y-104333543D01*
X74022882Y-104319264D01*
X74020722Y-104304703D01*
X74020000Y-104290000D01*
X74020000Y-103990000D01*
X74020722Y-103975297D01*
X74022882Y-103960736D01*
X74026459Y-103946457D01*
X74031418Y-103932597D01*
X74037712Y-103919290D01*
X74045280Y-103906664D01*
X74054048Y-103894841D01*
X74063934Y-103883934D01*
X74074841Y-103874048D01*
X74086664Y-103865280D01*
X74099290Y-103857712D01*
X74112597Y-103851418D01*
X74126457Y-103846459D01*
X74140736Y-103842882D01*
X74155297Y-103840722D01*
X74170000Y-103840000D01*
X75820000Y-103840000D01*
X75834703Y-103840722D01*
X75834703Y-103840722D01*
G37*
D13*
X74995000Y-104140000D03*
D12*
G36*
X75834703Y-102570722D02*
G01*
X75849264Y-102572882D01*
X75863543Y-102576459D01*
X75877403Y-102581418D01*
X75890710Y-102587712D01*
X75903336Y-102595280D01*
X75915159Y-102604048D01*
X75926066Y-102613934D01*
X75935952Y-102624841D01*
X75944720Y-102636664D01*
X75952288Y-102649290D01*
X75958582Y-102662597D01*
X75963541Y-102676457D01*
X75967118Y-102690736D01*
X75969278Y-102705297D01*
X75970000Y-102720000D01*
X75970000Y-103020000D01*
X75969278Y-103034703D01*
X75967118Y-103049264D01*
X75963541Y-103063543D01*
X75958582Y-103077403D01*
X75952288Y-103090710D01*
X75944720Y-103103336D01*
X75935952Y-103115159D01*
X75926066Y-103126066D01*
X75915159Y-103135952D01*
X75903336Y-103144720D01*
X75890710Y-103152288D01*
X75877403Y-103158582D01*
X75863543Y-103163541D01*
X75849264Y-103167118D01*
X75834703Y-103169278D01*
X75820000Y-103170000D01*
X74170000Y-103170000D01*
X74155297Y-103169278D01*
X74140736Y-103167118D01*
X74126457Y-103163541D01*
X74112597Y-103158582D01*
X74099290Y-103152288D01*
X74086664Y-103144720D01*
X74074841Y-103135952D01*
X74063934Y-103126066D01*
X74054048Y-103115159D01*
X74045280Y-103103336D01*
X74037712Y-103090710D01*
X74031418Y-103077403D01*
X74026459Y-103063543D01*
X74022882Y-103049264D01*
X74020722Y-103034703D01*
X74020000Y-103020000D01*
X74020000Y-102720000D01*
X74020722Y-102705297D01*
X74022882Y-102690736D01*
X74026459Y-102676457D01*
X74031418Y-102662597D01*
X74037712Y-102649290D01*
X74045280Y-102636664D01*
X74054048Y-102624841D01*
X74063934Y-102613934D01*
X74074841Y-102604048D01*
X74086664Y-102595280D01*
X74099290Y-102587712D01*
X74112597Y-102581418D01*
X74126457Y-102576459D01*
X74140736Y-102572882D01*
X74155297Y-102570722D01*
X74170000Y-102570000D01*
X75820000Y-102570000D01*
X75834703Y-102570722D01*
X75834703Y-102570722D01*
G37*
D13*
X74995000Y-102870000D03*
D12*
G36*
X75834703Y-101300722D02*
G01*
X75849264Y-101302882D01*
X75863543Y-101306459D01*
X75877403Y-101311418D01*
X75890710Y-101317712D01*
X75903336Y-101325280D01*
X75915159Y-101334048D01*
X75926066Y-101343934D01*
X75935952Y-101354841D01*
X75944720Y-101366664D01*
X75952288Y-101379290D01*
X75958582Y-101392597D01*
X75963541Y-101406457D01*
X75967118Y-101420736D01*
X75969278Y-101435297D01*
X75970000Y-101450000D01*
X75970000Y-101750000D01*
X75969278Y-101764703D01*
X75967118Y-101779264D01*
X75963541Y-101793543D01*
X75958582Y-101807403D01*
X75952288Y-101820710D01*
X75944720Y-101833336D01*
X75935952Y-101845159D01*
X75926066Y-101856066D01*
X75915159Y-101865952D01*
X75903336Y-101874720D01*
X75890710Y-101882288D01*
X75877403Y-101888582D01*
X75863543Y-101893541D01*
X75849264Y-101897118D01*
X75834703Y-101899278D01*
X75820000Y-101900000D01*
X74170000Y-101900000D01*
X74155297Y-101899278D01*
X74140736Y-101897118D01*
X74126457Y-101893541D01*
X74112597Y-101888582D01*
X74099290Y-101882288D01*
X74086664Y-101874720D01*
X74074841Y-101865952D01*
X74063934Y-101856066D01*
X74054048Y-101845159D01*
X74045280Y-101833336D01*
X74037712Y-101820710D01*
X74031418Y-101807403D01*
X74026459Y-101793543D01*
X74022882Y-101779264D01*
X74020722Y-101764703D01*
X74020000Y-101750000D01*
X74020000Y-101450000D01*
X74020722Y-101435297D01*
X74022882Y-101420736D01*
X74026459Y-101406457D01*
X74031418Y-101392597D01*
X74037712Y-101379290D01*
X74045280Y-101366664D01*
X74054048Y-101354841D01*
X74063934Y-101343934D01*
X74074841Y-101334048D01*
X74086664Y-101325280D01*
X74099290Y-101317712D01*
X74112597Y-101311418D01*
X74126457Y-101306459D01*
X74140736Y-101302882D01*
X74155297Y-101300722D01*
X74170000Y-101300000D01*
X75820000Y-101300000D01*
X75834703Y-101300722D01*
X75834703Y-101300722D01*
G37*
D13*
X74995000Y-101600000D03*
D12*
G36*
X75834703Y-100030722D02*
G01*
X75849264Y-100032882D01*
X75863543Y-100036459D01*
X75877403Y-100041418D01*
X75890710Y-100047712D01*
X75903336Y-100055280D01*
X75915159Y-100064048D01*
X75926066Y-100073934D01*
X75935952Y-100084841D01*
X75944720Y-100096664D01*
X75952288Y-100109290D01*
X75958582Y-100122597D01*
X75963541Y-100136457D01*
X75967118Y-100150736D01*
X75969278Y-100165297D01*
X75970000Y-100180000D01*
X75970000Y-100480000D01*
X75969278Y-100494703D01*
X75967118Y-100509264D01*
X75963541Y-100523543D01*
X75958582Y-100537403D01*
X75952288Y-100550710D01*
X75944720Y-100563336D01*
X75935952Y-100575159D01*
X75926066Y-100586066D01*
X75915159Y-100595952D01*
X75903336Y-100604720D01*
X75890710Y-100612288D01*
X75877403Y-100618582D01*
X75863543Y-100623541D01*
X75849264Y-100627118D01*
X75834703Y-100629278D01*
X75820000Y-100630000D01*
X74170000Y-100630000D01*
X74155297Y-100629278D01*
X74140736Y-100627118D01*
X74126457Y-100623541D01*
X74112597Y-100618582D01*
X74099290Y-100612288D01*
X74086664Y-100604720D01*
X74074841Y-100595952D01*
X74063934Y-100586066D01*
X74054048Y-100575159D01*
X74045280Y-100563336D01*
X74037712Y-100550710D01*
X74031418Y-100537403D01*
X74026459Y-100523543D01*
X74022882Y-100509264D01*
X74020722Y-100494703D01*
X74020000Y-100480000D01*
X74020000Y-100180000D01*
X74020722Y-100165297D01*
X74022882Y-100150736D01*
X74026459Y-100136457D01*
X74031418Y-100122597D01*
X74037712Y-100109290D01*
X74045280Y-100096664D01*
X74054048Y-100084841D01*
X74063934Y-100073934D01*
X74074841Y-100064048D01*
X74086664Y-100055280D01*
X74099290Y-100047712D01*
X74112597Y-100041418D01*
X74126457Y-100036459D01*
X74140736Y-100032882D01*
X74155297Y-100030722D01*
X74170000Y-100030000D01*
X75820000Y-100030000D01*
X75834703Y-100030722D01*
X75834703Y-100030722D01*
G37*
D13*
X74995000Y-100330000D03*
D12*
G36*
X80784703Y-100030722D02*
G01*
X80799264Y-100032882D01*
X80813543Y-100036459D01*
X80827403Y-100041418D01*
X80840710Y-100047712D01*
X80853336Y-100055280D01*
X80865159Y-100064048D01*
X80876066Y-100073934D01*
X80885952Y-100084841D01*
X80894720Y-100096664D01*
X80902288Y-100109290D01*
X80908582Y-100122597D01*
X80913541Y-100136457D01*
X80917118Y-100150736D01*
X80919278Y-100165297D01*
X80920000Y-100180000D01*
X80920000Y-100480000D01*
X80919278Y-100494703D01*
X80917118Y-100509264D01*
X80913541Y-100523543D01*
X80908582Y-100537403D01*
X80902288Y-100550710D01*
X80894720Y-100563336D01*
X80885952Y-100575159D01*
X80876066Y-100586066D01*
X80865159Y-100595952D01*
X80853336Y-100604720D01*
X80840710Y-100612288D01*
X80827403Y-100618582D01*
X80813543Y-100623541D01*
X80799264Y-100627118D01*
X80784703Y-100629278D01*
X80770000Y-100630000D01*
X79120000Y-100630000D01*
X79105297Y-100629278D01*
X79090736Y-100627118D01*
X79076457Y-100623541D01*
X79062597Y-100618582D01*
X79049290Y-100612288D01*
X79036664Y-100604720D01*
X79024841Y-100595952D01*
X79013934Y-100586066D01*
X79004048Y-100575159D01*
X78995280Y-100563336D01*
X78987712Y-100550710D01*
X78981418Y-100537403D01*
X78976459Y-100523543D01*
X78972882Y-100509264D01*
X78970722Y-100494703D01*
X78970000Y-100480000D01*
X78970000Y-100180000D01*
X78970722Y-100165297D01*
X78972882Y-100150736D01*
X78976459Y-100136457D01*
X78981418Y-100122597D01*
X78987712Y-100109290D01*
X78995280Y-100096664D01*
X79004048Y-100084841D01*
X79013934Y-100073934D01*
X79024841Y-100064048D01*
X79036664Y-100055280D01*
X79049290Y-100047712D01*
X79062597Y-100041418D01*
X79076457Y-100036459D01*
X79090736Y-100032882D01*
X79105297Y-100030722D01*
X79120000Y-100030000D01*
X80770000Y-100030000D01*
X80784703Y-100030722D01*
X80784703Y-100030722D01*
G37*
D13*
X79945000Y-100330000D03*
D12*
G36*
X80784703Y-101300722D02*
G01*
X80799264Y-101302882D01*
X80813543Y-101306459D01*
X80827403Y-101311418D01*
X80840710Y-101317712D01*
X80853336Y-101325280D01*
X80865159Y-101334048D01*
X80876066Y-101343934D01*
X80885952Y-101354841D01*
X80894720Y-101366664D01*
X80902288Y-101379290D01*
X80908582Y-101392597D01*
X80913541Y-101406457D01*
X80917118Y-101420736D01*
X80919278Y-101435297D01*
X80920000Y-101450000D01*
X80920000Y-101750000D01*
X80919278Y-101764703D01*
X80917118Y-101779264D01*
X80913541Y-101793543D01*
X80908582Y-101807403D01*
X80902288Y-101820710D01*
X80894720Y-101833336D01*
X80885952Y-101845159D01*
X80876066Y-101856066D01*
X80865159Y-101865952D01*
X80853336Y-101874720D01*
X80840710Y-101882288D01*
X80827403Y-101888582D01*
X80813543Y-101893541D01*
X80799264Y-101897118D01*
X80784703Y-101899278D01*
X80770000Y-101900000D01*
X79120000Y-101900000D01*
X79105297Y-101899278D01*
X79090736Y-101897118D01*
X79076457Y-101893541D01*
X79062597Y-101888582D01*
X79049290Y-101882288D01*
X79036664Y-101874720D01*
X79024841Y-101865952D01*
X79013934Y-101856066D01*
X79004048Y-101845159D01*
X78995280Y-101833336D01*
X78987712Y-101820710D01*
X78981418Y-101807403D01*
X78976459Y-101793543D01*
X78972882Y-101779264D01*
X78970722Y-101764703D01*
X78970000Y-101750000D01*
X78970000Y-101450000D01*
X78970722Y-101435297D01*
X78972882Y-101420736D01*
X78976459Y-101406457D01*
X78981418Y-101392597D01*
X78987712Y-101379290D01*
X78995280Y-101366664D01*
X79004048Y-101354841D01*
X79013934Y-101343934D01*
X79024841Y-101334048D01*
X79036664Y-101325280D01*
X79049290Y-101317712D01*
X79062597Y-101311418D01*
X79076457Y-101306459D01*
X79090736Y-101302882D01*
X79105297Y-101300722D01*
X79120000Y-101300000D01*
X80770000Y-101300000D01*
X80784703Y-101300722D01*
X80784703Y-101300722D01*
G37*
D13*
X79945000Y-101600000D03*
D12*
G36*
X80784703Y-102570722D02*
G01*
X80799264Y-102572882D01*
X80813543Y-102576459D01*
X80827403Y-102581418D01*
X80840710Y-102587712D01*
X80853336Y-102595280D01*
X80865159Y-102604048D01*
X80876066Y-102613934D01*
X80885952Y-102624841D01*
X80894720Y-102636664D01*
X80902288Y-102649290D01*
X80908582Y-102662597D01*
X80913541Y-102676457D01*
X80917118Y-102690736D01*
X80919278Y-102705297D01*
X80920000Y-102720000D01*
X80920000Y-103020000D01*
X80919278Y-103034703D01*
X80917118Y-103049264D01*
X80913541Y-103063543D01*
X80908582Y-103077403D01*
X80902288Y-103090710D01*
X80894720Y-103103336D01*
X80885952Y-103115159D01*
X80876066Y-103126066D01*
X80865159Y-103135952D01*
X80853336Y-103144720D01*
X80840710Y-103152288D01*
X80827403Y-103158582D01*
X80813543Y-103163541D01*
X80799264Y-103167118D01*
X80784703Y-103169278D01*
X80770000Y-103170000D01*
X79120000Y-103170000D01*
X79105297Y-103169278D01*
X79090736Y-103167118D01*
X79076457Y-103163541D01*
X79062597Y-103158582D01*
X79049290Y-103152288D01*
X79036664Y-103144720D01*
X79024841Y-103135952D01*
X79013934Y-103126066D01*
X79004048Y-103115159D01*
X78995280Y-103103336D01*
X78987712Y-103090710D01*
X78981418Y-103077403D01*
X78976459Y-103063543D01*
X78972882Y-103049264D01*
X78970722Y-103034703D01*
X78970000Y-103020000D01*
X78970000Y-102720000D01*
X78970722Y-102705297D01*
X78972882Y-102690736D01*
X78976459Y-102676457D01*
X78981418Y-102662597D01*
X78987712Y-102649290D01*
X78995280Y-102636664D01*
X79004048Y-102624841D01*
X79013934Y-102613934D01*
X79024841Y-102604048D01*
X79036664Y-102595280D01*
X79049290Y-102587712D01*
X79062597Y-102581418D01*
X79076457Y-102576459D01*
X79090736Y-102572882D01*
X79105297Y-102570722D01*
X79120000Y-102570000D01*
X80770000Y-102570000D01*
X80784703Y-102570722D01*
X80784703Y-102570722D01*
G37*
D13*
X79945000Y-102870000D03*
D12*
G36*
X80784703Y-103840722D02*
G01*
X80799264Y-103842882D01*
X80813543Y-103846459D01*
X80827403Y-103851418D01*
X80840710Y-103857712D01*
X80853336Y-103865280D01*
X80865159Y-103874048D01*
X80876066Y-103883934D01*
X80885952Y-103894841D01*
X80894720Y-103906664D01*
X80902288Y-103919290D01*
X80908582Y-103932597D01*
X80913541Y-103946457D01*
X80917118Y-103960736D01*
X80919278Y-103975297D01*
X80920000Y-103990000D01*
X80920000Y-104290000D01*
X80919278Y-104304703D01*
X80917118Y-104319264D01*
X80913541Y-104333543D01*
X80908582Y-104347403D01*
X80902288Y-104360710D01*
X80894720Y-104373336D01*
X80885952Y-104385159D01*
X80876066Y-104396066D01*
X80865159Y-104405952D01*
X80853336Y-104414720D01*
X80840710Y-104422288D01*
X80827403Y-104428582D01*
X80813543Y-104433541D01*
X80799264Y-104437118D01*
X80784703Y-104439278D01*
X80770000Y-104440000D01*
X79120000Y-104440000D01*
X79105297Y-104439278D01*
X79090736Y-104437118D01*
X79076457Y-104433541D01*
X79062597Y-104428582D01*
X79049290Y-104422288D01*
X79036664Y-104414720D01*
X79024841Y-104405952D01*
X79013934Y-104396066D01*
X79004048Y-104385159D01*
X78995280Y-104373336D01*
X78987712Y-104360710D01*
X78981418Y-104347403D01*
X78976459Y-104333543D01*
X78972882Y-104319264D01*
X78970722Y-104304703D01*
X78970000Y-104290000D01*
X78970000Y-103990000D01*
X78970722Y-103975297D01*
X78972882Y-103960736D01*
X78976459Y-103946457D01*
X78981418Y-103932597D01*
X78987712Y-103919290D01*
X78995280Y-103906664D01*
X79004048Y-103894841D01*
X79013934Y-103883934D01*
X79024841Y-103874048D01*
X79036664Y-103865280D01*
X79049290Y-103857712D01*
X79062597Y-103851418D01*
X79076457Y-103846459D01*
X79090736Y-103842882D01*
X79105297Y-103840722D01*
X79120000Y-103840000D01*
X80770000Y-103840000D01*
X80784703Y-103840722D01*
X80784703Y-103840722D01*
G37*
D13*
X79945000Y-104140000D03*
D12*
G36*
X80784703Y-105110722D02*
G01*
X80799264Y-105112882D01*
X80813543Y-105116459D01*
X80827403Y-105121418D01*
X80840710Y-105127712D01*
X80853336Y-105135280D01*
X80865159Y-105144048D01*
X80876066Y-105153934D01*
X80885952Y-105164841D01*
X80894720Y-105176664D01*
X80902288Y-105189290D01*
X80908582Y-105202597D01*
X80913541Y-105216457D01*
X80917118Y-105230736D01*
X80919278Y-105245297D01*
X80920000Y-105260000D01*
X80920000Y-105560000D01*
X80919278Y-105574703D01*
X80917118Y-105589264D01*
X80913541Y-105603543D01*
X80908582Y-105617403D01*
X80902288Y-105630710D01*
X80894720Y-105643336D01*
X80885952Y-105655159D01*
X80876066Y-105666066D01*
X80865159Y-105675952D01*
X80853336Y-105684720D01*
X80840710Y-105692288D01*
X80827403Y-105698582D01*
X80813543Y-105703541D01*
X80799264Y-105707118D01*
X80784703Y-105709278D01*
X80770000Y-105710000D01*
X79120000Y-105710000D01*
X79105297Y-105709278D01*
X79090736Y-105707118D01*
X79076457Y-105703541D01*
X79062597Y-105698582D01*
X79049290Y-105692288D01*
X79036664Y-105684720D01*
X79024841Y-105675952D01*
X79013934Y-105666066D01*
X79004048Y-105655159D01*
X78995280Y-105643336D01*
X78987712Y-105630710D01*
X78981418Y-105617403D01*
X78976459Y-105603543D01*
X78972882Y-105589264D01*
X78970722Y-105574703D01*
X78970000Y-105560000D01*
X78970000Y-105260000D01*
X78970722Y-105245297D01*
X78972882Y-105230736D01*
X78976459Y-105216457D01*
X78981418Y-105202597D01*
X78987712Y-105189290D01*
X78995280Y-105176664D01*
X79004048Y-105164841D01*
X79013934Y-105153934D01*
X79024841Y-105144048D01*
X79036664Y-105135280D01*
X79049290Y-105127712D01*
X79062597Y-105121418D01*
X79076457Y-105116459D01*
X79090736Y-105112882D01*
X79105297Y-105110722D01*
X79120000Y-105110000D01*
X80770000Y-105110000D01*
X80784703Y-105110722D01*
X80784703Y-105110722D01*
G37*
D13*
X79945000Y-105410000D03*
D12*
G36*
X80784703Y-106380722D02*
G01*
X80799264Y-106382882D01*
X80813543Y-106386459D01*
X80827403Y-106391418D01*
X80840710Y-106397712D01*
X80853336Y-106405280D01*
X80865159Y-106414048D01*
X80876066Y-106423934D01*
X80885952Y-106434841D01*
X80894720Y-106446664D01*
X80902288Y-106459290D01*
X80908582Y-106472597D01*
X80913541Y-106486457D01*
X80917118Y-106500736D01*
X80919278Y-106515297D01*
X80920000Y-106530000D01*
X80920000Y-106830000D01*
X80919278Y-106844703D01*
X80917118Y-106859264D01*
X80913541Y-106873543D01*
X80908582Y-106887403D01*
X80902288Y-106900710D01*
X80894720Y-106913336D01*
X80885952Y-106925159D01*
X80876066Y-106936066D01*
X80865159Y-106945952D01*
X80853336Y-106954720D01*
X80840710Y-106962288D01*
X80827403Y-106968582D01*
X80813543Y-106973541D01*
X80799264Y-106977118D01*
X80784703Y-106979278D01*
X80770000Y-106980000D01*
X79120000Y-106980000D01*
X79105297Y-106979278D01*
X79090736Y-106977118D01*
X79076457Y-106973541D01*
X79062597Y-106968582D01*
X79049290Y-106962288D01*
X79036664Y-106954720D01*
X79024841Y-106945952D01*
X79013934Y-106936066D01*
X79004048Y-106925159D01*
X78995280Y-106913336D01*
X78987712Y-106900710D01*
X78981418Y-106887403D01*
X78976459Y-106873543D01*
X78972882Y-106859264D01*
X78970722Y-106844703D01*
X78970000Y-106830000D01*
X78970000Y-106530000D01*
X78970722Y-106515297D01*
X78972882Y-106500736D01*
X78976459Y-106486457D01*
X78981418Y-106472597D01*
X78987712Y-106459290D01*
X78995280Y-106446664D01*
X79004048Y-106434841D01*
X79013934Y-106423934D01*
X79024841Y-106414048D01*
X79036664Y-106405280D01*
X79049290Y-106397712D01*
X79062597Y-106391418D01*
X79076457Y-106386459D01*
X79090736Y-106382882D01*
X79105297Y-106380722D01*
X79120000Y-106380000D01*
X80770000Y-106380000D01*
X80784703Y-106380722D01*
X80784703Y-106380722D01*
G37*
D13*
X79945000Y-106680000D03*
D12*
G36*
X80784703Y-107650722D02*
G01*
X80799264Y-107652882D01*
X80813543Y-107656459D01*
X80827403Y-107661418D01*
X80840710Y-107667712D01*
X80853336Y-107675280D01*
X80865159Y-107684048D01*
X80876066Y-107693934D01*
X80885952Y-107704841D01*
X80894720Y-107716664D01*
X80902288Y-107729290D01*
X80908582Y-107742597D01*
X80913541Y-107756457D01*
X80917118Y-107770736D01*
X80919278Y-107785297D01*
X80920000Y-107800000D01*
X80920000Y-108100000D01*
X80919278Y-108114703D01*
X80917118Y-108129264D01*
X80913541Y-108143543D01*
X80908582Y-108157403D01*
X80902288Y-108170710D01*
X80894720Y-108183336D01*
X80885952Y-108195159D01*
X80876066Y-108206066D01*
X80865159Y-108215952D01*
X80853336Y-108224720D01*
X80840710Y-108232288D01*
X80827403Y-108238582D01*
X80813543Y-108243541D01*
X80799264Y-108247118D01*
X80784703Y-108249278D01*
X80770000Y-108250000D01*
X79120000Y-108250000D01*
X79105297Y-108249278D01*
X79090736Y-108247118D01*
X79076457Y-108243541D01*
X79062597Y-108238582D01*
X79049290Y-108232288D01*
X79036664Y-108224720D01*
X79024841Y-108215952D01*
X79013934Y-108206066D01*
X79004048Y-108195159D01*
X78995280Y-108183336D01*
X78987712Y-108170710D01*
X78981418Y-108157403D01*
X78976459Y-108143543D01*
X78972882Y-108129264D01*
X78970722Y-108114703D01*
X78970000Y-108100000D01*
X78970000Y-107800000D01*
X78970722Y-107785297D01*
X78972882Y-107770736D01*
X78976459Y-107756457D01*
X78981418Y-107742597D01*
X78987712Y-107729290D01*
X78995280Y-107716664D01*
X79004048Y-107704841D01*
X79013934Y-107693934D01*
X79024841Y-107684048D01*
X79036664Y-107675280D01*
X79049290Y-107667712D01*
X79062597Y-107661418D01*
X79076457Y-107656459D01*
X79090736Y-107652882D01*
X79105297Y-107650722D01*
X79120000Y-107650000D01*
X80770000Y-107650000D01*
X80784703Y-107650722D01*
X80784703Y-107650722D01*
G37*
D13*
X79945000Y-107950000D03*
D14*
X68690000Y-107630000D03*
X68690000Y-106680000D03*
X68690000Y-105730000D03*
X71010000Y-105730000D03*
X71010000Y-107630000D03*
D15*
X77470000Y-114300000D03*
D16*
X80010000Y-114300000D03*
X82550000Y-114300000D03*
X69850000Y-114300000D03*
X67310000Y-114300000D03*
D15*
X64770000Y-114300000D03*
X73660000Y-114300000D03*
D10*
X63499880Y-83821160D03*
X71119880Y-99061160D03*
X63499880Y-86361160D03*
X63499880Y-88901160D03*
X63499880Y-91441160D03*
X63499880Y-93981160D03*
X63499880Y-96521160D03*
X63499880Y-99061160D03*
X63499880Y-101601160D03*
D17*
X86995000Y-84455000D03*
D18*
X86995000Y-86455000D03*
D19*
X72136000Y-108712000D03*
D20*
X68580000Y-103505000D03*
D19*
X61849000Y-110617000D03*
X83439000Y-102235000D03*
X84064010Y-101600000D03*
X85090000Y-103505000D03*
X81661000Y-103378000D03*
X81661000Y-105283000D03*
X84836000Y-106299000D03*
X77325999Y-107967001D03*
X78994000Y-97409000D03*
X81534000Y-97409000D03*
X69830000Y-106700000D03*
X76581000Y-107442000D03*
X78232000Y-106299000D03*
X61214000Y-103886000D03*
X67310000Y-89535000D03*
X63881000Y-103632000D03*
X67310000Y-91440000D03*
X66040000Y-87630000D03*
X82169000Y-95631000D03*
X71120000Y-86995000D03*
X65659000Y-84744000D03*
X65532000Y-104521000D03*
X73660000Y-85725000D03*
X70485000Y-85725000D03*
X66802000Y-104775000D03*
X67546500Y-92438500D03*
X68326000Y-98679000D03*
X66022999Y-103106999D03*
X66222998Y-97718998D03*
X74041000Y-111252000D03*
X75201001Y-109364001D03*
X73279000Y-111125000D03*
X74676000Y-109728000D03*
X72644000Y-111252000D03*
X74041000Y-109347000D03*
X72243841Y-97936159D03*
X67310000Y-108585000D03*
X72009000Y-101081650D03*
X85344000Y-107950000D03*
X84824000Y-107200000D03*
X82296000Y-109601000D03*
X82296000Y-112776000D03*
X81978500Y-109029500D03*
X81770999Y-112250999D03*
X81534000Y-108585000D03*
X78613000Y-111506000D03*
D21*
X81955000Y-107950000D02*
X86995000Y-112990000D01*
X79945000Y-107950000D02*
X81955000Y-107950000D01*
X79217990Y-108677010D02*
X79945000Y-107950000D01*
X72152010Y-108677010D02*
X79217990Y-108677010D01*
X71010000Y-107630000D02*
X71105000Y-107630000D01*
X71105000Y-107630000D02*
X72152010Y-108677010D01*
X88049000Y-84455000D02*
X86995000Y-84455000D01*
X88876011Y-85282011D02*
X88049000Y-84455000D01*
X88876011Y-111108989D02*
X88876011Y-85282011D01*
X86995000Y-112990000D02*
X88876011Y-111108989D01*
X68690000Y-103615000D02*
X68580000Y-103505000D01*
X68690000Y-105730000D02*
X68690000Y-103615000D01*
X71755000Y-100330000D02*
X74995000Y-100330000D01*
X68580000Y-103505000D02*
X71755000Y-100330000D01*
X85863630Y-94575000D02*
X86995000Y-94575000D01*
X85144471Y-95294159D02*
X85863630Y-94575000D01*
X87594999Y-87054999D02*
X86995000Y-86455000D01*
X88222001Y-87682001D02*
X87594999Y-87054999D01*
X88222001Y-93347999D02*
X88222001Y-87682001D01*
X86995000Y-94575000D02*
X88222001Y-93347999D01*
X86995000Y-110490000D02*
X86995000Y-94575000D01*
X85144471Y-97012531D02*
X85144471Y-95294159D01*
X84408841Y-97748161D02*
X85144471Y-97012531D01*
X83230919Y-97748161D02*
X84408841Y-97748161D01*
X82943079Y-98036001D02*
X83230919Y-97748161D01*
X77288999Y-98036001D02*
X82943079Y-98036001D01*
X74995000Y-100330000D02*
X77288999Y-98036001D01*
D22*
X73920000Y-104140000D02*
X74995000Y-104140000D01*
X73694990Y-103914990D02*
X73920000Y-104140000D01*
X73694990Y-102523242D02*
X73694990Y-103914990D01*
X73983232Y-102235000D02*
X73694990Y-102523242D01*
X83439000Y-102235000D02*
X73983232Y-102235000D01*
X74995000Y-105410000D02*
X74995000Y-104140000D01*
X79945000Y-101600000D02*
X84064010Y-101600000D01*
X74995000Y-101600000D02*
X79945000Y-101600000D01*
X80315710Y-105039290D02*
X81015710Y-105039290D01*
X79945000Y-105410000D02*
X80315710Y-105039290D01*
X81015710Y-105039290D02*
X82550000Y-103505000D01*
X82550000Y-103505000D02*
X85090000Y-103505000D01*
X85090000Y-103505000D02*
X85090000Y-103505000D01*
X85090000Y-103222158D02*
X85090000Y-103505000D01*
X85090000Y-101848988D02*
X85090000Y-103222158D01*
X83571012Y-100330000D02*
X85090000Y-101848988D01*
X79945000Y-100330000D02*
X83571012Y-100330000D01*
X80315710Y-103769290D02*
X81269710Y-103769290D01*
X79945000Y-104140000D02*
X80315710Y-103769290D01*
X81269710Y-103769290D02*
X81661000Y-103378000D01*
X81661000Y-103378000D02*
X81661000Y-103378000D01*
X81661000Y-105283000D02*
X83820000Y-105283000D01*
X83820000Y-105283000D02*
X84836000Y-106299000D01*
X84836000Y-106299000D02*
X84836000Y-106299000D01*
X76328999Y-107967001D02*
X77325999Y-107967001D01*
X74995000Y-107950000D02*
X76311998Y-107950000D01*
X76311998Y-107950000D02*
X76328999Y-107967001D01*
X77325999Y-107967001D02*
X77325999Y-107967001D01*
X78994000Y-97409000D02*
X78994000Y-97409000D01*
X78994000Y-97409000D02*
X81534000Y-97409000D01*
X81534000Y-97409000D02*
X81534000Y-97409000D01*
X73920000Y-106680000D02*
X74995000Y-106680000D01*
X72055000Y-106680000D02*
X73920000Y-106680000D01*
X71105000Y-105730000D02*
X72055000Y-106680000D01*
X71010000Y-105730000D02*
X71105000Y-105730000D01*
X70040000Y-106700000D02*
X71010000Y-105730000D01*
X69830000Y-106700000D02*
X70040000Y-106700000D01*
X74995000Y-102870000D02*
X76327000Y-102870000D01*
X78870000Y-102870000D02*
X79945000Y-102870000D01*
X78232000Y-103508000D02*
X78870000Y-102870000D01*
X78232000Y-106299000D02*
X78232000Y-103508000D01*
X78613000Y-106680000D02*
X78232000Y-106299000D01*
X79945000Y-106680000D02*
X78613000Y-106680000D01*
X78232000Y-103505000D02*
X77597000Y-102870000D01*
X78232000Y-103508000D02*
X78232000Y-103505000D01*
X76327000Y-102870000D02*
X77597000Y-102870000D01*
X77597000Y-102870000D02*
X79945000Y-102870000D01*
X75365710Y-107050710D02*
X76189710Y-107050710D01*
X74995000Y-106680000D02*
X75365710Y-107050710D01*
X76189710Y-107050710D02*
X76581000Y-107442000D01*
X76581000Y-107442000D02*
X76581000Y-107442000D01*
X78232000Y-106299000D02*
X78232000Y-106299000D01*
X67310000Y-89535000D02*
X67310000Y-89535000D01*
X67310000Y-89535000D02*
X67310000Y-89535000D01*
X67310000Y-89535000D02*
X67310000Y-91440000D01*
X63627000Y-103886000D02*
X63881000Y-103632000D01*
X61214000Y-103886000D02*
X63627000Y-103886000D01*
X82551160Y-88901160D02*
X83819880Y-88901160D01*
X81915000Y-88265000D02*
X82551160Y-88901160D01*
X71316998Y-88265000D02*
X81915000Y-88265000D01*
X66040000Y-87630000D02*
X66040000Y-87630000D01*
X70681998Y-87630000D02*
X71316998Y-88265000D01*
X66040000Y-87630000D02*
X70681998Y-87630000D01*
X83019881Y-90576157D02*
X82169000Y-91427038D01*
X83819880Y-88901160D02*
X83019881Y-89701159D01*
X83019881Y-89701159D02*
X83019881Y-90576157D01*
X82169000Y-91427038D02*
X82169000Y-95631000D01*
X83819880Y-86361160D02*
X76198840Y-86361160D01*
X76198840Y-86361160D02*
X75565000Y-86995000D01*
X75565000Y-86995000D02*
X71120000Y-86995000D01*
X71120000Y-86995000D02*
X71120000Y-86995000D01*
X64770000Y-103759000D02*
X65532000Y-104521000D01*
X65659000Y-84744000D02*
X64770000Y-85633000D01*
X64770000Y-85633000D02*
X64770000Y-103759000D01*
X70485000Y-85725000D02*
X70485000Y-85725000D01*
X73660000Y-85725000D02*
X73660000Y-85725000D01*
X73660000Y-85725000D02*
X73660000Y-85725000D01*
X70485000Y-85725000D02*
X73660000Y-85725000D01*
X65405000Y-103124000D02*
X65405000Y-103124000D01*
X65405000Y-103124000D02*
X65405000Y-103124000D01*
X65405000Y-103124000D02*
X65405000Y-103124000D01*
X65405000Y-103378000D02*
X66802000Y-104775000D01*
X65405000Y-87487998D02*
X65405000Y-103378000D01*
X70485000Y-85725000D02*
X67167998Y-85725000D01*
X67167998Y-85725000D02*
X65405000Y-87487998D01*
X67546500Y-92438500D02*
X66167000Y-93818000D01*
X66167000Y-93818000D02*
X66167000Y-95758000D01*
X66167000Y-95758000D02*
X66167000Y-96520000D01*
X66167000Y-96520000D02*
X68326000Y-98679000D01*
X68326000Y-98679000D02*
X68326000Y-98679000D01*
X66222998Y-102907000D02*
X66222998Y-97718998D01*
X66022999Y-103106999D02*
X66222998Y-102907000D01*
X66222998Y-97718998D02*
X66222998Y-97718998D01*
X75201001Y-110457997D02*
X75201001Y-109364001D01*
X74041000Y-111252000D02*
X74406998Y-111252000D01*
X74406998Y-111252000D02*
X75201001Y-110457997D01*
X75201001Y-109364001D02*
X75201001Y-109364001D01*
X73279000Y-111125000D02*
X74549000Y-109855000D01*
X74549000Y-109855000D02*
X74676000Y-109728000D01*
X74676000Y-109728000D02*
X74676000Y-109728000D01*
X72644000Y-110969158D02*
X74041000Y-109572158D01*
X72644000Y-111252000D02*
X72644000Y-110969158D01*
X74041000Y-109572158D02*
X74041000Y-109347000D01*
X74041000Y-109347000D02*
X74041000Y-109347000D01*
X73658840Y-96521160D02*
X83819880Y-96521160D01*
X72243841Y-97936159D02*
X73658840Y-96521160D01*
X67735000Y-108585000D02*
X68690000Y-107630000D01*
X67310000Y-108585000D02*
X67735000Y-108585000D01*
X72009000Y-101081650D02*
X72009000Y-105283000D01*
X72780990Y-106054990D02*
X76336990Y-106054990D01*
X72009000Y-105283000D02*
X72780990Y-106054990D01*
X77606990Y-107324990D02*
X82178990Y-107324990D01*
X76336990Y-106054990D02*
X77606990Y-107324990D01*
X82178990Y-107324990D02*
X82550000Y-107696000D01*
X82550000Y-107696000D02*
X84582000Y-107696000D01*
X84582000Y-107696000D02*
X84836000Y-107950000D01*
X84836000Y-107950000D02*
X85217000Y-107950000D01*
X85217000Y-107950000D02*
X85344000Y-107950000D01*
X85344000Y-107950000D02*
X85344000Y-107950000D01*
X84619879Y-99861159D02*
X83819880Y-99061160D01*
X85615001Y-100856281D02*
X84619879Y-99861159D01*
X85615001Y-106408999D02*
X85615001Y-100856281D01*
X84824000Y-107200000D02*
X85615001Y-106408999D01*
X82296000Y-109601000D02*
X82296000Y-112776000D01*
X82296000Y-112776000D02*
X82296000Y-112776000D01*
X81770999Y-109237001D02*
X81770999Y-112250999D01*
X81978500Y-109029500D02*
X81770999Y-109237001D01*
X81770999Y-112250999D02*
X81770999Y-112250999D01*
X81534000Y-108585000D02*
X81026000Y-109093000D01*
X81026000Y-109093000D02*
X78613000Y-111506000D01*
X78613000Y-111506000D02*
X78613000Y-111506000D01*
X72560000Y-114300000D02*
X73660000Y-114300000D01*
X68690000Y-106680000D02*
X68930002Y-106680000D01*
X68930002Y-106680000D02*
X69850000Y-107599998D01*
X69850000Y-107599998D02*
X69850000Y-111379000D01*
X69850000Y-111379000D02*
X72263000Y-113792000D01*
X72263000Y-113792000D02*
X72263000Y-114003000D01*
X72263000Y-114003000D02*
X72560000Y-114300000D01*
D23*
G36*
X71436277Y-81115734D02*
G01*
X71196513Y-81188779D01*
X71078535Y-81443374D01*
X71012493Y-81716094D01*
X71000926Y-81996459D01*
X71044276Y-82273692D01*
X71140880Y-82537142D01*
X71196513Y-82641221D01*
X71436279Y-82714267D01*
X72235546Y-81915000D01*
X72221404Y-81900858D01*
X72415858Y-81706404D01*
X72430000Y-81720546D01*
X72444143Y-81706404D01*
X72638597Y-81900858D01*
X72624454Y-81915000D01*
X73423721Y-82714267D01*
X73663487Y-82641221D01*
X73781465Y-82386626D01*
X73820077Y-82227180D01*
X73824675Y-82250297D01*
X73911326Y-82459492D01*
X74037125Y-82647764D01*
X74197236Y-82807875D01*
X74385508Y-82933674D01*
X74594703Y-83020325D01*
X74816784Y-83064500D01*
X75043216Y-83064500D01*
X75265297Y-83020325D01*
X75474492Y-82933674D01*
X75662764Y-82807875D01*
X75822875Y-82647764D01*
X75948674Y-82459492D01*
X76035325Y-82250297D01*
X76079500Y-82028216D01*
X76079500Y-81801784D01*
X76035325Y-81579703D01*
X75948674Y-81370508D01*
X75822875Y-81182236D01*
X75662764Y-81022125D01*
X75658835Y-81019500D01*
X90176500Y-81019500D01*
X90176501Y-115830500D01*
X60699500Y-115830500D01*
X60699500Y-113450000D01*
X63568809Y-113450000D01*
X63568809Y-115150000D01*
X63575557Y-115218514D01*
X63595542Y-115284395D01*
X63627995Y-115345111D01*
X63671670Y-115398330D01*
X63724889Y-115442005D01*
X63785605Y-115474458D01*
X63851486Y-115494443D01*
X63920000Y-115501191D01*
X65620000Y-115501191D01*
X65688514Y-115494443D01*
X65754395Y-115474458D01*
X65815111Y-115442005D01*
X65868330Y-115398330D01*
X65912005Y-115345111D01*
X65944458Y-115284395D01*
X65964443Y-115218514D01*
X65971191Y-115150000D01*
X65971191Y-114300000D01*
X66104697Y-114300000D01*
X66127857Y-114535143D01*
X66196445Y-114761249D01*
X66307827Y-114969630D01*
X66457722Y-115152278D01*
X66640370Y-115302173D01*
X66848751Y-115413555D01*
X67074857Y-115482143D01*
X67251082Y-115499500D01*
X67368918Y-115499500D01*
X67545143Y-115482143D01*
X67771249Y-115413555D01*
X67979630Y-115302173D01*
X68162278Y-115152278D01*
X68312173Y-114969630D01*
X68423555Y-114761249D01*
X68492143Y-114535143D01*
X68515303Y-114300000D01*
X68644697Y-114300000D01*
X68667857Y-114535143D01*
X68736445Y-114761249D01*
X68847827Y-114969630D01*
X68997722Y-115152278D01*
X69180370Y-115302173D01*
X69388751Y-115413555D01*
X69614857Y-115482143D01*
X69791082Y-115499500D01*
X69908918Y-115499500D01*
X70085143Y-115482143D01*
X70311249Y-115413555D01*
X70519630Y-115302173D01*
X70702278Y-115152278D01*
X70852173Y-114969630D01*
X70963555Y-114761249D01*
X71032143Y-114535143D01*
X71055303Y-114300000D01*
X71032143Y-114064857D01*
X70963555Y-113838751D01*
X70852173Y-113630370D01*
X70702278Y-113447722D01*
X70519630Y-113297827D01*
X70311249Y-113186445D01*
X70085143Y-113117857D01*
X69908918Y-113100500D01*
X69791082Y-113100500D01*
X69614857Y-113117857D01*
X69388751Y-113186445D01*
X69180370Y-113297827D01*
X68997722Y-113447722D01*
X68847827Y-113630370D01*
X68736445Y-113838751D01*
X68667857Y-114064857D01*
X68644697Y-114300000D01*
X68515303Y-114300000D01*
X68492143Y-114064857D01*
X68423555Y-113838751D01*
X68312173Y-113630370D01*
X68162278Y-113447722D01*
X67979630Y-113297827D01*
X67771249Y-113186445D01*
X67545143Y-113117857D01*
X67368918Y-113100500D01*
X67251082Y-113100500D01*
X67074857Y-113117857D01*
X66848751Y-113186445D01*
X66640370Y-113297827D01*
X66457722Y-113447722D01*
X66307827Y-113630370D01*
X66196445Y-113838751D01*
X66127857Y-114064857D01*
X66104697Y-114300000D01*
X65971191Y-114300000D01*
X65971191Y-113450000D01*
X65964443Y-113381486D01*
X65944458Y-113315605D01*
X65912005Y-113254889D01*
X65868330Y-113201670D01*
X65815111Y-113157995D01*
X65754395Y-113125542D01*
X65688514Y-113105557D01*
X65620000Y-113098809D01*
X63920000Y-113098809D01*
X63851486Y-113105557D01*
X63785605Y-113125542D01*
X63724889Y-113157995D01*
X63671670Y-113201670D01*
X63627995Y-113254889D01*
X63595542Y-113315605D01*
X63575557Y-113381486D01*
X63568809Y-113450000D01*
X60699500Y-113450000D01*
X60699500Y-108530879D01*
X66760500Y-108530879D01*
X66760500Y-108639121D01*
X66781617Y-108745283D01*
X66823039Y-108845286D01*
X66883175Y-108935286D01*
X66959714Y-109011825D01*
X67049714Y-109071961D01*
X67149717Y-109113383D01*
X67255879Y-109134500D01*
X67364121Y-109134500D01*
X67470283Y-109113383D01*
X67570286Y-109071961D01*
X67588935Y-109059500D01*
X67711700Y-109059500D01*
X67735000Y-109061795D01*
X67758300Y-109059500D01*
X67758303Y-109059500D01*
X67828018Y-109052634D01*
X67917462Y-109025501D01*
X67999893Y-108981441D01*
X68072145Y-108922145D01*
X68087005Y-108904038D01*
X68754853Y-108236191D01*
X69040000Y-108236191D01*
X69108514Y-108229443D01*
X69174395Y-108209458D01*
X69235111Y-108177005D01*
X69288330Y-108133330D01*
X69332005Y-108080111D01*
X69364458Y-108019395D01*
X69375500Y-107982995D01*
X69375501Y-111355690D01*
X69373205Y-111379000D01*
X69382367Y-111472018D01*
X69409499Y-111561461D01*
X69425101Y-111590650D01*
X69453560Y-111643893D01*
X69512856Y-111716145D01*
X69530958Y-111731001D01*
X71787707Y-113987751D01*
X71786205Y-114003000D01*
X71788500Y-114026300D01*
X71788500Y-114026303D01*
X71795366Y-114096018D01*
X71822499Y-114185462D01*
X71866560Y-114267893D01*
X71925856Y-114340145D01*
X71943958Y-114355001D01*
X72207994Y-114619037D01*
X72222855Y-114637145D01*
X72295107Y-114696441D01*
X72377538Y-114740501D01*
X72458809Y-114765155D01*
X72458809Y-115150000D01*
X72465557Y-115218514D01*
X72485542Y-115284395D01*
X72517995Y-115345111D01*
X72561670Y-115398330D01*
X72614889Y-115442005D01*
X72675605Y-115474458D01*
X72741486Y-115494443D01*
X72810000Y-115501191D01*
X74510000Y-115501191D01*
X74578514Y-115494443D01*
X74644395Y-115474458D01*
X74705111Y-115442005D01*
X74758330Y-115398330D01*
X74802005Y-115345111D01*
X74834458Y-115284395D01*
X74854443Y-115218514D01*
X74861191Y-115150000D01*
X74861191Y-113450000D01*
X76268809Y-113450000D01*
X76268809Y-115150000D01*
X76275557Y-115218514D01*
X76295542Y-115284395D01*
X76327995Y-115345111D01*
X76371670Y-115398330D01*
X76424889Y-115442005D01*
X76485605Y-115474458D01*
X76551486Y-115494443D01*
X76620000Y-115501191D01*
X78320000Y-115501191D01*
X78388514Y-115494443D01*
X78454395Y-115474458D01*
X78515111Y-115442005D01*
X78568330Y-115398330D01*
X78612005Y-115345111D01*
X78644458Y-115284395D01*
X78664443Y-115218514D01*
X78671191Y-115150000D01*
X78671191Y-114300000D01*
X78804697Y-114300000D01*
X78827857Y-114535143D01*
X78896445Y-114761249D01*
X79007827Y-114969630D01*
X79157722Y-115152278D01*
X79340370Y-115302173D01*
X79548751Y-115413555D01*
X79774857Y-115482143D01*
X79951082Y-115499500D01*
X80068918Y-115499500D01*
X80245143Y-115482143D01*
X80471249Y-115413555D01*
X80679630Y-115302173D01*
X80862278Y-115152278D01*
X81012173Y-114969630D01*
X81123555Y-114761249D01*
X81192143Y-114535143D01*
X81215303Y-114300000D01*
X81192143Y-114064857D01*
X81123555Y-113838751D01*
X81012173Y-113630370D01*
X80862278Y-113447722D01*
X80679630Y-113297827D01*
X80471249Y-113186445D01*
X80245143Y-113117857D01*
X80068918Y-113100500D01*
X79951082Y-113100500D01*
X79774857Y-113117857D01*
X79548751Y-113186445D01*
X79340370Y-113297827D01*
X79157722Y-113447722D01*
X79007827Y-113630370D01*
X78896445Y-113838751D01*
X78827857Y-114064857D01*
X78804697Y-114300000D01*
X78671191Y-114300000D01*
X78671191Y-113450000D01*
X78664443Y-113381486D01*
X78644458Y-113315605D01*
X78612005Y-113254889D01*
X78568330Y-113201670D01*
X78515111Y-113157995D01*
X78454395Y-113125542D01*
X78388514Y-113105557D01*
X78320000Y-113098809D01*
X76620000Y-113098809D01*
X76551486Y-113105557D01*
X76485605Y-113125542D01*
X76424889Y-113157995D01*
X76371670Y-113201670D01*
X76327995Y-113254889D01*
X76295542Y-113315605D01*
X76275557Y-113381486D01*
X76268809Y-113450000D01*
X74861191Y-113450000D01*
X74854443Y-113381486D01*
X74834458Y-113315605D01*
X74802005Y-113254889D01*
X74758330Y-113201670D01*
X74705111Y-113157995D01*
X74644395Y-113125542D01*
X74578514Y-113105557D01*
X74510000Y-113098809D01*
X72810000Y-113098809D01*
X72741486Y-113105557D01*
X72675605Y-113125542D01*
X72614889Y-113157995D01*
X72561670Y-113201670D01*
X72517995Y-113254889D01*
X72485542Y-113315605D01*
X72479050Y-113337006D01*
X70324500Y-111182457D01*
X70324500Y-107982995D01*
X70335542Y-108019395D01*
X70367995Y-108080111D01*
X70411670Y-108133330D01*
X70464889Y-108177005D01*
X70525605Y-108209458D01*
X70591486Y-108229443D01*
X70660000Y-108236191D01*
X70895898Y-108236191D01*
X71683366Y-109023660D01*
X71709175Y-109062286D01*
X71785714Y-109138825D01*
X71875714Y-109198961D01*
X71975717Y-109240383D01*
X72081879Y-109261500D01*
X72190121Y-109261500D01*
X72230289Y-109253510D01*
X73499331Y-109253510D01*
X73491500Y-109292879D01*
X73491500Y-109401121D01*
X73499711Y-109442403D01*
X72324958Y-110617157D01*
X72306856Y-110632013D01*
X72247560Y-110704265D01*
X72203499Y-110786696D01*
X72176366Y-110876140D01*
X72169827Y-110942539D01*
X72167205Y-110969158D01*
X72167835Y-110975556D01*
X72157039Y-110991714D01*
X72115617Y-111091717D01*
X72094500Y-111197879D01*
X72094500Y-111306121D01*
X72115617Y-111412283D01*
X72157039Y-111512286D01*
X72217175Y-111602286D01*
X72293714Y-111678825D01*
X72383714Y-111738961D01*
X72483717Y-111780383D01*
X72589879Y-111801500D01*
X72698121Y-111801500D01*
X72804283Y-111780383D01*
X72904286Y-111738961D01*
X72994286Y-111678825D01*
X73048721Y-111624390D01*
X73118717Y-111653383D01*
X73224879Y-111674500D01*
X73333121Y-111674500D01*
X73439283Y-111653383D01*
X73539286Y-111611961D01*
X73595529Y-111574381D01*
X73614175Y-111602286D01*
X73690714Y-111678825D01*
X73780714Y-111738961D01*
X73880717Y-111780383D01*
X73986879Y-111801500D01*
X74095121Y-111801500D01*
X74201283Y-111780383D01*
X74301286Y-111738961D01*
X74319935Y-111726500D01*
X74383698Y-111726500D01*
X74406998Y-111728795D01*
X74430298Y-111726500D01*
X74430301Y-111726500D01*
X74500016Y-111719634D01*
X74589460Y-111692501D01*
X74671891Y-111648441D01*
X74744143Y-111589145D01*
X74759003Y-111571038D01*
X75520049Y-110809994D01*
X75538146Y-110795142D01*
X75552997Y-110777046D01*
X75553001Y-110777042D01*
X75597441Y-110722891D01*
X75607397Y-110704265D01*
X75641502Y-110640459D01*
X75668635Y-110551015D01*
X75675501Y-110481300D01*
X75675501Y-110481297D01*
X75677796Y-110457997D01*
X75675501Y-110434697D01*
X75675501Y-109642936D01*
X75687962Y-109624287D01*
X75729384Y-109524284D01*
X75750501Y-109418122D01*
X75750501Y-109309880D01*
X75739288Y-109253510D01*
X79189681Y-109253510D01*
X79217990Y-109256298D01*
X79246299Y-109253510D01*
X79246307Y-109253510D01*
X79331004Y-109245168D01*
X79439674Y-109212203D01*
X79539826Y-109158671D01*
X79627609Y-109086629D01*
X79645664Y-109064629D01*
X80109103Y-108601191D01*
X80770000Y-108601191D01*
X80855152Y-108592804D01*
X80706960Y-108740997D01*
X80706955Y-108741001D01*
X78474716Y-110973241D01*
X78452717Y-110977617D01*
X78352714Y-111019039D01*
X78262714Y-111079175D01*
X78186175Y-111155714D01*
X78126039Y-111245714D01*
X78084617Y-111345717D01*
X78063500Y-111451879D01*
X78063500Y-111560121D01*
X78084617Y-111666283D01*
X78126039Y-111766286D01*
X78186175Y-111856286D01*
X78262714Y-111932825D01*
X78352714Y-111992961D01*
X78452717Y-112034383D01*
X78558879Y-112055500D01*
X78667121Y-112055500D01*
X78773283Y-112034383D01*
X78873286Y-111992961D01*
X78963286Y-111932825D01*
X79039825Y-111856286D01*
X79099961Y-111766286D01*
X79141383Y-111666283D01*
X79145759Y-111644284D01*
X81296499Y-109493545D01*
X81296500Y-111972062D01*
X81284038Y-111990713D01*
X81242616Y-112090716D01*
X81221499Y-112196878D01*
X81221499Y-112305120D01*
X81242616Y-112411282D01*
X81284038Y-112511285D01*
X81344174Y-112601285D01*
X81420713Y-112677824D01*
X81510713Y-112737960D01*
X81610716Y-112779382D01*
X81716878Y-112800499D01*
X81746500Y-112800499D01*
X81746500Y-112830121D01*
X81767617Y-112936283D01*
X81809039Y-113036286D01*
X81869175Y-113126286D01*
X81945714Y-113202825D01*
X81995664Y-113236201D01*
X81880370Y-113297827D01*
X81697722Y-113447722D01*
X81547827Y-113630370D01*
X81436445Y-113838751D01*
X81367857Y-114064857D01*
X81344697Y-114300000D01*
X81367857Y-114535143D01*
X81436445Y-114761249D01*
X81547827Y-114969630D01*
X81697722Y-115152278D01*
X81880370Y-115302173D01*
X82088751Y-115413555D01*
X82314857Y-115482143D01*
X82491082Y-115499500D01*
X82608918Y-115499500D01*
X82785143Y-115482143D01*
X83011249Y-115413555D01*
X83219630Y-115302173D01*
X83402278Y-115152278D01*
X83552173Y-114969630D01*
X83663555Y-114761249D01*
X83732143Y-114535143D01*
X83755303Y-114300000D01*
X83732143Y-114064857D01*
X83663555Y-113838751D01*
X83552173Y-113630370D01*
X83402278Y-113447722D01*
X83219630Y-113297827D01*
X83011249Y-113186445D01*
X82785143Y-113117857D01*
X82731957Y-113112619D01*
X82782961Y-113036286D01*
X82824383Y-112936283D01*
X82845500Y-112830121D01*
X82845500Y-112721879D01*
X82824383Y-112615717D01*
X82782961Y-112515714D01*
X82770500Y-112497065D01*
X82770500Y-109879935D01*
X82782961Y-109861286D01*
X82824383Y-109761283D01*
X82845388Y-109655682D01*
X85882165Y-112692459D01*
X85845500Y-112876784D01*
X85845500Y-113103216D01*
X85889675Y-113325297D01*
X85976326Y-113534492D01*
X86102125Y-113722764D01*
X86262236Y-113882875D01*
X86450508Y-114008674D01*
X86659703Y-114095325D01*
X86881784Y-114139500D01*
X87108216Y-114139500D01*
X87330297Y-114095325D01*
X87539492Y-114008674D01*
X87727764Y-113882875D01*
X87887875Y-113722764D01*
X88013674Y-113534492D01*
X88100325Y-113325297D01*
X88144500Y-113103216D01*
X88144500Y-112876784D01*
X88107835Y-112692459D01*
X89263642Y-111536653D01*
X89285630Y-111518608D01*
X89303676Y-111496619D01*
X89303681Y-111496614D01*
X89357672Y-111430825D01*
X89392536Y-111365598D01*
X89411204Y-111330673D01*
X89444169Y-111222003D01*
X89452511Y-111137306D01*
X89452511Y-111137297D01*
X89455299Y-111108990D01*
X89452511Y-111080683D01*
X89452511Y-85310319D01*
X89455299Y-85282010D01*
X89452511Y-85253701D01*
X89452511Y-85253694D01*
X89444169Y-85168997D01*
X89411204Y-85060327D01*
X89357672Y-84960175D01*
X89303681Y-84894386D01*
X89303676Y-84894381D01*
X89285630Y-84872392D01*
X89263641Y-84854346D01*
X88476674Y-84067381D01*
X88458619Y-84045381D01*
X88370836Y-83973339D01*
X88270684Y-83919807D01*
X88162014Y-83886842D01*
X88077317Y-83878500D01*
X88077309Y-83878500D01*
X88049000Y-83875712D01*
X88020691Y-83878500D01*
X87946191Y-83878500D01*
X87946191Y-83855000D01*
X87939443Y-83786486D01*
X87919458Y-83720605D01*
X87887005Y-83659889D01*
X87843330Y-83606670D01*
X87790111Y-83562995D01*
X87729395Y-83530542D01*
X87663514Y-83510557D01*
X87595000Y-83503809D01*
X86395000Y-83503809D01*
X86326486Y-83510557D01*
X86260605Y-83530542D01*
X86199889Y-83562995D01*
X86146670Y-83606670D01*
X86102995Y-83659889D01*
X86070542Y-83720605D01*
X86050557Y-83786486D01*
X86043809Y-83855000D01*
X86043809Y-85055000D01*
X86050557Y-85123514D01*
X86070542Y-85189395D01*
X86102995Y-85250111D01*
X86146670Y-85303330D01*
X86199889Y-85347005D01*
X86260605Y-85379458D01*
X86326486Y-85399443D01*
X86383095Y-85405018D01*
X86338830Y-85604376D01*
X86995000Y-86260546D01*
X87651170Y-85604376D01*
X87606905Y-85405018D01*
X87663514Y-85399443D01*
X87729395Y-85379458D01*
X87790111Y-85347005D01*
X87843330Y-85303330D01*
X87887005Y-85250111D01*
X87919458Y-85189395D01*
X87930780Y-85152073D01*
X88299512Y-85520807D01*
X88299512Y-93994833D01*
X88284120Y-93952858D01*
X88228487Y-93848779D01*
X87988721Y-93775733D01*
X87189454Y-94575000D01*
X87988721Y-95374267D01*
X88228487Y-95301221D01*
X88299512Y-95147951D01*
X88299511Y-109909831D01*
X88284120Y-109867858D01*
X88228487Y-109763779D01*
X87988721Y-109690733D01*
X87189454Y-110490000D01*
X87203597Y-110504143D01*
X87009143Y-110698597D01*
X86995000Y-110684454D01*
X86980858Y-110698597D01*
X86786404Y-110504143D01*
X86800546Y-110490000D01*
X86001279Y-109690733D01*
X85761513Y-109763779D01*
X85643535Y-110018374D01*
X85577493Y-110291094D01*
X85565926Y-110571459D01*
X85598209Y-110777915D01*
X84316573Y-109496279D01*
X86195733Y-109496279D01*
X86995000Y-110295546D01*
X87794267Y-109496279D01*
X87721221Y-109256513D01*
X87466626Y-109138535D01*
X87193906Y-109072493D01*
X86913541Y-109060926D01*
X86636308Y-109104276D01*
X86372858Y-109200880D01*
X86268779Y-109256513D01*
X86195733Y-109496279D01*
X84316573Y-109496279D01*
X82990793Y-108170500D01*
X84385457Y-108170500D01*
X84483994Y-108269037D01*
X84498855Y-108287145D01*
X84571107Y-108346441D01*
X84653538Y-108390501D01*
X84742982Y-108417634D01*
X84812697Y-108424500D01*
X84812706Y-108424500D01*
X84835999Y-108426794D01*
X84859292Y-108424500D01*
X85065065Y-108424500D01*
X85083714Y-108436961D01*
X85183717Y-108478383D01*
X85289879Y-108499500D01*
X85398121Y-108499500D01*
X85504283Y-108478383D01*
X85604286Y-108436961D01*
X85694286Y-108376825D01*
X85770825Y-108300286D01*
X85830961Y-108210286D01*
X85872383Y-108110283D01*
X85893500Y-108004121D01*
X85893500Y-107895879D01*
X85872383Y-107789717D01*
X85830961Y-107689714D01*
X85770825Y-107599714D01*
X85694286Y-107523175D01*
X85604286Y-107463039D01*
X85504283Y-107421617D01*
X85398121Y-107400500D01*
X85335725Y-107400500D01*
X85352383Y-107360283D01*
X85356759Y-107338284D01*
X85934044Y-106761000D01*
X85952146Y-106746144D01*
X86011442Y-106673892D01*
X86055502Y-106591461D01*
X86082635Y-106502017D01*
X86089501Y-106432302D01*
X86089501Y-106432293D01*
X86091795Y-106409000D01*
X86089501Y-106385707D01*
X86089501Y-100879580D01*
X86091796Y-100856280D01*
X86086020Y-100797634D01*
X86082635Y-100763263D01*
X86055502Y-100673819D01*
X86011442Y-100591388D01*
X85952146Y-100519136D01*
X85934044Y-100504280D01*
X84971882Y-99542119D01*
X84971878Y-99542114D01*
X84897707Y-99467943D01*
X84952747Y-99286501D01*
X84974941Y-99061160D01*
X84952747Y-98835819D01*
X84887017Y-98619137D01*
X84780278Y-98419442D01*
X84636631Y-98244409D01*
X84461598Y-98100762D01*
X84261903Y-97994023D01*
X84045221Y-97928293D01*
X83876342Y-97911660D01*
X83763418Y-97911660D01*
X83594539Y-97928293D01*
X83377857Y-97994023D01*
X83178162Y-98100762D01*
X83003129Y-98244409D01*
X82859482Y-98419442D01*
X82752743Y-98619137D01*
X82687013Y-98835819D01*
X82664819Y-99061160D01*
X82687013Y-99286501D01*
X82752743Y-99503183D01*
X82859482Y-99702878D01*
X82984737Y-99855500D01*
X81148931Y-99855500D01*
X81124396Y-99825604D01*
X81048447Y-99763275D01*
X80961797Y-99716960D01*
X80867778Y-99688439D01*
X80770000Y-99678809D01*
X79120000Y-99678809D01*
X79022222Y-99688439D01*
X78928203Y-99716960D01*
X78841553Y-99763275D01*
X78765604Y-99825604D01*
X78703275Y-99901553D01*
X78656960Y-99988203D01*
X78628439Y-100082222D01*
X78618809Y-100180000D01*
X78618809Y-100480000D01*
X78628439Y-100577778D01*
X78656960Y-100671797D01*
X78703275Y-100758447D01*
X78765604Y-100834396D01*
X78841553Y-100896725D01*
X78928203Y-100943040D01*
X79000594Y-100965000D01*
X78928203Y-100986960D01*
X78841553Y-101033275D01*
X78765604Y-101095604D01*
X78741069Y-101125500D01*
X76350637Y-101125500D01*
X76413725Y-101073725D01*
X76491765Y-100978633D01*
X76549755Y-100870142D01*
X76585464Y-100752423D01*
X76597522Y-100630000D01*
X76594500Y-100623625D01*
X76438375Y-100467500D01*
X75132500Y-100467500D01*
X75132500Y-100487500D01*
X74857500Y-100487500D01*
X74857500Y-100467500D01*
X73551625Y-100467500D01*
X73395500Y-100623625D01*
X73392478Y-100630000D01*
X73404536Y-100752423D01*
X73440245Y-100870142D01*
X73498235Y-100978633D01*
X73576275Y-101073725D01*
X73671367Y-101151765D01*
X73743300Y-101190214D01*
X73706960Y-101258203D01*
X73678439Y-101352222D01*
X73668809Y-101450000D01*
X73668809Y-101750000D01*
X73678439Y-101847778D01*
X73684153Y-101866615D01*
X73646087Y-101897855D01*
X73631230Y-101915958D01*
X73375952Y-102171237D01*
X73357845Y-102186097D01*
X73298549Y-102258349D01*
X73254489Y-102340781D01*
X73227356Y-102430225D01*
X73220495Y-102499893D01*
X73218195Y-102523242D01*
X73220490Y-102546543D01*
X73220491Y-103891680D01*
X73218195Y-103914990D01*
X73227357Y-104008008D01*
X73254489Y-104097451D01*
X73288127Y-104160383D01*
X73298550Y-104179883D01*
X73357846Y-104252135D01*
X73375948Y-104266991D01*
X73567994Y-104459037D01*
X73582855Y-104477145D01*
X73655107Y-104536441D01*
X73737538Y-104580501D01*
X73771663Y-104590853D01*
X73815604Y-104644396D01*
X73891553Y-104706725D01*
X73978203Y-104753040D01*
X74050594Y-104775000D01*
X73978203Y-104796960D01*
X73891553Y-104843275D01*
X73815604Y-104905604D01*
X73753275Y-104981553D01*
X73706960Y-105068203D01*
X73678439Y-105162222D01*
X73668809Y-105260000D01*
X73668809Y-105560000D01*
X73670827Y-105580490D01*
X72977535Y-105580490D01*
X72483500Y-105086457D01*
X72483500Y-101360585D01*
X72495961Y-101341936D01*
X72537383Y-101241933D01*
X72558500Y-101135771D01*
X72558500Y-101027529D01*
X72537383Y-100921367D01*
X72495961Y-100821364D01*
X72435825Y-100731364D01*
X72359286Y-100654825D01*
X72269286Y-100594689D01*
X72169283Y-100553267D01*
X72063121Y-100532150D01*
X71954879Y-100532150D01*
X71848717Y-100553267D01*
X71748714Y-100594689D01*
X71658714Y-100654825D01*
X71582175Y-100731364D01*
X71522039Y-100821364D01*
X71480617Y-100921367D01*
X71459500Y-101027529D01*
X71459500Y-101135771D01*
X71480617Y-101241933D01*
X71522039Y-101341936D01*
X71534500Y-101360585D01*
X71534501Y-105171979D01*
X71494395Y-105150542D01*
X71428514Y-105130557D01*
X71360000Y-105123809D01*
X70660000Y-105123809D01*
X70591486Y-105130557D01*
X70525605Y-105150542D01*
X70464889Y-105182995D01*
X70411670Y-105226670D01*
X70367995Y-105279889D01*
X70335542Y-105340605D01*
X70315557Y-105406486D01*
X70308809Y-105475000D01*
X70308809Y-105760147D01*
X69912760Y-106156197D01*
X69884121Y-106150500D01*
X69775879Y-106150500D01*
X69669717Y-106171617D01*
X69630675Y-106187789D01*
X69651634Y-106125312D01*
X69664500Y-106023625D01*
X69508375Y-105867500D01*
X68827500Y-105867500D01*
X68827500Y-105887500D01*
X68552500Y-105887500D01*
X68552500Y-105867500D01*
X67871625Y-105867500D01*
X67715500Y-106023625D01*
X67728366Y-106125312D01*
X67767492Y-106241940D01*
X67828619Y-106348694D01*
X67909398Y-106441471D01*
X67988809Y-106502857D01*
X67988809Y-106935000D01*
X67995557Y-107003514D01*
X68015542Y-107069395D01*
X68047995Y-107130111D01*
X68068421Y-107155000D01*
X68047995Y-107179889D01*
X68015542Y-107240605D01*
X67995557Y-107306486D01*
X67988809Y-107375000D01*
X67988809Y-107660147D01*
X67556591Y-108092366D01*
X67470283Y-108056617D01*
X67364121Y-108035500D01*
X67255879Y-108035500D01*
X67149717Y-108056617D01*
X67049714Y-108098039D01*
X66959714Y-108158175D01*
X66883175Y-108234714D01*
X66823039Y-108324714D01*
X66781617Y-108424717D01*
X66760500Y-108530879D01*
X60699500Y-108530879D01*
X60699500Y-105436375D01*
X67715500Y-105436375D01*
X67871625Y-105592500D01*
X68552500Y-105592500D01*
X68552500Y-105006625D01*
X68827500Y-105006625D01*
X68827500Y-105592500D01*
X69508375Y-105592500D01*
X69664500Y-105436375D01*
X69651634Y-105334688D01*
X69612508Y-105218060D01*
X69551381Y-105111306D01*
X69470602Y-105018529D01*
X69373275Y-104943294D01*
X69263141Y-104888492D01*
X69144431Y-104856229D01*
X69021708Y-104847745D01*
X68983625Y-104850500D01*
X68827500Y-105006625D01*
X68552500Y-105006625D01*
X68396375Y-104850500D01*
X68358292Y-104847745D01*
X68235569Y-104856229D01*
X68116859Y-104888492D01*
X68006725Y-104943294D01*
X67909398Y-105018529D01*
X67828619Y-105111306D01*
X67767492Y-105218060D01*
X67728366Y-105334688D01*
X67715500Y-105436375D01*
X60699500Y-105436375D01*
X60699500Y-104079800D01*
X60727039Y-104146286D01*
X60787175Y-104236286D01*
X60863714Y-104312825D01*
X60953714Y-104372961D01*
X61053717Y-104414383D01*
X61159879Y-104435500D01*
X61268121Y-104435500D01*
X61374283Y-104414383D01*
X61474286Y-104372961D01*
X61492935Y-104360500D01*
X63603700Y-104360500D01*
X63627000Y-104362795D01*
X63650300Y-104360500D01*
X63650303Y-104360500D01*
X63720018Y-104353634D01*
X63809462Y-104326501D01*
X63891893Y-104282441D01*
X63964145Y-104223145D01*
X63979006Y-104205037D01*
X64019284Y-104164759D01*
X64041283Y-104160383D01*
X64141286Y-104118961D01*
X64231286Y-104058825D01*
X64307825Y-103982286D01*
X64331990Y-103946121D01*
X64351058Y-103981795D01*
X64373560Y-104023893D01*
X64432856Y-104096145D01*
X64450958Y-104111001D01*
X64999242Y-104659286D01*
X65003617Y-104681283D01*
X65045039Y-104781286D01*
X65105175Y-104871286D01*
X65181714Y-104947825D01*
X65271714Y-105007961D01*
X65371717Y-105049383D01*
X65477879Y-105070500D01*
X65586121Y-105070500D01*
X65692283Y-105049383D01*
X65792286Y-105007961D01*
X65882286Y-104947825D01*
X65958825Y-104871286D01*
X66018961Y-104781286D01*
X66053604Y-104697648D01*
X66269241Y-104913285D01*
X66273617Y-104935283D01*
X66315039Y-105035286D01*
X66375175Y-105125286D01*
X66451714Y-105201825D01*
X66541714Y-105261961D01*
X66641717Y-105303383D01*
X66747879Y-105324500D01*
X66856121Y-105324500D01*
X66962283Y-105303383D01*
X67062286Y-105261961D01*
X67152286Y-105201825D01*
X67228825Y-105125286D01*
X67288961Y-105035286D01*
X67330383Y-104935283D01*
X67351500Y-104829121D01*
X67351500Y-104720879D01*
X67330383Y-104614717D01*
X67288961Y-104514714D01*
X67228825Y-104424714D01*
X67152286Y-104348175D01*
X67062286Y-104288039D01*
X66962283Y-104246617D01*
X66940285Y-104242241D01*
X66288511Y-103590468D01*
X66373285Y-103533824D01*
X66449824Y-103457285D01*
X66509960Y-103367285D01*
X66551382Y-103267282D01*
X66555173Y-103248224D01*
X66560143Y-103244145D01*
X66619439Y-103171893D01*
X66663499Y-103089462D01*
X66690632Y-103000018D01*
X66697498Y-102930303D01*
X66697498Y-102930294D01*
X66699792Y-102907001D01*
X66697498Y-102883708D01*
X66697498Y-97997933D01*
X66709959Y-97979284D01*
X66751381Y-97879281D01*
X66768612Y-97792655D01*
X67793241Y-98817285D01*
X67797617Y-98839283D01*
X67839039Y-98939286D01*
X67899175Y-99029286D01*
X67975714Y-99105825D01*
X68065714Y-99165961D01*
X68165717Y-99207383D01*
X68271879Y-99228500D01*
X68380121Y-99228500D01*
X68486283Y-99207383D01*
X68586286Y-99165961D01*
X68676286Y-99105825D01*
X68752825Y-99029286D01*
X68812961Y-98939286D01*
X68854383Y-98839283D01*
X68875500Y-98733121D01*
X68875500Y-98624879D01*
X68854383Y-98518717D01*
X68812961Y-98418714D01*
X68752825Y-98328714D01*
X68676286Y-98252175D01*
X68586286Y-98192039D01*
X68486283Y-98150617D01*
X68464285Y-98146241D01*
X66641500Y-96323457D01*
X66641500Y-94014543D01*
X67684786Y-92971258D01*
X67706783Y-92966883D01*
X67806786Y-92925461D01*
X67896786Y-92865325D01*
X67973325Y-92788786D01*
X68033461Y-92698786D01*
X68074883Y-92598783D01*
X68096000Y-92492621D01*
X68096000Y-92384379D01*
X68074883Y-92278217D01*
X68033461Y-92178214D01*
X67973325Y-92088214D01*
X67896786Y-92011675D01*
X67806786Y-91951539D01*
X67706783Y-91910117D01*
X67621025Y-91893059D01*
X67660286Y-91866825D01*
X67736825Y-91790286D01*
X67796961Y-91700286D01*
X67838383Y-91600283D01*
X67859500Y-91494121D01*
X67859500Y-91385879D01*
X67838383Y-91279717D01*
X67796961Y-91179714D01*
X67784500Y-91161065D01*
X67784500Y-89813935D01*
X67796961Y-89795286D01*
X67838383Y-89695283D01*
X67859500Y-89589121D01*
X67859500Y-89480879D01*
X67838383Y-89374717D01*
X67796961Y-89274714D01*
X67736825Y-89184714D01*
X67660286Y-89108175D01*
X67570286Y-89048039D01*
X67470283Y-89006617D01*
X67364121Y-88985500D01*
X67255879Y-88985500D01*
X67149717Y-89006617D01*
X67049714Y-89048039D01*
X66959714Y-89108175D01*
X66883175Y-89184714D01*
X66823039Y-89274714D01*
X66781617Y-89374717D01*
X66760500Y-89480879D01*
X66760500Y-89589121D01*
X66781617Y-89695283D01*
X66823039Y-89795286D01*
X66835500Y-89813935D01*
X66835501Y-91161064D01*
X66823039Y-91179714D01*
X66781617Y-91279717D01*
X66760500Y-91385879D01*
X66760500Y-91494121D01*
X66781617Y-91600283D01*
X66823039Y-91700286D01*
X66883175Y-91790286D01*
X66959714Y-91866825D01*
X67049714Y-91926961D01*
X67149717Y-91968383D01*
X67235475Y-91985441D01*
X67196214Y-92011675D01*
X67119675Y-92088214D01*
X67059539Y-92178214D01*
X67018117Y-92278217D01*
X67013742Y-92300214D01*
X65879500Y-93434457D01*
X65879500Y-88158293D01*
X65879717Y-88158383D01*
X65985879Y-88179500D01*
X66094121Y-88179500D01*
X66200283Y-88158383D01*
X66300286Y-88116961D01*
X66318935Y-88104500D01*
X70485455Y-88104500D01*
X70965001Y-88584048D01*
X70979853Y-88602145D01*
X70997949Y-88616996D01*
X70997953Y-88617000D01*
X71052104Y-88661441D01*
X71134536Y-88705501D01*
X71178040Y-88718698D01*
X71223979Y-88732634D01*
X71316998Y-88741795D01*
X71340301Y-88739500D01*
X81718457Y-88739500D01*
X82199159Y-89220203D01*
X82214015Y-89238305D01*
X82286267Y-89297601D01*
X82368698Y-89341661D01*
X82458142Y-89368794D01*
X82527857Y-89375660D01*
X82527866Y-89375660D01*
X82551159Y-89377954D01*
X82574452Y-89375660D01*
X82673178Y-89375660D01*
X82623440Y-89436266D01*
X82579380Y-89518698D01*
X82552247Y-89608142D01*
X82545381Y-89677856D01*
X82543086Y-89701159D01*
X82545381Y-89724460D01*
X82545382Y-90379612D01*
X81849962Y-91075033D01*
X81831855Y-91089893D01*
X81772559Y-91162145D01*
X81728499Y-91244577D01*
X81701366Y-91334021D01*
X81696259Y-91385879D01*
X81692205Y-91427038D01*
X81694500Y-91450338D01*
X81694501Y-95352063D01*
X81682039Y-95370714D01*
X81640617Y-95470717D01*
X81619500Y-95576879D01*
X81619500Y-95685121D01*
X81640617Y-95791283D01*
X81682039Y-95891286D01*
X81742175Y-95981286D01*
X81807549Y-96046660D01*
X73682140Y-96046660D01*
X73658840Y-96044365D01*
X73635540Y-96046660D01*
X73635537Y-96046660D01*
X73565822Y-96053526D01*
X73476378Y-96080659D01*
X73393947Y-96124719D01*
X73393945Y-96124720D01*
X73393946Y-96124720D01*
X73339795Y-96169160D01*
X73339791Y-96169164D01*
X73321695Y-96184015D01*
X73306843Y-96202112D01*
X72105556Y-97403400D01*
X72083558Y-97407776D01*
X71983555Y-97449198D01*
X71893555Y-97509334D01*
X71817016Y-97585873D01*
X71756880Y-97675873D01*
X71715458Y-97775876D01*
X71694341Y-97882038D01*
X71694341Y-97990280D01*
X71710930Y-98073680D01*
X71561903Y-97994023D01*
X71345221Y-97928293D01*
X71176342Y-97911660D01*
X71063418Y-97911660D01*
X70894539Y-97928293D01*
X70677857Y-97994023D01*
X70478162Y-98100762D01*
X70303129Y-98244409D01*
X70159482Y-98419442D01*
X70052743Y-98619137D01*
X69987013Y-98835819D01*
X69964819Y-99061160D01*
X69987013Y-99286501D01*
X70052743Y-99503183D01*
X70159482Y-99702878D01*
X70303129Y-99877911D01*
X70478162Y-100021558D01*
X70677857Y-100128297D01*
X70894539Y-100194027D01*
X71063418Y-100210660D01*
X71176342Y-100210660D01*
X71345221Y-100194027D01*
X71561903Y-100128297D01*
X71745804Y-100030000D01*
X73392478Y-100030000D01*
X73395500Y-100036375D01*
X73551625Y-100192500D01*
X74857500Y-100192500D01*
X74857500Y-99561625D01*
X75132500Y-99561625D01*
X75132500Y-100192500D01*
X76438375Y-100192500D01*
X76594500Y-100036375D01*
X76597522Y-100030000D01*
X76585464Y-99907577D01*
X76549755Y-99789858D01*
X76491765Y-99681367D01*
X76413725Y-99586275D01*
X76318633Y-99508235D01*
X76210142Y-99450245D01*
X76092423Y-99414536D01*
X75970000Y-99402478D01*
X75288625Y-99405500D01*
X75132500Y-99561625D01*
X74857500Y-99561625D01*
X74701375Y-99405500D01*
X74020000Y-99402478D01*
X73897577Y-99414536D01*
X73779858Y-99450245D01*
X73671367Y-99508235D01*
X73576275Y-99586275D01*
X73498235Y-99681367D01*
X73440245Y-99789858D01*
X73404536Y-99907577D01*
X73392478Y-100030000D01*
X71745804Y-100030000D01*
X71761598Y-100021558D01*
X71936631Y-99877911D01*
X72080278Y-99702878D01*
X72187017Y-99503183D01*
X72252747Y-99286501D01*
X72274941Y-99061160D01*
X72252747Y-98835819D01*
X72187017Y-98619137D01*
X72106862Y-98469177D01*
X72189720Y-98485659D01*
X72297962Y-98485659D01*
X72404124Y-98464542D01*
X72504127Y-98423120D01*
X72594127Y-98362984D01*
X72670666Y-98286445D01*
X72730802Y-98196445D01*
X72772224Y-98096442D01*
X72776600Y-98074444D01*
X73855385Y-96995660D01*
X78630229Y-96995660D01*
X78567175Y-97058714D01*
X78507039Y-97148714D01*
X78465617Y-97248717D01*
X78444500Y-97354879D01*
X78444500Y-97463121D01*
X78465617Y-97569283D01*
X78507039Y-97669286D01*
X78567175Y-97759286D01*
X78643714Y-97835825D01*
X78733714Y-97895961D01*
X78833717Y-97937383D01*
X78939879Y-97958500D01*
X79048121Y-97958500D01*
X79154283Y-97937383D01*
X79254286Y-97895961D01*
X79272935Y-97883500D01*
X81255065Y-97883500D01*
X81273714Y-97895961D01*
X81373717Y-97937383D01*
X81479879Y-97958500D01*
X81588121Y-97958500D01*
X81694283Y-97937383D01*
X81794286Y-97895961D01*
X81884286Y-97835825D01*
X81960825Y-97759286D01*
X82020961Y-97669286D01*
X82062383Y-97569283D01*
X82083500Y-97463121D01*
X82083500Y-97354879D01*
X82062383Y-97248717D01*
X82020961Y-97148714D01*
X81960825Y-97058714D01*
X81897771Y-96995660D01*
X82770102Y-96995660D01*
X82859482Y-97162878D01*
X83003129Y-97337911D01*
X83178162Y-97481558D01*
X83377857Y-97588297D01*
X83594539Y-97654027D01*
X83763418Y-97670660D01*
X83876342Y-97670660D01*
X84045221Y-97654027D01*
X84261903Y-97588297D01*
X84461598Y-97481558D01*
X84636631Y-97337911D01*
X84780278Y-97162878D01*
X84887017Y-96963183D01*
X84952747Y-96746501D01*
X84974941Y-96521160D01*
X84952747Y-96295819D01*
X84887017Y-96079137D01*
X84780278Y-95879442D01*
X84636631Y-95704409D01*
X84471296Y-95568721D01*
X86195733Y-95568721D01*
X86268779Y-95808487D01*
X86523374Y-95926465D01*
X86796094Y-95992507D01*
X87076459Y-96004074D01*
X87353692Y-95960724D01*
X87617142Y-95864120D01*
X87721221Y-95808487D01*
X87794267Y-95568721D01*
X86995000Y-94769454D01*
X86195733Y-95568721D01*
X84471296Y-95568721D01*
X84461598Y-95560762D01*
X84261903Y-95454023D01*
X84045221Y-95388293D01*
X83876342Y-95371660D01*
X83763418Y-95371660D01*
X83594539Y-95388293D01*
X83377857Y-95454023D01*
X83178162Y-95560762D01*
X83003129Y-95704409D01*
X82859482Y-95879442D01*
X82770102Y-96046660D01*
X82530451Y-96046660D01*
X82595825Y-95981286D01*
X82655961Y-95891286D01*
X82697383Y-95791283D01*
X82718500Y-95685121D01*
X82718500Y-95576879D01*
X82697383Y-95470717D01*
X82655961Y-95370714D01*
X82643500Y-95352065D01*
X82643500Y-93981160D01*
X82664819Y-93981160D01*
X82687013Y-94206501D01*
X82752743Y-94423183D01*
X82859482Y-94622878D01*
X83003129Y-94797911D01*
X83178162Y-94941558D01*
X83377857Y-95048297D01*
X83594539Y-95114027D01*
X83763418Y-95130660D01*
X83876342Y-95130660D01*
X84045221Y-95114027D01*
X84261903Y-95048297D01*
X84461598Y-94941558D01*
X84636631Y-94797911D01*
X84752718Y-94656459D01*
X85565926Y-94656459D01*
X85609276Y-94933692D01*
X85705880Y-95197142D01*
X85761513Y-95301221D01*
X86001279Y-95374267D01*
X86800546Y-94575000D01*
X86001279Y-93775733D01*
X85761513Y-93848779D01*
X85643535Y-94103374D01*
X85577493Y-94376094D01*
X85565926Y-94656459D01*
X84752718Y-94656459D01*
X84780278Y-94622878D01*
X84887017Y-94423183D01*
X84952747Y-94206501D01*
X84974941Y-93981160D01*
X84952747Y-93755819D01*
X84887017Y-93539137D01*
X84780278Y-93339442D01*
X84636631Y-93164409D01*
X84461598Y-93020762D01*
X84261903Y-92914023D01*
X84045221Y-92848293D01*
X83876342Y-92831660D01*
X83763418Y-92831660D01*
X83594539Y-92848293D01*
X83377857Y-92914023D01*
X83178162Y-93020762D01*
X83003129Y-93164409D01*
X82859482Y-93339442D01*
X82752743Y-93539137D01*
X82687013Y-93755819D01*
X82664819Y-93981160D01*
X82643500Y-93981160D01*
X82643500Y-91623581D01*
X82679263Y-91587818D01*
X82687013Y-91666501D01*
X82752743Y-91883183D01*
X82859482Y-92082878D01*
X83003129Y-92257911D01*
X83178162Y-92401558D01*
X83377857Y-92508297D01*
X83594539Y-92574027D01*
X83763418Y-92590660D01*
X83876342Y-92590660D01*
X84045221Y-92574027D01*
X84261903Y-92508297D01*
X84461598Y-92401558D01*
X84636631Y-92257911D01*
X84780278Y-92082878D01*
X84845003Y-91961784D01*
X85845500Y-91961784D01*
X85845500Y-92188216D01*
X85889675Y-92410297D01*
X85976326Y-92619492D01*
X86102125Y-92807764D01*
X86262236Y-92967875D01*
X86450508Y-93093674D01*
X86659703Y-93180325D01*
X86674601Y-93183288D01*
X86636308Y-93189276D01*
X86372858Y-93285880D01*
X86268779Y-93341513D01*
X86195733Y-93581279D01*
X86995000Y-94380546D01*
X87794267Y-93581279D01*
X87721221Y-93341513D01*
X87466626Y-93223535D01*
X87307180Y-93184923D01*
X87330297Y-93180325D01*
X87539492Y-93093674D01*
X87727764Y-92967875D01*
X87887875Y-92807764D01*
X88013674Y-92619492D01*
X88100325Y-92410297D01*
X88144500Y-92188216D01*
X88144500Y-91961784D01*
X88100325Y-91739703D01*
X88013674Y-91530508D01*
X87887875Y-91342236D01*
X87727764Y-91182125D01*
X87539492Y-91056326D01*
X87330297Y-90969675D01*
X87108216Y-90925500D01*
X86881784Y-90925500D01*
X86659703Y-90969675D01*
X86450508Y-91056326D01*
X86262236Y-91182125D01*
X86102125Y-91342236D01*
X85976326Y-91530508D01*
X85889675Y-91739703D01*
X85845500Y-91961784D01*
X84845003Y-91961784D01*
X84887017Y-91883183D01*
X84952747Y-91666501D01*
X84974941Y-91441160D01*
X84952747Y-91215819D01*
X84887017Y-90999137D01*
X84780278Y-90799442D01*
X84636631Y-90624409D01*
X84461598Y-90480762D01*
X84261903Y-90374023D01*
X84045221Y-90308293D01*
X83876342Y-90291660D01*
X83763418Y-90291660D01*
X83594539Y-90308293D01*
X83494381Y-90338676D01*
X83494381Y-90003644D01*
X83594539Y-90034027D01*
X83763418Y-90050660D01*
X83876342Y-90050660D01*
X84045221Y-90034027D01*
X84261903Y-89968297D01*
X84461598Y-89861558D01*
X84636631Y-89717911D01*
X84780278Y-89542878D01*
X84887017Y-89343183D01*
X84952747Y-89126501D01*
X84974941Y-88901160D01*
X84952747Y-88675819D01*
X84887017Y-88459137D01*
X84780278Y-88259442D01*
X84636631Y-88084409D01*
X84461598Y-87940762D01*
X84261903Y-87834023D01*
X84045221Y-87768293D01*
X83876342Y-87751660D01*
X83763418Y-87751660D01*
X83594539Y-87768293D01*
X83377857Y-87834023D01*
X83178162Y-87940762D01*
X83003129Y-88084409D01*
X82859482Y-88259442D01*
X82770102Y-88426660D01*
X82747704Y-88426660D01*
X82267005Y-87945962D01*
X82252145Y-87927855D01*
X82179893Y-87868559D01*
X82097462Y-87824499D01*
X82008018Y-87797366D01*
X81938303Y-87790500D01*
X81938300Y-87790500D01*
X81915000Y-87788205D01*
X81891700Y-87790500D01*
X71513543Y-87790500D01*
X71252042Y-87529000D01*
X71280283Y-87523383D01*
X71380286Y-87481961D01*
X71398935Y-87469500D01*
X75541700Y-87469500D01*
X75565000Y-87471795D01*
X75588300Y-87469500D01*
X75588303Y-87469500D01*
X75658018Y-87462634D01*
X75747462Y-87435501D01*
X75829893Y-87391441D01*
X75902145Y-87332145D01*
X75917005Y-87314038D01*
X76395384Y-86835660D01*
X82770102Y-86835660D01*
X82859482Y-87002878D01*
X83003129Y-87177911D01*
X83178162Y-87321558D01*
X83377857Y-87428297D01*
X83594539Y-87494027D01*
X83763418Y-87510660D01*
X83876342Y-87510660D01*
X84045221Y-87494027D01*
X84261903Y-87428297D01*
X84461598Y-87321558D01*
X84481013Y-87305624D01*
X86338830Y-87305624D01*
X86387544Y-87525020D01*
X86607967Y-87622969D01*
X86843263Y-87676034D01*
X87084390Y-87682175D01*
X87322083Y-87641155D01*
X87547206Y-87554553D01*
X87602456Y-87525020D01*
X87651170Y-87305624D01*
X86995000Y-86649454D01*
X86338830Y-87305624D01*
X84481013Y-87305624D01*
X84636631Y-87177911D01*
X84780278Y-87002878D01*
X84887017Y-86803183D01*
X84952747Y-86586501D01*
X84956894Y-86544390D01*
X85767825Y-86544390D01*
X85808845Y-86782083D01*
X85895447Y-87007206D01*
X85924980Y-87062456D01*
X86144376Y-87111170D01*
X86800546Y-86455000D01*
X87189454Y-86455000D01*
X87845624Y-87111170D01*
X88065020Y-87062456D01*
X88162969Y-86842033D01*
X88216034Y-86606737D01*
X88222175Y-86365610D01*
X88181155Y-86127917D01*
X88094553Y-85902794D01*
X88065020Y-85847544D01*
X87845624Y-85798830D01*
X87189454Y-86455000D01*
X86800546Y-86455000D01*
X86144376Y-85798830D01*
X85924980Y-85847544D01*
X85827031Y-86067967D01*
X85773966Y-86303263D01*
X85767825Y-86544390D01*
X84956894Y-86544390D01*
X84974941Y-86361160D01*
X84952747Y-86135819D01*
X84887017Y-85919137D01*
X84780278Y-85719442D01*
X84636631Y-85544409D01*
X84461598Y-85400762D01*
X84261903Y-85294023D01*
X84045221Y-85228293D01*
X83876342Y-85211660D01*
X83763418Y-85211660D01*
X83594539Y-85228293D01*
X83377857Y-85294023D01*
X83178162Y-85400762D01*
X83003129Y-85544409D01*
X82859482Y-85719442D01*
X82770102Y-85886660D01*
X76222132Y-85886660D01*
X76198839Y-85884366D01*
X76175546Y-85886660D01*
X76175537Y-85886660D01*
X76105822Y-85893526D01*
X76016378Y-85920659D01*
X75933947Y-85964719D01*
X75861695Y-86024015D01*
X75846839Y-86042117D01*
X75368457Y-86520500D01*
X71398935Y-86520500D01*
X71380286Y-86508039D01*
X71280283Y-86466617D01*
X71174121Y-86445500D01*
X71065879Y-86445500D01*
X70959717Y-86466617D01*
X70859714Y-86508039D01*
X70769714Y-86568175D01*
X70693175Y-86644714D01*
X70633039Y-86734714D01*
X70591617Y-86834717D01*
X70570500Y-86940879D01*
X70570500Y-87049121D01*
X70591617Y-87155283D01*
X70591707Y-87155500D01*
X66408542Y-87155500D01*
X67364543Y-86199500D01*
X70206065Y-86199500D01*
X70224714Y-86211961D01*
X70324717Y-86253383D01*
X70430879Y-86274500D01*
X70539121Y-86274500D01*
X70645283Y-86253383D01*
X70745286Y-86211961D01*
X70763935Y-86199500D01*
X73381065Y-86199500D01*
X73399714Y-86211961D01*
X73499717Y-86253383D01*
X73605879Y-86274500D01*
X73714121Y-86274500D01*
X73820283Y-86253383D01*
X73920286Y-86211961D01*
X74010286Y-86151825D01*
X74086825Y-86075286D01*
X74146961Y-85985286D01*
X74188383Y-85885283D01*
X74209500Y-85779121D01*
X74209500Y-85670879D01*
X74188383Y-85564717D01*
X74146961Y-85464714D01*
X74086825Y-85374714D01*
X74010286Y-85298175D01*
X73920286Y-85238039D01*
X73820283Y-85196617D01*
X73714121Y-85175500D01*
X73605879Y-85175500D01*
X73499717Y-85196617D01*
X73399714Y-85238039D01*
X73381065Y-85250500D01*
X70763935Y-85250500D01*
X70745286Y-85238039D01*
X70645283Y-85196617D01*
X70539121Y-85175500D01*
X70430879Y-85175500D01*
X70324717Y-85196617D01*
X70224714Y-85238039D01*
X70206065Y-85250500D01*
X67191298Y-85250500D01*
X67167998Y-85248205D01*
X67144698Y-85250500D01*
X67144695Y-85250500D01*
X67074980Y-85257366D01*
X66985536Y-85284499D01*
X66903104Y-85328559D01*
X66848953Y-85373000D01*
X66848949Y-85373004D01*
X66830853Y-85387855D01*
X66816001Y-85405952D01*
X65244500Y-86977455D01*
X65244500Y-85829543D01*
X65797285Y-85276759D01*
X65819283Y-85272383D01*
X65919286Y-85230961D01*
X66009286Y-85170825D01*
X66085825Y-85094286D01*
X66145961Y-85004286D01*
X66187383Y-84904283D01*
X66208500Y-84798121D01*
X66208500Y-84689879D01*
X66187383Y-84583717D01*
X66145961Y-84483714D01*
X66085825Y-84393714D01*
X66009286Y-84317175D01*
X65919286Y-84257039D01*
X65819283Y-84215617D01*
X65713121Y-84194500D01*
X65604879Y-84194500D01*
X65498717Y-84215617D01*
X65398714Y-84257039D01*
X65308714Y-84317175D01*
X65232175Y-84393714D01*
X65172039Y-84483714D01*
X65130617Y-84583717D01*
X65126241Y-84605715D01*
X64450962Y-85280995D01*
X64432855Y-85295855D01*
X64373559Y-85368107D01*
X64329499Y-85450539D01*
X64304134Y-85534153D01*
X64141598Y-85400762D01*
X63941903Y-85294023D01*
X63725221Y-85228293D01*
X63556342Y-85211660D01*
X63443418Y-85211660D01*
X63274539Y-85228293D01*
X63057857Y-85294023D01*
X62858162Y-85400762D01*
X62683129Y-85544409D01*
X62539482Y-85719442D01*
X62432743Y-85919137D01*
X62367013Y-86135819D01*
X62344819Y-86361160D01*
X62367013Y-86586501D01*
X62432743Y-86803183D01*
X62539482Y-87002878D01*
X62683129Y-87177911D01*
X62858162Y-87321558D01*
X63057857Y-87428297D01*
X63274539Y-87494027D01*
X63443418Y-87510660D01*
X63556342Y-87510660D01*
X63725221Y-87494027D01*
X63941903Y-87428297D01*
X64141598Y-87321558D01*
X64295500Y-87195253D01*
X64295500Y-88067067D01*
X64141598Y-87940762D01*
X63941903Y-87834023D01*
X63725221Y-87768293D01*
X63556342Y-87751660D01*
X63443418Y-87751660D01*
X63274539Y-87768293D01*
X63057857Y-87834023D01*
X62858162Y-87940762D01*
X62683129Y-88084409D01*
X62539482Y-88259442D01*
X62432743Y-88459137D01*
X62367013Y-88675819D01*
X62344819Y-88901160D01*
X62367013Y-89126501D01*
X62432743Y-89343183D01*
X62539482Y-89542878D01*
X62683129Y-89717911D01*
X62858162Y-89861558D01*
X63057857Y-89968297D01*
X63274539Y-90034027D01*
X63443418Y-90050660D01*
X63556342Y-90050660D01*
X63725221Y-90034027D01*
X63941903Y-89968297D01*
X64141598Y-89861558D01*
X64295500Y-89735253D01*
X64295500Y-90607067D01*
X64141598Y-90480762D01*
X63941903Y-90374023D01*
X63725221Y-90308293D01*
X63556342Y-90291660D01*
X63443418Y-90291660D01*
X63274539Y-90308293D01*
X63057857Y-90374023D01*
X62858162Y-90480762D01*
X62683129Y-90624409D01*
X62539482Y-90799442D01*
X62432743Y-90999137D01*
X62367013Y-91215819D01*
X62344819Y-91441160D01*
X62367013Y-91666501D01*
X62432743Y-91883183D01*
X62539482Y-92082878D01*
X62683129Y-92257911D01*
X62858162Y-92401558D01*
X63057857Y-92508297D01*
X63274539Y-92574027D01*
X63443418Y-92590660D01*
X63556342Y-92590660D01*
X63725221Y-92574027D01*
X63941903Y-92508297D01*
X64141598Y-92401558D01*
X64295500Y-92275253D01*
X64295500Y-93147067D01*
X64141598Y-93020762D01*
X63941903Y-92914023D01*
X63725221Y-92848293D01*
X63556342Y-92831660D01*
X63443418Y-92831660D01*
X63274539Y-92848293D01*
X63057857Y-92914023D01*
X62858162Y-93020762D01*
X62683129Y-93164409D01*
X62539482Y-93339442D01*
X62432743Y-93539137D01*
X62367013Y-93755819D01*
X62344819Y-93981160D01*
X62367013Y-94206501D01*
X62432743Y-94423183D01*
X62539482Y-94622878D01*
X62683129Y-94797911D01*
X62858162Y-94941558D01*
X63057857Y-95048297D01*
X63274539Y-95114027D01*
X63443418Y-95130660D01*
X63556342Y-95130660D01*
X63725221Y-95114027D01*
X63941903Y-95048297D01*
X64141598Y-94941558D01*
X64295501Y-94815252D01*
X64295501Y-95687068D01*
X64141598Y-95560762D01*
X63941903Y-95454023D01*
X63725221Y-95388293D01*
X63556342Y-95371660D01*
X63443418Y-95371660D01*
X63274539Y-95388293D01*
X63057857Y-95454023D01*
X62858162Y-95560762D01*
X62683129Y-95704409D01*
X62539482Y-95879442D01*
X62432743Y-96079137D01*
X62367013Y-96295819D01*
X62344819Y-96521160D01*
X62367013Y-96746501D01*
X62432743Y-96963183D01*
X62539482Y-97162878D01*
X62683129Y-97337911D01*
X62858162Y-97481558D01*
X63057857Y-97588297D01*
X63274539Y-97654027D01*
X63443418Y-97670660D01*
X63556342Y-97670660D01*
X63725221Y-97654027D01*
X63941903Y-97588297D01*
X64141598Y-97481558D01*
X64295501Y-97355252D01*
X64295501Y-98227068D01*
X64141598Y-98100762D01*
X63941903Y-97994023D01*
X63725221Y-97928293D01*
X63556342Y-97911660D01*
X63443418Y-97911660D01*
X63274539Y-97928293D01*
X63057857Y-97994023D01*
X62858162Y-98100762D01*
X62683129Y-98244409D01*
X62539482Y-98419442D01*
X62432743Y-98619137D01*
X62367013Y-98835819D01*
X62344819Y-99061160D01*
X62367013Y-99286501D01*
X62432743Y-99503183D01*
X62539482Y-99702878D01*
X62683129Y-99877911D01*
X62858162Y-100021558D01*
X63057857Y-100128297D01*
X63274539Y-100194027D01*
X63362378Y-100202678D01*
X63362378Y-100339430D01*
X63142272Y-100222272D01*
X62880136Y-100318533D01*
X62641816Y-100464084D01*
X62436471Y-100653333D01*
X62271992Y-100879006D01*
X62154700Y-101132431D01*
X62120998Y-101243553D01*
X62238980Y-101463660D01*
X63362380Y-101463660D01*
X63362380Y-101443660D01*
X63637380Y-101443660D01*
X63637380Y-101463660D01*
X63657380Y-101463660D01*
X63657380Y-101738660D01*
X63637380Y-101738660D01*
X63637380Y-102862889D01*
X63857488Y-102980048D01*
X64119624Y-102883787D01*
X64295501Y-102776372D01*
X64295501Y-103269390D01*
X64231286Y-103205175D01*
X64141286Y-103145039D01*
X64041283Y-103103617D01*
X63935121Y-103082500D01*
X63826879Y-103082500D01*
X63720717Y-103103617D01*
X63620714Y-103145039D01*
X63530714Y-103205175D01*
X63454175Y-103281714D01*
X63394039Y-103371714D01*
X63377559Y-103411500D01*
X61492935Y-103411500D01*
X61474286Y-103399039D01*
X61374283Y-103357617D01*
X61268121Y-103336500D01*
X61159879Y-103336500D01*
X61053717Y-103357617D01*
X60953714Y-103399039D01*
X60863714Y-103459175D01*
X60787175Y-103535714D01*
X60727039Y-103625714D01*
X60699500Y-103692200D01*
X60699500Y-101958767D01*
X62120998Y-101958767D01*
X62154700Y-102069889D01*
X62271992Y-102323314D01*
X62436471Y-102548987D01*
X62641816Y-102738236D01*
X62880136Y-102883787D01*
X63142272Y-102980048D01*
X63362380Y-102862889D01*
X63362380Y-101738660D01*
X62238980Y-101738660D01*
X62120998Y-101958767D01*
X60699500Y-101958767D01*
X60699500Y-83821160D01*
X62344819Y-83821160D01*
X62367013Y-84046501D01*
X62432743Y-84263183D01*
X62539482Y-84462878D01*
X62683129Y-84637911D01*
X62858162Y-84781558D01*
X63057857Y-84888297D01*
X63274539Y-84954027D01*
X63443418Y-84970660D01*
X63556342Y-84970660D01*
X63725221Y-84954027D01*
X63941903Y-84888297D01*
X64141598Y-84781558D01*
X64316631Y-84637911D01*
X64460278Y-84462878D01*
X64567017Y-84263183D01*
X64632747Y-84046501D01*
X64654941Y-83821160D01*
X82664819Y-83821160D01*
X82687013Y-84046501D01*
X82752743Y-84263183D01*
X82859482Y-84462878D01*
X83003129Y-84637911D01*
X83178162Y-84781558D01*
X83377857Y-84888297D01*
X83594539Y-84954027D01*
X83763418Y-84970660D01*
X83876342Y-84970660D01*
X84045221Y-84954027D01*
X84261903Y-84888297D01*
X84461598Y-84781558D01*
X84636631Y-84637911D01*
X84780278Y-84462878D01*
X84887017Y-84263183D01*
X84952747Y-84046501D01*
X84974941Y-83821160D01*
X84952747Y-83595819D01*
X84887017Y-83379137D01*
X84780278Y-83179442D01*
X84636631Y-83004409D01*
X84461598Y-82860762D01*
X84261903Y-82754023D01*
X84045221Y-82688293D01*
X83876342Y-82671660D01*
X83763418Y-82671660D01*
X83594539Y-82688293D01*
X83377857Y-82754023D01*
X83178162Y-82860762D01*
X83003129Y-83004409D01*
X82859482Y-83179442D01*
X82752743Y-83379137D01*
X82687013Y-83595819D01*
X82664819Y-83821160D01*
X64654941Y-83821160D01*
X64632747Y-83595819D01*
X64567017Y-83379137D01*
X64460278Y-83179442D01*
X64316631Y-83004409D01*
X64200036Y-82908721D01*
X71630733Y-82908721D01*
X71703779Y-83148487D01*
X71958374Y-83266465D01*
X72231094Y-83332507D01*
X72511459Y-83344074D01*
X72788692Y-83300724D01*
X73052142Y-83204120D01*
X73156221Y-83148487D01*
X73229267Y-82908721D01*
X72430000Y-82109454D01*
X71630733Y-82908721D01*
X64200036Y-82908721D01*
X64141598Y-82860762D01*
X63941903Y-82754023D01*
X63725221Y-82688293D01*
X63556342Y-82671660D01*
X63443418Y-82671660D01*
X63274539Y-82688293D01*
X63057857Y-82754023D01*
X62858162Y-82860762D01*
X62683129Y-83004409D01*
X62539482Y-83179442D01*
X62432743Y-83379137D01*
X62367013Y-83595819D01*
X62344819Y-83821160D01*
X60699500Y-83821160D01*
X60699500Y-81019500D01*
X71340043Y-81019500D01*
X71436277Y-81115734D01*
X71436277Y-81115734D01*
G37*
X71436277Y-81115734D02*
X71196513Y-81188779D01*
X71078535Y-81443374D01*
X71012493Y-81716094D01*
X71000926Y-81996459D01*
X71044276Y-82273692D01*
X71140880Y-82537142D01*
X71196513Y-82641221D01*
X71436279Y-82714267D01*
X72235546Y-81915000D01*
X72221404Y-81900858D01*
X72415858Y-81706404D01*
X72430000Y-81720546D01*
X72444143Y-81706404D01*
X72638597Y-81900858D01*
X72624454Y-81915000D01*
X73423721Y-82714267D01*
X73663487Y-82641221D01*
X73781465Y-82386626D01*
X73820077Y-82227180D01*
X73824675Y-82250297D01*
X73911326Y-82459492D01*
X74037125Y-82647764D01*
X74197236Y-82807875D01*
X74385508Y-82933674D01*
X74594703Y-83020325D01*
X74816784Y-83064500D01*
X75043216Y-83064500D01*
X75265297Y-83020325D01*
X75474492Y-82933674D01*
X75662764Y-82807875D01*
X75822875Y-82647764D01*
X75948674Y-82459492D01*
X76035325Y-82250297D01*
X76079500Y-82028216D01*
X76079500Y-81801784D01*
X76035325Y-81579703D01*
X75948674Y-81370508D01*
X75822875Y-81182236D01*
X75662764Y-81022125D01*
X75658835Y-81019500D01*
X90176500Y-81019500D01*
X90176501Y-115830500D01*
X60699500Y-115830500D01*
X60699500Y-113450000D01*
X63568809Y-113450000D01*
X63568809Y-115150000D01*
X63575557Y-115218514D01*
X63595542Y-115284395D01*
X63627995Y-115345111D01*
X63671670Y-115398330D01*
X63724889Y-115442005D01*
X63785605Y-115474458D01*
X63851486Y-115494443D01*
X63920000Y-115501191D01*
X65620000Y-115501191D01*
X65688514Y-115494443D01*
X65754395Y-115474458D01*
X65815111Y-115442005D01*
X65868330Y-115398330D01*
X65912005Y-115345111D01*
X65944458Y-115284395D01*
X65964443Y-115218514D01*
X65971191Y-115150000D01*
X65971191Y-114300000D01*
X66104697Y-114300000D01*
X66127857Y-114535143D01*
X66196445Y-114761249D01*
X66307827Y-114969630D01*
X66457722Y-115152278D01*
X66640370Y-115302173D01*
X66848751Y-115413555D01*
X67074857Y-115482143D01*
X67251082Y-115499500D01*
X67368918Y-115499500D01*
X67545143Y-115482143D01*
X67771249Y-115413555D01*
X67979630Y-115302173D01*
X68162278Y-115152278D01*
X68312173Y-114969630D01*
X68423555Y-114761249D01*
X68492143Y-114535143D01*
X68515303Y-114300000D01*
X68644697Y-114300000D01*
X68667857Y-114535143D01*
X68736445Y-114761249D01*
X68847827Y-114969630D01*
X68997722Y-115152278D01*
X69180370Y-115302173D01*
X69388751Y-115413555D01*
X69614857Y-115482143D01*
X69791082Y-115499500D01*
X69908918Y-115499500D01*
X70085143Y-115482143D01*
X70311249Y-115413555D01*
X70519630Y-115302173D01*
X70702278Y-115152278D01*
X70852173Y-114969630D01*
X70963555Y-114761249D01*
X71032143Y-114535143D01*
X71055303Y-114300000D01*
X71032143Y-114064857D01*
X70963555Y-113838751D01*
X70852173Y-113630370D01*
X70702278Y-113447722D01*
X70519630Y-113297827D01*
X70311249Y-113186445D01*
X70085143Y-113117857D01*
X69908918Y-113100500D01*
X69791082Y-113100500D01*
X69614857Y-113117857D01*
X69388751Y-113186445D01*
X69180370Y-113297827D01*
X68997722Y-113447722D01*
X68847827Y-113630370D01*
X68736445Y-113838751D01*
X68667857Y-114064857D01*
X68644697Y-114300000D01*
X68515303Y-114300000D01*
X68492143Y-114064857D01*
X68423555Y-113838751D01*
X68312173Y-113630370D01*
X68162278Y-113447722D01*
X67979630Y-113297827D01*
X67771249Y-113186445D01*
X67545143Y-113117857D01*
X67368918Y-113100500D01*
X67251082Y-113100500D01*
X67074857Y-113117857D01*
X66848751Y-113186445D01*
X66640370Y-113297827D01*
X66457722Y-113447722D01*
X66307827Y-113630370D01*
X66196445Y-113838751D01*
X66127857Y-114064857D01*
X66104697Y-114300000D01*
X65971191Y-114300000D01*
X65971191Y-113450000D01*
X65964443Y-113381486D01*
X65944458Y-113315605D01*
X65912005Y-113254889D01*
X65868330Y-113201670D01*
X65815111Y-113157995D01*
X65754395Y-113125542D01*
X65688514Y-113105557D01*
X65620000Y-113098809D01*
X63920000Y-113098809D01*
X63851486Y-113105557D01*
X63785605Y-113125542D01*
X63724889Y-113157995D01*
X63671670Y-113201670D01*
X63627995Y-113254889D01*
X63595542Y-113315605D01*
X63575557Y-113381486D01*
X63568809Y-113450000D01*
X60699500Y-113450000D01*
X60699500Y-108530879D01*
X66760500Y-108530879D01*
X66760500Y-108639121D01*
X66781617Y-108745283D01*
X66823039Y-108845286D01*
X66883175Y-108935286D01*
X66959714Y-109011825D01*
X67049714Y-109071961D01*
X67149717Y-109113383D01*
X67255879Y-109134500D01*
X67364121Y-109134500D01*
X67470283Y-109113383D01*
X67570286Y-109071961D01*
X67588935Y-109059500D01*
X67711700Y-109059500D01*
X67735000Y-109061795D01*
X67758300Y-109059500D01*
X67758303Y-109059500D01*
X67828018Y-109052634D01*
X67917462Y-109025501D01*
X67999893Y-108981441D01*
X68072145Y-108922145D01*
X68087005Y-108904038D01*
X68754853Y-108236191D01*
X69040000Y-108236191D01*
X69108514Y-108229443D01*
X69174395Y-108209458D01*
X69235111Y-108177005D01*
X69288330Y-108133330D01*
X69332005Y-108080111D01*
X69364458Y-108019395D01*
X69375500Y-107982995D01*
X69375501Y-111355690D01*
X69373205Y-111379000D01*
X69382367Y-111472018D01*
X69409499Y-111561461D01*
X69425101Y-111590650D01*
X69453560Y-111643893D01*
X69512856Y-111716145D01*
X69530958Y-111731001D01*
X71787707Y-113987751D01*
X71786205Y-114003000D01*
X71788500Y-114026300D01*
X71788500Y-114026303D01*
X71795366Y-114096018D01*
X71822499Y-114185462D01*
X71866560Y-114267893D01*
X71925856Y-114340145D01*
X71943958Y-114355001D01*
X72207994Y-114619037D01*
X72222855Y-114637145D01*
X72295107Y-114696441D01*
X72377538Y-114740501D01*
X72458809Y-114765155D01*
X72458809Y-115150000D01*
X72465557Y-115218514D01*
X72485542Y-115284395D01*
X72517995Y-115345111D01*
X72561670Y-115398330D01*
X72614889Y-115442005D01*
X72675605Y-115474458D01*
X72741486Y-115494443D01*
X72810000Y-115501191D01*
X74510000Y-115501191D01*
X74578514Y-115494443D01*
X74644395Y-115474458D01*
X74705111Y-115442005D01*
X74758330Y-115398330D01*
X74802005Y-115345111D01*
X74834458Y-115284395D01*
X74854443Y-115218514D01*
X74861191Y-115150000D01*
X74861191Y-113450000D01*
X76268809Y-113450000D01*
X76268809Y-115150000D01*
X76275557Y-115218514D01*
X76295542Y-115284395D01*
X76327995Y-115345111D01*
X76371670Y-115398330D01*
X76424889Y-115442005D01*
X76485605Y-115474458D01*
X76551486Y-115494443D01*
X76620000Y-115501191D01*
X78320000Y-115501191D01*
X78388514Y-115494443D01*
X78454395Y-115474458D01*
X78515111Y-115442005D01*
X78568330Y-115398330D01*
X78612005Y-115345111D01*
X78644458Y-115284395D01*
X78664443Y-115218514D01*
X78671191Y-115150000D01*
X78671191Y-114300000D01*
X78804697Y-114300000D01*
X78827857Y-114535143D01*
X78896445Y-114761249D01*
X79007827Y-114969630D01*
X79157722Y-115152278D01*
X79340370Y-115302173D01*
X79548751Y-115413555D01*
X79774857Y-115482143D01*
X79951082Y-115499500D01*
X80068918Y-115499500D01*
X80245143Y-115482143D01*
X80471249Y-115413555D01*
X80679630Y-115302173D01*
X80862278Y-115152278D01*
X81012173Y-114969630D01*
X81123555Y-114761249D01*
X81192143Y-114535143D01*
X81215303Y-114300000D01*
X81192143Y-114064857D01*
X81123555Y-113838751D01*
X81012173Y-113630370D01*
X80862278Y-113447722D01*
X80679630Y-113297827D01*
X80471249Y-113186445D01*
X80245143Y-113117857D01*
X80068918Y-113100500D01*
X79951082Y-113100500D01*
X79774857Y-113117857D01*
X79548751Y-113186445D01*
X79340370Y-113297827D01*
X79157722Y-113447722D01*
X79007827Y-113630370D01*
X78896445Y-113838751D01*
X78827857Y-114064857D01*
X78804697Y-114300000D01*
X78671191Y-114300000D01*
X78671191Y-113450000D01*
X78664443Y-113381486D01*
X78644458Y-113315605D01*
X78612005Y-113254889D01*
X78568330Y-113201670D01*
X78515111Y-113157995D01*
X78454395Y-113125542D01*
X78388514Y-113105557D01*
X78320000Y-113098809D01*
X76620000Y-113098809D01*
X76551486Y-113105557D01*
X76485605Y-113125542D01*
X76424889Y-113157995D01*
X76371670Y-113201670D01*
X76327995Y-113254889D01*
X76295542Y-113315605D01*
X76275557Y-113381486D01*
X76268809Y-113450000D01*
X74861191Y-113450000D01*
X74854443Y-113381486D01*
X74834458Y-113315605D01*
X74802005Y-113254889D01*
X74758330Y-113201670D01*
X74705111Y-113157995D01*
X74644395Y-113125542D01*
X74578514Y-113105557D01*
X74510000Y-113098809D01*
X72810000Y-113098809D01*
X72741486Y-113105557D01*
X72675605Y-113125542D01*
X72614889Y-113157995D01*
X72561670Y-113201670D01*
X72517995Y-113254889D01*
X72485542Y-113315605D01*
X72479050Y-113337006D01*
X70324500Y-111182457D01*
X70324500Y-107982995D01*
X70335542Y-108019395D01*
X70367995Y-108080111D01*
X70411670Y-108133330D01*
X70464889Y-108177005D01*
X70525605Y-108209458D01*
X70591486Y-108229443D01*
X70660000Y-108236191D01*
X70895898Y-108236191D01*
X71683366Y-109023660D01*
X71709175Y-109062286D01*
X71785714Y-109138825D01*
X71875714Y-109198961D01*
X71975717Y-109240383D01*
X72081879Y-109261500D01*
X72190121Y-109261500D01*
X72230289Y-109253510D01*
X73499331Y-109253510D01*
X73491500Y-109292879D01*
X73491500Y-109401121D01*
X73499711Y-109442403D01*
X72324958Y-110617157D01*
X72306856Y-110632013D01*
X72247560Y-110704265D01*
X72203499Y-110786696D01*
X72176366Y-110876140D01*
X72169827Y-110942539D01*
X72167205Y-110969158D01*
X72167835Y-110975556D01*
X72157039Y-110991714D01*
X72115617Y-111091717D01*
X72094500Y-111197879D01*
X72094500Y-111306121D01*
X72115617Y-111412283D01*
X72157039Y-111512286D01*
X72217175Y-111602286D01*
X72293714Y-111678825D01*
X72383714Y-111738961D01*
X72483717Y-111780383D01*
X72589879Y-111801500D01*
X72698121Y-111801500D01*
X72804283Y-111780383D01*
X72904286Y-111738961D01*
X72994286Y-111678825D01*
X73048721Y-111624390D01*
X73118717Y-111653383D01*
X73224879Y-111674500D01*
X73333121Y-111674500D01*
X73439283Y-111653383D01*
X73539286Y-111611961D01*
X73595529Y-111574381D01*
X73614175Y-111602286D01*
X73690714Y-111678825D01*
X73780714Y-111738961D01*
X73880717Y-111780383D01*
X73986879Y-111801500D01*
X74095121Y-111801500D01*
X74201283Y-111780383D01*
X74301286Y-111738961D01*
X74319935Y-111726500D01*
X74383698Y-111726500D01*
X74406998Y-111728795D01*
X74430298Y-111726500D01*
X74430301Y-111726500D01*
X74500016Y-111719634D01*
X74589460Y-111692501D01*
X74671891Y-111648441D01*
X74744143Y-111589145D01*
X74759003Y-111571038D01*
X75520049Y-110809994D01*
X75538146Y-110795142D01*
X75552997Y-110777046D01*
X75553001Y-110777042D01*
X75597441Y-110722891D01*
X75607397Y-110704265D01*
X75641502Y-110640459D01*
X75668635Y-110551015D01*
X75675501Y-110481300D01*
X75675501Y-110481297D01*
X75677796Y-110457997D01*
X75675501Y-110434697D01*
X75675501Y-109642936D01*
X75687962Y-109624287D01*
X75729384Y-109524284D01*
X75750501Y-109418122D01*
X75750501Y-109309880D01*
X75739288Y-109253510D01*
X79189681Y-109253510D01*
X79217990Y-109256298D01*
X79246299Y-109253510D01*
X79246307Y-109253510D01*
X79331004Y-109245168D01*
X79439674Y-109212203D01*
X79539826Y-109158671D01*
X79627609Y-109086629D01*
X79645664Y-109064629D01*
X80109103Y-108601191D01*
X80770000Y-108601191D01*
X80855152Y-108592804D01*
X80706960Y-108740997D01*
X80706955Y-108741001D01*
X78474716Y-110973241D01*
X78452717Y-110977617D01*
X78352714Y-111019039D01*
X78262714Y-111079175D01*
X78186175Y-111155714D01*
X78126039Y-111245714D01*
X78084617Y-111345717D01*
X78063500Y-111451879D01*
X78063500Y-111560121D01*
X78084617Y-111666283D01*
X78126039Y-111766286D01*
X78186175Y-111856286D01*
X78262714Y-111932825D01*
X78352714Y-111992961D01*
X78452717Y-112034383D01*
X78558879Y-112055500D01*
X78667121Y-112055500D01*
X78773283Y-112034383D01*
X78873286Y-111992961D01*
X78963286Y-111932825D01*
X79039825Y-111856286D01*
X79099961Y-111766286D01*
X79141383Y-111666283D01*
X79145759Y-111644284D01*
X81296499Y-109493545D01*
X81296500Y-111972062D01*
X81284038Y-111990713D01*
X81242616Y-112090716D01*
X81221499Y-112196878D01*
X81221499Y-112305120D01*
X81242616Y-112411282D01*
X81284038Y-112511285D01*
X81344174Y-112601285D01*
X81420713Y-112677824D01*
X81510713Y-112737960D01*
X81610716Y-112779382D01*
X81716878Y-112800499D01*
X81746500Y-112800499D01*
X81746500Y-112830121D01*
X81767617Y-112936283D01*
X81809039Y-113036286D01*
X81869175Y-113126286D01*
X81945714Y-113202825D01*
X81995664Y-113236201D01*
X81880370Y-113297827D01*
X81697722Y-113447722D01*
X81547827Y-113630370D01*
X81436445Y-113838751D01*
X81367857Y-114064857D01*
X81344697Y-114300000D01*
X81367857Y-114535143D01*
X81436445Y-114761249D01*
X81547827Y-114969630D01*
X81697722Y-115152278D01*
X81880370Y-115302173D01*
X82088751Y-115413555D01*
X82314857Y-115482143D01*
X82491082Y-115499500D01*
X82608918Y-115499500D01*
X82785143Y-115482143D01*
X83011249Y-115413555D01*
X83219630Y-115302173D01*
X83402278Y-115152278D01*
X83552173Y-114969630D01*
X83663555Y-114761249D01*
X83732143Y-114535143D01*
X83755303Y-114300000D01*
X83732143Y-114064857D01*
X83663555Y-113838751D01*
X83552173Y-113630370D01*
X83402278Y-113447722D01*
X83219630Y-113297827D01*
X83011249Y-113186445D01*
X82785143Y-113117857D01*
X82731957Y-113112619D01*
X82782961Y-113036286D01*
X82824383Y-112936283D01*
X82845500Y-112830121D01*
X82845500Y-112721879D01*
X82824383Y-112615717D01*
X82782961Y-112515714D01*
X82770500Y-112497065D01*
X82770500Y-109879935D01*
X82782961Y-109861286D01*
X82824383Y-109761283D01*
X82845388Y-109655682D01*
X85882165Y-112692459D01*
X85845500Y-112876784D01*
X85845500Y-113103216D01*
X85889675Y-113325297D01*
X85976326Y-113534492D01*
X86102125Y-113722764D01*
X86262236Y-113882875D01*
X86450508Y-114008674D01*
X86659703Y-114095325D01*
X86881784Y-114139500D01*
X87108216Y-114139500D01*
X87330297Y-114095325D01*
X87539492Y-114008674D01*
X87727764Y-113882875D01*
X87887875Y-113722764D01*
X88013674Y-113534492D01*
X88100325Y-113325297D01*
X88144500Y-113103216D01*
X88144500Y-112876784D01*
X88107835Y-112692459D01*
X89263642Y-111536653D01*
X89285630Y-111518608D01*
X89303676Y-111496619D01*
X89303681Y-111496614D01*
X89357672Y-111430825D01*
X89392536Y-111365598D01*
X89411204Y-111330673D01*
X89444169Y-111222003D01*
X89452511Y-111137306D01*
X89452511Y-111137297D01*
X89455299Y-111108990D01*
X89452511Y-111080683D01*
X89452511Y-85310319D01*
X89455299Y-85282010D01*
X89452511Y-85253701D01*
X89452511Y-85253694D01*
X89444169Y-85168997D01*
X89411204Y-85060327D01*
X89357672Y-84960175D01*
X89303681Y-84894386D01*
X89303676Y-84894381D01*
X89285630Y-84872392D01*
X89263641Y-84854346D01*
X88476674Y-84067381D01*
X88458619Y-84045381D01*
X88370836Y-83973339D01*
X88270684Y-83919807D01*
X88162014Y-83886842D01*
X88077317Y-83878500D01*
X88077309Y-83878500D01*
X88049000Y-83875712D01*
X88020691Y-83878500D01*
X87946191Y-83878500D01*
X87946191Y-83855000D01*
X87939443Y-83786486D01*
X87919458Y-83720605D01*
X87887005Y-83659889D01*
X87843330Y-83606670D01*
X87790111Y-83562995D01*
X87729395Y-83530542D01*
X87663514Y-83510557D01*
X87595000Y-83503809D01*
X86395000Y-83503809D01*
X86326486Y-83510557D01*
X86260605Y-83530542D01*
X86199889Y-83562995D01*
X86146670Y-83606670D01*
X86102995Y-83659889D01*
X86070542Y-83720605D01*
X86050557Y-83786486D01*
X86043809Y-83855000D01*
X86043809Y-85055000D01*
X86050557Y-85123514D01*
X86070542Y-85189395D01*
X86102995Y-85250111D01*
X86146670Y-85303330D01*
X86199889Y-85347005D01*
X86260605Y-85379458D01*
X86326486Y-85399443D01*
X86383095Y-85405018D01*
X86338830Y-85604376D01*
X86995000Y-86260546D01*
X87651170Y-85604376D01*
X87606905Y-85405018D01*
X87663514Y-85399443D01*
X87729395Y-85379458D01*
X87790111Y-85347005D01*
X87843330Y-85303330D01*
X87887005Y-85250111D01*
X87919458Y-85189395D01*
X87930780Y-85152073D01*
X88299512Y-85520807D01*
X88299512Y-93994833D01*
X88284120Y-93952858D01*
X88228487Y-93848779D01*
X87988721Y-93775733D01*
X87189454Y-94575000D01*
X87988721Y-95374267D01*
X88228487Y-95301221D01*
X88299512Y-95147951D01*
X88299511Y-109909831D01*
X88284120Y-109867858D01*
X88228487Y-109763779D01*
X87988721Y-109690733D01*
X87189454Y-110490000D01*
X87203597Y-110504143D01*
X87009143Y-110698597D01*
X86995000Y-110684454D01*
X86980858Y-110698597D01*
X86786404Y-110504143D01*
X86800546Y-110490000D01*
X86001279Y-109690733D01*
X85761513Y-109763779D01*
X85643535Y-110018374D01*
X85577493Y-110291094D01*
X85565926Y-110571459D01*
X85598209Y-110777915D01*
X84316573Y-109496279D01*
X86195733Y-109496279D01*
X86995000Y-110295546D01*
X87794267Y-109496279D01*
X87721221Y-109256513D01*
X87466626Y-109138535D01*
X87193906Y-109072493D01*
X86913541Y-109060926D01*
X86636308Y-109104276D01*
X86372858Y-109200880D01*
X86268779Y-109256513D01*
X86195733Y-109496279D01*
X84316573Y-109496279D01*
X82990793Y-108170500D01*
X84385457Y-108170500D01*
X84483994Y-108269037D01*
X84498855Y-108287145D01*
X84571107Y-108346441D01*
X84653538Y-108390501D01*
X84742982Y-108417634D01*
X84812697Y-108424500D01*
X84812706Y-108424500D01*
X84835999Y-108426794D01*
X84859292Y-108424500D01*
X85065065Y-108424500D01*
X85083714Y-108436961D01*
X85183717Y-108478383D01*
X85289879Y-108499500D01*
X85398121Y-108499500D01*
X85504283Y-108478383D01*
X85604286Y-108436961D01*
X85694286Y-108376825D01*
X85770825Y-108300286D01*
X85830961Y-108210286D01*
X85872383Y-108110283D01*
X85893500Y-108004121D01*
X85893500Y-107895879D01*
X85872383Y-107789717D01*
X85830961Y-107689714D01*
X85770825Y-107599714D01*
X85694286Y-107523175D01*
X85604286Y-107463039D01*
X85504283Y-107421617D01*
X85398121Y-107400500D01*
X85335725Y-107400500D01*
X85352383Y-107360283D01*
X85356759Y-107338284D01*
X85934044Y-106761000D01*
X85952146Y-106746144D01*
X86011442Y-106673892D01*
X86055502Y-106591461D01*
X86082635Y-106502017D01*
X86089501Y-106432302D01*
X86089501Y-106432293D01*
X86091795Y-106409000D01*
X86089501Y-106385707D01*
X86089501Y-100879580D01*
X86091796Y-100856280D01*
X86086020Y-100797634D01*
X86082635Y-100763263D01*
X86055502Y-100673819D01*
X86011442Y-100591388D01*
X85952146Y-100519136D01*
X85934044Y-100504280D01*
X84971882Y-99542119D01*
X84971878Y-99542114D01*
X84897707Y-99467943D01*
X84952747Y-99286501D01*
X84974941Y-99061160D01*
X84952747Y-98835819D01*
X84887017Y-98619137D01*
X84780278Y-98419442D01*
X84636631Y-98244409D01*
X84461598Y-98100762D01*
X84261903Y-97994023D01*
X84045221Y-97928293D01*
X83876342Y-97911660D01*
X83763418Y-97911660D01*
X83594539Y-97928293D01*
X83377857Y-97994023D01*
X83178162Y-98100762D01*
X83003129Y-98244409D01*
X82859482Y-98419442D01*
X82752743Y-98619137D01*
X82687013Y-98835819D01*
X82664819Y-99061160D01*
X82687013Y-99286501D01*
X82752743Y-99503183D01*
X82859482Y-99702878D01*
X82984737Y-99855500D01*
X81148931Y-99855500D01*
X81124396Y-99825604D01*
X81048447Y-99763275D01*
X80961797Y-99716960D01*
X80867778Y-99688439D01*
X80770000Y-99678809D01*
X79120000Y-99678809D01*
X79022222Y-99688439D01*
X78928203Y-99716960D01*
X78841553Y-99763275D01*
X78765604Y-99825604D01*
X78703275Y-99901553D01*
X78656960Y-99988203D01*
X78628439Y-100082222D01*
X78618809Y-100180000D01*
X78618809Y-100480000D01*
X78628439Y-100577778D01*
X78656960Y-100671797D01*
X78703275Y-100758447D01*
X78765604Y-100834396D01*
X78841553Y-100896725D01*
X78928203Y-100943040D01*
X79000594Y-100965000D01*
X78928203Y-100986960D01*
X78841553Y-101033275D01*
X78765604Y-101095604D01*
X78741069Y-101125500D01*
X76350637Y-101125500D01*
X76413725Y-101073725D01*
X76491765Y-100978633D01*
X76549755Y-100870142D01*
X76585464Y-100752423D01*
X76597522Y-100630000D01*
X76594500Y-100623625D01*
X76438375Y-100467500D01*
X75132500Y-100467500D01*
X75132500Y-100487500D01*
X74857500Y-100487500D01*
X74857500Y-100467500D01*
X73551625Y-100467500D01*
X73395500Y-100623625D01*
X73392478Y-100630000D01*
X73404536Y-100752423D01*
X73440245Y-100870142D01*
X73498235Y-100978633D01*
X73576275Y-101073725D01*
X73671367Y-101151765D01*
X73743300Y-101190214D01*
X73706960Y-101258203D01*
X73678439Y-101352222D01*
X73668809Y-101450000D01*
X73668809Y-101750000D01*
X73678439Y-101847778D01*
X73684153Y-101866615D01*
X73646087Y-101897855D01*
X73631230Y-101915958D01*
X73375952Y-102171237D01*
X73357845Y-102186097D01*
X73298549Y-102258349D01*
X73254489Y-102340781D01*
X73227356Y-102430225D01*
X73220495Y-102499893D01*
X73218195Y-102523242D01*
X73220490Y-102546543D01*
X73220491Y-103891680D01*
X73218195Y-103914990D01*
X73227357Y-104008008D01*
X73254489Y-104097451D01*
X73288127Y-104160383D01*
X73298550Y-104179883D01*
X73357846Y-104252135D01*
X73375948Y-104266991D01*
X73567994Y-104459037D01*
X73582855Y-104477145D01*
X73655107Y-104536441D01*
X73737538Y-104580501D01*
X73771663Y-104590853D01*
X73815604Y-104644396D01*
X73891553Y-104706725D01*
X73978203Y-104753040D01*
X74050594Y-104775000D01*
X73978203Y-104796960D01*
X73891553Y-104843275D01*
X73815604Y-104905604D01*
X73753275Y-104981553D01*
X73706960Y-105068203D01*
X73678439Y-105162222D01*
X73668809Y-105260000D01*
X73668809Y-105560000D01*
X73670827Y-105580490D01*
X72977535Y-105580490D01*
X72483500Y-105086457D01*
X72483500Y-101360585D01*
X72495961Y-101341936D01*
X72537383Y-101241933D01*
X72558500Y-101135771D01*
X72558500Y-101027529D01*
X72537383Y-100921367D01*
X72495961Y-100821364D01*
X72435825Y-100731364D01*
X72359286Y-100654825D01*
X72269286Y-100594689D01*
X72169283Y-100553267D01*
X72063121Y-100532150D01*
X71954879Y-100532150D01*
X71848717Y-100553267D01*
X71748714Y-100594689D01*
X71658714Y-100654825D01*
X71582175Y-100731364D01*
X71522039Y-100821364D01*
X71480617Y-100921367D01*
X71459500Y-101027529D01*
X71459500Y-101135771D01*
X71480617Y-101241933D01*
X71522039Y-101341936D01*
X71534500Y-101360585D01*
X71534501Y-105171979D01*
X71494395Y-105150542D01*
X71428514Y-105130557D01*
X71360000Y-105123809D01*
X70660000Y-105123809D01*
X70591486Y-105130557D01*
X70525605Y-105150542D01*
X70464889Y-105182995D01*
X70411670Y-105226670D01*
X70367995Y-105279889D01*
X70335542Y-105340605D01*
X70315557Y-105406486D01*
X70308809Y-105475000D01*
X70308809Y-105760147D01*
X69912760Y-106156197D01*
X69884121Y-106150500D01*
X69775879Y-106150500D01*
X69669717Y-106171617D01*
X69630675Y-106187789D01*
X69651634Y-106125312D01*
X69664500Y-106023625D01*
X69508375Y-105867500D01*
X68827500Y-105867500D01*
X68827500Y-105887500D01*
X68552500Y-105887500D01*
X68552500Y-105867500D01*
X67871625Y-105867500D01*
X67715500Y-106023625D01*
X67728366Y-106125312D01*
X67767492Y-106241940D01*
X67828619Y-106348694D01*
X67909398Y-106441471D01*
X67988809Y-106502857D01*
X67988809Y-106935000D01*
X67995557Y-107003514D01*
X68015542Y-107069395D01*
X68047995Y-107130111D01*
X68068421Y-107155000D01*
X68047995Y-107179889D01*
X68015542Y-107240605D01*
X67995557Y-107306486D01*
X67988809Y-107375000D01*
X67988809Y-107660147D01*
X67556591Y-108092366D01*
X67470283Y-108056617D01*
X67364121Y-108035500D01*
X67255879Y-108035500D01*
X67149717Y-108056617D01*
X67049714Y-108098039D01*
X66959714Y-108158175D01*
X66883175Y-108234714D01*
X66823039Y-108324714D01*
X66781617Y-108424717D01*
X66760500Y-108530879D01*
X60699500Y-108530879D01*
X60699500Y-105436375D01*
X67715500Y-105436375D01*
X67871625Y-105592500D01*
X68552500Y-105592500D01*
X68552500Y-105006625D01*
X68827500Y-105006625D01*
X68827500Y-105592500D01*
X69508375Y-105592500D01*
X69664500Y-105436375D01*
X69651634Y-105334688D01*
X69612508Y-105218060D01*
X69551381Y-105111306D01*
X69470602Y-105018529D01*
X69373275Y-104943294D01*
X69263141Y-104888492D01*
X69144431Y-104856229D01*
X69021708Y-104847745D01*
X68983625Y-104850500D01*
X68827500Y-105006625D01*
X68552500Y-105006625D01*
X68396375Y-104850500D01*
X68358292Y-104847745D01*
X68235569Y-104856229D01*
X68116859Y-104888492D01*
X68006725Y-104943294D01*
X67909398Y-105018529D01*
X67828619Y-105111306D01*
X67767492Y-105218060D01*
X67728366Y-105334688D01*
X67715500Y-105436375D01*
X60699500Y-105436375D01*
X60699500Y-104079800D01*
X60727039Y-104146286D01*
X60787175Y-104236286D01*
X60863714Y-104312825D01*
X60953714Y-104372961D01*
X61053717Y-104414383D01*
X61159879Y-104435500D01*
X61268121Y-104435500D01*
X61374283Y-104414383D01*
X61474286Y-104372961D01*
X61492935Y-104360500D01*
X63603700Y-104360500D01*
X63627000Y-104362795D01*
X63650300Y-104360500D01*
X63650303Y-104360500D01*
X63720018Y-104353634D01*
X63809462Y-104326501D01*
X63891893Y-104282441D01*
X63964145Y-104223145D01*
X63979006Y-104205037D01*
X64019284Y-104164759D01*
X64041283Y-104160383D01*
X64141286Y-104118961D01*
X64231286Y-104058825D01*
X64307825Y-103982286D01*
X64331990Y-103946121D01*
X64351058Y-103981795D01*
X64373560Y-104023893D01*
X64432856Y-104096145D01*
X64450958Y-104111001D01*
X64999242Y-104659286D01*
X65003617Y-104681283D01*
X65045039Y-104781286D01*
X65105175Y-104871286D01*
X65181714Y-104947825D01*
X65271714Y-105007961D01*
X65371717Y-105049383D01*
X65477879Y-105070500D01*
X65586121Y-105070500D01*
X65692283Y-105049383D01*
X65792286Y-105007961D01*
X65882286Y-104947825D01*
X65958825Y-104871286D01*
X66018961Y-104781286D01*
X66053604Y-104697648D01*
X66269241Y-104913285D01*
X66273617Y-104935283D01*
X66315039Y-105035286D01*
X66375175Y-105125286D01*
X66451714Y-105201825D01*
X66541714Y-105261961D01*
X66641717Y-105303383D01*
X66747879Y-105324500D01*
X66856121Y-105324500D01*
X66962283Y-105303383D01*
X67062286Y-105261961D01*
X67152286Y-105201825D01*
X67228825Y-105125286D01*
X67288961Y-105035286D01*
X67330383Y-104935283D01*
X67351500Y-104829121D01*
X67351500Y-104720879D01*
X67330383Y-104614717D01*
X67288961Y-104514714D01*
X67228825Y-104424714D01*
X67152286Y-104348175D01*
X67062286Y-104288039D01*
X66962283Y-104246617D01*
X66940285Y-104242241D01*
X66288511Y-103590468D01*
X66373285Y-103533824D01*
X66449824Y-103457285D01*
X66509960Y-103367285D01*
X66551382Y-103267282D01*
X66555173Y-103248224D01*
X66560143Y-103244145D01*
X66619439Y-103171893D01*
X66663499Y-103089462D01*
X66690632Y-103000018D01*
X66697498Y-102930303D01*
X66697498Y-102930294D01*
X66699792Y-102907001D01*
X66697498Y-102883708D01*
X66697498Y-97997933D01*
X66709959Y-97979284D01*
X66751381Y-97879281D01*
X66768612Y-97792655D01*
X67793241Y-98817285D01*
X67797617Y-98839283D01*
X67839039Y-98939286D01*
X67899175Y-99029286D01*
X67975714Y-99105825D01*
X68065714Y-99165961D01*
X68165717Y-99207383D01*
X68271879Y-99228500D01*
X68380121Y-99228500D01*
X68486283Y-99207383D01*
X68586286Y-99165961D01*
X68676286Y-99105825D01*
X68752825Y-99029286D01*
X68812961Y-98939286D01*
X68854383Y-98839283D01*
X68875500Y-98733121D01*
X68875500Y-98624879D01*
X68854383Y-98518717D01*
X68812961Y-98418714D01*
X68752825Y-98328714D01*
X68676286Y-98252175D01*
X68586286Y-98192039D01*
X68486283Y-98150617D01*
X68464285Y-98146241D01*
X66641500Y-96323457D01*
X66641500Y-94014543D01*
X67684786Y-92971258D01*
X67706783Y-92966883D01*
X67806786Y-92925461D01*
X67896786Y-92865325D01*
X67973325Y-92788786D01*
X68033461Y-92698786D01*
X68074883Y-92598783D01*
X68096000Y-92492621D01*
X68096000Y-92384379D01*
X68074883Y-92278217D01*
X68033461Y-92178214D01*
X67973325Y-92088214D01*
X67896786Y-92011675D01*
X67806786Y-91951539D01*
X67706783Y-91910117D01*
X67621025Y-91893059D01*
X67660286Y-91866825D01*
X67736825Y-91790286D01*
X67796961Y-91700286D01*
X67838383Y-91600283D01*
X67859500Y-91494121D01*
X67859500Y-91385879D01*
X67838383Y-91279717D01*
X67796961Y-91179714D01*
X67784500Y-91161065D01*
X67784500Y-89813935D01*
X67796961Y-89795286D01*
X67838383Y-89695283D01*
X67859500Y-89589121D01*
X67859500Y-89480879D01*
X67838383Y-89374717D01*
X67796961Y-89274714D01*
X67736825Y-89184714D01*
X67660286Y-89108175D01*
X67570286Y-89048039D01*
X67470283Y-89006617D01*
X67364121Y-88985500D01*
X67255879Y-88985500D01*
X67149717Y-89006617D01*
X67049714Y-89048039D01*
X66959714Y-89108175D01*
X66883175Y-89184714D01*
X66823039Y-89274714D01*
X66781617Y-89374717D01*
X66760500Y-89480879D01*
X66760500Y-89589121D01*
X66781617Y-89695283D01*
X66823039Y-89795286D01*
X66835500Y-89813935D01*
X66835501Y-91161064D01*
X66823039Y-91179714D01*
X66781617Y-91279717D01*
X66760500Y-91385879D01*
X66760500Y-91494121D01*
X66781617Y-91600283D01*
X66823039Y-91700286D01*
X66883175Y-91790286D01*
X66959714Y-91866825D01*
X67049714Y-91926961D01*
X67149717Y-91968383D01*
X67235475Y-91985441D01*
X67196214Y-92011675D01*
X67119675Y-92088214D01*
X67059539Y-92178214D01*
X67018117Y-92278217D01*
X67013742Y-92300214D01*
X65879500Y-93434457D01*
X65879500Y-88158293D01*
X65879717Y-88158383D01*
X65985879Y-88179500D01*
X66094121Y-88179500D01*
X66200283Y-88158383D01*
X66300286Y-88116961D01*
X66318935Y-88104500D01*
X70485455Y-88104500D01*
X70965001Y-88584048D01*
X70979853Y-88602145D01*
X70997949Y-88616996D01*
X70997953Y-88617000D01*
X71052104Y-88661441D01*
X71134536Y-88705501D01*
X71178040Y-88718698D01*
X71223979Y-88732634D01*
X71316998Y-88741795D01*
X71340301Y-88739500D01*
X81718457Y-88739500D01*
X82199159Y-89220203D01*
X82214015Y-89238305D01*
X82286267Y-89297601D01*
X82368698Y-89341661D01*
X82458142Y-89368794D01*
X82527857Y-89375660D01*
X82527866Y-89375660D01*
X82551159Y-89377954D01*
X82574452Y-89375660D01*
X82673178Y-89375660D01*
X82623440Y-89436266D01*
X82579380Y-89518698D01*
X82552247Y-89608142D01*
X82545381Y-89677856D01*
X82543086Y-89701159D01*
X82545381Y-89724460D01*
X82545382Y-90379612D01*
X81849962Y-91075033D01*
X81831855Y-91089893D01*
X81772559Y-91162145D01*
X81728499Y-91244577D01*
X81701366Y-91334021D01*
X81696259Y-91385879D01*
X81692205Y-91427038D01*
X81694500Y-91450338D01*
X81694501Y-95352063D01*
X81682039Y-95370714D01*
X81640617Y-95470717D01*
X81619500Y-95576879D01*
X81619500Y-95685121D01*
X81640617Y-95791283D01*
X81682039Y-95891286D01*
X81742175Y-95981286D01*
X81807549Y-96046660D01*
X73682140Y-96046660D01*
X73658840Y-96044365D01*
X73635540Y-96046660D01*
X73635537Y-96046660D01*
X73565822Y-96053526D01*
X73476378Y-96080659D01*
X73393947Y-96124719D01*
X73393945Y-96124720D01*
X73393946Y-96124720D01*
X73339795Y-96169160D01*
X73339791Y-96169164D01*
X73321695Y-96184015D01*
X73306843Y-96202112D01*
X72105556Y-97403400D01*
X72083558Y-97407776D01*
X71983555Y-97449198D01*
X71893555Y-97509334D01*
X71817016Y-97585873D01*
X71756880Y-97675873D01*
X71715458Y-97775876D01*
X71694341Y-97882038D01*
X71694341Y-97990280D01*
X71710930Y-98073680D01*
X71561903Y-97994023D01*
X71345221Y-97928293D01*
X71176342Y-97911660D01*
X71063418Y-97911660D01*
X70894539Y-97928293D01*
X70677857Y-97994023D01*
X70478162Y-98100762D01*
X70303129Y-98244409D01*
X70159482Y-98419442D01*
X70052743Y-98619137D01*
X69987013Y-98835819D01*
X69964819Y-99061160D01*
X69987013Y-99286501D01*
X70052743Y-99503183D01*
X70159482Y-99702878D01*
X70303129Y-99877911D01*
X70478162Y-100021558D01*
X70677857Y-100128297D01*
X70894539Y-100194027D01*
X71063418Y-100210660D01*
X71176342Y-100210660D01*
X71345221Y-100194027D01*
X71561903Y-100128297D01*
X71745804Y-100030000D01*
X73392478Y-100030000D01*
X73395500Y-100036375D01*
X73551625Y-100192500D01*
X74857500Y-100192500D01*
X74857500Y-99561625D01*
X75132500Y-99561625D01*
X75132500Y-100192500D01*
X76438375Y-100192500D01*
X76594500Y-100036375D01*
X76597522Y-100030000D01*
X76585464Y-99907577D01*
X76549755Y-99789858D01*
X76491765Y-99681367D01*
X76413725Y-99586275D01*
X76318633Y-99508235D01*
X76210142Y-99450245D01*
X76092423Y-99414536D01*
X75970000Y-99402478D01*
X75288625Y-99405500D01*
X75132500Y-99561625D01*
X74857500Y-99561625D01*
X74701375Y-99405500D01*
X74020000Y-99402478D01*
X73897577Y-99414536D01*
X73779858Y-99450245D01*
X73671367Y-99508235D01*
X73576275Y-99586275D01*
X73498235Y-99681367D01*
X73440245Y-99789858D01*
X73404536Y-99907577D01*
X73392478Y-100030000D01*
X71745804Y-100030000D01*
X71761598Y-100021558D01*
X71936631Y-99877911D01*
X72080278Y-99702878D01*
X72187017Y-99503183D01*
X72252747Y-99286501D01*
X72274941Y-99061160D01*
X72252747Y-98835819D01*
X72187017Y-98619137D01*
X72106862Y-98469177D01*
X72189720Y-98485659D01*
X72297962Y-98485659D01*
X72404124Y-98464542D01*
X72504127Y-98423120D01*
X72594127Y-98362984D01*
X72670666Y-98286445D01*
X72730802Y-98196445D01*
X72772224Y-98096442D01*
X72776600Y-98074444D01*
X73855385Y-96995660D01*
X78630229Y-96995660D01*
X78567175Y-97058714D01*
X78507039Y-97148714D01*
X78465617Y-97248717D01*
X78444500Y-97354879D01*
X78444500Y-97463121D01*
X78465617Y-97569283D01*
X78507039Y-97669286D01*
X78567175Y-97759286D01*
X78643714Y-97835825D01*
X78733714Y-97895961D01*
X78833717Y-97937383D01*
X78939879Y-97958500D01*
X79048121Y-97958500D01*
X79154283Y-97937383D01*
X79254286Y-97895961D01*
X79272935Y-97883500D01*
X81255065Y-97883500D01*
X81273714Y-97895961D01*
X81373717Y-97937383D01*
X81479879Y-97958500D01*
X81588121Y-97958500D01*
X81694283Y-97937383D01*
X81794286Y-97895961D01*
X81884286Y-97835825D01*
X81960825Y-97759286D01*
X82020961Y-97669286D01*
X82062383Y-97569283D01*
X82083500Y-97463121D01*
X82083500Y-97354879D01*
X82062383Y-97248717D01*
X82020961Y-97148714D01*
X81960825Y-97058714D01*
X81897771Y-96995660D01*
X82770102Y-96995660D01*
X82859482Y-97162878D01*
X83003129Y-97337911D01*
X83178162Y-97481558D01*
X83377857Y-97588297D01*
X83594539Y-97654027D01*
X83763418Y-97670660D01*
X83876342Y-97670660D01*
X84045221Y-97654027D01*
X84261903Y-97588297D01*
X84461598Y-97481558D01*
X84636631Y-97337911D01*
X84780278Y-97162878D01*
X84887017Y-96963183D01*
X84952747Y-96746501D01*
X84974941Y-96521160D01*
X84952747Y-96295819D01*
X84887017Y-96079137D01*
X84780278Y-95879442D01*
X84636631Y-95704409D01*
X84471296Y-95568721D01*
X86195733Y-95568721D01*
X86268779Y-95808487D01*
X86523374Y-95926465D01*
X86796094Y-95992507D01*
X87076459Y-96004074D01*
X87353692Y-95960724D01*
X87617142Y-95864120D01*
X87721221Y-95808487D01*
X87794267Y-95568721D01*
X86995000Y-94769454D01*
X86195733Y-95568721D01*
X84471296Y-95568721D01*
X84461598Y-95560762D01*
X84261903Y-95454023D01*
X84045221Y-95388293D01*
X83876342Y-95371660D01*
X83763418Y-95371660D01*
X83594539Y-95388293D01*
X83377857Y-95454023D01*
X83178162Y-95560762D01*
X83003129Y-95704409D01*
X82859482Y-95879442D01*
X82770102Y-96046660D01*
X82530451Y-96046660D01*
X82595825Y-95981286D01*
X82655961Y-95891286D01*
X82697383Y-95791283D01*
X82718500Y-95685121D01*
X82718500Y-95576879D01*
X82697383Y-95470717D01*
X82655961Y-95370714D01*
X82643500Y-95352065D01*
X82643500Y-93981160D01*
X82664819Y-93981160D01*
X82687013Y-94206501D01*
X82752743Y-94423183D01*
X82859482Y-94622878D01*
X83003129Y-94797911D01*
X83178162Y-94941558D01*
X83377857Y-95048297D01*
X83594539Y-95114027D01*
X83763418Y-95130660D01*
X83876342Y-95130660D01*
X84045221Y-95114027D01*
X84261903Y-95048297D01*
X84461598Y-94941558D01*
X84636631Y-94797911D01*
X84752718Y-94656459D01*
X85565926Y-94656459D01*
X85609276Y-94933692D01*
X85705880Y-95197142D01*
X85761513Y-95301221D01*
X86001279Y-95374267D01*
X86800546Y-94575000D01*
X86001279Y-93775733D01*
X85761513Y-93848779D01*
X85643535Y-94103374D01*
X85577493Y-94376094D01*
X85565926Y-94656459D01*
X84752718Y-94656459D01*
X84780278Y-94622878D01*
X84887017Y-94423183D01*
X84952747Y-94206501D01*
X84974941Y-93981160D01*
X84952747Y-93755819D01*
X84887017Y-93539137D01*
X84780278Y-93339442D01*
X84636631Y-93164409D01*
X84461598Y-93020762D01*
X84261903Y-92914023D01*
X84045221Y-92848293D01*
X83876342Y-92831660D01*
X83763418Y-92831660D01*
X83594539Y-92848293D01*
X83377857Y-92914023D01*
X83178162Y-93020762D01*
X83003129Y-93164409D01*
X82859482Y-93339442D01*
X82752743Y-93539137D01*
X82687013Y-93755819D01*
X82664819Y-93981160D01*
X82643500Y-93981160D01*
X82643500Y-91623581D01*
X82679263Y-91587818D01*
X82687013Y-91666501D01*
X82752743Y-91883183D01*
X82859482Y-92082878D01*
X83003129Y-92257911D01*
X83178162Y-92401558D01*
X83377857Y-92508297D01*
X83594539Y-92574027D01*
X83763418Y-92590660D01*
X83876342Y-92590660D01*
X84045221Y-92574027D01*
X84261903Y-92508297D01*
X84461598Y-92401558D01*
X84636631Y-92257911D01*
X84780278Y-92082878D01*
X84845003Y-91961784D01*
X85845500Y-91961784D01*
X85845500Y-92188216D01*
X85889675Y-92410297D01*
X85976326Y-92619492D01*
X86102125Y-92807764D01*
X86262236Y-92967875D01*
X86450508Y-93093674D01*
X86659703Y-93180325D01*
X86674601Y-93183288D01*
X86636308Y-93189276D01*
X86372858Y-93285880D01*
X86268779Y-93341513D01*
X86195733Y-93581279D01*
X86995000Y-94380546D01*
X87794267Y-93581279D01*
X87721221Y-93341513D01*
X87466626Y-93223535D01*
X87307180Y-93184923D01*
X87330297Y-93180325D01*
X87539492Y-93093674D01*
X87727764Y-92967875D01*
X87887875Y-92807764D01*
X88013674Y-92619492D01*
X88100325Y-92410297D01*
X88144500Y-92188216D01*
X88144500Y-91961784D01*
X88100325Y-91739703D01*
X88013674Y-91530508D01*
X87887875Y-91342236D01*
X87727764Y-91182125D01*
X87539492Y-91056326D01*
X87330297Y-90969675D01*
X87108216Y-90925500D01*
X86881784Y-90925500D01*
X86659703Y-90969675D01*
X86450508Y-91056326D01*
X86262236Y-91182125D01*
X86102125Y-91342236D01*
X85976326Y-91530508D01*
X85889675Y-91739703D01*
X85845500Y-91961784D01*
X84845003Y-91961784D01*
X84887017Y-91883183D01*
X84952747Y-91666501D01*
X84974941Y-91441160D01*
X84952747Y-91215819D01*
X84887017Y-90999137D01*
X84780278Y-90799442D01*
X84636631Y-90624409D01*
X84461598Y-90480762D01*
X84261903Y-90374023D01*
X84045221Y-90308293D01*
X83876342Y-90291660D01*
X83763418Y-90291660D01*
X83594539Y-90308293D01*
X83494381Y-90338676D01*
X83494381Y-90003644D01*
X83594539Y-90034027D01*
X83763418Y-90050660D01*
X83876342Y-90050660D01*
X84045221Y-90034027D01*
X84261903Y-89968297D01*
X84461598Y-89861558D01*
X84636631Y-89717911D01*
X84780278Y-89542878D01*
X84887017Y-89343183D01*
X84952747Y-89126501D01*
X84974941Y-88901160D01*
X84952747Y-88675819D01*
X84887017Y-88459137D01*
X84780278Y-88259442D01*
X84636631Y-88084409D01*
X84461598Y-87940762D01*
X84261903Y-87834023D01*
X84045221Y-87768293D01*
X83876342Y-87751660D01*
X83763418Y-87751660D01*
X83594539Y-87768293D01*
X83377857Y-87834023D01*
X83178162Y-87940762D01*
X83003129Y-88084409D01*
X82859482Y-88259442D01*
X82770102Y-88426660D01*
X82747704Y-88426660D01*
X82267005Y-87945962D01*
X82252145Y-87927855D01*
X82179893Y-87868559D01*
X82097462Y-87824499D01*
X82008018Y-87797366D01*
X81938303Y-87790500D01*
X81938300Y-87790500D01*
X81915000Y-87788205D01*
X81891700Y-87790500D01*
X71513543Y-87790500D01*
X71252042Y-87529000D01*
X71280283Y-87523383D01*
X71380286Y-87481961D01*
X71398935Y-87469500D01*
X75541700Y-87469500D01*
X75565000Y-87471795D01*
X75588300Y-87469500D01*
X75588303Y-87469500D01*
X75658018Y-87462634D01*
X75747462Y-87435501D01*
X75829893Y-87391441D01*
X75902145Y-87332145D01*
X75917005Y-87314038D01*
X76395384Y-86835660D01*
X82770102Y-86835660D01*
X82859482Y-87002878D01*
X83003129Y-87177911D01*
X83178162Y-87321558D01*
X83377857Y-87428297D01*
X83594539Y-87494027D01*
X83763418Y-87510660D01*
X83876342Y-87510660D01*
X84045221Y-87494027D01*
X84261903Y-87428297D01*
X84461598Y-87321558D01*
X84481013Y-87305624D01*
X86338830Y-87305624D01*
X86387544Y-87525020D01*
X86607967Y-87622969D01*
X86843263Y-87676034D01*
X87084390Y-87682175D01*
X87322083Y-87641155D01*
X87547206Y-87554553D01*
X87602456Y-87525020D01*
X87651170Y-87305624D01*
X86995000Y-86649454D01*
X86338830Y-87305624D01*
X84481013Y-87305624D01*
X84636631Y-87177911D01*
X84780278Y-87002878D01*
X84887017Y-86803183D01*
X84952747Y-86586501D01*
X84956894Y-86544390D01*
X85767825Y-86544390D01*
X85808845Y-86782083D01*
X85895447Y-87007206D01*
X85924980Y-87062456D01*
X86144376Y-87111170D01*
X86800546Y-86455000D01*
X87189454Y-86455000D01*
X87845624Y-87111170D01*
X88065020Y-87062456D01*
X88162969Y-86842033D01*
X88216034Y-86606737D01*
X88222175Y-86365610D01*
X88181155Y-86127917D01*
X88094553Y-85902794D01*
X88065020Y-85847544D01*
X87845624Y-85798830D01*
X87189454Y-86455000D01*
X86800546Y-86455000D01*
X86144376Y-85798830D01*
X85924980Y-85847544D01*
X85827031Y-86067967D01*
X85773966Y-86303263D01*
X85767825Y-86544390D01*
X84956894Y-86544390D01*
X84974941Y-86361160D01*
X84952747Y-86135819D01*
X84887017Y-85919137D01*
X84780278Y-85719442D01*
X84636631Y-85544409D01*
X84461598Y-85400762D01*
X84261903Y-85294023D01*
X84045221Y-85228293D01*
X83876342Y-85211660D01*
X83763418Y-85211660D01*
X83594539Y-85228293D01*
X83377857Y-85294023D01*
X83178162Y-85400762D01*
X83003129Y-85544409D01*
X82859482Y-85719442D01*
X82770102Y-85886660D01*
X76222132Y-85886660D01*
X76198839Y-85884366D01*
X76175546Y-85886660D01*
X76175537Y-85886660D01*
X76105822Y-85893526D01*
X76016378Y-85920659D01*
X75933947Y-85964719D01*
X75861695Y-86024015D01*
X75846839Y-86042117D01*
X75368457Y-86520500D01*
X71398935Y-86520500D01*
X71380286Y-86508039D01*
X71280283Y-86466617D01*
X71174121Y-86445500D01*
X71065879Y-86445500D01*
X70959717Y-86466617D01*
X70859714Y-86508039D01*
X70769714Y-86568175D01*
X70693175Y-86644714D01*
X70633039Y-86734714D01*
X70591617Y-86834717D01*
X70570500Y-86940879D01*
X70570500Y-87049121D01*
X70591617Y-87155283D01*
X70591707Y-87155500D01*
X66408542Y-87155500D01*
X67364543Y-86199500D01*
X70206065Y-86199500D01*
X70224714Y-86211961D01*
X70324717Y-86253383D01*
X70430879Y-86274500D01*
X70539121Y-86274500D01*
X70645283Y-86253383D01*
X70745286Y-86211961D01*
X70763935Y-86199500D01*
X73381065Y-86199500D01*
X73399714Y-86211961D01*
X73499717Y-86253383D01*
X73605879Y-86274500D01*
X73714121Y-86274500D01*
X73820283Y-86253383D01*
X73920286Y-86211961D01*
X74010286Y-86151825D01*
X74086825Y-86075286D01*
X74146961Y-85985286D01*
X74188383Y-85885283D01*
X74209500Y-85779121D01*
X74209500Y-85670879D01*
X74188383Y-85564717D01*
X74146961Y-85464714D01*
X74086825Y-85374714D01*
X74010286Y-85298175D01*
X73920286Y-85238039D01*
X73820283Y-85196617D01*
X73714121Y-85175500D01*
X73605879Y-85175500D01*
X73499717Y-85196617D01*
X73399714Y-85238039D01*
X73381065Y-85250500D01*
X70763935Y-85250500D01*
X70745286Y-85238039D01*
X70645283Y-85196617D01*
X70539121Y-85175500D01*
X70430879Y-85175500D01*
X70324717Y-85196617D01*
X70224714Y-85238039D01*
X70206065Y-85250500D01*
X67191298Y-85250500D01*
X67167998Y-85248205D01*
X67144698Y-85250500D01*
X67144695Y-85250500D01*
X67074980Y-85257366D01*
X66985536Y-85284499D01*
X66903104Y-85328559D01*
X66848953Y-85373000D01*
X66848949Y-85373004D01*
X66830853Y-85387855D01*
X66816001Y-85405952D01*
X65244500Y-86977455D01*
X65244500Y-85829543D01*
X65797285Y-85276759D01*
X65819283Y-85272383D01*
X65919286Y-85230961D01*
X66009286Y-85170825D01*
X66085825Y-85094286D01*
X66145961Y-85004286D01*
X66187383Y-84904283D01*
X66208500Y-84798121D01*
X66208500Y-84689879D01*
X66187383Y-84583717D01*
X66145961Y-84483714D01*
X66085825Y-84393714D01*
X66009286Y-84317175D01*
X65919286Y-84257039D01*
X65819283Y-84215617D01*
X65713121Y-84194500D01*
X65604879Y-84194500D01*
X65498717Y-84215617D01*
X65398714Y-84257039D01*
X65308714Y-84317175D01*
X65232175Y-84393714D01*
X65172039Y-84483714D01*
X65130617Y-84583717D01*
X65126241Y-84605715D01*
X64450962Y-85280995D01*
X64432855Y-85295855D01*
X64373559Y-85368107D01*
X64329499Y-85450539D01*
X64304134Y-85534153D01*
X64141598Y-85400762D01*
X63941903Y-85294023D01*
X63725221Y-85228293D01*
X63556342Y-85211660D01*
X63443418Y-85211660D01*
X63274539Y-85228293D01*
X63057857Y-85294023D01*
X62858162Y-85400762D01*
X62683129Y-85544409D01*
X62539482Y-85719442D01*
X62432743Y-85919137D01*
X62367013Y-86135819D01*
X62344819Y-86361160D01*
X62367013Y-86586501D01*
X62432743Y-86803183D01*
X62539482Y-87002878D01*
X62683129Y-87177911D01*
X62858162Y-87321558D01*
X63057857Y-87428297D01*
X63274539Y-87494027D01*
X63443418Y-87510660D01*
X63556342Y-87510660D01*
X63725221Y-87494027D01*
X63941903Y-87428297D01*
X64141598Y-87321558D01*
X64295500Y-87195253D01*
X64295500Y-88067067D01*
X64141598Y-87940762D01*
X63941903Y-87834023D01*
X63725221Y-87768293D01*
X63556342Y-87751660D01*
X63443418Y-87751660D01*
X63274539Y-87768293D01*
X63057857Y-87834023D01*
X62858162Y-87940762D01*
X62683129Y-88084409D01*
X62539482Y-88259442D01*
X62432743Y-88459137D01*
X62367013Y-88675819D01*
X62344819Y-88901160D01*
X62367013Y-89126501D01*
X62432743Y-89343183D01*
X62539482Y-89542878D01*
X62683129Y-89717911D01*
X62858162Y-89861558D01*
X63057857Y-89968297D01*
X63274539Y-90034027D01*
X63443418Y-90050660D01*
X63556342Y-90050660D01*
X63725221Y-90034027D01*
X63941903Y-89968297D01*
X64141598Y-89861558D01*
X64295500Y-89735253D01*
X64295500Y-90607067D01*
X64141598Y-90480762D01*
X63941903Y-90374023D01*
X63725221Y-90308293D01*
X63556342Y-90291660D01*
X63443418Y-90291660D01*
X63274539Y-90308293D01*
X63057857Y-90374023D01*
X62858162Y-90480762D01*
X62683129Y-90624409D01*
X62539482Y-90799442D01*
X62432743Y-90999137D01*
X62367013Y-91215819D01*
X62344819Y-91441160D01*
X62367013Y-91666501D01*
X62432743Y-91883183D01*
X62539482Y-92082878D01*
X62683129Y-92257911D01*
X62858162Y-92401558D01*
X63057857Y-92508297D01*
X63274539Y-92574027D01*
X63443418Y-92590660D01*
X63556342Y-92590660D01*
X63725221Y-92574027D01*
X63941903Y-92508297D01*
X64141598Y-92401558D01*
X64295500Y-92275253D01*
X64295500Y-93147067D01*
X64141598Y-93020762D01*
X63941903Y-92914023D01*
X63725221Y-92848293D01*
X63556342Y-92831660D01*
X63443418Y-92831660D01*
X63274539Y-92848293D01*
X63057857Y-92914023D01*
X62858162Y-93020762D01*
X62683129Y-93164409D01*
X62539482Y-93339442D01*
X62432743Y-93539137D01*
X62367013Y-93755819D01*
X62344819Y-93981160D01*
X62367013Y-94206501D01*
X62432743Y-94423183D01*
X62539482Y-94622878D01*
X62683129Y-94797911D01*
X62858162Y-94941558D01*
X63057857Y-95048297D01*
X63274539Y-95114027D01*
X63443418Y-95130660D01*
X63556342Y-95130660D01*
X63725221Y-95114027D01*
X63941903Y-95048297D01*
X64141598Y-94941558D01*
X64295501Y-94815252D01*
X64295501Y-95687068D01*
X64141598Y-95560762D01*
X63941903Y-95454023D01*
X63725221Y-95388293D01*
X63556342Y-95371660D01*
X63443418Y-95371660D01*
X63274539Y-95388293D01*
X63057857Y-95454023D01*
X62858162Y-95560762D01*
X62683129Y-95704409D01*
X62539482Y-95879442D01*
X62432743Y-96079137D01*
X62367013Y-96295819D01*
X62344819Y-96521160D01*
X62367013Y-96746501D01*
X62432743Y-96963183D01*
X62539482Y-97162878D01*
X62683129Y-97337911D01*
X62858162Y-97481558D01*
X63057857Y-97588297D01*
X63274539Y-97654027D01*
X63443418Y-97670660D01*
X63556342Y-97670660D01*
X63725221Y-97654027D01*
X63941903Y-97588297D01*
X64141598Y-97481558D01*
X64295501Y-97355252D01*
X64295501Y-98227068D01*
X64141598Y-98100762D01*
X63941903Y-97994023D01*
X63725221Y-97928293D01*
X63556342Y-97911660D01*
X63443418Y-97911660D01*
X63274539Y-97928293D01*
X63057857Y-97994023D01*
X62858162Y-98100762D01*
X62683129Y-98244409D01*
X62539482Y-98419442D01*
X62432743Y-98619137D01*
X62367013Y-98835819D01*
X62344819Y-99061160D01*
X62367013Y-99286501D01*
X62432743Y-99503183D01*
X62539482Y-99702878D01*
X62683129Y-99877911D01*
X62858162Y-100021558D01*
X63057857Y-100128297D01*
X63274539Y-100194027D01*
X63362378Y-100202678D01*
X63362378Y-100339430D01*
X63142272Y-100222272D01*
X62880136Y-100318533D01*
X62641816Y-100464084D01*
X62436471Y-100653333D01*
X62271992Y-100879006D01*
X62154700Y-101132431D01*
X62120998Y-101243553D01*
X62238980Y-101463660D01*
X63362380Y-101463660D01*
X63362380Y-101443660D01*
X63637380Y-101443660D01*
X63637380Y-101463660D01*
X63657380Y-101463660D01*
X63657380Y-101738660D01*
X63637380Y-101738660D01*
X63637380Y-102862889D01*
X63857488Y-102980048D01*
X64119624Y-102883787D01*
X64295501Y-102776372D01*
X64295501Y-103269390D01*
X64231286Y-103205175D01*
X64141286Y-103145039D01*
X64041283Y-103103617D01*
X63935121Y-103082500D01*
X63826879Y-103082500D01*
X63720717Y-103103617D01*
X63620714Y-103145039D01*
X63530714Y-103205175D01*
X63454175Y-103281714D01*
X63394039Y-103371714D01*
X63377559Y-103411500D01*
X61492935Y-103411500D01*
X61474286Y-103399039D01*
X61374283Y-103357617D01*
X61268121Y-103336500D01*
X61159879Y-103336500D01*
X61053717Y-103357617D01*
X60953714Y-103399039D01*
X60863714Y-103459175D01*
X60787175Y-103535714D01*
X60727039Y-103625714D01*
X60699500Y-103692200D01*
X60699500Y-101958767D01*
X62120998Y-101958767D01*
X62154700Y-102069889D01*
X62271992Y-102323314D01*
X62436471Y-102548987D01*
X62641816Y-102738236D01*
X62880136Y-102883787D01*
X63142272Y-102980048D01*
X63362380Y-102862889D01*
X63362380Y-101738660D01*
X62238980Y-101738660D01*
X62120998Y-101958767D01*
X60699500Y-101958767D01*
X60699500Y-83821160D01*
X62344819Y-83821160D01*
X62367013Y-84046501D01*
X62432743Y-84263183D01*
X62539482Y-84462878D01*
X62683129Y-84637911D01*
X62858162Y-84781558D01*
X63057857Y-84888297D01*
X63274539Y-84954027D01*
X63443418Y-84970660D01*
X63556342Y-84970660D01*
X63725221Y-84954027D01*
X63941903Y-84888297D01*
X64141598Y-84781558D01*
X64316631Y-84637911D01*
X64460278Y-84462878D01*
X64567017Y-84263183D01*
X64632747Y-84046501D01*
X64654941Y-83821160D01*
X82664819Y-83821160D01*
X82687013Y-84046501D01*
X82752743Y-84263183D01*
X82859482Y-84462878D01*
X83003129Y-84637911D01*
X83178162Y-84781558D01*
X83377857Y-84888297D01*
X83594539Y-84954027D01*
X83763418Y-84970660D01*
X83876342Y-84970660D01*
X84045221Y-84954027D01*
X84261903Y-84888297D01*
X84461598Y-84781558D01*
X84636631Y-84637911D01*
X84780278Y-84462878D01*
X84887017Y-84263183D01*
X84952747Y-84046501D01*
X84974941Y-83821160D01*
X84952747Y-83595819D01*
X84887017Y-83379137D01*
X84780278Y-83179442D01*
X84636631Y-83004409D01*
X84461598Y-82860762D01*
X84261903Y-82754023D01*
X84045221Y-82688293D01*
X83876342Y-82671660D01*
X83763418Y-82671660D01*
X83594539Y-82688293D01*
X83377857Y-82754023D01*
X83178162Y-82860762D01*
X83003129Y-83004409D01*
X82859482Y-83179442D01*
X82752743Y-83379137D01*
X82687013Y-83595819D01*
X82664819Y-83821160D01*
X64654941Y-83821160D01*
X64632747Y-83595819D01*
X64567017Y-83379137D01*
X64460278Y-83179442D01*
X64316631Y-83004409D01*
X64200036Y-82908721D01*
X71630733Y-82908721D01*
X71703779Y-83148487D01*
X71958374Y-83266465D01*
X72231094Y-83332507D01*
X72511459Y-83344074D01*
X72788692Y-83300724D01*
X73052142Y-83204120D01*
X73156221Y-83148487D01*
X73229267Y-82908721D01*
X72430000Y-82109454D01*
X71630733Y-82908721D01*
X64200036Y-82908721D01*
X64141598Y-82860762D01*
X63941903Y-82754023D01*
X63725221Y-82688293D01*
X63556342Y-82671660D01*
X63443418Y-82671660D01*
X63274539Y-82688293D01*
X63057857Y-82754023D01*
X62858162Y-82860762D01*
X62683129Y-83004409D01*
X62539482Y-83179442D01*
X62432743Y-83379137D01*
X62367013Y-83595819D01*
X62344819Y-83821160D01*
X60699500Y-83821160D01*
X60699500Y-81019500D01*
X71340043Y-81019500D01*
X71436277Y-81115734D01*
M02*
