G04 #@! TF.GenerationSoftware,KiCad,Pcbnew,(5.1.5)-3*
G04 #@! TF.CreationDate,2021-02-15T21:04:51-05:00*
G04 #@! TF.ProjectId,c128-sram,63313238-2d73-4726-916d-2e6b69636164,rev?*
G04 #@! TF.SameCoordinates,Original*
G04 #@! TF.FileFunction,Copper,L2,Bot*
G04 #@! TF.FilePolarity,Positive*
%FSLAX46Y46*%
G04 Gerber Fmt 4.6, Leading zero omitted, Abs format (unit mm)*
G04 Created by KiCad (PCBNEW (5.1.5)-3) date 2021-02-15 21:04:51*
%MOMM*%
%LPD*%
G04 APERTURE LIST*
%ADD10O,1.600000X1.600000*%
%ADD11C,1.600000*%
%ADD12C,0.100000*%
%ADD13R,1.700000X1.700000*%
%ADD14O,1.700000X1.700000*%
%ADD15R,1.200000X1.200000*%
%ADD16C,1.200000*%
%ADD17R,0.250000X0.750000*%
%ADD18C,0.400000*%
%ADD19C,0.800000*%
%ADD20C,0.454000*%
%ADD21C,0.250000*%
%ADD22C,0.233000*%
G04 APERTURE END LIST*
D10*
X83819880Y-83821160D03*
X83819880Y-86361160D03*
X83819880Y-88901160D03*
X83819880Y-91441160D03*
X83819880Y-93981160D03*
X83819880Y-96521160D03*
X83819880Y-99061160D03*
D11*
X86995000Y-110490000D03*
X86995000Y-112990000D03*
X74930000Y-81915000D03*
X72430000Y-81915000D03*
X86995000Y-94575000D03*
X86995000Y-92075000D03*
G04 #@! TA.AperFunction,SMDPad,CuDef*
D12*
G36*
X75834703Y-107650722D02*
G01*
X75849264Y-107652882D01*
X75863543Y-107656459D01*
X75877403Y-107661418D01*
X75890710Y-107667712D01*
X75903336Y-107675280D01*
X75915159Y-107684048D01*
X75926066Y-107693934D01*
X75935952Y-107704841D01*
X75944720Y-107716664D01*
X75952288Y-107729290D01*
X75958582Y-107742597D01*
X75963541Y-107756457D01*
X75967118Y-107770736D01*
X75969278Y-107785297D01*
X75970000Y-107800000D01*
X75970000Y-108100000D01*
X75969278Y-108114703D01*
X75967118Y-108129264D01*
X75963541Y-108143543D01*
X75958582Y-108157403D01*
X75952288Y-108170710D01*
X75944720Y-108183336D01*
X75935952Y-108195159D01*
X75926066Y-108206066D01*
X75915159Y-108215952D01*
X75903336Y-108224720D01*
X75890710Y-108232288D01*
X75877403Y-108238582D01*
X75863543Y-108243541D01*
X75849264Y-108247118D01*
X75834703Y-108249278D01*
X75820000Y-108250000D01*
X74170000Y-108250000D01*
X74155297Y-108249278D01*
X74140736Y-108247118D01*
X74126457Y-108243541D01*
X74112597Y-108238582D01*
X74099290Y-108232288D01*
X74086664Y-108224720D01*
X74074841Y-108215952D01*
X74063934Y-108206066D01*
X74054048Y-108195159D01*
X74045280Y-108183336D01*
X74037712Y-108170710D01*
X74031418Y-108157403D01*
X74026459Y-108143543D01*
X74022882Y-108129264D01*
X74020722Y-108114703D01*
X74020000Y-108100000D01*
X74020000Y-107800000D01*
X74020722Y-107785297D01*
X74022882Y-107770736D01*
X74026459Y-107756457D01*
X74031418Y-107742597D01*
X74037712Y-107729290D01*
X74045280Y-107716664D01*
X74054048Y-107704841D01*
X74063934Y-107693934D01*
X74074841Y-107684048D01*
X74086664Y-107675280D01*
X74099290Y-107667712D01*
X74112597Y-107661418D01*
X74126457Y-107656459D01*
X74140736Y-107652882D01*
X74155297Y-107650722D01*
X74170000Y-107650000D01*
X75820000Y-107650000D01*
X75834703Y-107650722D01*
G37*
G04 #@! TD.AperFunction*
G04 #@! TA.AperFunction,SMDPad,CuDef*
G36*
X75834703Y-106380722D02*
G01*
X75849264Y-106382882D01*
X75863543Y-106386459D01*
X75877403Y-106391418D01*
X75890710Y-106397712D01*
X75903336Y-106405280D01*
X75915159Y-106414048D01*
X75926066Y-106423934D01*
X75935952Y-106434841D01*
X75944720Y-106446664D01*
X75952288Y-106459290D01*
X75958582Y-106472597D01*
X75963541Y-106486457D01*
X75967118Y-106500736D01*
X75969278Y-106515297D01*
X75970000Y-106530000D01*
X75970000Y-106830000D01*
X75969278Y-106844703D01*
X75967118Y-106859264D01*
X75963541Y-106873543D01*
X75958582Y-106887403D01*
X75952288Y-106900710D01*
X75944720Y-106913336D01*
X75935952Y-106925159D01*
X75926066Y-106936066D01*
X75915159Y-106945952D01*
X75903336Y-106954720D01*
X75890710Y-106962288D01*
X75877403Y-106968582D01*
X75863543Y-106973541D01*
X75849264Y-106977118D01*
X75834703Y-106979278D01*
X75820000Y-106980000D01*
X74170000Y-106980000D01*
X74155297Y-106979278D01*
X74140736Y-106977118D01*
X74126457Y-106973541D01*
X74112597Y-106968582D01*
X74099290Y-106962288D01*
X74086664Y-106954720D01*
X74074841Y-106945952D01*
X74063934Y-106936066D01*
X74054048Y-106925159D01*
X74045280Y-106913336D01*
X74037712Y-106900710D01*
X74031418Y-106887403D01*
X74026459Y-106873543D01*
X74022882Y-106859264D01*
X74020722Y-106844703D01*
X74020000Y-106830000D01*
X74020000Y-106530000D01*
X74020722Y-106515297D01*
X74022882Y-106500736D01*
X74026459Y-106486457D01*
X74031418Y-106472597D01*
X74037712Y-106459290D01*
X74045280Y-106446664D01*
X74054048Y-106434841D01*
X74063934Y-106423934D01*
X74074841Y-106414048D01*
X74086664Y-106405280D01*
X74099290Y-106397712D01*
X74112597Y-106391418D01*
X74126457Y-106386459D01*
X74140736Y-106382882D01*
X74155297Y-106380722D01*
X74170000Y-106380000D01*
X75820000Y-106380000D01*
X75834703Y-106380722D01*
G37*
G04 #@! TD.AperFunction*
G04 #@! TA.AperFunction,SMDPad,CuDef*
G36*
X75834703Y-105110722D02*
G01*
X75849264Y-105112882D01*
X75863543Y-105116459D01*
X75877403Y-105121418D01*
X75890710Y-105127712D01*
X75903336Y-105135280D01*
X75915159Y-105144048D01*
X75926066Y-105153934D01*
X75935952Y-105164841D01*
X75944720Y-105176664D01*
X75952288Y-105189290D01*
X75958582Y-105202597D01*
X75963541Y-105216457D01*
X75967118Y-105230736D01*
X75969278Y-105245297D01*
X75970000Y-105260000D01*
X75970000Y-105560000D01*
X75969278Y-105574703D01*
X75967118Y-105589264D01*
X75963541Y-105603543D01*
X75958582Y-105617403D01*
X75952288Y-105630710D01*
X75944720Y-105643336D01*
X75935952Y-105655159D01*
X75926066Y-105666066D01*
X75915159Y-105675952D01*
X75903336Y-105684720D01*
X75890710Y-105692288D01*
X75877403Y-105698582D01*
X75863543Y-105703541D01*
X75849264Y-105707118D01*
X75834703Y-105709278D01*
X75820000Y-105710000D01*
X74170000Y-105710000D01*
X74155297Y-105709278D01*
X74140736Y-105707118D01*
X74126457Y-105703541D01*
X74112597Y-105698582D01*
X74099290Y-105692288D01*
X74086664Y-105684720D01*
X74074841Y-105675952D01*
X74063934Y-105666066D01*
X74054048Y-105655159D01*
X74045280Y-105643336D01*
X74037712Y-105630710D01*
X74031418Y-105617403D01*
X74026459Y-105603543D01*
X74022882Y-105589264D01*
X74020722Y-105574703D01*
X74020000Y-105560000D01*
X74020000Y-105260000D01*
X74020722Y-105245297D01*
X74022882Y-105230736D01*
X74026459Y-105216457D01*
X74031418Y-105202597D01*
X74037712Y-105189290D01*
X74045280Y-105176664D01*
X74054048Y-105164841D01*
X74063934Y-105153934D01*
X74074841Y-105144048D01*
X74086664Y-105135280D01*
X74099290Y-105127712D01*
X74112597Y-105121418D01*
X74126457Y-105116459D01*
X74140736Y-105112882D01*
X74155297Y-105110722D01*
X74170000Y-105110000D01*
X75820000Y-105110000D01*
X75834703Y-105110722D01*
G37*
G04 #@! TD.AperFunction*
G04 #@! TA.AperFunction,SMDPad,CuDef*
G36*
X75834703Y-103840722D02*
G01*
X75849264Y-103842882D01*
X75863543Y-103846459D01*
X75877403Y-103851418D01*
X75890710Y-103857712D01*
X75903336Y-103865280D01*
X75915159Y-103874048D01*
X75926066Y-103883934D01*
X75935952Y-103894841D01*
X75944720Y-103906664D01*
X75952288Y-103919290D01*
X75958582Y-103932597D01*
X75963541Y-103946457D01*
X75967118Y-103960736D01*
X75969278Y-103975297D01*
X75970000Y-103990000D01*
X75970000Y-104290000D01*
X75969278Y-104304703D01*
X75967118Y-104319264D01*
X75963541Y-104333543D01*
X75958582Y-104347403D01*
X75952288Y-104360710D01*
X75944720Y-104373336D01*
X75935952Y-104385159D01*
X75926066Y-104396066D01*
X75915159Y-104405952D01*
X75903336Y-104414720D01*
X75890710Y-104422288D01*
X75877403Y-104428582D01*
X75863543Y-104433541D01*
X75849264Y-104437118D01*
X75834703Y-104439278D01*
X75820000Y-104440000D01*
X74170000Y-104440000D01*
X74155297Y-104439278D01*
X74140736Y-104437118D01*
X74126457Y-104433541D01*
X74112597Y-104428582D01*
X74099290Y-104422288D01*
X74086664Y-104414720D01*
X74074841Y-104405952D01*
X74063934Y-104396066D01*
X74054048Y-104385159D01*
X74045280Y-104373336D01*
X74037712Y-104360710D01*
X74031418Y-104347403D01*
X74026459Y-104333543D01*
X74022882Y-104319264D01*
X74020722Y-104304703D01*
X74020000Y-104290000D01*
X74020000Y-103990000D01*
X74020722Y-103975297D01*
X74022882Y-103960736D01*
X74026459Y-103946457D01*
X74031418Y-103932597D01*
X74037712Y-103919290D01*
X74045280Y-103906664D01*
X74054048Y-103894841D01*
X74063934Y-103883934D01*
X74074841Y-103874048D01*
X74086664Y-103865280D01*
X74099290Y-103857712D01*
X74112597Y-103851418D01*
X74126457Y-103846459D01*
X74140736Y-103842882D01*
X74155297Y-103840722D01*
X74170000Y-103840000D01*
X75820000Y-103840000D01*
X75834703Y-103840722D01*
G37*
G04 #@! TD.AperFunction*
G04 #@! TA.AperFunction,SMDPad,CuDef*
G36*
X75834703Y-102570722D02*
G01*
X75849264Y-102572882D01*
X75863543Y-102576459D01*
X75877403Y-102581418D01*
X75890710Y-102587712D01*
X75903336Y-102595280D01*
X75915159Y-102604048D01*
X75926066Y-102613934D01*
X75935952Y-102624841D01*
X75944720Y-102636664D01*
X75952288Y-102649290D01*
X75958582Y-102662597D01*
X75963541Y-102676457D01*
X75967118Y-102690736D01*
X75969278Y-102705297D01*
X75970000Y-102720000D01*
X75970000Y-103020000D01*
X75969278Y-103034703D01*
X75967118Y-103049264D01*
X75963541Y-103063543D01*
X75958582Y-103077403D01*
X75952288Y-103090710D01*
X75944720Y-103103336D01*
X75935952Y-103115159D01*
X75926066Y-103126066D01*
X75915159Y-103135952D01*
X75903336Y-103144720D01*
X75890710Y-103152288D01*
X75877403Y-103158582D01*
X75863543Y-103163541D01*
X75849264Y-103167118D01*
X75834703Y-103169278D01*
X75820000Y-103170000D01*
X74170000Y-103170000D01*
X74155297Y-103169278D01*
X74140736Y-103167118D01*
X74126457Y-103163541D01*
X74112597Y-103158582D01*
X74099290Y-103152288D01*
X74086664Y-103144720D01*
X74074841Y-103135952D01*
X74063934Y-103126066D01*
X74054048Y-103115159D01*
X74045280Y-103103336D01*
X74037712Y-103090710D01*
X74031418Y-103077403D01*
X74026459Y-103063543D01*
X74022882Y-103049264D01*
X74020722Y-103034703D01*
X74020000Y-103020000D01*
X74020000Y-102720000D01*
X74020722Y-102705297D01*
X74022882Y-102690736D01*
X74026459Y-102676457D01*
X74031418Y-102662597D01*
X74037712Y-102649290D01*
X74045280Y-102636664D01*
X74054048Y-102624841D01*
X74063934Y-102613934D01*
X74074841Y-102604048D01*
X74086664Y-102595280D01*
X74099290Y-102587712D01*
X74112597Y-102581418D01*
X74126457Y-102576459D01*
X74140736Y-102572882D01*
X74155297Y-102570722D01*
X74170000Y-102570000D01*
X75820000Y-102570000D01*
X75834703Y-102570722D01*
G37*
G04 #@! TD.AperFunction*
G04 #@! TA.AperFunction,SMDPad,CuDef*
G36*
X75834703Y-101300722D02*
G01*
X75849264Y-101302882D01*
X75863543Y-101306459D01*
X75877403Y-101311418D01*
X75890710Y-101317712D01*
X75903336Y-101325280D01*
X75915159Y-101334048D01*
X75926066Y-101343934D01*
X75935952Y-101354841D01*
X75944720Y-101366664D01*
X75952288Y-101379290D01*
X75958582Y-101392597D01*
X75963541Y-101406457D01*
X75967118Y-101420736D01*
X75969278Y-101435297D01*
X75970000Y-101450000D01*
X75970000Y-101750000D01*
X75969278Y-101764703D01*
X75967118Y-101779264D01*
X75963541Y-101793543D01*
X75958582Y-101807403D01*
X75952288Y-101820710D01*
X75944720Y-101833336D01*
X75935952Y-101845159D01*
X75926066Y-101856066D01*
X75915159Y-101865952D01*
X75903336Y-101874720D01*
X75890710Y-101882288D01*
X75877403Y-101888582D01*
X75863543Y-101893541D01*
X75849264Y-101897118D01*
X75834703Y-101899278D01*
X75820000Y-101900000D01*
X74170000Y-101900000D01*
X74155297Y-101899278D01*
X74140736Y-101897118D01*
X74126457Y-101893541D01*
X74112597Y-101888582D01*
X74099290Y-101882288D01*
X74086664Y-101874720D01*
X74074841Y-101865952D01*
X74063934Y-101856066D01*
X74054048Y-101845159D01*
X74045280Y-101833336D01*
X74037712Y-101820710D01*
X74031418Y-101807403D01*
X74026459Y-101793543D01*
X74022882Y-101779264D01*
X74020722Y-101764703D01*
X74020000Y-101750000D01*
X74020000Y-101450000D01*
X74020722Y-101435297D01*
X74022882Y-101420736D01*
X74026459Y-101406457D01*
X74031418Y-101392597D01*
X74037712Y-101379290D01*
X74045280Y-101366664D01*
X74054048Y-101354841D01*
X74063934Y-101343934D01*
X74074841Y-101334048D01*
X74086664Y-101325280D01*
X74099290Y-101317712D01*
X74112597Y-101311418D01*
X74126457Y-101306459D01*
X74140736Y-101302882D01*
X74155297Y-101300722D01*
X74170000Y-101300000D01*
X75820000Y-101300000D01*
X75834703Y-101300722D01*
G37*
G04 #@! TD.AperFunction*
G04 #@! TA.AperFunction,SMDPad,CuDef*
G36*
X75834703Y-100030722D02*
G01*
X75849264Y-100032882D01*
X75863543Y-100036459D01*
X75877403Y-100041418D01*
X75890710Y-100047712D01*
X75903336Y-100055280D01*
X75915159Y-100064048D01*
X75926066Y-100073934D01*
X75935952Y-100084841D01*
X75944720Y-100096664D01*
X75952288Y-100109290D01*
X75958582Y-100122597D01*
X75963541Y-100136457D01*
X75967118Y-100150736D01*
X75969278Y-100165297D01*
X75970000Y-100180000D01*
X75970000Y-100480000D01*
X75969278Y-100494703D01*
X75967118Y-100509264D01*
X75963541Y-100523543D01*
X75958582Y-100537403D01*
X75952288Y-100550710D01*
X75944720Y-100563336D01*
X75935952Y-100575159D01*
X75926066Y-100586066D01*
X75915159Y-100595952D01*
X75903336Y-100604720D01*
X75890710Y-100612288D01*
X75877403Y-100618582D01*
X75863543Y-100623541D01*
X75849264Y-100627118D01*
X75834703Y-100629278D01*
X75820000Y-100630000D01*
X74170000Y-100630000D01*
X74155297Y-100629278D01*
X74140736Y-100627118D01*
X74126457Y-100623541D01*
X74112597Y-100618582D01*
X74099290Y-100612288D01*
X74086664Y-100604720D01*
X74074841Y-100595952D01*
X74063934Y-100586066D01*
X74054048Y-100575159D01*
X74045280Y-100563336D01*
X74037712Y-100550710D01*
X74031418Y-100537403D01*
X74026459Y-100523543D01*
X74022882Y-100509264D01*
X74020722Y-100494703D01*
X74020000Y-100480000D01*
X74020000Y-100180000D01*
X74020722Y-100165297D01*
X74022882Y-100150736D01*
X74026459Y-100136457D01*
X74031418Y-100122597D01*
X74037712Y-100109290D01*
X74045280Y-100096664D01*
X74054048Y-100084841D01*
X74063934Y-100073934D01*
X74074841Y-100064048D01*
X74086664Y-100055280D01*
X74099290Y-100047712D01*
X74112597Y-100041418D01*
X74126457Y-100036459D01*
X74140736Y-100032882D01*
X74155297Y-100030722D01*
X74170000Y-100030000D01*
X75820000Y-100030000D01*
X75834703Y-100030722D01*
G37*
G04 #@! TD.AperFunction*
G04 #@! TA.AperFunction,SMDPad,CuDef*
G36*
X80784703Y-100030722D02*
G01*
X80799264Y-100032882D01*
X80813543Y-100036459D01*
X80827403Y-100041418D01*
X80840710Y-100047712D01*
X80853336Y-100055280D01*
X80865159Y-100064048D01*
X80876066Y-100073934D01*
X80885952Y-100084841D01*
X80894720Y-100096664D01*
X80902288Y-100109290D01*
X80908582Y-100122597D01*
X80913541Y-100136457D01*
X80917118Y-100150736D01*
X80919278Y-100165297D01*
X80920000Y-100180000D01*
X80920000Y-100480000D01*
X80919278Y-100494703D01*
X80917118Y-100509264D01*
X80913541Y-100523543D01*
X80908582Y-100537403D01*
X80902288Y-100550710D01*
X80894720Y-100563336D01*
X80885952Y-100575159D01*
X80876066Y-100586066D01*
X80865159Y-100595952D01*
X80853336Y-100604720D01*
X80840710Y-100612288D01*
X80827403Y-100618582D01*
X80813543Y-100623541D01*
X80799264Y-100627118D01*
X80784703Y-100629278D01*
X80770000Y-100630000D01*
X79120000Y-100630000D01*
X79105297Y-100629278D01*
X79090736Y-100627118D01*
X79076457Y-100623541D01*
X79062597Y-100618582D01*
X79049290Y-100612288D01*
X79036664Y-100604720D01*
X79024841Y-100595952D01*
X79013934Y-100586066D01*
X79004048Y-100575159D01*
X78995280Y-100563336D01*
X78987712Y-100550710D01*
X78981418Y-100537403D01*
X78976459Y-100523543D01*
X78972882Y-100509264D01*
X78970722Y-100494703D01*
X78970000Y-100480000D01*
X78970000Y-100180000D01*
X78970722Y-100165297D01*
X78972882Y-100150736D01*
X78976459Y-100136457D01*
X78981418Y-100122597D01*
X78987712Y-100109290D01*
X78995280Y-100096664D01*
X79004048Y-100084841D01*
X79013934Y-100073934D01*
X79024841Y-100064048D01*
X79036664Y-100055280D01*
X79049290Y-100047712D01*
X79062597Y-100041418D01*
X79076457Y-100036459D01*
X79090736Y-100032882D01*
X79105297Y-100030722D01*
X79120000Y-100030000D01*
X80770000Y-100030000D01*
X80784703Y-100030722D01*
G37*
G04 #@! TD.AperFunction*
G04 #@! TA.AperFunction,SMDPad,CuDef*
G36*
X80784703Y-101300722D02*
G01*
X80799264Y-101302882D01*
X80813543Y-101306459D01*
X80827403Y-101311418D01*
X80840710Y-101317712D01*
X80853336Y-101325280D01*
X80865159Y-101334048D01*
X80876066Y-101343934D01*
X80885952Y-101354841D01*
X80894720Y-101366664D01*
X80902288Y-101379290D01*
X80908582Y-101392597D01*
X80913541Y-101406457D01*
X80917118Y-101420736D01*
X80919278Y-101435297D01*
X80920000Y-101450000D01*
X80920000Y-101750000D01*
X80919278Y-101764703D01*
X80917118Y-101779264D01*
X80913541Y-101793543D01*
X80908582Y-101807403D01*
X80902288Y-101820710D01*
X80894720Y-101833336D01*
X80885952Y-101845159D01*
X80876066Y-101856066D01*
X80865159Y-101865952D01*
X80853336Y-101874720D01*
X80840710Y-101882288D01*
X80827403Y-101888582D01*
X80813543Y-101893541D01*
X80799264Y-101897118D01*
X80784703Y-101899278D01*
X80770000Y-101900000D01*
X79120000Y-101900000D01*
X79105297Y-101899278D01*
X79090736Y-101897118D01*
X79076457Y-101893541D01*
X79062597Y-101888582D01*
X79049290Y-101882288D01*
X79036664Y-101874720D01*
X79024841Y-101865952D01*
X79013934Y-101856066D01*
X79004048Y-101845159D01*
X78995280Y-101833336D01*
X78987712Y-101820710D01*
X78981418Y-101807403D01*
X78976459Y-101793543D01*
X78972882Y-101779264D01*
X78970722Y-101764703D01*
X78970000Y-101750000D01*
X78970000Y-101450000D01*
X78970722Y-101435297D01*
X78972882Y-101420736D01*
X78976459Y-101406457D01*
X78981418Y-101392597D01*
X78987712Y-101379290D01*
X78995280Y-101366664D01*
X79004048Y-101354841D01*
X79013934Y-101343934D01*
X79024841Y-101334048D01*
X79036664Y-101325280D01*
X79049290Y-101317712D01*
X79062597Y-101311418D01*
X79076457Y-101306459D01*
X79090736Y-101302882D01*
X79105297Y-101300722D01*
X79120000Y-101300000D01*
X80770000Y-101300000D01*
X80784703Y-101300722D01*
G37*
G04 #@! TD.AperFunction*
G04 #@! TA.AperFunction,SMDPad,CuDef*
G36*
X80784703Y-102570722D02*
G01*
X80799264Y-102572882D01*
X80813543Y-102576459D01*
X80827403Y-102581418D01*
X80840710Y-102587712D01*
X80853336Y-102595280D01*
X80865159Y-102604048D01*
X80876066Y-102613934D01*
X80885952Y-102624841D01*
X80894720Y-102636664D01*
X80902288Y-102649290D01*
X80908582Y-102662597D01*
X80913541Y-102676457D01*
X80917118Y-102690736D01*
X80919278Y-102705297D01*
X80920000Y-102720000D01*
X80920000Y-103020000D01*
X80919278Y-103034703D01*
X80917118Y-103049264D01*
X80913541Y-103063543D01*
X80908582Y-103077403D01*
X80902288Y-103090710D01*
X80894720Y-103103336D01*
X80885952Y-103115159D01*
X80876066Y-103126066D01*
X80865159Y-103135952D01*
X80853336Y-103144720D01*
X80840710Y-103152288D01*
X80827403Y-103158582D01*
X80813543Y-103163541D01*
X80799264Y-103167118D01*
X80784703Y-103169278D01*
X80770000Y-103170000D01*
X79120000Y-103170000D01*
X79105297Y-103169278D01*
X79090736Y-103167118D01*
X79076457Y-103163541D01*
X79062597Y-103158582D01*
X79049290Y-103152288D01*
X79036664Y-103144720D01*
X79024841Y-103135952D01*
X79013934Y-103126066D01*
X79004048Y-103115159D01*
X78995280Y-103103336D01*
X78987712Y-103090710D01*
X78981418Y-103077403D01*
X78976459Y-103063543D01*
X78972882Y-103049264D01*
X78970722Y-103034703D01*
X78970000Y-103020000D01*
X78970000Y-102720000D01*
X78970722Y-102705297D01*
X78972882Y-102690736D01*
X78976459Y-102676457D01*
X78981418Y-102662597D01*
X78987712Y-102649290D01*
X78995280Y-102636664D01*
X79004048Y-102624841D01*
X79013934Y-102613934D01*
X79024841Y-102604048D01*
X79036664Y-102595280D01*
X79049290Y-102587712D01*
X79062597Y-102581418D01*
X79076457Y-102576459D01*
X79090736Y-102572882D01*
X79105297Y-102570722D01*
X79120000Y-102570000D01*
X80770000Y-102570000D01*
X80784703Y-102570722D01*
G37*
G04 #@! TD.AperFunction*
G04 #@! TA.AperFunction,SMDPad,CuDef*
G36*
X80784703Y-103840722D02*
G01*
X80799264Y-103842882D01*
X80813543Y-103846459D01*
X80827403Y-103851418D01*
X80840710Y-103857712D01*
X80853336Y-103865280D01*
X80865159Y-103874048D01*
X80876066Y-103883934D01*
X80885952Y-103894841D01*
X80894720Y-103906664D01*
X80902288Y-103919290D01*
X80908582Y-103932597D01*
X80913541Y-103946457D01*
X80917118Y-103960736D01*
X80919278Y-103975297D01*
X80920000Y-103990000D01*
X80920000Y-104290000D01*
X80919278Y-104304703D01*
X80917118Y-104319264D01*
X80913541Y-104333543D01*
X80908582Y-104347403D01*
X80902288Y-104360710D01*
X80894720Y-104373336D01*
X80885952Y-104385159D01*
X80876066Y-104396066D01*
X80865159Y-104405952D01*
X80853336Y-104414720D01*
X80840710Y-104422288D01*
X80827403Y-104428582D01*
X80813543Y-104433541D01*
X80799264Y-104437118D01*
X80784703Y-104439278D01*
X80770000Y-104440000D01*
X79120000Y-104440000D01*
X79105297Y-104439278D01*
X79090736Y-104437118D01*
X79076457Y-104433541D01*
X79062597Y-104428582D01*
X79049290Y-104422288D01*
X79036664Y-104414720D01*
X79024841Y-104405952D01*
X79013934Y-104396066D01*
X79004048Y-104385159D01*
X78995280Y-104373336D01*
X78987712Y-104360710D01*
X78981418Y-104347403D01*
X78976459Y-104333543D01*
X78972882Y-104319264D01*
X78970722Y-104304703D01*
X78970000Y-104290000D01*
X78970000Y-103990000D01*
X78970722Y-103975297D01*
X78972882Y-103960736D01*
X78976459Y-103946457D01*
X78981418Y-103932597D01*
X78987712Y-103919290D01*
X78995280Y-103906664D01*
X79004048Y-103894841D01*
X79013934Y-103883934D01*
X79024841Y-103874048D01*
X79036664Y-103865280D01*
X79049290Y-103857712D01*
X79062597Y-103851418D01*
X79076457Y-103846459D01*
X79090736Y-103842882D01*
X79105297Y-103840722D01*
X79120000Y-103840000D01*
X80770000Y-103840000D01*
X80784703Y-103840722D01*
G37*
G04 #@! TD.AperFunction*
G04 #@! TA.AperFunction,SMDPad,CuDef*
G36*
X80784703Y-105110722D02*
G01*
X80799264Y-105112882D01*
X80813543Y-105116459D01*
X80827403Y-105121418D01*
X80840710Y-105127712D01*
X80853336Y-105135280D01*
X80865159Y-105144048D01*
X80876066Y-105153934D01*
X80885952Y-105164841D01*
X80894720Y-105176664D01*
X80902288Y-105189290D01*
X80908582Y-105202597D01*
X80913541Y-105216457D01*
X80917118Y-105230736D01*
X80919278Y-105245297D01*
X80920000Y-105260000D01*
X80920000Y-105560000D01*
X80919278Y-105574703D01*
X80917118Y-105589264D01*
X80913541Y-105603543D01*
X80908582Y-105617403D01*
X80902288Y-105630710D01*
X80894720Y-105643336D01*
X80885952Y-105655159D01*
X80876066Y-105666066D01*
X80865159Y-105675952D01*
X80853336Y-105684720D01*
X80840710Y-105692288D01*
X80827403Y-105698582D01*
X80813543Y-105703541D01*
X80799264Y-105707118D01*
X80784703Y-105709278D01*
X80770000Y-105710000D01*
X79120000Y-105710000D01*
X79105297Y-105709278D01*
X79090736Y-105707118D01*
X79076457Y-105703541D01*
X79062597Y-105698582D01*
X79049290Y-105692288D01*
X79036664Y-105684720D01*
X79024841Y-105675952D01*
X79013934Y-105666066D01*
X79004048Y-105655159D01*
X78995280Y-105643336D01*
X78987712Y-105630710D01*
X78981418Y-105617403D01*
X78976459Y-105603543D01*
X78972882Y-105589264D01*
X78970722Y-105574703D01*
X78970000Y-105560000D01*
X78970000Y-105260000D01*
X78970722Y-105245297D01*
X78972882Y-105230736D01*
X78976459Y-105216457D01*
X78981418Y-105202597D01*
X78987712Y-105189290D01*
X78995280Y-105176664D01*
X79004048Y-105164841D01*
X79013934Y-105153934D01*
X79024841Y-105144048D01*
X79036664Y-105135280D01*
X79049290Y-105127712D01*
X79062597Y-105121418D01*
X79076457Y-105116459D01*
X79090736Y-105112882D01*
X79105297Y-105110722D01*
X79120000Y-105110000D01*
X80770000Y-105110000D01*
X80784703Y-105110722D01*
G37*
G04 #@! TD.AperFunction*
G04 #@! TA.AperFunction,SMDPad,CuDef*
G36*
X80784703Y-106380722D02*
G01*
X80799264Y-106382882D01*
X80813543Y-106386459D01*
X80827403Y-106391418D01*
X80840710Y-106397712D01*
X80853336Y-106405280D01*
X80865159Y-106414048D01*
X80876066Y-106423934D01*
X80885952Y-106434841D01*
X80894720Y-106446664D01*
X80902288Y-106459290D01*
X80908582Y-106472597D01*
X80913541Y-106486457D01*
X80917118Y-106500736D01*
X80919278Y-106515297D01*
X80920000Y-106530000D01*
X80920000Y-106830000D01*
X80919278Y-106844703D01*
X80917118Y-106859264D01*
X80913541Y-106873543D01*
X80908582Y-106887403D01*
X80902288Y-106900710D01*
X80894720Y-106913336D01*
X80885952Y-106925159D01*
X80876066Y-106936066D01*
X80865159Y-106945952D01*
X80853336Y-106954720D01*
X80840710Y-106962288D01*
X80827403Y-106968582D01*
X80813543Y-106973541D01*
X80799264Y-106977118D01*
X80784703Y-106979278D01*
X80770000Y-106980000D01*
X79120000Y-106980000D01*
X79105297Y-106979278D01*
X79090736Y-106977118D01*
X79076457Y-106973541D01*
X79062597Y-106968582D01*
X79049290Y-106962288D01*
X79036664Y-106954720D01*
X79024841Y-106945952D01*
X79013934Y-106936066D01*
X79004048Y-106925159D01*
X78995280Y-106913336D01*
X78987712Y-106900710D01*
X78981418Y-106887403D01*
X78976459Y-106873543D01*
X78972882Y-106859264D01*
X78970722Y-106844703D01*
X78970000Y-106830000D01*
X78970000Y-106530000D01*
X78970722Y-106515297D01*
X78972882Y-106500736D01*
X78976459Y-106486457D01*
X78981418Y-106472597D01*
X78987712Y-106459290D01*
X78995280Y-106446664D01*
X79004048Y-106434841D01*
X79013934Y-106423934D01*
X79024841Y-106414048D01*
X79036664Y-106405280D01*
X79049290Y-106397712D01*
X79062597Y-106391418D01*
X79076457Y-106386459D01*
X79090736Y-106382882D01*
X79105297Y-106380722D01*
X79120000Y-106380000D01*
X80770000Y-106380000D01*
X80784703Y-106380722D01*
G37*
G04 #@! TD.AperFunction*
G04 #@! TA.AperFunction,SMDPad,CuDef*
G36*
X80784703Y-107650722D02*
G01*
X80799264Y-107652882D01*
X80813543Y-107656459D01*
X80827403Y-107661418D01*
X80840710Y-107667712D01*
X80853336Y-107675280D01*
X80865159Y-107684048D01*
X80876066Y-107693934D01*
X80885952Y-107704841D01*
X80894720Y-107716664D01*
X80902288Y-107729290D01*
X80908582Y-107742597D01*
X80913541Y-107756457D01*
X80917118Y-107770736D01*
X80919278Y-107785297D01*
X80920000Y-107800000D01*
X80920000Y-108100000D01*
X80919278Y-108114703D01*
X80917118Y-108129264D01*
X80913541Y-108143543D01*
X80908582Y-108157403D01*
X80902288Y-108170710D01*
X80894720Y-108183336D01*
X80885952Y-108195159D01*
X80876066Y-108206066D01*
X80865159Y-108215952D01*
X80853336Y-108224720D01*
X80840710Y-108232288D01*
X80827403Y-108238582D01*
X80813543Y-108243541D01*
X80799264Y-108247118D01*
X80784703Y-108249278D01*
X80770000Y-108250000D01*
X79120000Y-108250000D01*
X79105297Y-108249278D01*
X79090736Y-108247118D01*
X79076457Y-108243541D01*
X79062597Y-108238582D01*
X79049290Y-108232288D01*
X79036664Y-108224720D01*
X79024841Y-108215952D01*
X79013934Y-108206066D01*
X79004048Y-108195159D01*
X78995280Y-108183336D01*
X78987712Y-108170710D01*
X78981418Y-108157403D01*
X78976459Y-108143543D01*
X78972882Y-108129264D01*
X78970722Y-108114703D01*
X78970000Y-108100000D01*
X78970000Y-107800000D01*
X78970722Y-107785297D01*
X78972882Y-107770736D01*
X78976459Y-107756457D01*
X78981418Y-107742597D01*
X78987712Y-107729290D01*
X78995280Y-107716664D01*
X79004048Y-107704841D01*
X79013934Y-107693934D01*
X79024841Y-107684048D01*
X79036664Y-107675280D01*
X79049290Y-107667712D01*
X79062597Y-107661418D01*
X79076457Y-107656459D01*
X79090736Y-107652882D01*
X79105297Y-107650722D01*
X79120000Y-107650000D01*
X80770000Y-107650000D01*
X80784703Y-107650722D01*
G37*
G04 #@! TD.AperFunction*
D13*
X77470000Y-114300000D03*
D14*
X80010000Y-114300000D03*
X82550000Y-114300000D03*
X69850000Y-114300000D03*
X67310000Y-114300000D03*
D13*
X64770000Y-114300000D03*
X73660000Y-114300000D03*
D10*
X63499880Y-83821160D03*
X71119880Y-99061160D03*
X63499880Y-86361160D03*
X63499880Y-88901160D03*
X63499880Y-91441160D03*
X63499880Y-93981160D03*
X63499880Y-96521160D03*
X63499880Y-99061160D03*
X63499880Y-101601160D03*
D15*
X86995000Y-84455000D03*
D16*
X86995000Y-86455000D03*
D17*
X67703000Y-104622000D03*
X68203000Y-104622000D03*
X68703000Y-104622000D03*
X69203000Y-104622000D03*
X69203000Y-107722000D03*
X68703000Y-107722000D03*
X68203000Y-107722000D03*
X67703000Y-107722000D03*
D18*
X72136000Y-108712000D03*
X67254001Y-107751999D03*
D19*
X68580000Y-103505000D03*
D18*
X61849000Y-110617000D03*
X83439000Y-102235000D03*
X84064010Y-101600000D03*
X85090000Y-103505000D03*
X81661000Y-103378000D03*
X81661000Y-105283000D03*
X84836000Y-106299000D03*
X77325999Y-107967001D03*
X78994000Y-97409000D03*
X81534000Y-97409000D03*
X76581000Y-107442000D03*
X78232000Y-106299000D03*
X61214000Y-103886000D03*
X67310000Y-89535000D03*
X63881000Y-103632000D03*
X67310000Y-91440000D03*
X66040000Y-87630000D03*
X82169000Y-95631000D03*
X71120000Y-86995000D03*
X65659000Y-84744000D03*
X65532000Y-104521000D03*
X73660000Y-85725000D03*
X70485000Y-85725000D03*
X66802000Y-104775000D03*
X67546500Y-92438500D03*
X68326000Y-98679000D03*
X66022999Y-103106999D03*
X66222998Y-97718998D03*
X74041000Y-111252000D03*
X75201001Y-109364001D03*
X73279000Y-111125000D03*
X74676000Y-109728000D03*
X72644000Y-111252000D03*
X74041000Y-109347000D03*
X72243841Y-97936159D03*
X66675000Y-108712000D03*
X72009000Y-101081650D03*
X85344000Y-107950000D03*
X84824000Y-107200000D03*
X82296000Y-109601000D03*
X82296000Y-112776000D03*
X81978500Y-109029500D03*
X81770999Y-112250999D03*
X81534000Y-108585000D03*
X78613000Y-111506000D03*
X68707000Y-106934000D03*
D20*
X81955000Y-107950000D02*
X86995000Y-112990000D01*
X79945000Y-107950000D02*
X81955000Y-107950000D01*
X79217990Y-108677010D02*
X79945000Y-107950000D01*
X72152010Y-108677010D02*
X79217990Y-108677010D01*
X88049000Y-84455000D02*
X86995000Y-84455000D01*
X88876011Y-85282011D02*
X88049000Y-84455000D01*
X88876011Y-111108989D02*
X88876011Y-85282011D01*
X86995000Y-112990000D02*
X88876011Y-111108989D01*
D21*
X67673001Y-107751999D02*
X67703000Y-107722000D01*
X67254001Y-107751999D02*
X67673001Y-107751999D01*
D20*
X68690000Y-103615000D02*
X68580000Y-103505000D01*
X71755000Y-100330000D02*
X74995000Y-100330000D01*
X68580000Y-103505000D02*
X71755000Y-100330000D01*
X85863630Y-94575000D02*
X86995000Y-94575000D01*
X85144471Y-95294159D02*
X85863630Y-94575000D01*
X87594999Y-87054999D02*
X86995000Y-86455000D01*
X88222001Y-87682001D02*
X87594999Y-87054999D01*
X88222001Y-93347999D02*
X88222001Y-87682001D01*
X86995000Y-94575000D02*
X88222001Y-93347999D01*
X86995000Y-110490000D02*
X86995000Y-94575000D01*
X85144471Y-97012531D02*
X85144471Y-95294159D01*
X84408841Y-97748161D02*
X85144471Y-97012531D01*
X83230919Y-97748161D02*
X84408841Y-97748161D01*
X82943079Y-98036001D02*
X83230919Y-97748161D01*
X77288999Y-98036001D02*
X82943079Y-98036001D01*
X74995000Y-100330000D02*
X77288999Y-98036001D01*
D21*
X69203000Y-104128000D02*
X69203000Y-104622000D01*
X68580000Y-103505000D02*
X69203000Y-104128000D01*
X73920000Y-104140000D02*
X74995000Y-104140000D01*
X73694990Y-103914990D02*
X73920000Y-104140000D01*
X73694990Y-102523242D02*
X73694990Y-103914990D01*
X73983232Y-102235000D02*
X73694990Y-102523242D01*
X83439000Y-102235000D02*
X73983232Y-102235000D01*
X74995000Y-105410000D02*
X74995000Y-104140000D01*
X79945000Y-101600000D02*
X84064010Y-101600000D01*
X74995000Y-101600000D02*
X79945000Y-101600000D01*
X80315710Y-105039290D02*
X81015710Y-105039290D01*
X79945000Y-105410000D02*
X80315710Y-105039290D01*
X81015710Y-105039290D02*
X82550000Y-103505000D01*
X82550000Y-103505000D02*
X85090000Y-103505000D01*
X85090000Y-103222158D02*
X85090000Y-103505000D01*
X85090000Y-101848988D02*
X85090000Y-103222158D01*
X83571012Y-100330000D02*
X85090000Y-101848988D01*
X79945000Y-100330000D02*
X83571012Y-100330000D01*
X80315710Y-103769290D02*
X81269710Y-103769290D01*
X79945000Y-104140000D02*
X80315710Y-103769290D01*
X81269710Y-103769290D02*
X81661000Y-103378000D01*
X81661000Y-105283000D02*
X83820000Y-105283000D01*
X83820000Y-105283000D02*
X84836000Y-106299000D01*
X76328999Y-107967001D02*
X77325999Y-107967001D01*
X74995000Y-107950000D02*
X76311998Y-107950000D01*
X76311998Y-107950000D02*
X76328999Y-107967001D01*
X78994000Y-97409000D02*
X81534000Y-97409000D01*
X74995000Y-102870000D02*
X76327000Y-102870000D01*
X78870000Y-102870000D02*
X79945000Y-102870000D01*
X78232000Y-103508000D02*
X78870000Y-102870000D01*
X78232000Y-106299000D02*
X78232000Y-103508000D01*
X78613000Y-106680000D02*
X78232000Y-106299000D01*
X79945000Y-106680000D02*
X78613000Y-106680000D01*
X78232000Y-103505000D02*
X77597000Y-102870000D01*
X78232000Y-103508000D02*
X78232000Y-103505000D01*
X76327000Y-102870000D02*
X77597000Y-102870000D01*
X77597000Y-102870000D02*
X79945000Y-102870000D01*
X75365710Y-107050710D02*
X76189710Y-107050710D01*
X74995000Y-106680000D02*
X75365710Y-107050710D01*
X76189710Y-107050710D02*
X76581000Y-107442000D01*
X73920000Y-106680000D02*
X74995000Y-106680000D01*
X70104000Y-106680000D02*
X73920000Y-106680000D01*
X68703000Y-104622000D02*
X68703000Y-105279000D01*
X68703000Y-105279000D02*
X70104000Y-106680000D01*
X67310000Y-89535000D02*
X67310000Y-91440000D01*
X63627000Y-103886000D02*
X63881000Y-103632000D01*
X61214000Y-103886000D02*
X63627000Y-103886000D01*
X82551160Y-88901160D02*
X83819880Y-88901160D01*
X81915000Y-88265000D02*
X82551160Y-88901160D01*
X71316998Y-88265000D02*
X81915000Y-88265000D01*
X70681998Y-87630000D02*
X71316998Y-88265000D01*
X66040000Y-87630000D02*
X70681998Y-87630000D01*
X83019881Y-90576157D02*
X82169000Y-91427038D01*
X83819880Y-88901160D02*
X83019881Y-89701159D01*
X83019881Y-89701159D02*
X83019881Y-90576157D01*
X82169000Y-91427038D02*
X82169000Y-95631000D01*
X83819880Y-86361160D02*
X76198840Y-86361160D01*
X76198840Y-86361160D02*
X75565000Y-86995000D01*
X75565000Y-86995000D02*
X71120000Y-86995000D01*
X64770000Y-103759000D02*
X65532000Y-104521000D01*
X65659000Y-84744000D02*
X64770000Y-85633000D01*
X64770000Y-85633000D02*
X64770000Y-103759000D01*
X70485000Y-85725000D02*
X73660000Y-85725000D01*
X65405000Y-103378000D02*
X66802000Y-104775000D01*
X65405000Y-87487998D02*
X65405000Y-103378000D01*
X70485000Y-85725000D02*
X67167998Y-85725000D01*
X67167998Y-85725000D02*
X65405000Y-87487998D01*
X67546500Y-92438500D02*
X66167000Y-93818000D01*
X66167000Y-93818000D02*
X66167000Y-95758000D01*
X66167000Y-95758000D02*
X66167000Y-96520000D01*
X66167000Y-96520000D02*
X68326000Y-98679000D01*
X66222998Y-102907000D02*
X66222998Y-97718998D01*
X66022999Y-103106999D02*
X66222998Y-102907000D01*
X75201001Y-110457997D02*
X75201001Y-109364001D01*
X74041000Y-111252000D02*
X74406998Y-111252000D01*
X74406998Y-111252000D02*
X75201001Y-110457997D01*
X73279000Y-111125000D02*
X74549000Y-109855000D01*
X74549000Y-109855000D02*
X74676000Y-109728000D01*
X72644000Y-110969158D02*
X74041000Y-109572158D01*
X72644000Y-111252000D02*
X72644000Y-110969158D01*
X74041000Y-109572158D02*
X74041000Y-109347000D01*
X73658840Y-96521160D02*
X83819880Y-96521160D01*
X72243841Y-97936159D02*
X73658840Y-96521160D01*
X67703000Y-104622000D02*
X67703000Y-106160000D01*
X67703000Y-106160000D02*
X66675000Y-107188000D01*
X66675000Y-107188000D02*
X66675000Y-108712000D01*
X66675000Y-108712000D02*
X66675000Y-108712000D01*
X72009000Y-101081650D02*
X72009000Y-105283000D01*
X72780990Y-106054990D02*
X76336990Y-106054990D01*
X72009000Y-105283000D02*
X72780990Y-106054990D01*
X77606990Y-107324990D02*
X82178990Y-107324990D01*
X76336990Y-106054990D02*
X77606990Y-107324990D01*
X82178990Y-107324990D02*
X82550000Y-107696000D01*
X82550000Y-107696000D02*
X84582000Y-107696000D01*
X84582000Y-107696000D02*
X84836000Y-107950000D01*
X84836000Y-107950000D02*
X85217000Y-107950000D01*
X85217000Y-107950000D02*
X85344000Y-107950000D01*
X84619879Y-99861159D02*
X83819880Y-99061160D01*
X85615001Y-100856281D02*
X84619879Y-99861159D01*
X85615001Y-106408999D02*
X85615001Y-100856281D01*
X84824000Y-107200000D02*
X85615001Y-106408999D01*
X82296000Y-109601000D02*
X82296000Y-112776000D01*
X81770999Y-109237001D02*
X81770999Y-112250999D01*
X81978500Y-109029500D02*
X81770999Y-109237001D01*
X81534000Y-108585000D02*
X81026000Y-109093000D01*
X81026000Y-109093000D02*
X78613000Y-111506000D01*
X72560000Y-114300000D02*
X73660000Y-114300000D01*
X72263000Y-114003000D02*
X72560000Y-114300000D01*
X68203000Y-105668000D02*
X69850000Y-107315000D01*
X68203000Y-104622000D02*
X68203000Y-105668000D01*
X69850000Y-107315000D02*
X69850000Y-111379000D01*
X72263000Y-113792000D02*
X72263000Y-114003000D01*
X69850000Y-111379000D02*
X72263000Y-113792000D01*
X68203000Y-107722000D02*
X69203000Y-107722000D01*
X68707000Y-107718000D02*
X68703000Y-107722000D01*
X68707000Y-106934000D02*
X68707000Y-107718000D01*
D22*
G36*
X71436277Y-81115734D02*
G01*
X71196513Y-81188779D01*
X71078535Y-81443374D01*
X71012493Y-81716094D01*
X71000926Y-81996459D01*
X71044276Y-82273692D01*
X71140880Y-82537142D01*
X71196513Y-82641221D01*
X71436279Y-82714267D01*
X72235546Y-81915000D01*
X72221404Y-81900858D01*
X72415858Y-81706404D01*
X72430000Y-81720546D01*
X72444143Y-81706404D01*
X72638597Y-81900858D01*
X72624454Y-81915000D01*
X73423721Y-82714267D01*
X73663487Y-82641221D01*
X73781465Y-82386626D01*
X73820077Y-82227180D01*
X73824675Y-82250297D01*
X73911326Y-82459492D01*
X74037125Y-82647764D01*
X74197236Y-82807875D01*
X74385508Y-82933674D01*
X74594703Y-83020325D01*
X74816784Y-83064500D01*
X75043216Y-83064500D01*
X75265297Y-83020325D01*
X75474492Y-82933674D01*
X75662764Y-82807875D01*
X75822875Y-82647764D01*
X75948674Y-82459492D01*
X76035325Y-82250297D01*
X76079500Y-82028216D01*
X76079500Y-81801784D01*
X76035325Y-81579703D01*
X75948674Y-81370508D01*
X75822875Y-81182236D01*
X75662764Y-81022125D01*
X75658835Y-81019500D01*
X90176500Y-81019500D01*
X90176501Y-115830500D01*
X60699500Y-115830500D01*
X60699500Y-113450000D01*
X63568809Y-113450000D01*
X63568809Y-115150000D01*
X63575557Y-115218514D01*
X63595542Y-115284395D01*
X63627995Y-115345111D01*
X63671670Y-115398330D01*
X63724889Y-115442005D01*
X63785605Y-115474458D01*
X63851486Y-115494443D01*
X63920000Y-115501191D01*
X65620000Y-115501191D01*
X65688514Y-115494443D01*
X65754395Y-115474458D01*
X65815111Y-115442005D01*
X65868330Y-115398330D01*
X65912005Y-115345111D01*
X65944458Y-115284395D01*
X65964443Y-115218514D01*
X65971191Y-115150000D01*
X65971191Y-114181860D01*
X66110500Y-114181860D01*
X66110500Y-114418140D01*
X66156596Y-114649881D01*
X66247017Y-114868176D01*
X66378287Y-115064637D01*
X66545363Y-115231713D01*
X66741824Y-115362983D01*
X66960119Y-115453404D01*
X67191860Y-115499500D01*
X67428140Y-115499500D01*
X67659881Y-115453404D01*
X67878176Y-115362983D01*
X68074637Y-115231713D01*
X68241713Y-115064637D01*
X68372983Y-114868176D01*
X68463404Y-114649881D01*
X68509500Y-114418140D01*
X68509500Y-114181860D01*
X68650500Y-114181860D01*
X68650500Y-114418140D01*
X68696596Y-114649881D01*
X68787017Y-114868176D01*
X68918287Y-115064637D01*
X69085363Y-115231713D01*
X69281824Y-115362983D01*
X69500119Y-115453404D01*
X69731860Y-115499500D01*
X69968140Y-115499500D01*
X70199881Y-115453404D01*
X70418176Y-115362983D01*
X70614637Y-115231713D01*
X70781713Y-115064637D01*
X70912983Y-114868176D01*
X71003404Y-114649881D01*
X71049500Y-114418140D01*
X71049500Y-114181860D01*
X71003404Y-113950119D01*
X70912983Y-113731824D01*
X70781713Y-113535363D01*
X70614637Y-113368287D01*
X70418176Y-113237017D01*
X70199881Y-113146596D01*
X69968140Y-113100500D01*
X69731860Y-113100500D01*
X69500119Y-113146596D01*
X69281824Y-113237017D01*
X69085363Y-113368287D01*
X68918287Y-113535363D01*
X68787017Y-113731824D01*
X68696596Y-113950119D01*
X68650500Y-114181860D01*
X68509500Y-114181860D01*
X68463404Y-113950119D01*
X68372983Y-113731824D01*
X68241713Y-113535363D01*
X68074637Y-113368287D01*
X67878176Y-113237017D01*
X67659881Y-113146596D01*
X67428140Y-113100500D01*
X67191860Y-113100500D01*
X66960119Y-113146596D01*
X66741824Y-113237017D01*
X66545363Y-113368287D01*
X66378287Y-113535363D01*
X66247017Y-113731824D01*
X66156596Y-113950119D01*
X66110500Y-114181860D01*
X65971191Y-114181860D01*
X65971191Y-113450000D01*
X65964443Y-113381486D01*
X65944458Y-113315605D01*
X65912005Y-113254889D01*
X65868330Y-113201670D01*
X65815111Y-113157995D01*
X65754395Y-113125542D01*
X65688514Y-113105557D01*
X65620000Y-113098809D01*
X63920000Y-113098809D01*
X63851486Y-113105557D01*
X63785605Y-113125542D01*
X63724889Y-113157995D01*
X63671670Y-113201670D01*
X63627995Y-113254889D01*
X63595542Y-113315605D01*
X63575557Y-113381486D01*
X63568809Y-113450000D01*
X60699500Y-113450000D01*
X60699500Y-104079800D01*
X60727039Y-104146286D01*
X60787175Y-104236286D01*
X60863714Y-104312825D01*
X60953714Y-104372961D01*
X61053717Y-104414383D01*
X61159879Y-104435500D01*
X61268121Y-104435500D01*
X61374283Y-104414383D01*
X61474286Y-104372961D01*
X61492935Y-104360500D01*
X63603700Y-104360500D01*
X63627000Y-104362795D01*
X63650300Y-104360500D01*
X63650303Y-104360500D01*
X63720018Y-104353634D01*
X63809462Y-104326501D01*
X63891893Y-104282441D01*
X63964145Y-104223145D01*
X63979006Y-104205037D01*
X64019284Y-104164759D01*
X64041283Y-104160383D01*
X64141286Y-104118961D01*
X64231286Y-104058825D01*
X64307825Y-103982286D01*
X64331990Y-103946121D01*
X64351058Y-103981795D01*
X64373560Y-104023893D01*
X64432856Y-104096145D01*
X64450958Y-104111001D01*
X64999242Y-104659286D01*
X65003617Y-104681283D01*
X65045039Y-104781286D01*
X65105175Y-104871286D01*
X65181714Y-104947825D01*
X65271714Y-105007961D01*
X65371717Y-105049383D01*
X65477879Y-105070500D01*
X65586121Y-105070500D01*
X65692283Y-105049383D01*
X65792286Y-105007961D01*
X65882286Y-104947825D01*
X65958825Y-104871286D01*
X66018961Y-104781286D01*
X66053604Y-104697648D01*
X66269241Y-104913285D01*
X66273617Y-104935283D01*
X66315039Y-105035286D01*
X66375175Y-105125286D01*
X66451714Y-105201825D01*
X66541714Y-105261961D01*
X66641717Y-105303383D01*
X66747879Y-105324500D01*
X66856121Y-105324500D01*
X66962283Y-105303383D01*
X67062286Y-105261961D01*
X67152286Y-105201825D01*
X67228500Y-105125611D01*
X67228501Y-105963454D01*
X66355962Y-106835995D01*
X66337855Y-106850855D01*
X66278559Y-106923107D01*
X66234499Y-107005539D01*
X66207366Y-107094983D01*
X66200500Y-107164697D01*
X66198205Y-107188000D01*
X66200500Y-107211300D01*
X66200501Y-108433064D01*
X66188039Y-108451714D01*
X66146617Y-108551717D01*
X66125500Y-108657879D01*
X66125500Y-108766121D01*
X66146617Y-108872283D01*
X66188039Y-108972286D01*
X66248175Y-109062286D01*
X66324714Y-109138825D01*
X66414714Y-109198961D01*
X66514717Y-109240383D01*
X66620879Y-109261500D01*
X66729121Y-109261500D01*
X66835283Y-109240383D01*
X66935286Y-109198961D01*
X67025286Y-109138825D01*
X67101825Y-109062286D01*
X67161961Y-108972286D01*
X67203383Y-108872283D01*
X67224500Y-108766121D01*
X67224500Y-108657879D01*
X67203383Y-108551717D01*
X67161961Y-108451714D01*
X67149500Y-108433065D01*
X67149500Y-108291478D01*
X67199880Y-108301499D01*
X67293699Y-108301499D01*
X67329670Y-108345330D01*
X67382889Y-108389005D01*
X67443605Y-108421458D01*
X67509486Y-108441443D01*
X67578000Y-108448191D01*
X67828000Y-108448191D01*
X67896514Y-108441443D01*
X67953000Y-108424308D01*
X68009486Y-108441443D01*
X68078000Y-108448191D01*
X68328000Y-108448191D01*
X68396514Y-108441443D01*
X68453000Y-108424308D01*
X68509486Y-108441443D01*
X68578000Y-108448191D01*
X68828000Y-108448191D01*
X68896514Y-108441443D01*
X68953000Y-108424308D01*
X69009486Y-108441443D01*
X69078000Y-108448191D01*
X69328000Y-108448191D01*
X69375500Y-108443513D01*
X69375501Y-111355690D01*
X69373205Y-111379000D01*
X69382367Y-111472018D01*
X69409499Y-111561461D01*
X69425101Y-111590650D01*
X69453560Y-111643893D01*
X69512856Y-111716145D01*
X69530958Y-111731001D01*
X71787707Y-113987751D01*
X71786205Y-114003000D01*
X71788500Y-114026300D01*
X71788500Y-114026303D01*
X71795366Y-114096018D01*
X71822499Y-114185462D01*
X71866560Y-114267893D01*
X71925856Y-114340145D01*
X71943958Y-114355001D01*
X72207994Y-114619037D01*
X72222855Y-114637145D01*
X72295107Y-114696441D01*
X72377538Y-114740501D01*
X72458809Y-114765155D01*
X72458809Y-115150000D01*
X72465557Y-115218514D01*
X72485542Y-115284395D01*
X72517995Y-115345111D01*
X72561670Y-115398330D01*
X72614889Y-115442005D01*
X72675605Y-115474458D01*
X72741486Y-115494443D01*
X72810000Y-115501191D01*
X74510000Y-115501191D01*
X74578514Y-115494443D01*
X74644395Y-115474458D01*
X74705111Y-115442005D01*
X74758330Y-115398330D01*
X74802005Y-115345111D01*
X74834458Y-115284395D01*
X74854443Y-115218514D01*
X74861191Y-115150000D01*
X74861191Y-113450000D01*
X76268809Y-113450000D01*
X76268809Y-115150000D01*
X76275557Y-115218514D01*
X76295542Y-115284395D01*
X76327995Y-115345111D01*
X76371670Y-115398330D01*
X76424889Y-115442005D01*
X76485605Y-115474458D01*
X76551486Y-115494443D01*
X76620000Y-115501191D01*
X78320000Y-115501191D01*
X78388514Y-115494443D01*
X78454395Y-115474458D01*
X78515111Y-115442005D01*
X78568330Y-115398330D01*
X78612005Y-115345111D01*
X78644458Y-115284395D01*
X78664443Y-115218514D01*
X78671191Y-115150000D01*
X78671191Y-114181860D01*
X78810500Y-114181860D01*
X78810500Y-114418140D01*
X78856596Y-114649881D01*
X78947017Y-114868176D01*
X79078287Y-115064637D01*
X79245363Y-115231713D01*
X79441824Y-115362983D01*
X79660119Y-115453404D01*
X79891860Y-115499500D01*
X80128140Y-115499500D01*
X80359881Y-115453404D01*
X80578176Y-115362983D01*
X80774637Y-115231713D01*
X80941713Y-115064637D01*
X81072983Y-114868176D01*
X81163404Y-114649881D01*
X81209500Y-114418140D01*
X81209500Y-114181860D01*
X81163404Y-113950119D01*
X81072983Y-113731824D01*
X80941713Y-113535363D01*
X80774637Y-113368287D01*
X80578176Y-113237017D01*
X80359881Y-113146596D01*
X80128140Y-113100500D01*
X79891860Y-113100500D01*
X79660119Y-113146596D01*
X79441824Y-113237017D01*
X79245363Y-113368287D01*
X79078287Y-113535363D01*
X78947017Y-113731824D01*
X78856596Y-113950119D01*
X78810500Y-114181860D01*
X78671191Y-114181860D01*
X78671191Y-113450000D01*
X78664443Y-113381486D01*
X78644458Y-113315605D01*
X78612005Y-113254889D01*
X78568330Y-113201670D01*
X78515111Y-113157995D01*
X78454395Y-113125542D01*
X78388514Y-113105557D01*
X78320000Y-113098809D01*
X76620000Y-113098809D01*
X76551486Y-113105557D01*
X76485605Y-113125542D01*
X76424889Y-113157995D01*
X76371670Y-113201670D01*
X76327995Y-113254889D01*
X76295542Y-113315605D01*
X76275557Y-113381486D01*
X76268809Y-113450000D01*
X74861191Y-113450000D01*
X74854443Y-113381486D01*
X74834458Y-113315605D01*
X74802005Y-113254889D01*
X74758330Y-113201670D01*
X74705111Y-113157995D01*
X74644395Y-113125542D01*
X74578514Y-113105557D01*
X74510000Y-113098809D01*
X72810000Y-113098809D01*
X72741486Y-113105557D01*
X72675605Y-113125542D01*
X72614889Y-113157995D01*
X72561670Y-113201670D01*
X72517995Y-113254889D01*
X72485542Y-113315605D01*
X72479050Y-113337006D01*
X70324500Y-111182457D01*
X70324500Y-107338300D01*
X70326795Y-107315000D01*
X70323517Y-107281717D01*
X70317634Y-107221982D01*
X70297163Y-107154500D01*
X73791069Y-107154500D01*
X73815604Y-107184396D01*
X73891553Y-107246725D01*
X73978203Y-107293040D01*
X74050594Y-107315000D01*
X73978203Y-107336960D01*
X73891553Y-107383275D01*
X73815604Y-107445604D01*
X73753275Y-107521553D01*
X73706960Y-107608203D01*
X73678439Y-107702222D01*
X73668809Y-107800000D01*
X73668809Y-108100000D01*
X73668859Y-108100510D01*
X72123693Y-108100510D01*
X72038996Y-108108852D01*
X71930326Y-108141817D01*
X71830174Y-108195349D01*
X71742391Y-108267391D01*
X71670349Y-108355174D01*
X71616817Y-108455326D01*
X71583852Y-108563996D01*
X71572721Y-108677010D01*
X71583852Y-108790024D01*
X71605354Y-108860905D01*
X71607617Y-108872283D01*
X71612057Y-108883002D01*
X71616817Y-108898694D01*
X71624546Y-108913155D01*
X71649039Y-108972286D01*
X71709175Y-109062286D01*
X71785714Y-109138825D01*
X71875714Y-109198961D01*
X71975717Y-109240383D01*
X72081879Y-109261500D01*
X72190121Y-109261500D01*
X72230289Y-109253510D01*
X73499331Y-109253510D01*
X73491500Y-109292879D01*
X73491500Y-109401121D01*
X73499711Y-109442403D01*
X72324958Y-110617157D01*
X72306856Y-110632013D01*
X72247560Y-110704265D01*
X72203499Y-110786696D01*
X72176366Y-110876140D01*
X72169827Y-110942539D01*
X72167205Y-110969158D01*
X72167835Y-110975556D01*
X72157039Y-110991714D01*
X72115617Y-111091717D01*
X72094500Y-111197879D01*
X72094500Y-111306121D01*
X72115617Y-111412283D01*
X72157039Y-111512286D01*
X72217175Y-111602286D01*
X72293714Y-111678825D01*
X72383714Y-111738961D01*
X72483717Y-111780383D01*
X72589879Y-111801500D01*
X72698121Y-111801500D01*
X72804283Y-111780383D01*
X72904286Y-111738961D01*
X72994286Y-111678825D01*
X73048721Y-111624390D01*
X73118717Y-111653383D01*
X73224879Y-111674500D01*
X73333121Y-111674500D01*
X73439283Y-111653383D01*
X73539286Y-111611961D01*
X73595529Y-111574381D01*
X73614175Y-111602286D01*
X73690714Y-111678825D01*
X73780714Y-111738961D01*
X73880717Y-111780383D01*
X73986879Y-111801500D01*
X74095121Y-111801500D01*
X74201283Y-111780383D01*
X74301286Y-111738961D01*
X74319935Y-111726500D01*
X74383698Y-111726500D01*
X74406998Y-111728795D01*
X74430298Y-111726500D01*
X74430301Y-111726500D01*
X74500016Y-111719634D01*
X74589460Y-111692501D01*
X74671891Y-111648441D01*
X74744143Y-111589145D01*
X74759003Y-111571038D01*
X75520049Y-110809994D01*
X75538146Y-110795142D01*
X75552997Y-110777046D01*
X75553001Y-110777042D01*
X75597441Y-110722891D01*
X75607397Y-110704265D01*
X75641502Y-110640459D01*
X75668635Y-110551015D01*
X75675501Y-110481300D01*
X75675501Y-110481297D01*
X75677796Y-110457997D01*
X75675501Y-110434697D01*
X75675501Y-109642936D01*
X75687962Y-109624287D01*
X75729384Y-109524284D01*
X75750501Y-109418122D01*
X75750501Y-109309880D01*
X75739288Y-109253510D01*
X79189681Y-109253510D01*
X79217990Y-109256298D01*
X79246299Y-109253510D01*
X79246307Y-109253510D01*
X79331004Y-109245168D01*
X79439674Y-109212203D01*
X79539826Y-109158671D01*
X79627609Y-109086629D01*
X79645664Y-109064629D01*
X80109103Y-108601191D01*
X80770000Y-108601191D01*
X80855152Y-108592804D01*
X80706960Y-108740997D01*
X80706955Y-108741001D01*
X78474716Y-110973241D01*
X78452717Y-110977617D01*
X78352714Y-111019039D01*
X78262714Y-111079175D01*
X78186175Y-111155714D01*
X78126039Y-111245714D01*
X78084617Y-111345717D01*
X78063500Y-111451879D01*
X78063500Y-111560121D01*
X78084617Y-111666283D01*
X78126039Y-111766286D01*
X78186175Y-111856286D01*
X78262714Y-111932825D01*
X78352714Y-111992961D01*
X78452717Y-112034383D01*
X78558879Y-112055500D01*
X78667121Y-112055500D01*
X78773283Y-112034383D01*
X78873286Y-111992961D01*
X78963286Y-111932825D01*
X79039825Y-111856286D01*
X79099961Y-111766286D01*
X79141383Y-111666283D01*
X79145759Y-111644284D01*
X81296499Y-109493545D01*
X81296500Y-111972062D01*
X81284038Y-111990713D01*
X81242616Y-112090716D01*
X81221499Y-112196878D01*
X81221499Y-112305120D01*
X81242616Y-112411282D01*
X81284038Y-112511285D01*
X81344174Y-112601285D01*
X81420713Y-112677824D01*
X81510713Y-112737960D01*
X81610716Y-112779382D01*
X81716878Y-112800499D01*
X81746500Y-112800499D01*
X81746500Y-112830121D01*
X81767617Y-112936283D01*
X81809039Y-113036286D01*
X81869175Y-113126286D01*
X81945714Y-113202825D01*
X81991122Y-113233166D01*
X81981824Y-113237017D01*
X81785363Y-113368287D01*
X81618287Y-113535363D01*
X81487017Y-113731824D01*
X81396596Y-113950119D01*
X81350500Y-114181860D01*
X81350500Y-114418140D01*
X81396596Y-114649881D01*
X81487017Y-114868176D01*
X81618287Y-115064637D01*
X81785363Y-115231713D01*
X81981824Y-115362983D01*
X82200119Y-115453404D01*
X82431860Y-115499500D01*
X82668140Y-115499500D01*
X82899881Y-115453404D01*
X83118176Y-115362983D01*
X83314637Y-115231713D01*
X83481713Y-115064637D01*
X83612983Y-114868176D01*
X83703404Y-114649881D01*
X83749500Y-114418140D01*
X83749500Y-114181860D01*
X83703404Y-113950119D01*
X83612983Y-113731824D01*
X83481713Y-113535363D01*
X83314637Y-113368287D01*
X83118176Y-113237017D01*
X82899881Y-113146596D01*
X82731618Y-113113126D01*
X82782961Y-113036286D01*
X82824383Y-112936283D01*
X82845500Y-112830121D01*
X82845500Y-112721879D01*
X82824383Y-112615717D01*
X82782961Y-112515714D01*
X82770500Y-112497065D01*
X82770500Y-109879935D01*
X82782961Y-109861286D01*
X82824383Y-109761283D01*
X82845388Y-109655682D01*
X85882165Y-112692459D01*
X85845500Y-112876784D01*
X85845500Y-113103216D01*
X85889675Y-113325297D01*
X85976326Y-113534492D01*
X86102125Y-113722764D01*
X86262236Y-113882875D01*
X86450508Y-114008674D01*
X86659703Y-114095325D01*
X86881784Y-114139500D01*
X87108216Y-114139500D01*
X87330297Y-114095325D01*
X87539492Y-114008674D01*
X87727764Y-113882875D01*
X87887875Y-113722764D01*
X88013674Y-113534492D01*
X88100325Y-113325297D01*
X88144500Y-113103216D01*
X88144500Y-112876784D01*
X88107835Y-112692459D01*
X89263642Y-111536653D01*
X89285630Y-111518608D01*
X89303676Y-111496619D01*
X89303681Y-111496614D01*
X89357672Y-111430825D01*
X89392536Y-111365598D01*
X89411204Y-111330673D01*
X89444169Y-111222003D01*
X89452511Y-111137306D01*
X89452511Y-111137297D01*
X89455299Y-111108990D01*
X89452511Y-111080683D01*
X89452511Y-85310319D01*
X89455299Y-85282010D01*
X89452511Y-85253701D01*
X89452511Y-85253694D01*
X89444169Y-85168997D01*
X89411204Y-85060327D01*
X89357672Y-84960175D01*
X89303681Y-84894386D01*
X89303676Y-84894381D01*
X89285630Y-84872392D01*
X89263641Y-84854346D01*
X88476674Y-84067381D01*
X88458619Y-84045381D01*
X88370836Y-83973339D01*
X88270684Y-83919807D01*
X88162014Y-83886842D01*
X88077317Y-83878500D01*
X88077309Y-83878500D01*
X88049000Y-83875712D01*
X88020691Y-83878500D01*
X87946191Y-83878500D01*
X87946191Y-83855000D01*
X87939443Y-83786486D01*
X87919458Y-83720605D01*
X87887005Y-83659889D01*
X87843330Y-83606670D01*
X87790111Y-83562995D01*
X87729395Y-83530542D01*
X87663514Y-83510557D01*
X87595000Y-83503809D01*
X86395000Y-83503809D01*
X86326486Y-83510557D01*
X86260605Y-83530542D01*
X86199889Y-83562995D01*
X86146670Y-83606670D01*
X86102995Y-83659889D01*
X86070542Y-83720605D01*
X86050557Y-83786486D01*
X86043809Y-83855000D01*
X86043809Y-85055000D01*
X86050557Y-85123514D01*
X86070542Y-85189395D01*
X86102995Y-85250111D01*
X86146670Y-85303330D01*
X86199889Y-85347005D01*
X86260605Y-85379458D01*
X86326486Y-85399443D01*
X86383095Y-85405018D01*
X86338830Y-85604376D01*
X86995000Y-86260546D01*
X87651170Y-85604376D01*
X87606905Y-85405018D01*
X87663514Y-85399443D01*
X87729395Y-85379458D01*
X87790111Y-85347005D01*
X87843330Y-85303330D01*
X87887005Y-85250111D01*
X87919458Y-85189395D01*
X87930780Y-85152073D01*
X88299512Y-85520807D01*
X88299512Y-93994833D01*
X88284120Y-93952858D01*
X88228487Y-93848779D01*
X87988721Y-93775733D01*
X87189454Y-94575000D01*
X87988721Y-95374267D01*
X88228487Y-95301221D01*
X88299512Y-95147951D01*
X88299511Y-109909831D01*
X88284120Y-109867858D01*
X88228487Y-109763779D01*
X87988721Y-109690733D01*
X87189454Y-110490000D01*
X87203597Y-110504143D01*
X87009143Y-110698597D01*
X86995000Y-110684454D01*
X86980858Y-110698597D01*
X86786404Y-110504143D01*
X86800546Y-110490000D01*
X86001279Y-109690733D01*
X85761513Y-109763779D01*
X85643535Y-110018374D01*
X85577493Y-110291094D01*
X85565926Y-110571459D01*
X85598209Y-110777915D01*
X84316573Y-109496279D01*
X86195733Y-109496279D01*
X86995000Y-110295546D01*
X87794267Y-109496279D01*
X87721221Y-109256513D01*
X87466626Y-109138535D01*
X87193906Y-109072493D01*
X86913541Y-109060926D01*
X86636308Y-109104276D01*
X86372858Y-109200880D01*
X86268779Y-109256513D01*
X86195733Y-109496279D01*
X84316573Y-109496279D01*
X82990793Y-108170500D01*
X84385457Y-108170500D01*
X84483994Y-108269037D01*
X84498855Y-108287145D01*
X84571107Y-108346441D01*
X84653538Y-108390501D01*
X84742982Y-108417634D01*
X84812697Y-108424500D01*
X84812706Y-108424500D01*
X84835999Y-108426794D01*
X84859292Y-108424500D01*
X85065065Y-108424500D01*
X85083714Y-108436961D01*
X85183717Y-108478383D01*
X85289879Y-108499500D01*
X85398121Y-108499500D01*
X85504283Y-108478383D01*
X85604286Y-108436961D01*
X85694286Y-108376825D01*
X85770825Y-108300286D01*
X85830961Y-108210286D01*
X85872383Y-108110283D01*
X85893500Y-108004121D01*
X85893500Y-107895879D01*
X85872383Y-107789717D01*
X85830961Y-107689714D01*
X85770825Y-107599714D01*
X85694286Y-107523175D01*
X85604286Y-107463039D01*
X85504283Y-107421617D01*
X85398121Y-107400500D01*
X85335725Y-107400500D01*
X85352383Y-107360283D01*
X85356759Y-107338284D01*
X85934044Y-106761000D01*
X85952146Y-106746144D01*
X86011442Y-106673892D01*
X86055502Y-106591461D01*
X86082635Y-106502017D01*
X86089501Y-106432302D01*
X86089501Y-106432293D01*
X86091795Y-106409000D01*
X86089501Y-106385707D01*
X86089501Y-100879580D01*
X86091796Y-100856280D01*
X86086020Y-100797634D01*
X86082635Y-100763263D01*
X86055502Y-100673819D01*
X86011442Y-100591388D01*
X85952146Y-100519136D01*
X85934044Y-100504280D01*
X84971882Y-99542119D01*
X84971878Y-99542114D01*
X84896213Y-99466449D01*
X84925205Y-99396457D01*
X84969380Y-99174376D01*
X84969380Y-98947944D01*
X84925205Y-98725863D01*
X84838554Y-98516668D01*
X84712755Y-98328396D01*
X84552644Y-98168285D01*
X84364372Y-98042486D01*
X84155177Y-97955835D01*
X83933096Y-97911660D01*
X83706664Y-97911660D01*
X83484583Y-97955835D01*
X83275388Y-98042486D01*
X83087116Y-98168285D01*
X82927005Y-98328396D01*
X82801206Y-98516668D01*
X82714555Y-98725863D01*
X82670380Y-98947944D01*
X82670380Y-99174376D01*
X82714555Y-99396457D01*
X82801206Y-99605652D01*
X82927005Y-99793924D01*
X82988581Y-99855500D01*
X81148931Y-99855500D01*
X81124396Y-99825604D01*
X81048447Y-99763275D01*
X80961797Y-99716960D01*
X80867778Y-99688439D01*
X80770000Y-99678809D01*
X79120000Y-99678809D01*
X79022222Y-99688439D01*
X78928203Y-99716960D01*
X78841553Y-99763275D01*
X78765604Y-99825604D01*
X78703275Y-99901553D01*
X78656960Y-99988203D01*
X78628439Y-100082222D01*
X78618809Y-100180000D01*
X78618809Y-100480000D01*
X78628439Y-100577778D01*
X78656960Y-100671797D01*
X78703275Y-100758447D01*
X78765604Y-100834396D01*
X78841553Y-100896725D01*
X78928203Y-100943040D01*
X79000594Y-100965000D01*
X78928203Y-100986960D01*
X78841553Y-101033275D01*
X78765604Y-101095604D01*
X78741069Y-101125500D01*
X76350637Y-101125500D01*
X76413725Y-101073725D01*
X76491765Y-100978633D01*
X76549755Y-100870142D01*
X76585464Y-100752423D01*
X76597522Y-100630000D01*
X76594500Y-100623625D01*
X76438375Y-100467500D01*
X75132500Y-100467500D01*
X75132500Y-100487500D01*
X74857500Y-100487500D01*
X74857500Y-100467500D01*
X73551625Y-100467500D01*
X73395500Y-100623625D01*
X73392478Y-100630000D01*
X73404536Y-100752423D01*
X73440245Y-100870142D01*
X73498235Y-100978633D01*
X73576275Y-101073725D01*
X73671367Y-101151765D01*
X73743300Y-101190214D01*
X73706960Y-101258203D01*
X73678439Y-101352222D01*
X73668809Y-101450000D01*
X73668809Y-101750000D01*
X73678439Y-101847778D01*
X73684153Y-101866615D01*
X73646087Y-101897855D01*
X73631230Y-101915958D01*
X73375952Y-102171237D01*
X73357845Y-102186097D01*
X73298549Y-102258349D01*
X73254489Y-102340781D01*
X73227356Y-102430225D01*
X73220495Y-102499893D01*
X73218195Y-102523242D01*
X73220490Y-102546543D01*
X73220491Y-103891680D01*
X73218195Y-103914990D01*
X73227357Y-104008008D01*
X73254489Y-104097451D01*
X73288127Y-104160383D01*
X73298550Y-104179883D01*
X73357846Y-104252135D01*
X73375948Y-104266991D01*
X73567994Y-104459037D01*
X73582855Y-104477145D01*
X73655107Y-104536441D01*
X73737538Y-104580501D01*
X73771663Y-104590853D01*
X73815604Y-104644396D01*
X73891553Y-104706725D01*
X73978203Y-104753040D01*
X74050594Y-104775000D01*
X73978203Y-104796960D01*
X73891553Y-104843275D01*
X73815604Y-104905604D01*
X73753275Y-104981553D01*
X73706960Y-105068203D01*
X73678439Y-105162222D01*
X73668809Y-105260000D01*
X73668809Y-105560000D01*
X73670827Y-105580490D01*
X72977535Y-105580490D01*
X72483500Y-105086457D01*
X72483500Y-101360585D01*
X72495961Y-101341936D01*
X72537383Y-101241933D01*
X72558500Y-101135771D01*
X72558500Y-101027529D01*
X72537383Y-100921367D01*
X72495961Y-100821364D01*
X72435825Y-100731364D01*
X72359286Y-100654825D01*
X72269286Y-100594689D01*
X72169283Y-100553267D01*
X72063121Y-100532150D01*
X71954879Y-100532150D01*
X71848717Y-100553267D01*
X71748714Y-100594689D01*
X71658714Y-100654825D01*
X71582175Y-100731364D01*
X71522039Y-100821364D01*
X71480617Y-100921367D01*
X71459500Y-101027529D01*
X71459500Y-101135771D01*
X71480617Y-101241933D01*
X71522039Y-101341936D01*
X71534500Y-101360585D01*
X71534501Y-105259690D01*
X71532205Y-105283000D01*
X71541367Y-105376018D01*
X71568499Y-105465461D01*
X71610422Y-105543893D01*
X71612560Y-105547893D01*
X71671856Y-105620145D01*
X71689958Y-105635001D01*
X72260456Y-106205500D01*
X70300544Y-106205500D01*
X69635563Y-105540520D01*
X69691523Y-105508502D01*
X69784327Y-105427754D01*
X69859595Y-105330452D01*
X69914434Y-105220336D01*
X69946737Y-105101637D01*
X69955261Y-104978917D01*
X69952500Y-104915625D01*
X69796375Y-104759500D01*
X69211500Y-104759500D01*
X69211500Y-104779500D01*
X69194500Y-104779500D01*
X69194500Y-104759500D01*
X69179191Y-104759500D01*
X69179191Y-104484500D01*
X69194500Y-104484500D01*
X69194500Y-103778625D01*
X69211500Y-103778625D01*
X69211500Y-104484500D01*
X69796375Y-104484500D01*
X69952500Y-104328375D01*
X69955261Y-104265083D01*
X69946737Y-104142363D01*
X69914434Y-104023664D01*
X69859595Y-103913548D01*
X69784327Y-103816246D01*
X69691523Y-103735498D01*
X69584749Y-103674406D01*
X69468108Y-103635319D01*
X69367625Y-103622500D01*
X69211500Y-103778625D01*
X69194500Y-103778625D01*
X69038375Y-103622500D01*
X68937892Y-103635319D01*
X68821251Y-103674406D01*
X68714477Y-103735498D01*
X68621673Y-103816246D01*
X68558653Y-103897715D01*
X68509486Y-103902557D01*
X68453000Y-103919692D01*
X68396514Y-103902557D01*
X68328000Y-103895809D01*
X68078000Y-103895809D01*
X68009486Y-103902557D01*
X67953000Y-103919692D01*
X67896514Y-103902557D01*
X67828000Y-103895809D01*
X67578000Y-103895809D01*
X67509486Y-103902557D01*
X67443605Y-103922542D01*
X67382889Y-103954995D01*
X67329670Y-103998670D01*
X67285995Y-104051889D01*
X67253542Y-104112605D01*
X67233557Y-104178486D01*
X67226809Y-104247000D01*
X67226809Y-104422698D01*
X67152286Y-104348175D01*
X67062286Y-104288039D01*
X66962283Y-104246617D01*
X66940285Y-104242241D01*
X66288511Y-103590468D01*
X66373285Y-103533824D01*
X66449824Y-103457285D01*
X66509960Y-103367285D01*
X66551382Y-103267282D01*
X66555173Y-103248224D01*
X66560143Y-103244145D01*
X66619439Y-103171893D01*
X66663499Y-103089462D01*
X66690632Y-103000018D01*
X66697498Y-102930303D01*
X66697498Y-102930294D01*
X66699792Y-102907001D01*
X66697498Y-102883708D01*
X66697498Y-97997933D01*
X66709959Y-97979284D01*
X66751381Y-97879281D01*
X66768612Y-97792655D01*
X67793241Y-98817285D01*
X67797617Y-98839283D01*
X67839039Y-98939286D01*
X67899175Y-99029286D01*
X67975714Y-99105825D01*
X68065714Y-99165961D01*
X68165717Y-99207383D01*
X68271879Y-99228500D01*
X68380121Y-99228500D01*
X68486283Y-99207383D01*
X68586286Y-99165961D01*
X68676286Y-99105825D01*
X68752825Y-99029286D01*
X68812961Y-98939286D01*
X68854383Y-98839283D01*
X68875500Y-98733121D01*
X68875500Y-98624879D01*
X68854383Y-98518717D01*
X68812961Y-98418714D01*
X68752825Y-98328714D01*
X68676286Y-98252175D01*
X68586286Y-98192039D01*
X68486283Y-98150617D01*
X68464285Y-98146241D01*
X66641500Y-96323457D01*
X66641500Y-94014543D01*
X67684786Y-92971258D01*
X67706783Y-92966883D01*
X67806786Y-92925461D01*
X67896786Y-92865325D01*
X67973325Y-92788786D01*
X68033461Y-92698786D01*
X68074883Y-92598783D01*
X68096000Y-92492621D01*
X68096000Y-92384379D01*
X68074883Y-92278217D01*
X68033461Y-92178214D01*
X67973325Y-92088214D01*
X67896786Y-92011675D01*
X67806786Y-91951539D01*
X67706783Y-91910117D01*
X67621025Y-91893059D01*
X67660286Y-91866825D01*
X67736825Y-91790286D01*
X67796961Y-91700286D01*
X67838383Y-91600283D01*
X67859500Y-91494121D01*
X67859500Y-91385879D01*
X67838383Y-91279717D01*
X67796961Y-91179714D01*
X67784500Y-91161065D01*
X67784500Y-89813935D01*
X67796961Y-89795286D01*
X67838383Y-89695283D01*
X67859500Y-89589121D01*
X67859500Y-89480879D01*
X67838383Y-89374717D01*
X67796961Y-89274714D01*
X67736825Y-89184714D01*
X67660286Y-89108175D01*
X67570286Y-89048039D01*
X67470283Y-89006617D01*
X67364121Y-88985500D01*
X67255879Y-88985500D01*
X67149717Y-89006617D01*
X67049714Y-89048039D01*
X66959714Y-89108175D01*
X66883175Y-89184714D01*
X66823039Y-89274714D01*
X66781617Y-89374717D01*
X66760500Y-89480879D01*
X66760500Y-89589121D01*
X66781617Y-89695283D01*
X66823039Y-89795286D01*
X66835500Y-89813935D01*
X66835501Y-91161064D01*
X66823039Y-91179714D01*
X66781617Y-91279717D01*
X66760500Y-91385879D01*
X66760500Y-91494121D01*
X66781617Y-91600283D01*
X66823039Y-91700286D01*
X66883175Y-91790286D01*
X66959714Y-91866825D01*
X67049714Y-91926961D01*
X67149717Y-91968383D01*
X67235475Y-91985441D01*
X67196214Y-92011675D01*
X67119675Y-92088214D01*
X67059539Y-92178214D01*
X67018117Y-92278217D01*
X67013742Y-92300214D01*
X65879500Y-93434457D01*
X65879500Y-88158293D01*
X65879717Y-88158383D01*
X65985879Y-88179500D01*
X66094121Y-88179500D01*
X66200283Y-88158383D01*
X66300286Y-88116961D01*
X66318935Y-88104500D01*
X70485455Y-88104500D01*
X70965001Y-88584048D01*
X70979853Y-88602145D01*
X70997949Y-88616996D01*
X70997953Y-88617000D01*
X71052104Y-88661441D01*
X71134536Y-88705501D01*
X71178040Y-88718698D01*
X71223979Y-88732634D01*
X71316998Y-88741795D01*
X71340301Y-88739500D01*
X81718457Y-88739500D01*
X82199159Y-89220203D01*
X82214015Y-89238305D01*
X82286267Y-89297601D01*
X82368698Y-89341661D01*
X82458142Y-89368794D01*
X82527857Y-89375660D01*
X82527866Y-89375660D01*
X82551159Y-89377954D01*
X82574452Y-89375660D01*
X82673178Y-89375660D01*
X82623440Y-89436266D01*
X82579380Y-89518698D01*
X82552247Y-89608142D01*
X82549708Y-89633924D01*
X82543086Y-89701159D01*
X82545381Y-89724460D01*
X82545382Y-90379612D01*
X81849962Y-91075033D01*
X81831855Y-91089893D01*
X81772559Y-91162145D01*
X81728499Y-91244577D01*
X81701366Y-91334021D01*
X81696259Y-91385879D01*
X81692205Y-91427038D01*
X81694500Y-91450338D01*
X81694501Y-95352063D01*
X81682039Y-95370714D01*
X81640617Y-95470717D01*
X81619500Y-95576879D01*
X81619500Y-95685121D01*
X81640617Y-95791283D01*
X81682039Y-95891286D01*
X81742175Y-95981286D01*
X81807549Y-96046660D01*
X73682140Y-96046660D01*
X73658840Y-96044365D01*
X73635540Y-96046660D01*
X73635537Y-96046660D01*
X73565822Y-96053526D01*
X73476378Y-96080659D01*
X73393947Y-96124719D01*
X73393945Y-96124720D01*
X73393946Y-96124720D01*
X73339795Y-96169160D01*
X73339791Y-96169164D01*
X73321695Y-96184015D01*
X73306843Y-96202112D01*
X72105556Y-97403400D01*
X72083558Y-97407776D01*
X71983555Y-97449198D01*
X71893555Y-97509334D01*
X71817016Y-97585873D01*
X71756880Y-97675873D01*
X71715458Y-97775876D01*
X71694341Y-97882038D01*
X71694341Y-97990280D01*
X71710911Y-98073582D01*
X71664372Y-98042486D01*
X71455177Y-97955835D01*
X71233096Y-97911660D01*
X71006664Y-97911660D01*
X70784583Y-97955835D01*
X70575388Y-98042486D01*
X70387116Y-98168285D01*
X70227005Y-98328396D01*
X70101206Y-98516668D01*
X70014555Y-98725863D01*
X69970380Y-98947944D01*
X69970380Y-99174376D01*
X70014555Y-99396457D01*
X70101206Y-99605652D01*
X70227005Y-99793924D01*
X70387116Y-99954035D01*
X70575388Y-100079834D01*
X70784583Y-100166485D01*
X71006664Y-100210660D01*
X71233096Y-100210660D01*
X71455177Y-100166485D01*
X71664372Y-100079834D01*
X71738954Y-100030000D01*
X73392478Y-100030000D01*
X73395500Y-100036375D01*
X73551625Y-100192500D01*
X74857500Y-100192500D01*
X74857500Y-99561625D01*
X75132500Y-99561625D01*
X75132500Y-100192500D01*
X76438375Y-100192500D01*
X76594500Y-100036375D01*
X76597522Y-100030000D01*
X76585464Y-99907577D01*
X76549755Y-99789858D01*
X76491765Y-99681367D01*
X76413725Y-99586275D01*
X76318633Y-99508235D01*
X76210142Y-99450245D01*
X76092423Y-99414536D01*
X75970000Y-99402478D01*
X75288625Y-99405500D01*
X75132500Y-99561625D01*
X74857500Y-99561625D01*
X74701375Y-99405500D01*
X74020000Y-99402478D01*
X73897577Y-99414536D01*
X73779858Y-99450245D01*
X73671367Y-99508235D01*
X73576275Y-99586275D01*
X73498235Y-99681367D01*
X73440245Y-99789858D01*
X73404536Y-99907577D01*
X73392478Y-100030000D01*
X71738954Y-100030000D01*
X71852644Y-99954035D01*
X72012755Y-99793924D01*
X72138554Y-99605652D01*
X72225205Y-99396457D01*
X72269380Y-99174376D01*
X72269380Y-98947944D01*
X72225205Y-98725863D01*
X72138554Y-98516668D01*
X72106816Y-98469168D01*
X72189720Y-98485659D01*
X72297962Y-98485659D01*
X72404124Y-98464542D01*
X72504127Y-98423120D01*
X72594127Y-98362984D01*
X72670666Y-98286445D01*
X72730802Y-98196445D01*
X72772224Y-98096442D01*
X72776600Y-98074444D01*
X73855385Y-96995660D01*
X78630229Y-96995660D01*
X78567175Y-97058714D01*
X78507039Y-97148714D01*
X78465617Y-97248717D01*
X78444500Y-97354879D01*
X78444500Y-97463121D01*
X78465617Y-97569283D01*
X78507039Y-97669286D01*
X78567175Y-97759286D01*
X78643714Y-97835825D01*
X78733714Y-97895961D01*
X78833717Y-97937383D01*
X78939879Y-97958500D01*
X79048121Y-97958500D01*
X79154283Y-97937383D01*
X79254286Y-97895961D01*
X79272935Y-97883500D01*
X81255065Y-97883500D01*
X81273714Y-97895961D01*
X81373717Y-97937383D01*
X81479879Y-97958500D01*
X81588121Y-97958500D01*
X81694283Y-97937383D01*
X81794286Y-97895961D01*
X81884286Y-97835825D01*
X81960825Y-97759286D01*
X82020961Y-97669286D01*
X82062383Y-97569283D01*
X82083500Y-97463121D01*
X82083500Y-97354879D01*
X82062383Y-97248717D01*
X82020961Y-97148714D01*
X81960825Y-97058714D01*
X81897771Y-96995660D01*
X82772215Y-96995660D01*
X82801206Y-97065652D01*
X82927005Y-97253924D01*
X83087116Y-97414035D01*
X83275388Y-97539834D01*
X83484583Y-97626485D01*
X83706664Y-97670660D01*
X83933096Y-97670660D01*
X84155177Y-97626485D01*
X84364372Y-97539834D01*
X84552644Y-97414035D01*
X84712755Y-97253924D01*
X84838554Y-97065652D01*
X84925205Y-96856457D01*
X84969380Y-96634376D01*
X84969380Y-96407944D01*
X84925205Y-96185863D01*
X84838554Y-95976668D01*
X84712755Y-95788396D01*
X84552644Y-95628285D01*
X84463500Y-95568721D01*
X86195733Y-95568721D01*
X86268779Y-95808487D01*
X86523374Y-95926465D01*
X86796094Y-95992507D01*
X87076459Y-96004074D01*
X87353692Y-95960724D01*
X87617142Y-95864120D01*
X87721221Y-95808487D01*
X87794267Y-95568721D01*
X86995000Y-94769454D01*
X86195733Y-95568721D01*
X84463500Y-95568721D01*
X84364372Y-95502486D01*
X84155177Y-95415835D01*
X83933096Y-95371660D01*
X83706664Y-95371660D01*
X83484583Y-95415835D01*
X83275388Y-95502486D01*
X83087116Y-95628285D01*
X82927005Y-95788396D01*
X82801206Y-95976668D01*
X82772215Y-96046660D01*
X82530451Y-96046660D01*
X82595825Y-95981286D01*
X82655961Y-95891286D01*
X82697383Y-95791283D01*
X82718500Y-95685121D01*
X82718500Y-95576879D01*
X82697383Y-95470717D01*
X82655961Y-95370714D01*
X82643500Y-95352065D01*
X82643500Y-93867944D01*
X82670380Y-93867944D01*
X82670380Y-94094376D01*
X82714555Y-94316457D01*
X82801206Y-94525652D01*
X82927005Y-94713924D01*
X83087116Y-94874035D01*
X83275388Y-94999834D01*
X83484583Y-95086485D01*
X83706664Y-95130660D01*
X83933096Y-95130660D01*
X84155177Y-95086485D01*
X84364372Y-94999834D01*
X84552644Y-94874035D01*
X84712755Y-94713924D01*
X84751151Y-94656459D01*
X85565926Y-94656459D01*
X85609276Y-94933692D01*
X85705880Y-95197142D01*
X85761513Y-95301221D01*
X86001279Y-95374267D01*
X86800546Y-94575000D01*
X86001279Y-93775733D01*
X85761513Y-93848779D01*
X85643535Y-94103374D01*
X85577493Y-94376094D01*
X85565926Y-94656459D01*
X84751151Y-94656459D01*
X84838554Y-94525652D01*
X84925205Y-94316457D01*
X84969380Y-94094376D01*
X84969380Y-93867944D01*
X84925205Y-93645863D01*
X84838554Y-93436668D01*
X84712755Y-93248396D01*
X84552644Y-93088285D01*
X84364372Y-92962486D01*
X84155177Y-92875835D01*
X83933096Y-92831660D01*
X83706664Y-92831660D01*
X83484583Y-92875835D01*
X83275388Y-92962486D01*
X83087116Y-93088285D01*
X82927005Y-93248396D01*
X82801206Y-93436668D01*
X82714555Y-93645863D01*
X82670380Y-93867944D01*
X82643500Y-93867944D01*
X82643500Y-91623581D01*
X82677402Y-91589679D01*
X82714555Y-91776457D01*
X82801206Y-91985652D01*
X82927005Y-92173924D01*
X83087116Y-92334035D01*
X83275388Y-92459834D01*
X83484583Y-92546485D01*
X83706664Y-92590660D01*
X83933096Y-92590660D01*
X84155177Y-92546485D01*
X84364372Y-92459834D01*
X84552644Y-92334035D01*
X84712755Y-92173924D01*
X84838554Y-91985652D01*
X84848440Y-91961784D01*
X85845500Y-91961784D01*
X85845500Y-92188216D01*
X85889675Y-92410297D01*
X85976326Y-92619492D01*
X86102125Y-92807764D01*
X86262236Y-92967875D01*
X86450508Y-93093674D01*
X86659703Y-93180325D01*
X86674601Y-93183288D01*
X86636308Y-93189276D01*
X86372858Y-93285880D01*
X86268779Y-93341513D01*
X86195733Y-93581279D01*
X86995000Y-94380546D01*
X87794267Y-93581279D01*
X87721221Y-93341513D01*
X87466626Y-93223535D01*
X87307180Y-93184923D01*
X87330297Y-93180325D01*
X87539492Y-93093674D01*
X87727764Y-92967875D01*
X87887875Y-92807764D01*
X88013674Y-92619492D01*
X88100325Y-92410297D01*
X88144500Y-92188216D01*
X88144500Y-91961784D01*
X88100325Y-91739703D01*
X88013674Y-91530508D01*
X87887875Y-91342236D01*
X87727764Y-91182125D01*
X87539492Y-91056326D01*
X87330297Y-90969675D01*
X87108216Y-90925500D01*
X86881784Y-90925500D01*
X86659703Y-90969675D01*
X86450508Y-91056326D01*
X86262236Y-91182125D01*
X86102125Y-91342236D01*
X85976326Y-91530508D01*
X85889675Y-91739703D01*
X85845500Y-91961784D01*
X84848440Y-91961784D01*
X84925205Y-91776457D01*
X84969380Y-91554376D01*
X84969380Y-91327944D01*
X84925205Y-91105863D01*
X84838554Y-90896668D01*
X84712755Y-90708396D01*
X84552644Y-90548285D01*
X84364372Y-90422486D01*
X84155177Y-90335835D01*
X83933096Y-90291660D01*
X83706664Y-90291660D01*
X83494381Y-90333886D01*
X83494381Y-90008434D01*
X83706664Y-90050660D01*
X83933096Y-90050660D01*
X84155177Y-90006485D01*
X84364372Y-89919834D01*
X84552644Y-89794035D01*
X84712755Y-89633924D01*
X84838554Y-89445652D01*
X84925205Y-89236457D01*
X84969380Y-89014376D01*
X84969380Y-88787944D01*
X84925205Y-88565863D01*
X84838554Y-88356668D01*
X84712755Y-88168396D01*
X84552644Y-88008285D01*
X84364372Y-87882486D01*
X84155177Y-87795835D01*
X83933096Y-87751660D01*
X83706664Y-87751660D01*
X83484583Y-87795835D01*
X83275388Y-87882486D01*
X83087116Y-88008285D01*
X82927005Y-88168396D01*
X82801206Y-88356668D01*
X82772215Y-88426660D01*
X82747704Y-88426660D01*
X82267005Y-87945962D01*
X82252145Y-87927855D01*
X82179893Y-87868559D01*
X82097462Y-87824499D01*
X82008018Y-87797366D01*
X81938303Y-87790500D01*
X81938300Y-87790500D01*
X81915000Y-87788205D01*
X81891700Y-87790500D01*
X71513543Y-87790500D01*
X71252042Y-87529000D01*
X71280283Y-87523383D01*
X71380286Y-87481961D01*
X71398935Y-87469500D01*
X75541700Y-87469500D01*
X75565000Y-87471795D01*
X75588300Y-87469500D01*
X75588303Y-87469500D01*
X75658018Y-87462634D01*
X75747462Y-87435501D01*
X75829893Y-87391441D01*
X75902145Y-87332145D01*
X75917005Y-87314038D01*
X76395384Y-86835660D01*
X82772215Y-86835660D01*
X82801206Y-86905652D01*
X82927005Y-87093924D01*
X83087116Y-87254035D01*
X83275388Y-87379834D01*
X83484583Y-87466485D01*
X83706664Y-87510660D01*
X83933096Y-87510660D01*
X84155177Y-87466485D01*
X84364372Y-87379834D01*
X84475435Y-87305624D01*
X86338830Y-87305624D01*
X86387544Y-87525020D01*
X86607967Y-87622969D01*
X86843263Y-87676034D01*
X87084390Y-87682175D01*
X87322083Y-87641155D01*
X87547206Y-87554553D01*
X87602456Y-87525020D01*
X87651170Y-87305624D01*
X86995000Y-86649454D01*
X86338830Y-87305624D01*
X84475435Y-87305624D01*
X84552644Y-87254035D01*
X84712755Y-87093924D01*
X84838554Y-86905652D01*
X84925205Y-86696457D01*
X84955453Y-86544390D01*
X85767825Y-86544390D01*
X85808845Y-86782083D01*
X85895447Y-87007206D01*
X85924980Y-87062456D01*
X86144376Y-87111170D01*
X86800546Y-86455000D01*
X87189454Y-86455000D01*
X87845624Y-87111170D01*
X88065020Y-87062456D01*
X88162969Y-86842033D01*
X88216034Y-86606737D01*
X88222175Y-86365610D01*
X88181155Y-86127917D01*
X88094553Y-85902794D01*
X88065020Y-85847544D01*
X87845624Y-85798830D01*
X87189454Y-86455000D01*
X86800546Y-86455000D01*
X86144376Y-85798830D01*
X85924980Y-85847544D01*
X85827031Y-86067967D01*
X85773966Y-86303263D01*
X85767825Y-86544390D01*
X84955453Y-86544390D01*
X84969380Y-86474376D01*
X84969380Y-86247944D01*
X84925205Y-86025863D01*
X84838554Y-85816668D01*
X84712755Y-85628396D01*
X84552644Y-85468285D01*
X84364372Y-85342486D01*
X84155177Y-85255835D01*
X83933096Y-85211660D01*
X83706664Y-85211660D01*
X83484583Y-85255835D01*
X83275388Y-85342486D01*
X83087116Y-85468285D01*
X82927005Y-85628396D01*
X82801206Y-85816668D01*
X82772215Y-85886660D01*
X76222132Y-85886660D01*
X76198839Y-85884366D01*
X76175546Y-85886660D01*
X76175537Y-85886660D01*
X76105822Y-85893526D01*
X76016378Y-85920659D01*
X75933947Y-85964719D01*
X75861695Y-86024015D01*
X75846839Y-86042117D01*
X75368457Y-86520500D01*
X71398935Y-86520500D01*
X71380286Y-86508039D01*
X71280283Y-86466617D01*
X71174121Y-86445500D01*
X71065879Y-86445500D01*
X70959717Y-86466617D01*
X70859714Y-86508039D01*
X70769714Y-86568175D01*
X70693175Y-86644714D01*
X70633039Y-86734714D01*
X70591617Y-86834717D01*
X70570500Y-86940879D01*
X70570500Y-87049121D01*
X70591617Y-87155283D01*
X70591707Y-87155500D01*
X66408542Y-87155500D01*
X67364543Y-86199500D01*
X70206065Y-86199500D01*
X70224714Y-86211961D01*
X70324717Y-86253383D01*
X70430879Y-86274500D01*
X70539121Y-86274500D01*
X70645283Y-86253383D01*
X70745286Y-86211961D01*
X70763935Y-86199500D01*
X73381065Y-86199500D01*
X73399714Y-86211961D01*
X73499717Y-86253383D01*
X73605879Y-86274500D01*
X73714121Y-86274500D01*
X73820283Y-86253383D01*
X73920286Y-86211961D01*
X74010286Y-86151825D01*
X74086825Y-86075286D01*
X74146961Y-85985286D01*
X74188383Y-85885283D01*
X74209500Y-85779121D01*
X74209500Y-85670879D01*
X74188383Y-85564717D01*
X74146961Y-85464714D01*
X74086825Y-85374714D01*
X74010286Y-85298175D01*
X73920286Y-85238039D01*
X73820283Y-85196617D01*
X73714121Y-85175500D01*
X73605879Y-85175500D01*
X73499717Y-85196617D01*
X73399714Y-85238039D01*
X73381065Y-85250500D01*
X70763935Y-85250500D01*
X70745286Y-85238039D01*
X70645283Y-85196617D01*
X70539121Y-85175500D01*
X70430879Y-85175500D01*
X70324717Y-85196617D01*
X70224714Y-85238039D01*
X70206065Y-85250500D01*
X67191298Y-85250500D01*
X67167998Y-85248205D01*
X67144698Y-85250500D01*
X67144695Y-85250500D01*
X67074980Y-85257366D01*
X66985536Y-85284499D01*
X66903104Y-85328559D01*
X66848953Y-85373000D01*
X66848949Y-85373004D01*
X66830853Y-85387855D01*
X66816001Y-85405952D01*
X65244500Y-86977455D01*
X65244500Y-85829543D01*
X65797285Y-85276759D01*
X65819283Y-85272383D01*
X65919286Y-85230961D01*
X66009286Y-85170825D01*
X66085825Y-85094286D01*
X66145961Y-85004286D01*
X66187383Y-84904283D01*
X66208500Y-84798121D01*
X66208500Y-84689879D01*
X66187383Y-84583717D01*
X66145961Y-84483714D01*
X66085825Y-84393714D01*
X66009286Y-84317175D01*
X65919286Y-84257039D01*
X65819283Y-84215617D01*
X65713121Y-84194500D01*
X65604879Y-84194500D01*
X65498717Y-84215617D01*
X65398714Y-84257039D01*
X65308714Y-84317175D01*
X65232175Y-84393714D01*
X65172039Y-84483714D01*
X65130617Y-84583717D01*
X65126241Y-84605715D01*
X64450962Y-85280995D01*
X64432855Y-85295855D01*
X64373559Y-85368107D01*
X64329499Y-85450539D01*
X64302826Y-85538467D01*
X64232644Y-85468285D01*
X64044372Y-85342486D01*
X63835177Y-85255835D01*
X63613096Y-85211660D01*
X63386664Y-85211660D01*
X63164583Y-85255835D01*
X62955388Y-85342486D01*
X62767116Y-85468285D01*
X62607005Y-85628396D01*
X62481206Y-85816668D01*
X62394555Y-86025863D01*
X62350380Y-86247944D01*
X62350380Y-86474376D01*
X62394555Y-86696457D01*
X62481206Y-86905652D01*
X62607005Y-87093924D01*
X62767116Y-87254035D01*
X62955388Y-87379834D01*
X63164583Y-87466485D01*
X63386664Y-87510660D01*
X63613096Y-87510660D01*
X63835177Y-87466485D01*
X64044372Y-87379834D01*
X64232644Y-87254035D01*
X64295500Y-87191179D01*
X64295500Y-88071141D01*
X64232644Y-88008285D01*
X64044372Y-87882486D01*
X63835177Y-87795835D01*
X63613096Y-87751660D01*
X63386664Y-87751660D01*
X63164583Y-87795835D01*
X62955388Y-87882486D01*
X62767116Y-88008285D01*
X62607005Y-88168396D01*
X62481206Y-88356668D01*
X62394555Y-88565863D01*
X62350380Y-88787944D01*
X62350380Y-89014376D01*
X62394555Y-89236457D01*
X62481206Y-89445652D01*
X62607005Y-89633924D01*
X62767116Y-89794035D01*
X62955388Y-89919834D01*
X63164583Y-90006485D01*
X63386664Y-90050660D01*
X63613096Y-90050660D01*
X63835177Y-90006485D01*
X64044372Y-89919834D01*
X64232644Y-89794035D01*
X64295500Y-89731179D01*
X64295500Y-90611141D01*
X64232644Y-90548285D01*
X64044372Y-90422486D01*
X63835177Y-90335835D01*
X63613096Y-90291660D01*
X63386664Y-90291660D01*
X63164583Y-90335835D01*
X62955388Y-90422486D01*
X62767116Y-90548285D01*
X62607005Y-90708396D01*
X62481206Y-90896668D01*
X62394555Y-91105863D01*
X62350380Y-91327944D01*
X62350380Y-91554376D01*
X62394555Y-91776457D01*
X62481206Y-91985652D01*
X62607005Y-92173924D01*
X62767116Y-92334035D01*
X62955388Y-92459834D01*
X63164583Y-92546485D01*
X63386664Y-92590660D01*
X63613096Y-92590660D01*
X63835177Y-92546485D01*
X64044372Y-92459834D01*
X64232644Y-92334035D01*
X64295500Y-92271179D01*
X64295500Y-93151141D01*
X64232644Y-93088285D01*
X64044372Y-92962486D01*
X63835177Y-92875835D01*
X63613096Y-92831660D01*
X63386664Y-92831660D01*
X63164583Y-92875835D01*
X62955388Y-92962486D01*
X62767116Y-93088285D01*
X62607005Y-93248396D01*
X62481206Y-93436668D01*
X62394555Y-93645863D01*
X62350380Y-93867944D01*
X62350380Y-94094376D01*
X62394555Y-94316457D01*
X62481206Y-94525652D01*
X62607005Y-94713924D01*
X62767116Y-94874035D01*
X62955388Y-94999834D01*
X63164583Y-95086485D01*
X63386664Y-95130660D01*
X63613096Y-95130660D01*
X63835177Y-95086485D01*
X64044372Y-94999834D01*
X64232644Y-94874035D01*
X64295501Y-94811178D01*
X64295501Y-95691142D01*
X64232644Y-95628285D01*
X64044372Y-95502486D01*
X63835177Y-95415835D01*
X63613096Y-95371660D01*
X63386664Y-95371660D01*
X63164583Y-95415835D01*
X62955388Y-95502486D01*
X62767116Y-95628285D01*
X62607005Y-95788396D01*
X62481206Y-95976668D01*
X62394555Y-96185863D01*
X62350380Y-96407944D01*
X62350380Y-96634376D01*
X62394555Y-96856457D01*
X62481206Y-97065652D01*
X62607005Y-97253924D01*
X62767116Y-97414035D01*
X62955388Y-97539834D01*
X63164583Y-97626485D01*
X63386664Y-97670660D01*
X63613096Y-97670660D01*
X63835177Y-97626485D01*
X64044372Y-97539834D01*
X64232644Y-97414035D01*
X64295501Y-97351178D01*
X64295501Y-98231142D01*
X64232644Y-98168285D01*
X64044372Y-98042486D01*
X63835177Y-97955835D01*
X63613096Y-97911660D01*
X63386664Y-97911660D01*
X63164583Y-97955835D01*
X62955388Y-98042486D01*
X62767116Y-98168285D01*
X62607005Y-98328396D01*
X62481206Y-98516668D01*
X62394555Y-98725863D01*
X62350380Y-98947944D01*
X62350380Y-99174376D01*
X62394555Y-99396457D01*
X62481206Y-99605652D01*
X62607005Y-99793924D01*
X62767116Y-99954035D01*
X62955388Y-100079834D01*
X63164583Y-100166485D01*
X63362378Y-100205829D01*
X63362378Y-100339430D01*
X63142272Y-100222272D01*
X62880136Y-100318533D01*
X62641816Y-100464084D01*
X62436471Y-100653333D01*
X62271992Y-100879006D01*
X62154700Y-101132431D01*
X62120998Y-101243553D01*
X62238980Y-101463660D01*
X63362380Y-101463660D01*
X63362380Y-101443660D01*
X63637380Y-101443660D01*
X63637380Y-101463660D01*
X63657380Y-101463660D01*
X63657380Y-101738660D01*
X63637380Y-101738660D01*
X63637380Y-102862889D01*
X63857488Y-102980048D01*
X64119624Y-102883787D01*
X64295501Y-102776372D01*
X64295501Y-103269390D01*
X64231286Y-103205175D01*
X64141286Y-103145039D01*
X64041283Y-103103617D01*
X63935121Y-103082500D01*
X63826879Y-103082500D01*
X63720717Y-103103617D01*
X63620714Y-103145039D01*
X63530714Y-103205175D01*
X63454175Y-103281714D01*
X63394039Y-103371714D01*
X63377559Y-103411500D01*
X61492935Y-103411500D01*
X61474286Y-103399039D01*
X61374283Y-103357617D01*
X61268121Y-103336500D01*
X61159879Y-103336500D01*
X61053717Y-103357617D01*
X60953714Y-103399039D01*
X60863714Y-103459175D01*
X60787175Y-103535714D01*
X60727039Y-103625714D01*
X60699500Y-103692200D01*
X60699500Y-101958767D01*
X62120998Y-101958767D01*
X62154700Y-102069889D01*
X62271992Y-102323314D01*
X62436471Y-102548987D01*
X62641816Y-102738236D01*
X62880136Y-102883787D01*
X63142272Y-102980048D01*
X63362380Y-102862889D01*
X63362380Y-101738660D01*
X62238980Y-101738660D01*
X62120998Y-101958767D01*
X60699500Y-101958767D01*
X60699500Y-83707944D01*
X62350380Y-83707944D01*
X62350380Y-83934376D01*
X62394555Y-84156457D01*
X62481206Y-84365652D01*
X62607005Y-84553924D01*
X62767116Y-84714035D01*
X62955388Y-84839834D01*
X63164583Y-84926485D01*
X63386664Y-84970660D01*
X63613096Y-84970660D01*
X63835177Y-84926485D01*
X64044372Y-84839834D01*
X64232644Y-84714035D01*
X64392755Y-84553924D01*
X64518554Y-84365652D01*
X64605205Y-84156457D01*
X64649380Y-83934376D01*
X64649380Y-83707944D01*
X82670380Y-83707944D01*
X82670380Y-83934376D01*
X82714555Y-84156457D01*
X82801206Y-84365652D01*
X82927005Y-84553924D01*
X83087116Y-84714035D01*
X83275388Y-84839834D01*
X83484583Y-84926485D01*
X83706664Y-84970660D01*
X83933096Y-84970660D01*
X84155177Y-84926485D01*
X84364372Y-84839834D01*
X84552644Y-84714035D01*
X84712755Y-84553924D01*
X84838554Y-84365652D01*
X84925205Y-84156457D01*
X84969380Y-83934376D01*
X84969380Y-83707944D01*
X84925205Y-83485863D01*
X84838554Y-83276668D01*
X84712755Y-83088396D01*
X84552644Y-82928285D01*
X84364372Y-82802486D01*
X84155177Y-82715835D01*
X83933096Y-82671660D01*
X83706664Y-82671660D01*
X83484583Y-82715835D01*
X83275388Y-82802486D01*
X83087116Y-82928285D01*
X82927005Y-83088396D01*
X82801206Y-83276668D01*
X82714555Y-83485863D01*
X82670380Y-83707944D01*
X64649380Y-83707944D01*
X64605205Y-83485863D01*
X64518554Y-83276668D01*
X64392755Y-83088396D01*
X64232644Y-82928285D01*
X64203365Y-82908721D01*
X71630733Y-82908721D01*
X71703779Y-83148487D01*
X71958374Y-83266465D01*
X72231094Y-83332507D01*
X72511459Y-83344074D01*
X72788692Y-83300724D01*
X73052142Y-83204120D01*
X73156221Y-83148487D01*
X73229267Y-82908721D01*
X72430000Y-82109454D01*
X71630733Y-82908721D01*
X64203365Y-82908721D01*
X64044372Y-82802486D01*
X63835177Y-82715835D01*
X63613096Y-82671660D01*
X63386664Y-82671660D01*
X63164583Y-82715835D01*
X62955388Y-82802486D01*
X62767116Y-82928285D01*
X62607005Y-83088396D01*
X62481206Y-83276668D01*
X62394555Y-83485863D01*
X62350380Y-83707944D01*
X60699500Y-83707944D01*
X60699500Y-81019500D01*
X71340043Y-81019500D01*
X71436277Y-81115734D01*
G37*
X71436277Y-81115734D02*
X71196513Y-81188779D01*
X71078535Y-81443374D01*
X71012493Y-81716094D01*
X71000926Y-81996459D01*
X71044276Y-82273692D01*
X71140880Y-82537142D01*
X71196513Y-82641221D01*
X71436279Y-82714267D01*
X72235546Y-81915000D01*
X72221404Y-81900858D01*
X72415858Y-81706404D01*
X72430000Y-81720546D01*
X72444143Y-81706404D01*
X72638597Y-81900858D01*
X72624454Y-81915000D01*
X73423721Y-82714267D01*
X73663487Y-82641221D01*
X73781465Y-82386626D01*
X73820077Y-82227180D01*
X73824675Y-82250297D01*
X73911326Y-82459492D01*
X74037125Y-82647764D01*
X74197236Y-82807875D01*
X74385508Y-82933674D01*
X74594703Y-83020325D01*
X74816784Y-83064500D01*
X75043216Y-83064500D01*
X75265297Y-83020325D01*
X75474492Y-82933674D01*
X75662764Y-82807875D01*
X75822875Y-82647764D01*
X75948674Y-82459492D01*
X76035325Y-82250297D01*
X76079500Y-82028216D01*
X76079500Y-81801784D01*
X76035325Y-81579703D01*
X75948674Y-81370508D01*
X75822875Y-81182236D01*
X75662764Y-81022125D01*
X75658835Y-81019500D01*
X90176500Y-81019500D01*
X90176501Y-115830500D01*
X60699500Y-115830500D01*
X60699500Y-113450000D01*
X63568809Y-113450000D01*
X63568809Y-115150000D01*
X63575557Y-115218514D01*
X63595542Y-115284395D01*
X63627995Y-115345111D01*
X63671670Y-115398330D01*
X63724889Y-115442005D01*
X63785605Y-115474458D01*
X63851486Y-115494443D01*
X63920000Y-115501191D01*
X65620000Y-115501191D01*
X65688514Y-115494443D01*
X65754395Y-115474458D01*
X65815111Y-115442005D01*
X65868330Y-115398330D01*
X65912005Y-115345111D01*
X65944458Y-115284395D01*
X65964443Y-115218514D01*
X65971191Y-115150000D01*
X65971191Y-114181860D01*
X66110500Y-114181860D01*
X66110500Y-114418140D01*
X66156596Y-114649881D01*
X66247017Y-114868176D01*
X66378287Y-115064637D01*
X66545363Y-115231713D01*
X66741824Y-115362983D01*
X66960119Y-115453404D01*
X67191860Y-115499500D01*
X67428140Y-115499500D01*
X67659881Y-115453404D01*
X67878176Y-115362983D01*
X68074637Y-115231713D01*
X68241713Y-115064637D01*
X68372983Y-114868176D01*
X68463404Y-114649881D01*
X68509500Y-114418140D01*
X68509500Y-114181860D01*
X68650500Y-114181860D01*
X68650500Y-114418140D01*
X68696596Y-114649881D01*
X68787017Y-114868176D01*
X68918287Y-115064637D01*
X69085363Y-115231713D01*
X69281824Y-115362983D01*
X69500119Y-115453404D01*
X69731860Y-115499500D01*
X69968140Y-115499500D01*
X70199881Y-115453404D01*
X70418176Y-115362983D01*
X70614637Y-115231713D01*
X70781713Y-115064637D01*
X70912983Y-114868176D01*
X71003404Y-114649881D01*
X71049500Y-114418140D01*
X71049500Y-114181860D01*
X71003404Y-113950119D01*
X70912983Y-113731824D01*
X70781713Y-113535363D01*
X70614637Y-113368287D01*
X70418176Y-113237017D01*
X70199881Y-113146596D01*
X69968140Y-113100500D01*
X69731860Y-113100500D01*
X69500119Y-113146596D01*
X69281824Y-113237017D01*
X69085363Y-113368287D01*
X68918287Y-113535363D01*
X68787017Y-113731824D01*
X68696596Y-113950119D01*
X68650500Y-114181860D01*
X68509500Y-114181860D01*
X68463404Y-113950119D01*
X68372983Y-113731824D01*
X68241713Y-113535363D01*
X68074637Y-113368287D01*
X67878176Y-113237017D01*
X67659881Y-113146596D01*
X67428140Y-113100500D01*
X67191860Y-113100500D01*
X66960119Y-113146596D01*
X66741824Y-113237017D01*
X66545363Y-113368287D01*
X66378287Y-113535363D01*
X66247017Y-113731824D01*
X66156596Y-113950119D01*
X66110500Y-114181860D01*
X65971191Y-114181860D01*
X65971191Y-113450000D01*
X65964443Y-113381486D01*
X65944458Y-113315605D01*
X65912005Y-113254889D01*
X65868330Y-113201670D01*
X65815111Y-113157995D01*
X65754395Y-113125542D01*
X65688514Y-113105557D01*
X65620000Y-113098809D01*
X63920000Y-113098809D01*
X63851486Y-113105557D01*
X63785605Y-113125542D01*
X63724889Y-113157995D01*
X63671670Y-113201670D01*
X63627995Y-113254889D01*
X63595542Y-113315605D01*
X63575557Y-113381486D01*
X63568809Y-113450000D01*
X60699500Y-113450000D01*
X60699500Y-104079800D01*
X60727039Y-104146286D01*
X60787175Y-104236286D01*
X60863714Y-104312825D01*
X60953714Y-104372961D01*
X61053717Y-104414383D01*
X61159879Y-104435500D01*
X61268121Y-104435500D01*
X61374283Y-104414383D01*
X61474286Y-104372961D01*
X61492935Y-104360500D01*
X63603700Y-104360500D01*
X63627000Y-104362795D01*
X63650300Y-104360500D01*
X63650303Y-104360500D01*
X63720018Y-104353634D01*
X63809462Y-104326501D01*
X63891893Y-104282441D01*
X63964145Y-104223145D01*
X63979006Y-104205037D01*
X64019284Y-104164759D01*
X64041283Y-104160383D01*
X64141286Y-104118961D01*
X64231286Y-104058825D01*
X64307825Y-103982286D01*
X64331990Y-103946121D01*
X64351058Y-103981795D01*
X64373560Y-104023893D01*
X64432856Y-104096145D01*
X64450958Y-104111001D01*
X64999242Y-104659286D01*
X65003617Y-104681283D01*
X65045039Y-104781286D01*
X65105175Y-104871286D01*
X65181714Y-104947825D01*
X65271714Y-105007961D01*
X65371717Y-105049383D01*
X65477879Y-105070500D01*
X65586121Y-105070500D01*
X65692283Y-105049383D01*
X65792286Y-105007961D01*
X65882286Y-104947825D01*
X65958825Y-104871286D01*
X66018961Y-104781286D01*
X66053604Y-104697648D01*
X66269241Y-104913285D01*
X66273617Y-104935283D01*
X66315039Y-105035286D01*
X66375175Y-105125286D01*
X66451714Y-105201825D01*
X66541714Y-105261961D01*
X66641717Y-105303383D01*
X66747879Y-105324500D01*
X66856121Y-105324500D01*
X66962283Y-105303383D01*
X67062286Y-105261961D01*
X67152286Y-105201825D01*
X67228500Y-105125611D01*
X67228501Y-105963454D01*
X66355962Y-106835995D01*
X66337855Y-106850855D01*
X66278559Y-106923107D01*
X66234499Y-107005539D01*
X66207366Y-107094983D01*
X66200500Y-107164697D01*
X66198205Y-107188000D01*
X66200500Y-107211300D01*
X66200501Y-108433064D01*
X66188039Y-108451714D01*
X66146617Y-108551717D01*
X66125500Y-108657879D01*
X66125500Y-108766121D01*
X66146617Y-108872283D01*
X66188039Y-108972286D01*
X66248175Y-109062286D01*
X66324714Y-109138825D01*
X66414714Y-109198961D01*
X66514717Y-109240383D01*
X66620879Y-109261500D01*
X66729121Y-109261500D01*
X66835283Y-109240383D01*
X66935286Y-109198961D01*
X67025286Y-109138825D01*
X67101825Y-109062286D01*
X67161961Y-108972286D01*
X67203383Y-108872283D01*
X67224500Y-108766121D01*
X67224500Y-108657879D01*
X67203383Y-108551717D01*
X67161961Y-108451714D01*
X67149500Y-108433065D01*
X67149500Y-108291478D01*
X67199880Y-108301499D01*
X67293699Y-108301499D01*
X67329670Y-108345330D01*
X67382889Y-108389005D01*
X67443605Y-108421458D01*
X67509486Y-108441443D01*
X67578000Y-108448191D01*
X67828000Y-108448191D01*
X67896514Y-108441443D01*
X67953000Y-108424308D01*
X68009486Y-108441443D01*
X68078000Y-108448191D01*
X68328000Y-108448191D01*
X68396514Y-108441443D01*
X68453000Y-108424308D01*
X68509486Y-108441443D01*
X68578000Y-108448191D01*
X68828000Y-108448191D01*
X68896514Y-108441443D01*
X68953000Y-108424308D01*
X69009486Y-108441443D01*
X69078000Y-108448191D01*
X69328000Y-108448191D01*
X69375500Y-108443513D01*
X69375501Y-111355690D01*
X69373205Y-111379000D01*
X69382367Y-111472018D01*
X69409499Y-111561461D01*
X69425101Y-111590650D01*
X69453560Y-111643893D01*
X69512856Y-111716145D01*
X69530958Y-111731001D01*
X71787707Y-113987751D01*
X71786205Y-114003000D01*
X71788500Y-114026300D01*
X71788500Y-114026303D01*
X71795366Y-114096018D01*
X71822499Y-114185462D01*
X71866560Y-114267893D01*
X71925856Y-114340145D01*
X71943958Y-114355001D01*
X72207994Y-114619037D01*
X72222855Y-114637145D01*
X72295107Y-114696441D01*
X72377538Y-114740501D01*
X72458809Y-114765155D01*
X72458809Y-115150000D01*
X72465557Y-115218514D01*
X72485542Y-115284395D01*
X72517995Y-115345111D01*
X72561670Y-115398330D01*
X72614889Y-115442005D01*
X72675605Y-115474458D01*
X72741486Y-115494443D01*
X72810000Y-115501191D01*
X74510000Y-115501191D01*
X74578514Y-115494443D01*
X74644395Y-115474458D01*
X74705111Y-115442005D01*
X74758330Y-115398330D01*
X74802005Y-115345111D01*
X74834458Y-115284395D01*
X74854443Y-115218514D01*
X74861191Y-115150000D01*
X74861191Y-113450000D01*
X76268809Y-113450000D01*
X76268809Y-115150000D01*
X76275557Y-115218514D01*
X76295542Y-115284395D01*
X76327995Y-115345111D01*
X76371670Y-115398330D01*
X76424889Y-115442005D01*
X76485605Y-115474458D01*
X76551486Y-115494443D01*
X76620000Y-115501191D01*
X78320000Y-115501191D01*
X78388514Y-115494443D01*
X78454395Y-115474458D01*
X78515111Y-115442005D01*
X78568330Y-115398330D01*
X78612005Y-115345111D01*
X78644458Y-115284395D01*
X78664443Y-115218514D01*
X78671191Y-115150000D01*
X78671191Y-114181860D01*
X78810500Y-114181860D01*
X78810500Y-114418140D01*
X78856596Y-114649881D01*
X78947017Y-114868176D01*
X79078287Y-115064637D01*
X79245363Y-115231713D01*
X79441824Y-115362983D01*
X79660119Y-115453404D01*
X79891860Y-115499500D01*
X80128140Y-115499500D01*
X80359881Y-115453404D01*
X80578176Y-115362983D01*
X80774637Y-115231713D01*
X80941713Y-115064637D01*
X81072983Y-114868176D01*
X81163404Y-114649881D01*
X81209500Y-114418140D01*
X81209500Y-114181860D01*
X81163404Y-113950119D01*
X81072983Y-113731824D01*
X80941713Y-113535363D01*
X80774637Y-113368287D01*
X80578176Y-113237017D01*
X80359881Y-113146596D01*
X80128140Y-113100500D01*
X79891860Y-113100500D01*
X79660119Y-113146596D01*
X79441824Y-113237017D01*
X79245363Y-113368287D01*
X79078287Y-113535363D01*
X78947017Y-113731824D01*
X78856596Y-113950119D01*
X78810500Y-114181860D01*
X78671191Y-114181860D01*
X78671191Y-113450000D01*
X78664443Y-113381486D01*
X78644458Y-113315605D01*
X78612005Y-113254889D01*
X78568330Y-113201670D01*
X78515111Y-113157995D01*
X78454395Y-113125542D01*
X78388514Y-113105557D01*
X78320000Y-113098809D01*
X76620000Y-113098809D01*
X76551486Y-113105557D01*
X76485605Y-113125542D01*
X76424889Y-113157995D01*
X76371670Y-113201670D01*
X76327995Y-113254889D01*
X76295542Y-113315605D01*
X76275557Y-113381486D01*
X76268809Y-113450000D01*
X74861191Y-113450000D01*
X74854443Y-113381486D01*
X74834458Y-113315605D01*
X74802005Y-113254889D01*
X74758330Y-113201670D01*
X74705111Y-113157995D01*
X74644395Y-113125542D01*
X74578514Y-113105557D01*
X74510000Y-113098809D01*
X72810000Y-113098809D01*
X72741486Y-113105557D01*
X72675605Y-113125542D01*
X72614889Y-113157995D01*
X72561670Y-113201670D01*
X72517995Y-113254889D01*
X72485542Y-113315605D01*
X72479050Y-113337006D01*
X70324500Y-111182457D01*
X70324500Y-107338300D01*
X70326795Y-107315000D01*
X70323517Y-107281717D01*
X70317634Y-107221982D01*
X70297163Y-107154500D01*
X73791069Y-107154500D01*
X73815604Y-107184396D01*
X73891553Y-107246725D01*
X73978203Y-107293040D01*
X74050594Y-107315000D01*
X73978203Y-107336960D01*
X73891553Y-107383275D01*
X73815604Y-107445604D01*
X73753275Y-107521553D01*
X73706960Y-107608203D01*
X73678439Y-107702222D01*
X73668809Y-107800000D01*
X73668809Y-108100000D01*
X73668859Y-108100510D01*
X72123693Y-108100510D01*
X72038996Y-108108852D01*
X71930326Y-108141817D01*
X71830174Y-108195349D01*
X71742391Y-108267391D01*
X71670349Y-108355174D01*
X71616817Y-108455326D01*
X71583852Y-108563996D01*
X71572721Y-108677010D01*
X71583852Y-108790024D01*
X71605354Y-108860905D01*
X71607617Y-108872283D01*
X71612057Y-108883002D01*
X71616817Y-108898694D01*
X71624546Y-108913155D01*
X71649039Y-108972286D01*
X71709175Y-109062286D01*
X71785714Y-109138825D01*
X71875714Y-109198961D01*
X71975717Y-109240383D01*
X72081879Y-109261500D01*
X72190121Y-109261500D01*
X72230289Y-109253510D01*
X73499331Y-109253510D01*
X73491500Y-109292879D01*
X73491500Y-109401121D01*
X73499711Y-109442403D01*
X72324958Y-110617157D01*
X72306856Y-110632013D01*
X72247560Y-110704265D01*
X72203499Y-110786696D01*
X72176366Y-110876140D01*
X72169827Y-110942539D01*
X72167205Y-110969158D01*
X72167835Y-110975556D01*
X72157039Y-110991714D01*
X72115617Y-111091717D01*
X72094500Y-111197879D01*
X72094500Y-111306121D01*
X72115617Y-111412283D01*
X72157039Y-111512286D01*
X72217175Y-111602286D01*
X72293714Y-111678825D01*
X72383714Y-111738961D01*
X72483717Y-111780383D01*
X72589879Y-111801500D01*
X72698121Y-111801500D01*
X72804283Y-111780383D01*
X72904286Y-111738961D01*
X72994286Y-111678825D01*
X73048721Y-111624390D01*
X73118717Y-111653383D01*
X73224879Y-111674500D01*
X73333121Y-111674500D01*
X73439283Y-111653383D01*
X73539286Y-111611961D01*
X73595529Y-111574381D01*
X73614175Y-111602286D01*
X73690714Y-111678825D01*
X73780714Y-111738961D01*
X73880717Y-111780383D01*
X73986879Y-111801500D01*
X74095121Y-111801500D01*
X74201283Y-111780383D01*
X74301286Y-111738961D01*
X74319935Y-111726500D01*
X74383698Y-111726500D01*
X74406998Y-111728795D01*
X74430298Y-111726500D01*
X74430301Y-111726500D01*
X74500016Y-111719634D01*
X74589460Y-111692501D01*
X74671891Y-111648441D01*
X74744143Y-111589145D01*
X74759003Y-111571038D01*
X75520049Y-110809994D01*
X75538146Y-110795142D01*
X75552997Y-110777046D01*
X75553001Y-110777042D01*
X75597441Y-110722891D01*
X75607397Y-110704265D01*
X75641502Y-110640459D01*
X75668635Y-110551015D01*
X75675501Y-110481300D01*
X75675501Y-110481297D01*
X75677796Y-110457997D01*
X75675501Y-110434697D01*
X75675501Y-109642936D01*
X75687962Y-109624287D01*
X75729384Y-109524284D01*
X75750501Y-109418122D01*
X75750501Y-109309880D01*
X75739288Y-109253510D01*
X79189681Y-109253510D01*
X79217990Y-109256298D01*
X79246299Y-109253510D01*
X79246307Y-109253510D01*
X79331004Y-109245168D01*
X79439674Y-109212203D01*
X79539826Y-109158671D01*
X79627609Y-109086629D01*
X79645664Y-109064629D01*
X80109103Y-108601191D01*
X80770000Y-108601191D01*
X80855152Y-108592804D01*
X80706960Y-108740997D01*
X80706955Y-108741001D01*
X78474716Y-110973241D01*
X78452717Y-110977617D01*
X78352714Y-111019039D01*
X78262714Y-111079175D01*
X78186175Y-111155714D01*
X78126039Y-111245714D01*
X78084617Y-111345717D01*
X78063500Y-111451879D01*
X78063500Y-111560121D01*
X78084617Y-111666283D01*
X78126039Y-111766286D01*
X78186175Y-111856286D01*
X78262714Y-111932825D01*
X78352714Y-111992961D01*
X78452717Y-112034383D01*
X78558879Y-112055500D01*
X78667121Y-112055500D01*
X78773283Y-112034383D01*
X78873286Y-111992961D01*
X78963286Y-111932825D01*
X79039825Y-111856286D01*
X79099961Y-111766286D01*
X79141383Y-111666283D01*
X79145759Y-111644284D01*
X81296499Y-109493545D01*
X81296500Y-111972062D01*
X81284038Y-111990713D01*
X81242616Y-112090716D01*
X81221499Y-112196878D01*
X81221499Y-112305120D01*
X81242616Y-112411282D01*
X81284038Y-112511285D01*
X81344174Y-112601285D01*
X81420713Y-112677824D01*
X81510713Y-112737960D01*
X81610716Y-112779382D01*
X81716878Y-112800499D01*
X81746500Y-112800499D01*
X81746500Y-112830121D01*
X81767617Y-112936283D01*
X81809039Y-113036286D01*
X81869175Y-113126286D01*
X81945714Y-113202825D01*
X81991122Y-113233166D01*
X81981824Y-113237017D01*
X81785363Y-113368287D01*
X81618287Y-113535363D01*
X81487017Y-113731824D01*
X81396596Y-113950119D01*
X81350500Y-114181860D01*
X81350500Y-114418140D01*
X81396596Y-114649881D01*
X81487017Y-114868176D01*
X81618287Y-115064637D01*
X81785363Y-115231713D01*
X81981824Y-115362983D01*
X82200119Y-115453404D01*
X82431860Y-115499500D01*
X82668140Y-115499500D01*
X82899881Y-115453404D01*
X83118176Y-115362983D01*
X83314637Y-115231713D01*
X83481713Y-115064637D01*
X83612983Y-114868176D01*
X83703404Y-114649881D01*
X83749500Y-114418140D01*
X83749500Y-114181860D01*
X83703404Y-113950119D01*
X83612983Y-113731824D01*
X83481713Y-113535363D01*
X83314637Y-113368287D01*
X83118176Y-113237017D01*
X82899881Y-113146596D01*
X82731618Y-113113126D01*
X82782961Y-113036286D01*
X82824383Y-112936283D01*
X82845500Y-112830121D01*
X82845500Y-112721879D01*
X82824383Y-112615717D01*
X82782961Y-112515714D01*
X82770500Y-112497065D01*
X82770500Y-109879935D01*
X82782961Y-109861286D01*
X82824383Y-109761283D01*
X82845388Y-109655682D01*
X85882165Y-112692459D01*
X85845500Y-112876784D01*
X85845500Y-113103216D01*
X85889675Y-113325297D01*
X85976326Y-113534492D01*
X86102125Y-113722764D01*
X86262236Y-113882875D01*
X86450508Y-114008674D01*
X86659703Y-114095325D01*
X86881784Y-114139500D01*
X87108216Y-114139500D01*
X87330297Y-114095325D01*
X87539492Y-114008674D01*
X87727764Y-113882875D01*
X87887875Y-113722764D01*
X88013674Y-113534492D01*
X88100325Y-113325297D01*
X88144500Y-113103216D01*
X88144500Y-112876784D01*
X88107835Y-112692459D01*
X89263642Y-111536653D01*
X89285630Y-111518608D01*
X89303676Y-111496619D01*
X89303681Y-111496614D01*
X89357672Y-111430825D01*
X89392536Y-111365598D01*
X89411204Y-111330673D01*
X89444169Y-111222003D01*
X89452511Y-111137306D01*
X89452511Y-111137297D01*
X89455299Y-111108990D01*
X89452511Y-111080683D01*
X89452511Y-85310319D01*
X89455299Y-85282010D01*
X89452511Y-85253701D01*
X89452511Y-85253694D01*
X89444169Y-85168997D01*
X89411204Y-85060327D01*
X89357672Y-84960175D01*
X89303681Y-84894386D01*
X89303676Y-84894381D01*
X89285630Y-84872392D01*
X89263641Y-84854346D01*
X88476674Y-84067381D01*
X88458619Y-84045381D01*
X88370836Y-83973339D01*
X88270684Y-83919807D01*
X88162014Y-83886842D01*
X88077317Y-83878500D01*
X88077309Y-83878500D01*
X88049000Y-83875712D01*
X88020691Y-83878500D01*
X87946191Y-83878500D01*
X87946191Y-83855000D01*
X87939443Y-83786486D01*
X87919458Y-83720605D01*
X87887005Y-83659889D01*
X87843330Y-83606670D01*
X87790111Y-83562995D01*
X87729395Y-83530542D01*
X87663514Y-83510557D01*
X87595000Y-83503809D01*
X86395000Y-83503809D01*
X86326486Y-83510557D01*
X86260605Y-83530542D01*
X86199889Y-83562995D01*
X86146670Y-83606670D01*
X86102995Y-83659889D01*
X86070542Y-83720605D01*
X86050557Y-83786486D01*
X86043809Y-83855000D01*
X86043809Y-85055000D01*
X86050557Y-85123514D01*
X86070542Y-85189395D01*
X86102995Y-85250111D01*
X86146670Y-85303330D01*
X86199889Y-85347005D01*
X86260605Y-85379458D01*
X86326486Y-85399443D01*
X86383095Y-85405018D01*
X86338830Y-85604376D01*
X86995000Y-86260546D01*
X87651170Y-85604376D01*
X87606905Y-85405018D01*
X87663514Y-85399443D01*
X87729395Y-85379458D01*
X87790111Y-85347005D01*
X87843330Y-85303330D01*
X87887005Y-85250111D01*
X87919458Y-85189395D01*
X87930780Y-85152073D01*
X88299512Y-85520807D01*
X88299512Y-93994833D01*
X88284120Y-93952858D01*
X88228487Y-93848779D01*
X87988721Y-93775733D01*
X87189454Y-94575000D01*
X87988721Y-95374267D01*
X88228487Y-95301221D01*
X88299512Y-95147951D01*
X88299511Y-109909831D01*
X88284120Y-109867858D01*
X88228487Y-109763779D01*
X87988721Y-109690733D01*
X87189454Y-110490000D01*
X87203597Y-110504143D01*
X87009143Y-110698597D01*
X86995000Y-110684454D01*
X86980858Y-110698597D01*
X86786404Y-110504143D01*
X86800546Y-110490000D01*
X86001279Y-109690733D01*
X85761513Y-109763779D01*
X85643535Y-110018374D01*
X85577493Y-110291094D01*
X85565926Y-110571459D01*
X85598209Y-110777915D01*
X84316573Y-109496279D01*
X86195733Y-109496279D01*
X86995000Y-110295546D01*
X87794267Y-109496279D01*
X87721221Y-109256513D01*
X87466626Y-109138535D01*
X87193906Y-109072493D01*
X86913541Y-109060926D01*
X86636308Y-109104276D01*
X86372858Y-109200880D01*
X86268779Y-109256513D01*
X86195733Y-109496279D01*
X84316573Y-109496279D01*
X82990793Y-108170500D01*
X84385457Y-108170500D01*
X84483994Y-108269037D01*
X84498855Y-108287145D01*
X84571107Y-108346441D01*
X84653538Y-108390501D01*
X84742982Y-108417634D01*
X84812697Y-108424500D01*
X84812706Y-108424500D01*
X84835999Y-108426794D01*
X84859292Y-108424500D01*
X85065065Y-108424500D01*
X85083714Y-108436961D01*
X85183717Y-108478383D01*
X85289879Y-108499500D01*
X85398121Y-108499500D01*
X85504283Y-108478383D01*
X85604286Y-108436961D01*
X85694286Y-108376825D01*
X85770825Y-108300286D01*
X85830961Y-108210286D01*
X85872383Y-108110283D01*
X85893500Y-108004121D01*
X85893500Y-107895879D01*
X85872383Y-107789717D01*
X85830961Y-107689714D01*
X85770825Y-107599714D01*
X85694286Y-107523175D01*
X85604286Y-107463039D01*
X85504283Y-107421617D01*
X85398121Y-107400500D01*
X85335725Y-107400500D01*
X85352383Y-107360283D01*
X85356759Y-107338284D01*
X85934044Y-106761000D01*
X85952146Y-106746144D01*
X86011442Y-106673892D01*
X86055502Y-106591461D01*
X86082635Y-106502017D01*
X86089501Y-106432302D01*
X86089501Y-106432293D01*
X86091795Y-106409000D01*
X86089501Y-106385707D01*
X86089501Y-100879580D01*
X86091796Y-100856280D01*
X86086020Y-100797634D01*
X86082635Y-100763263D01*
X86055502Y-100673819D01*
X86011442Y-100591388D01*
X85952146Y-100519136D01*
X85934044Y-100504280D01*
X84971882Y-99542119D01*
X84971878Y-99542114D01*
X84896213Y-99466449D01*
X84925205Y-99396457D01*
X84969380Y-99174376D01*
X84969380Y-98947944D01*
X84925205Y-98725863D01*
X84838554Y-98516668D01*
X84712755Y-98328396D01*
X84552644Y-98168285D01*
X84364372Y-98042486D01*
X84155177Y-97955835D01*
X83933096Y-97911660D01*
X83706664Y-97911660D01*
X83484583Y-97955835D01*
X83275388Y-98042486D01*
X83087116Y-98168285D01*
X82927005Y-98328396D01*
X82801206Y-98516668D01*
X82714555Y-98725863D01*
X82670380Y-98947944D01*
X82670380Y-99174376D01*
X82714555Y-99396457D01*
X82801206Y-99605652D01*
X82927005Y-99793924D01*
X82988581Y-99855500D01*
X81148931Y-99855500D01*
X81124396Y-99825604D01*
X81048447Y-99763275D01*
X80961797Y-99716960D01*
X80867778Y-99688439D01*
X80770000Y-99678809D01*
X79120000Y-99678809D01*
X79022222Y-99688439D01*
X78928203Y-99716960D01*
X78841553Y-99763275D01*
X78765604Y-99825604D01*
X78703275Y-99901553D01*
X78656960Y-99988203D01*
X78628439Y-100082222D01*
X78618809Y-100180000D01*
X78618809Y-100480000D01*
X78628439Y-100577778D01*
X78656960Y-100671797D01*
X78703275Y-100758447D01*
X78765604Y-100834396D01*
X78841553Y-100896725D01*
X78928203Y-100943040D01*
X79000594Y-100965000D01*
X78928203Y-100986960D01*
X78841553Y-101033275D01*
X78765604Y-101095604D01*
X78741069Y-101125500D01*
X76350637Y-101125500D01*
X76413725Y-101073725D01*
X76491765Y-100978633D01*
X76549755Y-100870142D01*
X76585464Y-100752423D01*
X76597522Y-100630000D01*
X76594500Y-100623625D01*
X76438375Y-100467500D01*
X75132500Y-100467500D01*
X75132500Y-100487500D01*
X74857500Y-100487500D01*
X74857500Y-100467500D01*
X73551625Y-100467500D01*
X73395500Y-100623625D01*
X73392478Y-100630000D01*
X73404536Y-100752423D01*
X73440245Y-100870142D01*
X73498235Y-100978633D01*
X73576275Y-101073725D01*
X73671367Y-101151765D01*
X73743300Y-101190214D01*
X73706960Y-101258203D01*
X73678439Y-101352222D01*
X73668809Y-101450000D01*
X73668809Y-101750000D01*
X73678439Y-101847778D01*
X73684153Y-101866615D01*
X73646087Y-101897855D01*
X73631230Y-101915958D01*
X73375952Y-102171237D01*
X73357845Y-102186097D01*
X73298549Y-102258349D01*
X73254489Y-102340781D01*
X73227356Y-102430225D01*
X73220495Y-102499893D01*
X73218195Y-102523242D01*
X73220490Y-102546543D01*
X73220491Y-103891680D01*
X73218195Y-103914990D01*
X73227357Y-104008008D01*
X73254489Y-104097451D01*
X73288127Y-104160383D01*
X73298550Y-104179883D01*
X73357846Y-104252135D01*
X73375948Y-104266991D01*
X73567994Y-104459037D01*
X73582855Y-104477145D01*
X73655107Y-104536441D01*
X73737538Y-104580501D01*
X73771663Y-104590853D01*
X73815604Y-104644396D01*
X73891553Y-104706725D01*
X73978203Y-104753040D01*
X74050594Y-104775000D01*
X73978203Y-104796960D01*
X73891553Y-104843275D01*
X73815604Y-104905604D01*
X73753275Y-104981553D01*
X73706960Y-105068203D01*
X73678439Y-105162222D01*
X73668809Y-105260000D01*
X73668809Y-105560000D01*
X73670827Y-105580490D01*
X72977535Y-105580490D01*
X72483500Y-105086457D01*
X72483500Y-101360585D01*
X72495961Y-101341936D01*
X72537383Y-101241933D01*
X72558500Y-101135771D01*
X72558500Y-101027529D01*
X72537383Y-100921367D01*
X72495961Y-100821364D01*
X72435825Y-100731364D01*
X72359286Y-100654825D01*
X72269286Y-100594689D01*
X72169283Y-100553267D01*
X72063121Y-100532150D01*
X71954879Y-100532150D01*
X71848717Y-100553267D01*
X71748714Y-100594689D01*
X71658714Y-100654825D01*
X71582175Y-100731364D01*
X71522039Y-100821364D01*
X71480617Y-100921367D01*
X71459500Y-101027529D01*
X71459500Y-101135771D01*
X71480617Y-101241933D01*
X71522039Y-101341936D01*
X71534500Y-101360585D01*
X71534501Y-105259690D01*
X71532205Y-105283000D01*
X71541367Y-105376018D01*
X71568499Y-105465461D01*
X71610422Y-105543893D01*
X71612560Y-105547893D01*
X71671856Y-105620145D01*
X71689958Y-105635001D01*
X72260456Y-106205500D01*
X70300544Y-106205500D01*
X69635563Y-105540520D01*
X69691523Y-105508502D01*
X69784327Y-105427754D01*
X69859595Y-105330452D01*
X69914434Y-105220336D01*
X69946737Y-105101637D01*
X69955261Y-104978917D01*
X69952500Y-104915625D01*
X69796375Y-104759500D01*
X69211500Y-104759500D01*
X69211500Y-104779500D01*
X69194500Y-104779500D01*
X69194500Y-104759500D01*
X69179191Y-104759500D01*
X69179191Y-104484500D01*
X69194500Y-104484500D01*
X69194500Y-103778625D01*
X69211500Y-103778625D01*
X69211500Y-104484500D01*
X69796375Y-104484500D01*
X69952500Y-104328375D01*
X69955261Y-104265083D01*
X69946737Y-104142363D01*
X69914434Y-104023664D01*
X69859595Y-103913548D01*
X69784327Y-103816246D01*
X69691523Y-103735498D01*
X69584749Y-103674406D01*
X69468108Y-103635319D01*
X69367625Y-103622500D01*
X69211500Y-103778625D01*
X69194500Y-103778625D01*
X69038375Y-103622500D01*
X68937892Y-103635319D01*
X68821251Y-103674406D01*
X68714477Y-103735498D01*
X68621673Y-103816246D01*
X68558653Y-103897715D01*
X68509486Y-103902557D01*
X68453000Y-103919692D01*
X68396514Y-103902557D01*
X68328000Y-103895809D01*
X68078000Y-103895809D01*
X68009486Y-103902557D01*
X67953000Y-103919692D01*
X67896514Y-103902557D01*
X67828000Y-103895809D01*
X67578000Y-103895809D01*
X67509486Y-103902557D01*
X67443605Y-103922542D01*
X67382889Y-103954995D01*
X67329670Y-103998670D01*
X67285995Y-104051889D01*
X67253542Y-104112605D01*
X67233557Y-104178486D01*
X67226809Y-104247000D01*
X67226809Y-104422698D01*
X67152286Y-104348175D01*
X67062286Y-104288039D01*
X66962283Y-104246617D01*
X66940285Y-104242241D01*
X66288511Y-103590468D01*
X66373285Y-103533824D01*
X66449824Y-103457285D01*
X66509960Y-103367285D01*
X66551382Y-103267282D01*
X66555173Y-103248224D01*
X66560143Y-103244145D01*
X66619439Y-103171893D01*
X66663499Y-103089462D01*
X66690632Y-103000018D01*
X66697498Y-102930303D01*
X66697498Y-102930294D01*
X66699792Y-102907001D01*
X66697498Y-102883708D01*
X66697498Y-97997933D01*
X66709959Y-97979284D01*
X66751381Y-97879281D01*
X66768612Y-97792655D01*
X67793241Y-98817285D01*
X67797617Y-98839283D01*
X67839039Y-98939286D01*
X67899175Y-99029286D01*
X67975714Y-99105825D01*
X68065714Y-99165961D01*
X68165717Y-99207383D01*
X68271879Y-99228500D01*
X68380121Y-99228500D01*
X68486283Y-99207383D01*
X68586286Y-99165961D01*
X68676286Y-99105825D01*
X68752825Y-99029286D01*
X68812961Y-98939286D01*
X68854383Y-98839283D01*
X68875500Y-98733121D01*
X68875500Y-98624879D01*
X68854383Y-98518717D01*
X68812961Y-98418714D01*
X68752825Y-98328714D01*
X68676286Y-98252175D01*
X68586286Y-98192039D01*
X68486283Y-98150617D01*
X68464285Y-98146241D01*
X66641500Y-96323457D01*
X66641500Y-94014543D01*
X67684786Y-92971258D01*
X67706783Y-92966883D01*
X67806786Y-92925461D01*
X67896786Y-92865325D01*
X67973325Y-92788786D01*
X68033461Y-92698786D01*
X68074883Y-92598783D01*
X68096000Y-92492621D01*
X68096000Y-92384379D01*
X68074883Y-92278217D01*
X68033461Y-92178214D01*
X67973325Y-92088214D01*
X67896786Y-92011675D01*
X67806786Y-91951539D01*
X67706783Y-91910117D01*
X67621025Y-91893059D01*
X67660286Y-91866825D01*
X67736825Y-91790286D01*
X67796961Y-91700286D01*
X67838383Y-91600283D01*
X67859500Y-91494121D01*
X67859500Y-91385879D01*
X67838383Y-91279717D01*
X67796961Y-91179714D01*
X67784500Y-91161065D01*
X67784500Y-89813935D01*
X67796961Y-89795286D01*
X67838383Y-89695283D01*
X67859500Y-89589121D01*
X67859500Y-89480879D01*
X67838383Y-89374717D01*
X67796961Y-89274714D01*
X67736825Y-89184714D01*
X67660286Y-89108175D01*
X67570286Y-89048039D01*
X67470283Y-89006617D01*
X67364121Y-88985500D01*
X67255879Y-88985500D01*
X67149717Y-89006617D01*
X67049714Y-89048039D01*
X66959714Y-89108175D01*
X66883175Y-89184714D01*
X66823039Y-89274714D01*
X66781617Y-89374717D01*
X66760500Y-89480879D01*
X66760500Y-89589121D01*
X66781617Y-89695283D01*
X66823039Y-89795286D01*
X66835500Y-89813935D01*
X66835501Y-91161064D01*
X66823039Y-91179714D01*
X66781617Y-91279717D01*
X66760500Y-91385879D01*
X66760500Y-91494121D01*
X66781617Y-91600283D01*
X66823039Y-91700286D01*
X66883175Y-91790286D01*
X66959714Y-91866825D01*
X67049714Y-91926961D01*
X67149717Y-91968383D01*
X67235475Y-91985441D01*
X67196214Y-92011675D01*
X67119675Y-92088214D01*
X67059539Y-92178214D01*
X67018117Y-92278217D01*
X67013742Y-92300214D01*
X65879500Y-93434457D01*
X65879500Y-88158293D01*
X65879717Y-88158383D01*
X65985879Y-88179500D01*
X66094121Y-88179500D01*
X66200283Y-88158383D01*
X66300286Y-88116961D01*
X66318935Y-88104500D01*
X70485455Y-88104500D01*
X70965001Y-88584048D01*
X70979853Y-88602145D01*
X70997949Y-88616996D01*
X70997953Y-88617000D01*
X71052104Y-88661441D01*
X71134536Y-88705501D01*
X71178040Y-88718698D01*
X71223979Y-88732634D01*
X71316998Y-88741795D01*
X71340301Y-88739500D01*
X81718457Y-88739500D01*
X82199159Y-89220203D01*
X82214015Y-89238305D01*
X82286267Y-89297601D01*
X82368698Y-89341661D01*
X82458142Y-89368794D01*
X82527857Y-89375660D01*
X82527866Y-89375660D01*
X82551159Y-89377954D01*
X82574452Y-89375660D01*
X82673178Y-89375660D01*
X82623440Y-89436266D01*
X82579380Y-89518698D01*
X82552247Y-89608142D01*
X82549708Y-89633924D01*
X82543086Y-89701159D01*
X82545381Y-89724460D01*
X82545382Y-90379612D01*
X81849962Y-91075033D01*
X81831855Y-91089893D01*
X81772559Y-91162145D01*
X81728499Y-91244577D01*
X81701366Y-91334021D01*
X81696259Y-91385879D01*
X81692205Y-91427038D01*
X81694500Y-91450338D01*
X81694501Y-95352063D01*
X81682039Y-95370714D01*
X81640617Y-95470717D01*
X81619500Y-95576879D01*
X81619500Y-95685121D01*
X81640617Y-95791283D01*
X81682039Y-95891286D01*
X81742175Y-95981286D01*
X81807549Y-96046660D01*
X73682140Y-96046660D01*
X73658840Y-96044365D01*
X73635540Y-96046660D01*
X73635537Y-96046660D01*
X73565822Y-96053526D01*
X73476378Y-96080659D01*
X73393947Y-96124719D01*
X73393945Y-96124720D01*
X73393946Y-96124720D01*
X73339795Y-96169160D01*
X73339791Y-96169164D01*
X73321695Y-96184015D01*
X73306843Y-96202112D01*
X72105556Y-97403400D01*
X72083558Y-97407776D01*
X71983555Y-97449198D01*
X71893555Y-97509334D01*
X71817016Y-97585873D01*
X71756880Y-97675873D01*
X71715458Y-97775876D01*
X71694341Y-97882038D01*
X71694341Y-97990280D01*
X71710911Y-98073582D01*
X71664372Y-98042486D01*
X71455177Y-97955835D01*
X71233096Y-97911660D01*
X71006664Y-97911660D01*
X70784583Y-97955835D01*
X70575388Y-98042486D01*
X70387116Y-98168285D01*
X70227005Y-98328396D01*
X70101206Y-98516668D01*
X70014555Y-98725863D01*
X69970380Y-98947944D01*
X69970380Y-99174376D01*
X70014555Y-99396457D01*
X70101206Y-99605652D01*
X70227005Y-99793924D01*
X70387116Y-99954035D01*
X70575388Y-100079834D01*
X70784583Y-100166485D01*
X71006664Y-100210660D01*
X71233096Y-100210660D01*
X71455177Y-100166485D01*
X71664372Y-100079834D01*
X71738954Y-100030000D01*
X73392478Y-100030000D01*
X73395500Y-100036375D01*
X73551625Y-100192500D01*
X74857500Y-100192500D01*
X74857500Y-99561625D01*
X75132500Y-99561625D01*
X75132500Y-100192500D01*
X76438375Y-100192500D01*
X76594500Y-100036375D01*
X76597522Y-100030000D01*
X76585464Y-99907577D01*
X76549755Y-99789858D01*
X76491765Y-99681367D01*
X76413725Y-99586275D01*
X76318633Y-99508235D01*
X76210142Y-99450245D01*
X76092423Y-99414536D01*
X75970000Y-99402478D01*
X75288625Y-99405500D01*
X75132500Y-99561625D01*
X74857500Y-99561625D01*
X74701375Y-99405500D01*
X74020000Y-99402478D01*
X73897577Y-99414536D01*
X73779858Y-99450245D01*
X73671367Y-99508235D01*
X73576275Y-99586275D01*
X73498235Y-99681367D01*
X73440245Y-99789858D01*
X73404536Y-99907577D01*
X73392478Y-100030000D01*
X71738954Y-100030000D01*
X71852644Y-99954035D01*
X72012755Y-99793924D01*
X72138554Y-99605652D01*
X72225205Y-99396457D01*
X72269380Y-99174376D01*
X72269380Y-98947944D01*
X72225205Y-98725863D01*
X72138554Y-98516668D01*
X72106816Y-98469168D01*
X72189720Y-98485659D01*
X72297962Y-98485659D01*
X72404124Y-98464542D01*
X72504127Y-98423120D01*
X72594127Y-98362984D01*
X72670666Y-98286445D01*
X72730802Y-98196445D01*
X72772224Y-98096442D01*
X72776600Y-98074444D01*
X73855385Y-96995660D01*
X78630229Y-96995660D01*
X78567175Y-97058714D01*
X78507039Y-97148714D01*
X78465617Y-97248717D01*
X78444500Y-97354879D01*
X78444500Y-97463121D01*
X78465617Y-97569283D01*
X78507039Y-97669286D01*
X78567175Y-97759286D01*
X78643714Y-97835825D01*
X78733714Y-97895961D01*
X78833717Y-97937383D01*
X78939879Y-97958500D01*
X79048121Y-97958500D01*
X79154283Y-97937383D01*
X79254286Y-97895961D01*
X79272935Y-97883500D01*
X81255065Y-97883500D01*
X81273714Y-97895961D01*
X81373717Y-97937383D01*
X81479879Y-97958500D01*
X81588121Y-97958500D01*
X81694283Y-97937383D01*
X81794286Y-97895961D01*
X81884286Y-97835825D01*
X81960825Y-97759286D01*
X82020961Y-97669286D01*
X82062383Y-97569283D01*
X82083500Y-97463121D01*
X82083500Y-97354879D01*
X82062383Y-97248717D01*
X82020961Y-97148714D01*
X81960825Y-97058714D01*
X81897771Y-96995660D01*
X82772215Y-96995660D01*
X82801206Y-97065652D01*
X82927005Y-97253924D01*
X83087116Y-97414035D01*
X83275388Y-97539834D01*
X83484583Y-97626485D01*
X83706664Y-97670660D01*
X83933096Y-97670660D01*
X84155177Y-97626485D01*
X84364372Y-97539834D01*
X84552644Y-97414035D01*
X84712755Y-97253924D01*
X84838554Y-97065652D01*
X84925205Y-96856457D01*
X84969380Y-96634376D01*
X84969380Y-96407944D01*
X84925205Y-96185863D01*
X84838554Y-95976668D01*
X84712755Y-95788396D01*
X84552644Y-95628285D01*
X84463500Y-95568721D01*
X86195733Y-95568721D01*
X86268779Y-95808487D01*
X86523374Y-95926465D01*
X86796094Y-95992507D01*
X87076459Y-96004074D01*
X87353692Y-95960724D01*
X87617142Y-95864120D01*
X87721221Y-95808487D01*
X87794267Y-95568721D01*
X86995000Y-94769454D01*
X86195733Y-95568721D01*
X84463500Y-95568721D01*
X84364372Y-95502486D01*
X84155177Y-95415835D01*
X83933096Y-95371660D01*
X83706664Y-95371660D01*
X83484583Y-95415835D01*
X83275388Y-95502486D01*
X83087116Y-95628285D01*
X82927005Y-95788396D01*
X82801206Y-95976668D01*
X82772215Y-96046660D01*
X82530451Y-96046660D01*
X82595825Y-95981286D01*
X82655961Y-95891286D01*
X82697383Y-95791283D01*
X82718500Y-95685121D01*
X82718500Y-95576879D01*
X82697383Y-95470717D01*
X82655961Y-95370714D01*
X82643500Y-95352065D01*
X82643500Y-93867944D01*
X82670380Y-93867944D01*
X82670380Y-94094376D01*
X82714555Y-94316457D01*
X82801206Y-94525652D01*
X82927005Y-94713924D01*
X83087116Y-94874035D01*
X83275388Y-94999834D01*
X83484583Y-95086485D01*
X83706664Y-95130660D01*
X83933096Y-95130660D01*
X84155177Y-95086485D01*
X84364372Y-94999834D01*
X84552644Y-94874035D01*
X84712755Y-94713924D01*
X84751151Y-94656459D01*
X85565926Y-94656459D01*
X85609276Y-94933692D01*
X85705880Y-95197142D01*
X85761513Y-95301221D01*
X86001279Y-95374267D01*
X86800546Y-94575000D01*
X86001279Y-93775733D01*
X85761513Y-93848779D01*
X85643535Y-94103374D01*
X85577493Y-94376094D01*
X85565926Y-94656459D01*
X84751151Y-94656459D01*
X84838554Y-94525652D01*
X84925205Y-94316457D01*
X84969380Y-94094376D01*
X84969380Y-93867944D01*
X84925205Y-93645863D01*
X84838554Y-93436668D01*
X84712755Y-93248396D01*
X84552644Y-93088285D01*
X84364372Y-92962486D01*
X84155177Y-92875835D01*
X83933096Y-92831660D01*
X83706664Y-92831660D01*
X83484583Y-92875835D01*
X83275388Y-92962486D01*
X83087116Y-93088285D01*
X82927005Y-93248396D01*
X82801206Y-93436668D01*
X82714555Y-93645863D01*
X82670380Y-93867944D01*
X82643500Y-93867944D01*
X82643500Y-91623581D01*
X82677402Y-91589679D01*
X82714555Y-91776457D01*
X82801206Y-91985652D01*
X82927005Y-92173924D01*
X83087116Y-92334035D01*
X83275388Y-92459834D01*
X83484583Y-92546485D01*
X83706664Y-92590660D01*
X83933096Y-92590660D01*
X84155177Y-92546485D01*
X84364372Y-92459834D01*
X84552644Y-92334035D01*
X84712755Y-92173924D01*
X84838554Y-91985652D01*
X84848440Y-91961784D01*
X85845500Y-91961784D01*
X85845500Y-92188216D01*
X85889675Y-92410297D01*
X85976326Y-92619492D01*
X86102125Y-92807764D01*
X86262236Y-92967875D01*
X86450508Y-93093674D01*
X86659703Y-93180325D01*
X86674601Y-93183288D01*
X86636308Y-93189276D01*
X86372858Y-93285880D01*
X86268779Y-93341513D01*
X86195733Y-93581279D01*
X86995000Y-94380546D01*
X87794267Y-93581279D01*
X87721221Y-93341513D01*
X87466626Y-93223535D01*
X87307180Y-93184923D01*
X87330297Y-93180325D01*
X87539492Y-93093674D01*
X87727764Y-92967875D01*
X87887875Y-92807764D01*
X88013674Y-92619492D01*
X88100325Y-92410297D01*
X88144500Y-92188216D01*
X88144500Y-91961784D01*
X88100325Y-91739703D01*
X88013674Y-91530508D01*
X87887875Y-91342236D01*
X87727764Y-91182125D01*
X87539492Y-91056326D01*
X87330297Y-90969675D01*
X87108216Y-90925500D01*
X86881784Y-90925500D01*
X86659703Y-90969675D01*
X86450508Y-91056326D01*
X86262236Y-91182125D01*
X86102125Y-91342236D01*
X85976326Y-91530508D01*
X85889675Y-91739703D01*
X85845500Y-91961784D01*
X84848440Y-91961784D01*
X84925205Y-91776457D01*
X84969380Y-91554376D01*
X84969380Y-91327944D01*
X84925205Y-91105863D01*
X84838554Y-90896668D01*
X84712755Y-90708396D01*
X84552644Y-90548285D01*
X84364372Y-90422486D01*
X84155177Y-90335835D01*
X83933096Y-90291660D01*
X83706664Y-90291660D01*
X83494381Y-90333886D01*
X83494381Y-90008434D01*
X83706664Y-90050660D01*
X83933096Y-90050660D01*
X84155177Y-90006485D01*
X84364372Y-89919834D01*
X84552644Y-89794035D01*
X84712755Y-89633924D01*
X84838554Y-89445652D01*
X84925205Y-89236457D01*
X84969380Y-89014376D01*
X84969380Y-88787944D01*
X84925205Y-88565863D01*
X84838554Y-88356668D01*
X84712755Y-88168396D01*
X84552644Y-88008285D01*
X84364372Y-87882486D01*
X84155177Y-87795835D01*
X83933096Y-87751660D01*
X83706664Y-87751660D01*
X83484583Y-87795835D01*
X83275388Y-87882486D01*
X83087116Y-88008285D01*
X82927005Y-88168396D01*
X82801206Y-88356668D01*
X82772215Y-88426660D01*
X82747704Y-88426660D01*
X82267005Y-87945962D01*
X82252145Y-87927855D01*
X82179893Y-87868559D01*
X82097462Y-87824499D01*
X82008018Y-87797366D01*
X81938303Y-87790500D01*
X81938300Y-87790500D01*
X81915000Y-87788205D01*
X81891700Y-87790500D01*
X71513543Y-87790500D01*
X71252042Y-87529000D01*
X71280283Y-87523383D01*
X71380286Y-87481961D01*
X71398935Y-87469500D01*
X75541700Y-87469500D01*
X75565000Y-87471795D01*
X75588300Y-87469500D01*
X75588303Y-87469500D01*
X75658018Y-87462634D01*
X75747462Y-87435501D01*
X75829893Y-87391441D01*
X75902145Y-87332145D01*
X75917005Y-87314038D01*
X76395384Y-86835660D01*
X82772215Y-86835660D01*
X82801206Y-86905652D01*
X82927005Y-87093924D01*
X83087116Y-87254035D01*
X83275388Y-87379834D01*
X83484583Y-87466485D01*
X83706664Y-87510660D01*
X83933096Y-87510660D01*
X84155177Y-87466485D01*
X84364372Y-87379834D01*
X84475435Y-87305624D01*
X86338830Y-87305624D01*
X86387544Y-87525020D01*
X86607967Y-87622969D01*
X86843263Y-87676034D01*
X87084390Y-87682175D01*
X87322083Y-87641155D01*
X87547206Y-87554553D01*
X87602456Y-87525020D01*
X87651170Y-87305624D01*
X86995000Y-86649454D01*
X86338830Y-87305624D01*
X84475435Y-87305624D01*
X84552644Y-87254035D01*
X84712755Y-87093924D01*
X84838554Y-86905652D01*
X84925205Y-86696457D01*
X84955453Y-86544390D01*
X85767825Y-86544390D01*
X85808845Y-86782083D01*
X85895447Y-87007206D01*
X85924980Y-87062456D01*
X86144376Y-87111170D01*
X86800546Y-86455000D01*
X87189454Y-86455000D01*
X87845624Y-87111170D01*
X88065020Y-87062456D01*
X88162969Y-86842033D01*
X88216034Y-86606737D01*
X88222175Y-86365610D01*
X88181155Y-86127917D01*
X88094553Y-85902794D01*
X88065020Y-85847544D01*
X87845624Y-85798830D01*
X87189454Y-86455000D01*
X86800546Y-86455000D01*
X86144376Y-85798830D01*
X85924980Y-85847544D01*
X85827031Y-86067967D01*
X85773966Y-86303263D01*
X85767825Y-86544390D01*
X84955453Y-86544390D01*
X84969380Y-86474376D01*
X84969380Y-86247944D01*
X84925205Y-86025863D01*
X84838554Y-85816668D01*
X84712755Y-85628396D01*
X84552644Y-85468285D01*
X84364372Y-85342486D01*
X84155177Y-85255835D01*
X83933096Y-85211660D01*
X83706664Y-85211660D01*
X83484583Y-85255835D01*
X83275388Y-85342486D01*
X83087116Y-85468285D01*
X82927005Y-85628396D01*
X82801206Y-85816668D01*
X82772215Y-85886660D01*
X76222132Y-85886660D01*
X76198839Y-85884366D01*
X76175546Y-85886660D01*
X76175537Y-85886660D01*
X76105822Y-85893526D01*
X76016378Y-85920659D01*
X75933947Y-85964719D01*
X75861695Y-86024015D01*
X75846839Y-86042117D01*
X75368457Y-86520500D01*
X71398935Y-86520500D01*
X71380286Y-86508039D01*
X71280283Y-86466617D01*
X71174121Y-86445500D01*
X71065879Y-86445500D01*
X70959717Y-86466617D01*
X70859714Y-86508039D01*
X70769714Y-86568175D01*
X70693175Y-86644714D01*
X70633039Y-86734714D01*
X70591617Y-86834717D01*
X70570500Y-86940879D01*
X70570500Y-87049121D01*
X70591617Y-87155283D01*
X70591707Y-87155500D01*
X66408542Y-87155500D01*
X67364543Y-86199500D01*
X70206065Y-86199500D01*
X70224714Y-86211961D01*
X70324717Y-86253383D01*
X70430879Y-86274500D01*
X70539121Y-86274500D01*
X70645283Y-86253383D01*
X70745286Y-86211961D01*
X70763935Y-86199500D01*
X73381065Y-86199500D01*
X73399714Y-86211961D01*
X73499717Y-86253383D01*
X73605879Y-86274500D01*
X73714121Y-86274500D01*
X73820283Y-86253383D01*
X73920286Y-86211961D01*
X74010286Y-86151825D01*
X74086825Y-86075286D01*
X74146961Y-85985286D01*
X74188383Y-85885283D01*
X74209500Y-85779121D01*
X74209500Y-85670879D01*
X74188383Y-85564717D01*
X74146961Y-85464714D01*
X74086825Y-85374714D01*
X74010286Y-85298175D01*
X73920286Y-85238039D01*
X73820283Y-85196617D01*
X73714121Y-85175500D01*
X73605879Y-85175500D01*
X73499717Y-85196617D01*
X73399714Y-85238039D01*
X73381065Y-85250500D01*
X70763935Y-85250500D01*
X70745286Y-85238039D01*
X70645283Y-85196617D01*
X70539121Y-85175500D01*
X70430879Y-85175500D01*
X70324717Y-85196617D01*
X70224714Y-85238039D01*
X70206065Y-85250500D01*
X67191298Y-85250500D01*
X67167998Y-85248205D01*
X67144698Y-85250500D01*
X67144695Y-85250500D01*
X67074980Y-85257366D01*
X66985536Y-85284499D01*
X66903104Y-85328559D01*
X66848953Y-85373000D01*
X66848949Y-85373004D01*
X66830853Y-85387855D01*
X66816001Y-85405952D01*
X65244500Y-86977455D01*
X65244500Y-85829543D01*
X65797285Y-85276759D01*
X65819283Y-85272383D01*
X65919286Y-85230961D01*
X66009286Y-85170825D01*
X66085825Y-85094286D01*
X66145961Y-85004286D01*
X66187383Y-84904283D01*
X66208500Y-84798121D01*
X66208500Y-84689879D01*
X66187383Y-84583717D01*
X66145961Y-84483714D01*
X66085825Y-84393714D01*
X66009286Y-84317175D01*
X65919286Y-84257039D01*
X65819283Y-84215617D01*
X65713121Y-84194500D01*
X65604879Y-84194500D01*
X65498717Y-84215617D01*
X65398714Y-84257039D01*
X65308714Y-84317175D01*
X65232175Y-84393714D01*
X65172039Y-84483714D01*
X65130617Y-84583717D01*
X65126241Y-84605715D01*
X64450962Y-85280995D01*
X64432855Y-85295855D01*
X64373559Y-85368107D01*
X64329499Y-85450539D01*
X64302826Y-85538467D01*
X64232644Y-85468285D01*
X64044372Y-85342486D01*
X63835177Y-85255835D01*
X63613096Y-85211660D01*
X63386664Y-85211660D01*
X63164583Y-85255835D01*
X62955388Y-85342486D01*
X62767116Y-85468285D01*
X62607005Y-85628396D01*
X62481206Y-85816668D01*
X62394555Y-86025863D01*
X62350380Y-86247944D01*
X62350380Y-86474376D01*
X62394555Y-86696457D01*
X62481206Y-86905652D01*
X62607005Y-87093924D01*
X62767116Y-87254035D01*
X62955388Y-87379834D01*
X63164583Y-87466485D01*
X63386664Y-87510660D01*
X63613096Y-87510660D01*
X63835177Y-87466485D01*
X64044372Y-87379834D01*
X64232644Y-87254035D01*
X64295500Y-87191179D01*
X64295500Y-88071141D01*
X64232644Y-88008285D01*
X64044372Y-87882486D01*
X63835177Y-87795835D01*
X63613096Y-87751660D01*
X63386664Y-87751660D01*
X63164583Y-87795835D01*
X62955388Y-87882486D01*
X62767116Y-88008285D01*
X62607005Y-88168396D01*
X62481206Y-88356668D01*
X62394555Y-88565863D01*
X62350380Y-88787944D01*
X62350380Y-89014376D01*
X62394555Y-89236457D01*
X62481206Y-89445652D01*
X62607005Y-89633924D01*
X62767116Y-89794035D01*
X62955388Y-89919834D01*
X63164583Y-90006485D01*
X63386664Y-90050660D01*
X63613096Y-90050660D01*
X63835177Y-90006485D01*
X64044372Y-89919834D01*
X64232644Y-89794035D01*
X64295500Y-89731179D01*
X64295500Y-90611141D01*
X64232644Y-90548285D01*
X64044372Y-90422486D01*
X63835177Y-90335835D01*
X63613096Y-90291660D01*
X63386664Y-90291660D01*
X63164583Y-90335835D01*
X62955388Y-90422486D01*
X62767116Y-90548285D01*
X62607005Y-90708396D01*
X62481206Y-90896668D01*
X62394555Y-91105863D01*
X62350380Y-91327944D01*
X62350380Y-91554376D01*
X62394555Y-91776457D01*
X62481206Y-91985652D01*
X62607005Y-92173924D01*
X62767116Y-92334035D01*
X62955388Y-92459834D01*
X63164583Y-92546485D01*
X63386664Y-92590660D01*
X63613096Y-92590660D01*
X63835177Y-92546485D01*
X64044372Y-92459834D01*
X64232644Y-92334035D01*
X64295500Y-92271179D01*
X64295500Y-93151141D01*
X64232644Y-93088285D01*
X64044372Y-92962486D01*
X63835177Y-92875835D01*
X63613096Y-92831660D01*
X63386664Y-92831660D01*
X63164583Y-92875835D01*
X62955388Y-92962486D01*
X62767116Y-93088285D01*
X62607005Y-93248396D01*
X62481206Y-93436668D01*
X62394555Y-93645863D01*
X62350380Y-93867944D01*
X62350380Y-94094376D01*
X62394555Y-94316457D01*
X62481206Y-94525652D01*
X62607005Y-94713924D01*
X62767116Y-94874035D01*
X62955388Y-94999834D01*
X63164583Y-95086485D01*
X63386664Y-95130660D01*
X63613096Y-95130660D01*
X63835177Y-95086485D01*
X64044372Y-94999834D01*
X64232644Y-94874035D01*
X64295501Y-94811178D01*
X64295501Y-95691142D01*
X64232644Y-95628285D01*
X64044372Y-95502486D01*
X63835177Y-95415835D01*
X63613096Y-95371660D01*
X63386664Y-95371660D01*
X63164583Y-95415835D01*
X62955388Y-95502486D01*
X62767116Y-95628285D01*
X62607005Y-95788396D01*
X62481206Y-95976668D01*
X62394555Y-96185863D01*
X62350380Y-96407944D01*
X62350380Y-96634376D01*
X62394555Y-96856457D01*
X62481206Y-97065652D01*
X62607005Y-97253924D01*
X62767116Y-97414035D01*
X62955388Y-97539834D01*
X63164583Y-97626485D01*
X63386664Y-97670660D01*
X63613096Y-97670660D01*
X63835177Y-97626485D01*
X64044372Y-97539834D01*
X64232644Y-97414035D01*
X64295501Y-97351178D01*
X64295501Y-98231142D01*
X64232644Y-98168285D01*
X64044372Y-98042486D01*
X63835177Y-97955835D01*
X63613096Y-97911660D01*
X63386664Y-97911660D01*
X63164583Y-97955835D01*
X62955388Y-98042486D01*
X62767116Y-98168285D01*
X62607005Y-98328396D01*
X62481206Y-98516668D01*
X62394555Y-98725863D01*
X62350380Y-98947944D01*
X62350380Y-99174376D01*
X62394555Y-99396457D01*
X62481206Y-99605652D01*
X62607005Y-99793924D01*
X62767116Y-99954035D01*
X62955388Y-100079834D01*
X63164583Y-100166485D01*
X63362378Y-100205829D01*
X63362378Y-100339430D01*
X63142272Y-100222272D01*
X62880136Y-100318533D01*
X62641816Y-100464084D01*
X62436471Y-100653333D01*
X62271992Y-100879006D01*
X62154700Y-101132431D01*
X62120998Y-101243553D01*
X62238980Y-101463660D01*
X63362380Y-101463660D01*
X63362380Y-101443660D01*
X63637380Y-101443660D01*
X63637380Y-101463660D01*
X63657380Y-101463660D01*
X63657380Y-101738660D01*
X63637380Y-101738660D01*
X63637380Y-102862889D01*
X63857488Y-102980048D01*
X64119624Y-102883787D01*
X64295501Y-102776372D01*
X64295501Y-103269390D01*
X64231286Y-103205175D01*
X64141286Y-103145039D01*
X64041283Y-103103617D01*
X63935121Y-103082500D01*
X63826879Y-103082500D01*
X63720717Y-103103617D01*
X63620714Y-103145039D01*
X63530714Y-103205175D01*
X63454175Y-103281714D01*
X63394039Y-103371714D01*
X63377559Y-103411500D01*
X61492935Y-103411500D01*
X61474286Y-103399039D01*
X61374283Y-103357617D01*
X61268121Y-103336500D01*
X61159879Y-103336500D01*
X61053717Y-103357617D01*
X60953714Y-103399039D01*
X60863714Y-103459175D01*
X60787175Y-103535714D01*
X60727039Y-103625714D01*
X60699500Y-103692200D01*
X60699500Y-101958767D01*
X62120998Y-101958767D01*
X62154700Y-102069889D01*
X62271992Y-102323314D01*
X62436471Y-102548987D01*
X62641816Y-102738236D01*
X62880136Y-102883787D01*
X63142272Y-102980048D01*
X63362380Y-102862889D01*
X63362380Y-101738660D01*
X62238980Y-101738660D01*
X62120998Y-101958767D01*
X60699500Y-101958767D01*
X60699500Y-83707944D01*
X62350380Y-83707944D01*
X62350380Y-83934376D01*
X62394555Y-84156457D01*
X62481206Y-84365652D01*
X62607005Y-84553924D01*
X62767116Y-84714035D01*
X62955388Y-84839834D01*
X63164583Y-84926485D01*
X63386664Y-84970660D01*
X63613096Y-84970660D01*
X63835177Y-84926485D01*
X64044372Y-84839834D01*
X64232644Y-84714035D01*
X64392755Y-84553924D01*
X64518554Y-84365652D01*
X64605205Y-84156457D01*
X64649380Y-83934376D01*
X64649380Y-83707944D01*
X82670380Y-83707944D01*
X82670380Y-83934376D01*
X82714555Y-84156457D01*
X82801206Y-84365652D01*
X82927005Y-84553924D01*
X83087116Y-84714035D01*
X83275388Y-84839834D01*
X83484583Y-84926485D01*
X83706664Y-84970660D01*
X83933096Y-84970660D01*
X84155177Y-84926485D01*
X84364372Y-84839834D01*
X84552644Y-84714035D01*
X84712755Y-84553924D01*
X84838554Y-84365652D01*
X84925205Y-84156457D01*
X84969380Y-83934376D01*
X84969380Y-83707944D01*
X84925205Y-83485863D01*
X84838554Y-83276668D01*
X84712755Y-83088396D01*
X84552644Y-82928285D01*
X84364372Y-82802486D01*
X84155177Y-82715835D01*
X83933096Y-82671660D01*
X83706664Y-82671660D01*
X83484583Y-82715835D01*
X83275388Y-82802486D01*
X83087116Y-82928285D01*
X82927005Y-83088396D01*
X82801206Y-83276668D01*
X82714555Y-83485863D01*
X82670380Y-83707944D01*
X64649380Y-83707944D01*
X64605205Y-83485863D01*
X64518554Y-83276668D01*
X64392755Y-83088396D01*
X64232644Y-82928285D01*
X64203365Y-82908721D01*
X71630733Y-82908721D01*
X71703779Y-83148487D01*
X71958374Y-83266465D01*
X72231094Y-83332507D01*
X72511459Y-83344074D01*
X72788692Y-83300724D01*
X73052142Y-83204120D01*
X73156221Y-83148487D01*
X73229267Y-82908721D01*
X72430000Y-82109454D01*
X71630733Y-82908721D01*
X64203365Y-82908721D01*
X64044372Y-82802486D01*
X63835177Y-82715835D01*
X63613096Y-82671660D01*
X63386664Y-82671660D01*
X63164583Y-82715835D01*
X62955388Y-82802486D01*
X62767116Y-82928285D01*
X62607005Y-83088396D01*
X62481206Y-83276668D01*
X62394555Y-83485863D01*
X62350380Y-83707944D01*
X60699500Y-83707944D01*
X60699500Y-81019500D01*
X71340043Y-81019500D01*
X71436277Y-81115734D01*
M02*
