G04 #@! TF.GenerationSoftware,KiCad,Pcbnew,(5.1.2)-1*
G04 #@! TF.CreationDate,2019-11-23T21:49:29-05:00*
G04 #@! TF.ProjectId,c128-sram,63313238-2d73-4726-916d-2e6b69636164,rev?*
G04 #@! TF.SameCoordinates,Original*
G04 #@! TF.FileFunction,Legend,Top*
G04 #@! TF.FilePolarity,Positive*
%FSLAX46Y46*%
G04 Gerber Fmt 4.6, Leading zero omitted, Abs format (unit mm)*
G04 Created by KiCad (PCBNEW (5.1.2)-1) date 2019-11-23 21:49:29*
%MOMM*%
%LPD*%
G04 APERTURE LIST*
%ADD10C,0.120000*%
%ADD11C,0.160000*%
%ADD12C,0.250000*%
%ADD13C,0.100000*%
%ADD14C,0.150000*%
G04 APERTURE END LIST*
D10*
X90551000Y-108077000D02*
X90551000Y-96393000D01*
X84582000Y-108077000D02*
X90551000Y-108077000D01*
X84582000Y-96393000D02*
X84582000Y-108077000D01*
X90551000Y-96393000D02*
X84582000Y-96393000D01*
D11*
X84801428Y-96624857D02*
X85487142Y-96624857D01*
X85144285Y-97824857D02*
X85144285Y-96624857D01*
X85887142Y-97824857D02*
X85887142Y-96624857D01*
X86458571Y-97824857D02*
X86458571Y-96624857D01*
X86858571Y-97482000D01*
X87258571Y-96624857D01*
X87258571Y-97824857D01*
X87830000Y-97824857D02*
X87830000Y-96624857D01*
X88401428Y-97824857D02*
X88401428Y-96624857D01*
X89087142Y-97824857D01*
X89087142Y-96624857D01*
X90287142Y-96682000D02*
X90172857Y-96624857D01*
X90001428Y-96624857D01*
X89830000Y-96682000D01*
X89715714Y-96796285D01*
X89658571Y-96910571D01*
X89601428Y-97139142D01*
X89601428Y-97310571D01*
X89658571Y-97539142D01*
X89715714Y-97653428D01*
X89830000Y-97767714D01*
X90001428Y-97824857D01*
X90115714Y-97824857D01*
X90287142Y-97767714D01*
X90344285Y-97710571D01*
X90344285Y-97310571D01*
X90115714Y-97310571D01*
D12*
X81324142Y-81466571D02*
X81324142Y-82466571D01*
X80967000Y-80895142D02*
X80609857Y-81966571D01*
X81538428Y-81966571D01*
X82895571Y-82466571D02*
X82038428Y-82466571D01*
X82467000Y-82466571D02*
X82467000Y-80966571D01*
X82324142Y-81180857D01*
X82181285Y-81323714D01*
X82038428Y-81395142D01*
X84181285Y-80966571D02*
X83895571Y-80966571D01*
X83752714Y-81038000D01*
X83681285Y-81109428D01*
X83538428Y-81323714D01*
X83467000Y-81609428D01*
X83467000Y-82180857D01*
X83538428Y-82323714D01*
X83609857Y-82395142D01*
X83752714Y-82466571D01*
X84038428Y-82466571D01*
X84181285Y-82395142D01*
X84252714Y-82323714D01*
X84324142Y-82180857D01*
X84324142Y-81823714D01*
X84252714Y-81680857D01*
X84181285Y-81609428D01*
X84038428Y-81538000D01*
X83752714Y-81538000D01*
X83609857Y-81609428D01*
X83538428Y-81680857D01*
X83467000Y-81823714D01*
X85609857Y-81466571D02*
X85609857Y-82466571D01*
X85252714Y-80895142D02*
X84895571Y-81966571D01*
X85824142Y-81966571D01*
X86252714Y-82466571D02*
X87038428Y-81466571D01*
X86252714Y-81466571D02*
X87038428Y-82466571D01*
X88395571Y-82466571D02*
X87538428Y-82466571D01*
X87967000Y-82466571D02*
X87967000Y-80966571D01*
X87824142Y-81180857D01*
X87681285Y-81323714D01*
X87538428Y-81395142D01*
X89681285Y-80966571D02*
X89395571Y-80966571D01*
X89252714Y-81038000D01*
X89181285Y-81109428D01*
X89038428Y-81323714D01*
X88967000Y-81609428D01*
X88967000Y-82180857D01*
X89038428Y-82323714D01*
X89109857Y-82395142D01*
X89252714Y-82466571D01*
X89538428Y-82466571D01*
X89681285Y-82395142D01*
X89752714Y-82323714D01*
X89824142Y-82180857D01*
X89824142Y-81823714D01*
X89752714Y-81680857D01*
X89681285Y-81609428D01*
X89538428Y-81538000D01*
X89252714Y-81538000D01*
X89109857Y-81609428D01*
X89038428Y-81680857D01*
X88967000Y-81823714D01*
D10*
X77359880Y-102931160D02*
X79009880Y-102931160D01*
X77359880Y-82491160D02*
X77359880Y-102931160D01*
X82659880Y-82491160D02*
X77359880Y-82491160D01*
X82659880Y-102931160D02*
X82659880Y-82491160D01*
X81009880Y-102931160D02*
X82659880Y-102931160D01*
X79009880Y-102931160D02*
G75*
G02X81009880Y-102931160I1000000J0D01*
G01*
X87915000Y-111111000D02*
X87915000Y-112369000D01*
X86075000Y-111111000D02*
X86075000Y-112369000D01*
X74309000Y-82835000D02*
X73051000Y-82835000D01*
X74309000Y-80995000D02*
X73051000Y-80995000D01*
X86075000Y-92696000D02*
X86075000Y-93954000D01*
X87915000Y-92696000D02*
X87915000Y-93954000D01*
X87695000Y-98060000D02*
G75*
G02X88395000Y-98760000I0J-700000D01*
G01*
X88395000Y-99360000D02*
G75*
G02X87695000Y-100060000I-700000J0D01*
G01*
X86295000Y-100060000D02*
G75*
G02X85595000Y-99360000I0J700000D01*
G01*
X85595000Y-98760000D02*
G75*
G02X86295000Y-98060000I700000J0D01*
G01*
X85595000Y-99360000D02*
X85595000Y-98760000D01*
X87695000Y-100060000D02*
X86295000Y-100060000D01*
X88395000Y-98760000D02*
X88395000Y-99360000D01*
X86295000Y-98060000D02*
X87695000Y-98060000D01*
X86295000Y-100600000D02*
X87695000Y-100600000D01*
X88395000Y-101300000D02*
X88395000Y-101900000D01*
X87695000Y-102600000D02*
X86295000Y-102600000D01*
X85595000Y-101900000D02*
X85595000Y-101300000D01*
X85595000Y-101300000D02*
G75*
G02X86295000Y-100600000I700000J0D01*
G01*
X86295000Y-102600000D02*
G75*
G02X85595000Y-101900000I0J700000D01*
G01*
X88395000Y-101900000D02*
G75*
G02X87695000Y-102600000I-700000J0D01*
G01*
X87695000Y-100600000D02*
G75*
G02X88395000Y-101300000I0J-700000D01*
G01*
X87695000Y-103140000D02*
G75*
G02X88395000Y-103840000I0J-700000D01*
G01*
X88395000Y-104440000D02*
G75*
G02X87695000Y-105140000I-700000J0D01*
G01*
X86295000Y-105140000D02*
G75*
G02X85595000Y-104440000I0J700000D01*
G01*
X85595000Y-103840000D02*
G75*
G02X86295000Y-103140000I700000J0D01*
G01*
X85595000Y-104440000D02*
X85595000Y-103840000D01*
X87695000Y-105140000D02*
X86295000Y-105140000D01*
X88395000Y-103840000D02*
X88395000Y-104440000D01*
X86295000Y-103140000D02*
X87695000Y-103140000D01*
X86295000Y-105680000D02*
X87695000Y-105680000D01*
X88395000Y-106380000D02*
X88395000Y-106980000D01*
X87695000Y-107680000D02*
X86295000Y-107680000D01*
X85595000Y-106980000D02*
X85595000Y-106380000D01*
X85595000Y-106380000D02*
G75*
G02X86295000Y-105680000I700000J0D01*
G01*
X86295000Y-107680000D02*
G75*
G02X85595000Y-106980000I0J700000D01*
G01*
X88395000Y-106980000D02*
G75*
G02X87695000Y-107680000I-700000J0D01*
G01*
X87695000Y-105680000D02*
G75*
G02X88395000Y-106380000I0J-700000D01*
G01*
X70660000Y-96700000D02*
X76660000Y-96700000D01*
X68660000Y-83640000D02*
X73660000Y-83640000D01*
X64460000Y-112070000D02*
X82860000Y-112070000D01*
D13*
X82860000Y-103830000D02*
X63460000Y-103830000D01*
D10*
X83880000Y-115630000D02*
X83880000Y-112970000D01*
X78740000Y-115630000D02*
X83880000Y-115630000D01*
X78740000Y-112970000D02*
X83880000Y-112970000D01*
X78740000Y-115630000D02*
X78740000Y-112970000D01*
X77470000Y-115630000D02*
X76140000Y-115630000D01*
X76140000Y-115630000D02*
X76140000Y-114300000D01*
X63440000Y-115630000D02*
X63440000Y-114300000D01*
X64770000Y-115630000D02*
X63440000Y-115630000D01*
X66040000Y-115630000D02*
X66040000Y-112970000D01*
X66040000Y-112970000D02*
X71180000Y-112970000D01*
X66040000Y-115630000D02*
X71180000Y-115630000D01*
X71180000Y-115630000D02*
X71180000Y-112970000D01*
X72330000Y-115630000D02*
X74990000Y-115630000D01*
X72330000Y-115570000D02*
X72330000Y-115630000D01*
X74990000Y-115570000D02*
X74990000Y-115630000D01*
X72330000Y-115570000D02*
X74990000Y-115570000D01*
X72330000Y-114300000D02*
X72330000Y-112970000D01*
X72330000Y-112970000D02*
X73660000Y-112970000D01*
X66309880Y-102931160D02*
G75*
G02X68309880Y-102931160I1000000J0D01*
G01*
X68309880Y-102931160D02*
X69959880Y-102931160D01*
X69959880Y-102931160D02*
X69959880Y-82491160D01*
X69959880Y-82491160D02*
X64659880Y-82491160D01*
X64659880Y-82491160D02*
X64659880Y-102931160D01*
X64659880Y-102931160D02*
X66309880Y-102931160D01*
X89115000Y-85455000D02*
G75*
G03X89115000Y-85455000I-2120000J0D01*
G01*
X89075000Y-85455000D02*
X84915000Y-85455000D01*
X89075000Y-85495000D02*
X84915000Y-85495000D01*
X89074000Y-85535000D02*
X84916000Y-85535000D01*
X89072000Y-85575000D02*
X84918000Y-85575000D01*
X89069000Y-85615000D02*
X84921000Y-85615000D01*
X89066000Y-85655000D02*
X87835000Y-85655000D01*
X86155000Y-85655000D02*
X84924000Y-85655000D01*
X89062000Y-85695000D02*
X87835000Y-85695000D01*
X86155000Y-85695000D02*
X84928000Y-85695000D01*
X89057000Y-85735000D02*
X87835000Y-85735000D01*
X86155000Y-85735000D02*
X84933000Y-85735000D01*
X89051000Y-85775000D02*
X87835000Y-85775000D01*
X86155000Y-85775000D02*
X84939000Y-85775000D01*
X89045000Y-85815000D02*
X87835000Y-85815000D01*
X86155000Y-85815000D02*
X84945000Y-85815000D01*
X89037000Y-85855000D02*
X87835000Y-85855000D01*
X86155000Y-85855000D02*
X84953000Y-85855000D01*
X89029000Y-85895000D02*
X87835000Y-85895000D01*
X86155000Y-85895000D02*
X84961000Y-85895000D01*
X89020000Y-85935000D02*
X87835000Y-85935000D01*
X86155000Y-85935000D02*
X84970000Y-85935000D01*
X89011000Y-85975000D02*
X87835000Y-85975000D01*
X86155000Y-85975000D02*
X84979000Y-85975000D01*
X89000000Y-86015000D02*
X87835000Y-86015000D01*
X86155000Y-86015000D02*
X84990000Y-86015000D01*
X88989000Y-86055000D02*
X87835000Y-86055000D01*
X86155000Y-86055000D02*
X85001000Y-86055000D01*
X88977000Y-86095000D02*
X87835000Y-86095000D01*
X86155000Y-86095000D02*
X85013000Y-86095000D01*
X88963000Y-86135000D02*
X87835000Y-86135000D01*
X86155000Y-86135000D02*
X85027000Y-86135000D01*
X88949000Y-86176000D02*
X87835000Y-86176000D01*
X86155000Y-86176000D02*
X85041000Y-86176000D01*
X88935000Y-86216000D02*
X87835000Y-86216000D01*
X86155000Y-86216000D02*
X85055000Y-86216000D01*
X88919000Y-86256000D02*
X87835000Y-86256000D01*
X86155000Y-86256000D02*
X85071000Y-86256000D01*
X88902000Y-86296000D02*
X87835000Y-86296000D01*
X86155000Y-86296000D02*
X85088000Y-86296000D01*
X88884000Y-86336000D02*
X87835000Y-86336000D01*
X86155000Y-86336000D02*
X85106000Y-86336000D01*
X88865000Y-86376000D02*
X87835000Y-86376000D01*
X86155000Y-86376000D02*
X85125000Y-86376000D01*
X88846000Y-86416000D02*
X87835000Y-86416000D01*
X86155000Y-86416000D02*
X85144000Y-86416000D01*
X88825000Y-86456000D02*
X87835000Y-86456000D01*
X86155000Y-86456000D02*
X85165000Y-86456000D01*
X88803000Y-86496000D02*
X87835000Y-86496000D01*
X86155000Y-86496000D02*
X85187000Y-86496000D01*
X88780000Y-86536000D02*
X87835000Y-86536000D01*
X86155000Y-86536000D02*
X85210000Y-86536000D01*
X88755000Y-86576000D02*
X87835000Y-86576000D01*
X86155000Y-86576000D02*
X85235000Y-86576000D01*
X88730000Y-86616000D02*
X87835000Y-86616000D01*
X86155000Y-86616000D02*
X85260000Y-86616000D01*
X88703000Y-86656000D02*
X87835000Y-86656000D01*
X86155000Y-86656000D02*
X85287000Y-86656000D01*
X88675000Y-86696000D02*
X87835000Y-86696000D01*
X86155000Y-86696000D02*
X85315000Y-86696000D01*
X88645000Y-86736000D02*
X87835000Y-86736000D01*
X86155000Y-86736000D02*
X85345000Y-86736000D01*
X88614000Y-86776000D02*
X87835000Y-86776000D01*
X86155000Y-86776000D02*
X85376000Y-86776000D01*
X88582000Y-86816000D02*
X87835000Y-86816000D01*
X86155000Y-86816000D02*
X85408000Y-86816000D01*
X88547000Y-86856000D02*
X87835000Y-86856000D01*
X86155000Y-86856000D02*
X85443000Y-86856000D01*
X88511000Y-86896000D02*
X87835000Y-86896000D01*
X86155000Y-86896000D02*
X85479000Y-86896000D01*
X88473000Y-86936000D02*
X87835000Y-86936000D01*
X86155000Y-86936000D02*
X85517000Y-86936000D01*
X88433000Y-86976000D02*
X87835000Y-86976000D01*
X86155000Y-86976000D02*
X85557000Y-86976000D01*
X88391000Y-87016000D02*
X87835000Y-87016000D01*
X86155000Y-87016000D02*
X85599000Y-87016000D01*
X88346000Y-87056000D02*
X87835000Y-87056000D01*
X86155000Y-87056000D02*
X85644000Y-87056000D01*
X88299000Y-87096000D02*
X87835000Y-87096000D01*
X86155000Y-87096000D02*
X85691000Y-87096000D01*
X88249000Y-87136000D02*
X87835000Y-87136000D01*
X86155000Y-87136000D02*
X85741000Y-87136000D01*
X88195000Y-87176000D02*
X87835000Y-87176000D01*
X86155000Y-87176000D02*
X85795000Y-87176000D01*
X88137000Y-87216000D02*
X87835000Y-87216000D01*
X86155000Y-87216000D02*
X85853000Y-87216000D01*
X88075000Y-87256000D02*
X87835000Y-87256000D01*
X86155000Y-87256000D02*
X85915000Y-87256000D01*
X88008000Y-87296000D02*
X85982000Y-87296000D01*
X87935000Y-87336000D02*
X86055000Y-87336000D01*
X87854000Y-87376000D02*
X86136000Y-87376000D01*
X87763000Y-87416000D02*
X86227000Y-87416000D01*
X87659000Y-87456000D02*
X86331000Y-87456000D01*
X87532000Y-87496000D02*
X86458000Y-87496000D01*
X87365000Y-87536000D02*
X86625000Y-87536000D01*
X88190000Y-83185199D02*
X88190000Y-83585199D01*
X88390000Y-83385199D02*
X87990000Y-83385199D01*
D14*
X89402142Y-111906666D02*
X89449761Y-111954285D01*
X89497380Y-112097142D01*
X89497380Y-112192380D01*
X89449761Y-112335238D01*
X89354523Y-112430476D01*
X89259285Y-112478095D01*
X89068809Y-112525714D01*
X88925952Y-112525714D01*
X88735476Y-112478095D01*
X88640238Y-112430476D01*
X88545000Y-112335238D01*
X88497380Y-112192380D01*
X88497380Y-112097142D01*
X88545000Y-111954285D01*
X88592619Y-111906666D01*
X88592619Y-111525714D02*
X88545000Y-111478095D01*
X88497380Y-111382857D01*
X88497380Y-111144761D01*
X88545000Y-111049523D01*
X88592619Y-111001904D01*
X88687857Y-110954285D01*
X88783095Y-110954285D01*
X88925952Y-111001904D01*
X89497380Y-111573333D01*
X89497380Y-110954285D01*
X70064333Y-82018142D02*
X70016714Y-82065761D01*
X69873857Y-82113380D01*
X69778619Y-82113380D01*
X69635761Y-82065761D01*
X69540523Y-81970523D01*
X69492904Y-81875285D01*
X69445285Y-81684809D01*
X69445285Y-81541952D01*
X69492904Y-81351476D01*
X69540523Y-81256238D01*
X69635761Y-81161000D01*
X69778619Y-81113380D01*
X69873857Y-81113380D01*
X70016714Y-81161000D01*
X70064333Y-81208619D01*
X70397666Y-81113380D02*
X71016714Y-81113380D01*
X70683380Y-81494333D01*
X70826238Y-81494333D01*
X70921476Y-81541952D01*
X70969095Y-81589571D01*
X71016714Y-81684809D01*
X71016714Y-81922904D01*
X70969095Y-82018142D01*
X70921476Y-82065761D01*
X70826238Y-82113380D01*
X70540523Y-82113380D01*
X70445285Y-82065761D01*
X70397666Y-82018142D01*
X89402142Y-93491666D02*
X89449761Y-93539285D01*
X89497380Y-93682142D01*
X89497380Y-93777380D01*
X89449761Y-93920238D01*
X89354523Y-94015476D01*
X89259285Y-94063095D01*
X89068809Y-94110714D01*
X88925952Y-94110714D01*
X88735476Y-94063095D01*
X88640238Y-94015476D01*
X88545000Y-93920238D01*
X88497380Y-93777380D01*
X88497380Y-93682142D01*
X88545000Y-93539285D01*
X88592619Y-93491666D01*
X88830714Y-92634523D02*
X89497380Y-92634523D01*
X88449761Y-92872619D02*
X89164047Y-93110714D01*
X89164047Y-92491666D01*
X89201666Y-98512380D02*
X89201666Y-99226666D01*
X89154047Y-99369523D01*
X89058809Y-99464761D01*
X88915952Y-99512380D01*
X88820714Y-99512380D01*
X90201666Y-99512380D02*
X89630238Y-99512380D01*
X89915952Y-99512380D02*
X89915952Y-98512380D01*
X89820714Y-98655238D01*
X89725476Y-98750476D01*
X89630238Y-98798095D01*
X89201666Y-101052380D02*
X89201666Y-101766666D01*
X89154047Y-101909523D01*
X89058809Y-102004761D01*
X88915952Y-102052380D01*
X88820714Y-102052380D01*
X89630238Y-101147619D02*
X89677857Y-101100000D01*
X89773095Y-101052380D01*
X90011190Y-101052380D01*
X90106428Y-101100000D01*
X90154047Y-101147619D01*
X90201666Y-101242857D01*
X90201666Y-101338095D01*
X90154047Y-101480952D01*
X89582619Y-102052380D01*
X90201666Y-102052380D01*
X89201666Y-103592380D02*
X89201666Y-104306666D01*
X89154047Y-104449523D01*
X89058809Y-104544761D01*
X88915952Y-104592380D01*
X88820714Y-104592380D01*
X89582619Y-103592380D02*
X90201666Y-103592380D01*
X89868333Y-103973333D01*
X90011190Y-103973333D01*
X90106428Y-104020952D01*
X90154047Y-104068571D01*
X90201666Y-104163809D01*
X90201666Y-104401904D01*
X90154047Y-104497142D01*
X90106428Y-104544761D01*
X90011190Y-104592380D01*
X89725476Y-104592380D01*
X89630238Y-104544761D01*
X89582619Y-104497142D01*
X89201666Y-106132380D02*
X89201666Y-106846666D01*
X89154047Y-106989523D01*
X89058809Y-107084761D01*
X88915952Y-107132380D01*
X88820714Y-107132380D01*
X90106428Y-106465714D02*
X90106428Y-107132380D01*
X89868333Y-106084761D02*
X89630238Y-106799047D01*
X90249285Y-106799047D01*
X72898095Y-89495380D02*
X72898095Y-90304904D01*
X72945714Y-90400142D01*
X72993333Y-90447761D01*
X73088571Y-90495380D01*
X73279047Y-90495380D01*
X73374285Y-90447761D01*
X73421904Y-90400142D01*
X73469523Y-90304904D01*
X73469523Y-89495380D01*
X73898095Y-89590619D02*
X73945714Y-89543000D01*
X74040952Y-89495380D01*
X74279047Y-89495380D01*
X74374285Y-89543000D01*
X74421904Y-89590619D01*
X74469523Y-89685857D01*
X74469523Y-89781095D01*
X74421904Y-89923952D01*
X73850476Y-90495380D01*
X74469523Y-90495380D01*
X72898095Y-102402380D02*
X72898095Y-103211904D01*
X72945714Y-103307142D01*
X72993333Y-103354761D01*
X73088571Y-103402380D01*
X73279047Y-103402380D01*
X73374285Y-103354761D01*
X73421904Y-103307142D01*
X73469523Y-103211904D01*
X73469523Y-102402380D01*
X73850476Y-102402380D02*
X74469523Y-102402380D01*
X74136190Y-102783333D01*
X74279047Y-102783333D01*
X74374285Y-102830952D01*
X74421904Y-102878571D01*
X74469523Y-102973809D01*
X74469523Y-103211904D01*
X74421904Y-103307142D01*
X74374285Y-103354761D01*
X74279047Y-103402380D01*
X73993333Y-103402380D01*
X73898095Y-103354761D01*
X73850476Y-103307142D01*
X84931476Y-115641380D02*
X84598142Y-115165190D01*
X84360047Y-115641380D02*
X84360047Y-114641380D01*
X84741000Y-114641380D01*
X84836238Y-114689000D01*
X84883857Y-114736619D01*
X84931476Y-114831857D01*
X84931476Y-114974714D01*
X84883857Y-115069952D01*
X84836238Y-115117571D01*
X84741000Y-115165190D01*
X84360047Y-115165190D01*
X85360047Y-115641380D02*
X85360047Y-114641380D01*
X86360047Y-114689000D02*
X86264809Y-114641380D01*
X86121952Y-114641380D01*
X85979095Y-114689000D01*
X85883857Y-114784238D01*
X85836238Y-114879476D01*
X85788619Y-115069952D01*
X85788619Y-115212809D01*
X85836238Y-115403285D01*
X85883857Y-115498523D01*
X85979095Y-115593761D01*
X86121952Y-115641380D01*
X86217190Y-115641380D01*
X86360047Y-115593761D01*
X86407666Y-115546142D01*
X86407666Y-115212809D01*
X86217190Y-115212809D01*
X86836238Y-115641380D02*
X86836238Y-114641380D01*
X86836238Y-115117571D02*
X87407666Y-115117571D01*
X87407666Y-115641380D02*
X87407666Y-114641380D01*
X87741000Y-114641380D02*
X88312428Y-114641380D01*
X88026714Y-115641380D02*
X88026714Y-114641380D01*
X88550523Y-114641380D02*
X89169571Y-114641380D01*
X88836238Y-115022333D01*
X88979095Y-115022333D01*
X89074333Y-115069952D01*
X89121952Y-115117571D01*
X89169571Y-115212809D01*
X89169571Y-115450904D01*
X89121952Y-115546142D01*
X89074333Y-115593761D01*
X88979095Y-115641380D01*
X88693380Y-115641380D01*
X88598142Y-115593761D01*
X88550523Y-115546142D01*
X62174380Y-115220571D02*
X62174380Y-115696761D01*
X61174380Y-115696761D01*
X61650571Y-114887238D02*
X61650571Y-114553904D01*
X62174380Y-114411047D02*
X62174380Y-114887238D01*
X61174380Y-114887238D01*
X61174380Y-114411047D01*
X61650571Y-113649142D02*
X61650571Y-113982476D01*
X62174380Y-113982476D02*
X61174380Y-113982476D01*
X61174380Y-113506285D01*
X61174380Y-113268190D02*
X61174380Y-112696761D01*
X62174380Y-112982476D02*
X61174380Y-112982476D01*
X61174380Y-112458666D02*
X61174380Y-111839619D01*
X61555333Y-112172952D01*
X61555333Y-112030095D01*
X61602952Y-111934857D01*
X61650571Y-111887238D01*
X61745809Y-111839619D01*
X61983904Y-111839619D01*
X62079142Y-111887238D01*
X62126761Y-111934857D01*
X62174380Y-112030095D01*
X62174380Y-112315809D01*
X62126761Y-112411047D01*
X62079142Y-112458666D01*
X72612380Y-112053761D02*
X71755238Y-113339476D01*
X73517142Y-113101380D02*
X73183809Y-112625190D01*
X72945714Y-113101380D02*
X72945714Y-112101380D01*
X73326666Y-112101380D01*
X73421904Y-112149000D01*
X73469523Y-112196619D01*
X73517142Y-112291857D01*
X73517142Y-112434714D01*
X73469523Y-112529952D01*
X73421904Y-112577571D01*
X73326666Y-112625190D01*
X72945714Y-112625190D01*
X74517142Y-113006142D02*
X74469523Y-113053761D01*
X74326666Y-113101380D01*
X74231428Y-113101380D01*
X74088571Y-113053761D01*
X73993333Y-112958523D01*
X73945714Y-112863285D01*
X73898095Y-112672809D01*
X73898095Y-112529952D01*
X73945714Y-112339476D01*
X73993333Y-112244238D01*
X74088571Y-112149000D01*
X74231428Y-112101380D01*
X74326666Y-112101380D01*
X74469523Y-112149000D01*
X74517142Y-112196619D01*
X75469523Y-113101380D02*
X74898095Y-113101380D01*
X75183809Y-113101380D02*
X75183809Y-112101380D01*
X75088571Y-112244238D01*
X74993333Y-112339476D01*
X74898095Y-112387095D01*
X86955333Y-88622142D02*
X86907714Y-88669761D01*
X86764857Y-88717380D01*
X86669619Y-88717380D01*
X86526761Y-88669761D01*
X86431523Y-88574523D01*
X86383904Y-88479285D01*
X86336285Y-88288809D01*
X86336285Y-88145952D01*
X86383904Y-87955476D01*
X86431523Y-87860238D01*
X86526761Y-87765000D01*
X86669619Y-87717380D01*
X86764857Y-87717380D01*
X86907714Y-87765000D01*
X86955333Y-87812619D01*
X87907714Y-88717380D02*
X87336285Y-88717380D01*
X87622000Y-88717380D02*
X87622000Y-87717380D01*
X87526761Y-87860238D01*
X87431523Y-87955476D01*
X87336285Y-88003095D01*
M02*
