G04 #@! TF.GenerationSoftware,KiCad,Pcbnew,(5.1.5)-3*
G04 #@! TF.CreationDate,2021-02-15T21:04:51-05:00*
G04 #@! TF.ProjectId,c128-sram,63313238-2d73-4726-916d-2e6b69636164,rev?*
G04 #@! TF.SameCoordinates,Original*
G04 #@! TF.FileFunction,Soldermask,Top*
G04 #@! TF.FilePolarity,Negative*
%FSLAX46Y46*%
G04 Gerber Fmt 4.6, Leading zero omitted, Abs format (unit mm)*
G04 Created by KiCad (PCBNEW (5.1.5)-3) date 2021-02-15 21:04:51*
%MOMM*%
%LPD*%
G04 APERTURE LIST*
%ADD10C,0.100000*%
G04 APERTURE END LIST*
D10*
G36*
X82663512Y-113403927D02*
G01*
X82812812Y-113433624D01*
X82976784Y-113501544D01*
X83124354Y-113600147D01*
X83249853Y-113725646D01*
X83348456Y-113873216D01*
X83416376Y-114037188D01*
X83451000Y-114211259D01*
X83451000Y-114388741D01*
X83416376Y-114562812D01*
X83348456Y-114726784D01*
X83249853Y-114874354D01*
X83124354Y-114999853D01*
X82976784Y-115098456D01*
X82812812Y-115166376D01*
X82663512Y-115196073D01*
X82638742Y-115201000D01*
X82461258Y-115201000D01*
X82436488Y-115196073D01*
X82287188Y-115166376D01*
X82123216Y-115098456D01*
X81975646Y-114999853D01*
X81850147Y-114874354D01*
X81751544Y-114726784D01*
X81683624Y-114562812D01*
X81649000Y-114388741D01*
X81649000Y-114211259D01*
X81683624Y-114037188D01*
X81751544Y-113873216D01*
X81850147Y-113725646D01*
X81975646Y-113600147D01*
X82123216Y-113501544D01*
X82287188Y-113433624D01*
X82436488Y-113403927D01*
X82461258Y-113399000D01*
X82638742Y-113399000D01*
X82663512Y-113403927D01*
G37*
G36*
X80123512Y-113403927D02*
G01*
X80272812Y-113433624D01*
X80436784Y-113501544D01*
X80584354Y-113600147D01*
X80709853Y-113725646D01*
X80808456Y-113873216D01*
X80876376Y-114037188D01*
X80911000Y-114211259D01*
X80911000Y-114388741D01*
X80876376Y-114562812D01*
X80808456Y-114726784D01*
X80709853Y-114874354D01*
X80584354Y-114999853D01*
X80436784Y-115098456D01*
X80272812Y-115166376D01*
X80123512Y-115196073D01*
X80098742Y-115201000D01*
X79921258Y-115201000D01*
X79896488Y-115196073D01*
X79747188Y-115166376D01*
X79583216Y-115098456D01*
X79435646Y-114999853D01*
X79310147Y-114874354D01*
X79211544Y-114726784D01*
X79143624Y-114562812D01*
X79109000Y-114388741D01*
X79109000Y-114211259D01*
X79143624Y-114037188D01*
X79211544Y-113873216D01*
X79310147Y-113725646D01*
X79435646Y-113600147D01*
X79583216Y-113501544D01*
X79747188Y-113433624D01*
X79896488Y-113403927D01*
X79921258Y-113399000D01*
X80098742Y-113399000D01*
X80123512Y-113403927D01*
G37*
G36*
X74561000Y-115201000D02*
G01*
X72759000Y-115201000D01*
X72759000Y-113399000D01*
X74561000Y-113399000D01*
X74561000Y-115201000D01*
G37*
G36*
X65671000Y-115201000D02*
G01*
X63869000Y-115201000D01*
X63869000Y-113399000D01*
X65671000Y-113399000D01*
X65671000Y-115201000D01*
G37*
G36*
X69963512Y-113403927D02*
G01*
X70112812Y-113433624D01*
X70276784Y-113501544D01*
X70424354Y-113600147D01*
X70549853Y-113725646D01*
X70648456Y-113873216D01*
X70716376Y-114037188D01*
X70751000Y-114211259D01*
X70751000Y-114388741D01*
X70716376Y-114562812D01*
X70648456Y-114726784D01*
X70549853Y-114874354D01*
X70424354Y-114999853D01*
X70276784Y-115098456D01*
X70112812Y-115166376D01*
X69963512Y-115196073D01*
X69938742Y-115201000D01*
X69761258Y-115201000D01*
X69736488Y-115196073D01*
X69587188Y-115166376D01*
X69423216Y-115098456D01*
X69275646Y-114999853D01*
X69150147Y-114874354D01*
X69051544Y-114726784D01*
X68983624Y-114562812D01*
X68949000Y-114388741D01*
X68949000Y-114211259D01*
X68983624Y-114037188D01*
X69051544Y-113873216D01*
X69150147Y-113725646D01*
X69275646Y-113600147D01*
X69423216Y-113501544D01*
X69587188Y-113433624D01*
X69736488Y-113403927D01*
X69761258Y-113399000D01*
X69938742Y-113399000D01*
X69963512Y-113403927D01*
G37*
G36*
X78371000Y-115201000D02*
G01*
X76569000Y-115201000D01*
X76569000Y-113399000D01*
X78371000Y-113399000D01*
X78371000Y-115201000D01*
G37*
G36*
X67423512Y-113403927D02*
G01*
X67572812Y-113433624D01*
X67736784Y-113501544D01*
X67884354Y-113600147D01*
X68009853Y-113725646D01*
X68108456Y-113873216D01*
X68176376Y-114037188D01*
X68211000Y-114211259D01*
X68211000Y-114388741D01*
X68176376Y-114562812D01*
X68108456Y-114726784D01*
X68009853Y-114874354D01*
X67884354Y-114999853D01*
X67736784Y-115098456D01*
X67572812Y-115166376D01*
X67423512Y-115196073D01*
X67398742Y-115201000D01*
X67221258Y-115201000D01*
X67196488Y-115196073D01*
X67047188Y-115166376D01*
X66883216Y-115098456D01*
X66735646Y-114999853D01*
X66610147Y-114874354D01*
X66511544Y-114726784D01*
X66443624Y-114562812D01*
X66409000Y-114388741D01*
X66409000Y-114211259D01*
X66443624Y-114037188D01*
X66511544Y-113873216D01*
X66610147Y-113725646D01*
X66735646Y-113600147D01*
X66883216Y-113501544D01*
X67047188Y-113433624D01*
X67196488Y-113403927D01*
X67221258Y-113399000D01*
X67398742Y-113399000D01*
X67423512Y-113403927D01*
G37*
G36*
X87243228Y-112171703D02*
G01*
X87398100Y-112235853D01*
X87537481Y-112328985D01*
X87656015Y-112447519D01*
X87749147Y-112586900D01*
X87813297Y-112741772D01*
X87846000Y-112906184D01*
X87846000Y-113073816D01*
X87813297Y-113238228D01*
X87749147Y-113393100D01*
X87656015Y-113532481D01*
X87537481Y-113651015D01*
X87398100Y-113744147D01*
X87243228Y-113808297D01*
X87078816Y-113841000D01*
X86911184Y-113841000D01*
X86746772Y-113808297D01*
X86591900Y-113744147D01*
X86452519Y-113651015D01*
X86333985Y-113532481D01*
X86240853Y-113393100D01*
X86176703Y-113238228D01*
X86144000Y-113073816D01*
X86144000Y-112906184D01*
X86176703Y-112741772D01*
X86240853Y-112586900D01*
X86333985Y-112447519D01*
X86452519Y-112328985D01*
X86591900Y-112235853D01*
X86746772Y-112171703D01*
X86911184Y-112139000D01*
X87078816Y-112139000D01*
X87243228Y-112171703D01*
G37*
G36*
X84011000Y-111876000D02*
G01*
X82809000Y-111876000D01*
X82809000Y-104024000D01*
X84011000Y-104024000D01*
X84011000Y-111876000D01*
G37*
G36*
X64511000Y-111876000D02*
G01*
X63309000Y-111876000D01*
X63309000Y-104024000D01*
X64511000Y-104024000D01*
X64511000Y-111876000D01*
G37*
G36*
X87243228Y-109671703D02*
G01*
X87398100Y-109735853D01*
X87537481Y-109828985D01*
X87656015Y-109947519D01*
X87749147Y-110086900D01*
X87813297Y-110241772D01*
X87846000Y-110406184D01*
X87846000Y-110573816D01*
X87813297Y-110738228D01*
X87749147Y-110893100D01*
X87656015Y-111032481D01*
X87537481Y-111151015D01*
X87398100Y-111244147D01*
X87243228Y-111308297D01*
X87078816Y-111341000D01*
X86911184Y-111341000D01*
X86746772Y-111308297D01*
X86591900Y-111244147D01*
X86452519Y-111151015D01*
X86333985Y-111032481D01*
X86240853Y-110893100D01*
X86176703Y-110738228D01*
X86144000Y-110573816D01*
X86144000Y-110406184D01*
X86176703Y-110241772D01*
X86240853Y-110086900D01*
X86333985Y-109947519D01*
X86452519Y-109828985D01*
X86591900Y-109735853D01*
X86746772Y-109671703D01*
X86911184Y-109639000D01*
X87078816Y-109639000D01*
X87243228Y-109671703D01*
G37*
G36*
X86854999Y-105879737D02*
G01*
X86864608Y-105882652D01*
X86873472Y-105887390D01*
X86881237Y-105893763D01*
X86891448Y-105906206D01*
X86898378Y-105916575D01*
X86915705Y-105933902D01*
X86936080Y-105947515D01*
X86958720Y-105956891D01*
X86982753Y-105961671D01*
X87007257Y-105961670D01*
X87031290Y-105956888D01*
X87053929Y-105947510D01*
X87074302Y-105933895D01*
X87091629Y-105916568D01*
X87098558Y-105906198D01*
X87108763Y-105893763D01*
X87116528Y-105887390D01*
X87125392Y-105882652D01*
X87135001Y-105879737D01*
X87151140Y-105878148D01*
X87638861Y-105878148D01*
X87657199Y-105879954D01*
X87669450Y-105880556D01*
X87687869Y-105880556D01*
X87710149Y-105882750D01*
X87794233Y-105899476D01*
X87815660Y-105905976D01*
X87894858Y-105938780D01*
X87900303Y-105941691D01*
X87900309Y-105941693D01*
X87909169Y-105946429D01*
X87909173Y-105946432D01*
X87914614Y-105949340D01*
X87985899Y-105996971D01*
X88003204Y-106011172D01*
X88063828Y-106071796D01*
X88078029Y-106089101D01*
X88125660Y-106160386D01*
X88128568Y-106165827D01*
X88128571Y-106165831D01*
X88133307Y-106174691D01*
X88133309Y-106174697D01*
X88136220Y-106180142D01*
X88169024Y-106259340D01*
X88175524Y-106280767D01*
X88192250Y-106364851D01*
X88194444Y-106387131D01*
X88194444Y-106405550D01*
X88195046Y-106417801D01*
X88196852Y-106436139D01*
X88196852Y-106923862D01*
X88195046Y-106942199D01*
X88194444Y-106954450D01*
X88194444Y-106972869D01*
X88192250Y-106995149D01*
X88175524Y-107079233D01*
X88169024Y-107100660D01*
X88136220Y-107179858D01*
X88133309Y-107185303D01*
X88133307Y-107185309D01*
X88128571Y-107194169D01*
X88128568Y-107194173D01*
X88125660Y-107199614D01*
X88078029Y-107270899D01*
X88063828Y-107288204D01*
X88003204Y-107348828D01*
X87985899Y-107363029D01*
X87914614Y-107410660D01*
X87909173Y-107413568D01*
X87909169Y-107413571D01*
X87900309Y-107418307D01*
X87900303Y-107418309D01*
X87894858Y-107421220D01*
X87815660Y-107454024D01*
X87794233Y-107460524D01*
X87710149Y-107477250D01*
X87687869Y-107479444D01*
X87669450Y-107479444D01*
X87657199Y-107480046D01*
X87638862Y-107481852D01*
X87151140Y-107481852D01*
X87135001Y-107480263D01*
X87125392Y-107477348D01*
X87116528Y-107472610D01*
X87108763Y-107466237D01*
X87098552Y-107453794D01*
X87091622Y-107443425D01*
X87074295Y-107426098D01*
X87053920Y-107412485D01*
X87031280Y-107403109D01*
X87007247Y-107398329D01*
X86982743Y-107398330D01*
X86958710Y-107403112D01*
X86936071Y-107412490D01*
X86915698Y-107426105D01*
X86898371Y-107443432D01*
X86891442Y-107453802D01*
X86881237Y-107466237D01*
X86873472Y-107472610D01*
X86864608Y-107477348D01*
X86854999Y-107480263D01*
X86838860Y-107481852D01*
X86351138Y-107481852D01*
X86332801Y-107480046D01*
X86320550Y-107479444D01*
X86302131Y-107479444D01*
X86279851Y-107477250D01*
X86195767Y-107460524D01*
X86174340Y-107454024D01*
X86095142Y-107421220D01*
X86089697Y-107418309D01*
X86089691Y-107418307D01*
X86080831Y-107413571D01*
X86080827Y-107413568D01*
X86075386Y-107410660D01*
X86004101Y-107363029D01*
X85986796Y-107348828D01*
X85926172Y-107288204D01*
X85911971Y-107270899D01*
X85864340Y-107199614D01*
X85861432Y-107194173D01*
X85861429Y-107194169D01*
X85856693Y-107185309D01*
X85856691Y-107185303D01*
X85853780Y-107179858D01*
X85820976Y-107100660D01*
X85814476Y-107079233D01*
X85797750Y-106995149D01*
X85795556Y-106972869D01*
X85795556Y-106954450D01*
X85794954Y-106942199D01*
X85793148Y-106923862D01*
X85793148Y-106436139D01*
X85794954Y-106417801D01*
X85795556Y-106405550D01*
X85795556Y-106387131D01*
X85797750Y-106364851D01*
X85814476Y-106280767D01*
X85820976Y-106259340D01*
X85853780Y-106180142D01*
X85856691Y-106174697D01*
X85856693Y-106174691D01*
X85861429Y-106165831D01*
X85861432Y-106165827D01*
X85864340Y-106160386D01*
X85911971Y-106089101D01*
X85926172Y-106071796D01*
X85986796Y-106011172D01*
X86004101Y-105996971D01*
X86075386Y-105949340D01*
X86080827Y-105946432D01*
X86080831Y-105946429D01*
X86089691Y-105941693D01*
X86089697Y-105941691D01*
X86095142Y-105938780D01*
X86174340Y-105905976D01*
X86195767Y-105899476D01*
X86279851Y-105882750D01*
X86302131Y-105880556D01*
X86320550Y-105880556D01*
X86332801Y-105879954D01*
X86351139Y-105878148D01*
X86838860Y-105878148D01*
X86854999Y-105879737D01*
G37*
G36*
X86854999Y-103339737D02*
G01*
X86864608Y-103342652D01*
X86873472Y-103347390D01*
X86881237Y-103353763D01*
X86891448Y-103366206D01*
X86898378Y-103376575D01*
X86915705Y-103393902D01*
X86936080Y-103407515D01*
X86958720Y-103416891D01*
X86982753Y-103421671D01*
X87007257Y-103421670D01*
X87031290Y-103416888D01*
X87053929Y-103407510D01*
X87074302Y-103393895D01*
X87091629Y-103376568D01*
X87098558Y-103366198D01*
X87108763Y-103353763D01*
X87116528Y-103347390D01*
X87125392Y-103342652D01*
X87135001Y-103339737D01*
X87151140Y-103338148D01*
X87638861Y-103338148D01*
X87657199Y-103339954D01*
X87669450Y-103340556D01*
X87687869Y-103340556D01*
X87710149Y-103342750D01*
X87794233Y-103359476D01*
X87815660Y-103365976D01*
X87894858Y-103398780D01*
X87900303Y-103401691D01*
X87900309Y-103401693D01*
X87909169Y-103406429D01*
X87909173Y-103406432D01*
X87914614Y-103409340D01*
X87985899Y-103456971D01*
X88003204Y-103471172D01*
X88063828Y-103531796D01*
X88078029Y-103549101D01*
X88125660Y-103620386D01*
X88128568Y-103625827D01*
X88128571Y-103625831D01*
X88133307Y-103634691D01*
X88133309Y-103634697D01*
X88136220Y-103640142D01*
X88169024Y-103719340D01*
X88175524Y-103740767D01*
X88192250Y-103824851D01*
X88194444Y-103847131D01*
X88194444Y-103865550D01*
X88195046Y-103877801D01*
X88196852Y-103896139D01*
X88196852Y-104383862D01*
X88195046Y-104402199D01*
X88194444Y-104414450D01*
X88194444Y-104432869D01*
X88192250Y-104455149D01*
X88175524Y-104539233D01*
X88169024Y-104560660D01*
X88136220Y-104639858D01*
X88133309Y-104645303D01*
X88133307Y-104645309D01*
X88128571Y-104654169D01*
X88128568Y-104654173D01*
X88125660Y-104659614D01*
X88078029Y-104730899D01*
X88063828Y-104748204D01*
X88003204Y-104808828D01*
X87985899Y-104823029D01*
X87914614Y-104870660D01*
X87909173Y-104873568D01*
X87909169Y-104873571D01*
X87900309Y-104878307D01*
X87900303Y-104878309D01*
X87894858Y-104881220D01*
X87815660Y-104914024D01*
X87794233Y-104920524D01*
X87710149Y-104937250D01*
X87687869Y-104939444D01*
X87669450Y-104939444D01*
X87657199Y-104940046D01*
X87638862Y-104941852D01*
X87151140Y-104941852D01*
X87135001Y-104940263D01*
X87125392Y-104937348D01*
X87116528Y-104932610D01*
X87108763Y-104926237D01*
X87098552Y-104913794D01*
X87091622Y-104903425D01*
X87074295Y-104886098D01*
X87053920Y-104872485D01*
X87031280Y-104863109D01*
X87007247Y-104858329D01*
X86982743Y-104858330D01*
X86958710Y-104863112D01*
X86936071Y-104872490D01*
X86915698Y-104886105D01*
X86898371Y-104903432D01*
X86891442Y-104913802D01*
X86881237Y-104926237D01*
X86873472Y-104932610D01*
X86864608Y-104937348D01*
X86854999Y-104940263D01*
X86838860Y-104941852D01*
X86351138Y-104941852D01*
X86332801Y-104940046D01*
X86320550Y-104939444D01*
X86302131Y-104939444D01*
X86279851Y-104937250D01*
X86195767Y-104920524D01*
X86174340Y-104914024D01*
X86095142Y-104881220D01*
X86089697Y-104878309D01*
X86089691Y-104878307D01*
X86080831Y-104873571D01*
X86080827Y-104873568D01*
X86075386Y-104870660D01*
X86004101Y-104823029D01*
X85986796Y-104808828D01*
X85926172Y-104748204D01*
X85911971Y-104730899D01*
X85864340Y-104659614D01*
X85861432Y-104654173D01*
X85861429Y-104654169D01*
X85856693Y-104645309D01*
X85856691Y-104645303D01*
X85853780Y-104639858D01*
X85820976Y-104560660D01*
X85814476Y-104539233D01*
X85797750Y-104455149D01*
X85795556Y-104432869D01*
X85795556Y-104414450D01*
X85794954Y-104402199D01*
X85793148Y-104383862D01*
X85793148Y-103896139D01*
X85794954Y-103877801D01*
X85795556Y-103865550D01*
X85795556Y-103847131D01*
X85797750Y-103824851D01*
X85814476Y-103740767D01*
X85820976Y-103719340D01*
X85853780Y-103640142D01*
X85856691Y-103634697D01*
X85856693Y-103634691D01*
X85861429Y-103625831D01*
X85861432Y-103625827D01*
X85864340Y-103620386D01*
X85911971Y-103549101D01*
X85926172Y-103531796D01*
X85986796Y-103471172D01*
X86004101Y-103456971D01*
X86075386Y-103409340D01*
X86080827Y-103406432D01*
X86080831Y-103406429D01*
X86089691Y-103401693D01*
X86089697Y-103401691D01*
X86095142Y-103398780D01*
X86174340Y-103365976D01*
X86195767Y-103359476D01*
X86279851Y-103342750D01*
X86302131Y-103340556D01*
X86320550Y-103340556D01*
X86332801Y-103339954D01*
X86351139Y-103338148D01*
X86838860Y-103338148D01*
X86854999Y-103339737D01*
G37*
G36*
X63748108Y-100782863D02*
G01*
X63902980Y-100847013D01*
X64042361Y-100940145D01*
X64160895Y-101058679D01*
X64254027Y-101198060D01*
X64318177Y-101352932D01*
X64350880Y-101517344D01*
X64350880Y-101684976D01*
X64318177Y-101849388D01*
X64254027Y-102004260D01*
X64160895Y-102143641D01*
X64042361Y-102262175D01*
X63902980Y-102355307D01*
X63748108Y-102419457D01*
X63583696Y-102452160D01*
X63416064Y-102452160D01*
X63251652Y-102419457D01*
X63096780Y-102355307D01*
X62957399Y-102262175D01*
X62838865Y-102143641D01*
X62745733Y-102004260D01*
X62681583Y-101849388D01*
X62648880Y-101684976D01*
X62648880Y-101517344D01*
X62681583Y-101352932D01*
X62745733Y-101198060D01*
X62838865Y-101058679D01*
X62957399Y-100940145D01*
X63096780Y-100847013D01*
X63251652Y-100782863D01*
X63416064Y-100750160D01*
X63583696Y-100750160D01*
X63748108Y-100782863D01*
G37*
G36*
X86854999Y-100799737D02*
G01*
X86864608Y-100802652D01*
X86873472Y-100807390D01*
X86881237Y-100813763D01*
X86891448Y-100826206D01*
X86898378Y-100836575D01*
X86915705Y-100853902D01*
X86936080Y-100867515D01*
X86958720Y-100876891D01*
X86982753Y-100881671D01*
X87007257Y-100881670D01*
X87031290Y-100876888D01*
X87053929Y-100867510D01*
X87074302Y-100853895D01*
X87091629Y-100836568D01*
X87098558Y-100826198D01*
X87108763Y-100813763D01*
X87116528Y-100807390D01*
X87125392Y-100802652D01*
X87135001Y-100799737D01*
X87151140Y-100798148D01*
X87638861Y-100798148D01*
X87657199Y-100799954D01*
X87669450Y-100800556D01*
X87687869Y-100800556D01*
X87710149Y-100802750D01*
X87794233Y-100819476D01*
X87815660Y-100825976D01*
X87894858Y-100858780D01*
X87900303Y-100861691D01*
X87900309Y-100861693D01*
X87909169Y-100866429D01*
X87909173Y-100866432D01*
X87914614Y-100869340D01*
X87985899Y-100916971D01*
X88003204Y-100931172D01*
X88063828Y-100991796D01*
X88078029Y-101009101D01*
X88125660Y-101080386D01*
X88128568Y-101085827D01*
X88128571Y-101085831D01*
X88133307Y-101094691D01*
X88133309Y-101094697D01*
X88136220Y-101100142D01*
X88169024Y-101179340D01*
X88175524Y-101200767D01*
X88192250Y-101284851D01*
X88194444Y-101307131D01*
X88194444Y-101325550D01*
X88195046Y-101337801D01*
X88196852Y-101356139D01*
X88196852Y-101843862D01*
X88195046Y-101862199D01*
X88194444Y-101874450D01*
X88194444Y-101892869D01*
X88192250Y-101915149D01*
X88175524Y-101999233D01*
X88169024Y-102020660D01*
X88136220Y-102099858D01*
X88133309Y-102105303D01*
X88133307Y-102105309D01*
X88128571Y-102114169D01*
X88128568Y-102114173D01*
X88125660Y-102119614D01*
X88078029Y-102190899D01*
X88063828Y-102208204D01*
X88003204Y-102268828D01*
X87985899Y-102283029D01*
X87914614Y-102330660D01*
X87909173Y-102333568D01*
X87909169Y-102333571D01*
X87900309Y-102338307D01*
X87900303Y-102338309D01*
X87894858Y-102341220D01*
X87815660Y-102374024D01*
X87794233Y-102380524D01*
X87710149Y-102397250D01*
X87687869Y-102399444D01*
X87669450Y-102399444D01*
X87657199Y-102400046D01*
X87638862Y-102401852D01*
X87151140Y-102401852D01*
X87135001Y-102400263D01*
X87125392Y-102397348D01*
X87116528Y-102392610D01*
X87108763Y-102386237D01*
X87098552Y-102373794D01*
X87091622Y-102363425D01*
X87074295Y-102346098D01*
X87053920Y-102332485D01*
X87031280Y-102323109D01*
X87007247Y-102318329D01*
X86982743Y-102318330D01*
X86958710Y-102323112D01*
X86936071Y-102332490D01*
X86915698Y-102346105D01*
X86898371Y-102363432D01*
X86891442Y-102373802D01*
X86881237Y-102386237D01*
X86873472Y-102392610D01*
X86864608Y-102397348D01*
X86854999Y-102400263D01*
X86838860Y-102401852D01*
X86351138Y-102401852D01*
X86332801Y-102400046D01*
X86320550Y-102399444D01*
X86302131Y-102399444D01*
X86279851Y-102397250D01*
X86195767Y-102380524D01*
X86174340Y-102374024D01*
X86095142Y-102341220D01*
X86089697Y-102338309D01*
X86089691Y-102338307D01*
X86080831Y-102333571D01*
X86080827Y-102333568D01*
X86075386Y-102330660D01*
X86004101Y-102283029D01*
X85986796Y-102268828D01*
X85926172Y-102208204D01*
X85911971Y-102190899D01*
X85864340Y-102119614D01*
X85861432Y-102114173D01*
X85861429Y-102114169D01*
X85856693Y-102105309D01*
X85856691Y-102105303D01*
X85853780Y-102099858D01*
X85820976Y-102020660D01*
X85814476Y-101999233D01*
X85797750Y-101915149D01*
X85795556Y-101892869D01*
X85795556Y-101874450D01*
X85794954Y-101862199D01*
X85793148Y-101843862D01*
X85793148Y-101356139D01*
X85794954Y-101337801D01*
X85795556Y-101325550D01*
X85795556Y-101307131D01*
X85797750Y-101284851D01*
X85814476Y-101200767D01*
X85820976Y-101179340D01*
X85853780Y-101100142D01*
X85856691Y-101094697D01*
X85856693Y-101094691D01*
X85861429Y-101085831D01*
X85861432Y-101085827D01*
X85864340Y-101080386D01*
X85911971Y-101009101D01*
X85926172Y-100991796D01*
X85986796Y-100931172D01*
X86004101Y-100916971D01*
X86075386Y-100869340D01*
X86080827Y-100866432D01*
X86080831Y-100866429D01*
X86089691Y-100861693D01*
X86089697Y-100861691D01*
X86095142Y-100858780D01*
X86174340Y-100825976D01*
X86195767Y-100819476D01*
X86279851Y-100802750D01*
X86302131Y-100800556D01*
X86320550Y-100800556D01*
X86332801Y-100799954D01*
X86351139Y-100798148D01*
X86838860Y-100798148D01*
X86854999Y-100799737D01*
G37*
G36*
X84068108Y-98242863D02*
G01*
X84222980Y-98307013D01*
X84362361Y-98400145D01*
X84480895Y-98518679D01*
X84574027Y-98658060D01*
X84638177Y-98812932D01*
X84670880Y-98977344D01*
X84670880Y-99144976D01*
X84638177Y-99309388D01*
X84574027Y-99464260D01*
X84480895Y-99603641D01*
X84362361Y-99722175D01*
X84222980Y-99815307D01*
X84068108Y-99879457D01*
X83903696Y-99912160D01*
X83736064Y-99912160D01*
X83571652Y-99879457D01*
X83416780Y-99815307D01*
X83277399Y-99722175D01*
X83158865Y-99603641D01*
X83065733Y-99464260D01*
X83001583Y-99309388D01*
X82968880Y-99144976D01*
X82968880Y-98977344D01*
X83001583Y-98812932D01*
X83065733Y-98658060D01*
X83158865Y-98518679D01*
X83277399Y-98400145D01*
X83416780Y-98307013D01*
X83571652Y-98242863D01*
X83736064Y-98210160D01*
X83903696Y-98210160D01*
X84068108Y-98242863D01*
G37*
G36*
X71368108Y-98242863D02*
G01*
X71522980Y-98307013D01*
X71662361Y-98400145D01*
X71780895Y-98518679D01*
X71874027Y-98658060D01*
X71938177Y-98812932D01*
X71970880Y-98977344D01*
X71970880Y-99144976D01*
X71938177Y-99309388D01*
X71874027Y-99464260D01*
X71780895Y-99603641D01*
X71662361Y-99722175D01*
X71522980Y-99815307D01*
X71368108Y-99879457D01*
X71203696Y-99912160D01*
X71036064Y-99912160D01*
X70871652Y-99879457D01*
X70716780Y-99815307D01*
X70577399Y-99722175D01*
X70458865Y-99603641D01*
X70365733Y-99464260D01*
X70301583Y-99309388D01*
X70268880Y-99144976D01*
X70268880Y-98977344D01*
X70301583Y-98812932D01*
X70365733Y-98658060D01*
X70458865Y-98518679D01*
X70577399Y-98400145D01*
X70716780Y-98307013D01*
X70871652Y-98242863D01*
X71036064Y-98210160D01*
X71203696Y-98210160D01*
X71368108Y-98242863D01*
G37*
G36*
X63748108Y-98242863D02*
G01*
X63902980Y-98307013D01*
X64042361Y-98400145D01*
X64160895Y-98518679D01*
X64254027Y-98658060D01*
X64318177Y-98812932D01*
X64350880Y-98977344D01*
X64350880Y-99144976D01*
X64318177Y-99309388D01*
X64254027Y-99464260D01*
X64160895Y-99603641D01*
X64042361Y-99722175D01*
X63902980Y-99815307D01*
X63748108Y-99879457D01*
X63583696Y-99912160D01*
X63416064Y-99912160D01*
X63251652Y-99879457D01*
X63096780Y-99815307D01*
X62957399Y-99722175D01*
X62838865Y-99603641D01*
X62745733Y-99464260D01*
X62681583Y-99309388D01*
X62648880Y-99144976D01*
X62648880Y-98977344D01*
X62681583Y-98812932D01*
X62745733Y-98658060D01*
X62838865Y-98518679D01*
X62957399Y-98400145D01*
X63096780Y-98307013D01*
X63251652Y-98242863D01*
X63416064Y-98210160D01*
X63583696Y-98210160D01*
X63748108Y-98242863D01*
G37*
G36*
X86854999Y-98259737D02*
G01*
X86864608Y-98262652D01*
X86873472Y-98267390D01*
X86881237Y-98273763D01*
X86891448Y-98286206D01*
X86898378Y-98296575D01*
X86915705Y-98313902D01*
X86936080Y-98327515D01*
X86958720Y-98336891D01*
X86982753Y-98341671D01*
X87007257Y-98341670D01*
X87031290Y-98336888D01*
X87053929Y-98327510D01*
X87074302Y-98313895D01*
X87091629Y-98296568D01*
X87098558Y-98286198D01*
X87108763Y-98273763D01*
X87116528Y-98267390D01*
X87125392Y-98262652D01*
X87135001Y-98259737D01*
X87151140Y-98258148D01*
X87638861Y-98258148D01*
X87657199Y-98259954D01*
X87669450Y-98260556D01*
X87687869Y-98260556D01*
X87710149Y-98262750D01*
X87794233Y-98279476D01*
X87815660Y-98285976D01*
X87894858Y-98318780D01*
X87900303Y-98321691D01*
X87900309Y-98321693D01*
X87909169Y-98326429D01*
X87909173Y-98326432D01*
X87914614Y-98329340D01*
X87985899Y-98376971D01*
X88003204Y-98391172D01*
X88063828Y-98451796D01*
X88078029Y-98469101D01*
X88125660Y-98540386D01*
X88128568Y-98545827D01*
X88128571Y-98545831D01*
X88133307Y-98554691D01*
X88133309Y-98554697D01*
X88136220Y-98560142D01*
X88169024Y-98639340D01*
X88175524Y-98660767D01*
X88192250Y-98744851D01*
X88194444Y-98767131D01*
X88194444Y-98785550D01*
X88195046Y-98797801D01*
X88196852Y-98816139D01*
X88196852Y-99303862D01*
X88195046Y-99322199D01*
X88194444Y-99334450D01*
X88194444Y-99352869D01*
X88192250Y-99375149D01*
X88175524Y-99459233D01*
X88169024Y-99480660D01*
X88136220Y-99559858D01*
X88133309Y-99565303D01*
X88133307Y-99565309D01*
X88128571Y-99574169D01*
X88128568Y-99574173D01*
X88125660Y-99579614D01*
X88078029Y-99650899D01*
X88063828Y-99668204D01*
X88003204Y-99728828D01*
X87985899Y-99743029D01*
X87914614Y-99790660D01*
X87909173Y-99793568D01*
X87909169Y-99793571D01*
X87900309Y-99798307D01*
X87900303Y-99798309D01*
X87894858Y-99801220D01*
X87815660Y-99834024D01*
X87794233Y-99840524D01*
X87710149Y-99857250D01*
X87687869Y-99859444D01*
X87669450Y-99859444D01*
X87657199Y-99860046D01*
X87638862Y-99861852D01*
X87151140Y-99861852D01*
X87135001Y-99860263D01*
X87125392Y-99857348D01*
X87116528Y-99852610D01*
X87108763Y-99846237D01*
X87098552Y-99833794D01*
X87091622Y-99823425D01*
X87074295Y-99806098D01*
X87053920Y-99792485D01*
X87031280Y-99783109D01*
X87007247Y-99778329D01*
X86982743Y-99778330D01*
X86958710Y-99783112D01*
X86936071Y-99792490D01*
X86915698Y-99806105D01*
X86898371Y-99823432D01*
X86891442Y-99833802D01*
X86881237Y-99846237D01*
X86873472Y-99852610D01*
X86864608Y-99857348D01*
X86854999Y-99860263D01*
X86838860Y-99861852D01*
X86351138Y-99861852D01*
X86332801Y-99860046D01*
X86320550Y-99859444D01*
X86302131Y-99859444D01*
X86279851Y-99857250D01*
X86195767Y-99840524D01*
X86174340Y-99834024D01*
X86095142Y-99801220D01*
X86089697Y-99798309D01*
X86089691Y-99798307D01*
X86080831Y-99793571D01*
X86080827Y-99793568D01*
X86075386Y-99790660D01*
X86004101Y-99743029D01*
X85986796Y-99728828D01*
X85926172Y-99668204D01*
X85911971Y-99650899D01*
X85864340Y-99579614D01*
X85861432Y-99574173D01*
X85861429Y-99574169D01*
X85856693Y-99565309D01*
X85856691Y-99565303D01*
X85853780Y-99559858D01*
X85820976Y-99480660D01*
X85814476Y-99459233D01*
X85797750Y-99375149D01*
X85795556Y-99352869D01*
X85795556Y-99334450D01*
X85794954Y-99322199D01*
X85793148Y-99303862D01*
X85793148Y-98816139D01*
X85794954Y-98797801D01*
X85795556Y-98785550D01*
X85795556Y-98767131D01*
X85797750Y-98744851D01*
X85814476Y-98660767D01*
X85820976Y-98639340D01*
X85853780Y-98560142D01*
X85856691Y-98554697D01*
X85856693Y-98554691D01*
X85861429Y-98545831D01*
X85861432Y-98545827D01*
X85864340Y-98540386D01*
X85911971Y-98469101D01*
X85926172Y-98451796D01*
X85986796Y-98391172D01*
X86004101Y-98376971D01*
X86075386Y-98329340D01*
X86080827Y-98326432D01*
X86080831Y-98326429D01*
X86089691Y-98321693D01*
X86089697Y-98321691D01*
X86095142Y-98318780D01*
X86174340Y-98285976D01*
X86195767Y-98279476D01*
X86279851Y-98262750D01*
X86302131Y-98260556D01*
X86320550Y-98260556D01*
X86332801Y-98259954D01*
X86351139Y-98258148D01*
X86838860Y-98258148D01*
X86854999Y-98259737D01*
G37*
G36*
X63748108Y-95702863D02*
G01*
X63902980Y-95767013D01*
X64042361Y-95860145D01*
X64160895Y-95978679D01*
X64254027Y-96118060D01*
X64318177Y-96272932D01*
X64350880Y-96437344D01*
X64350880Y-96604976D01*
X64318177Y-96769388D01*
X64254027Y-96924260D01*
X64160895Y-97063641D01*
X64042361Y-97182175D01*
X63902980Y-97275307D01*
X63748108Y-97339457D01*
X63583696Y-97372160D01*
X63416064Y-97372160D01*
X63251652Y-97339457D01*
X63096780Y-97275307D01*
X62957399Y-97182175D01*
X62838865Y-97063641D01*
X62745733Y-96924260D01*
X62681583Y-96769388D01*
X62648880Y-96604976D01*
X62648880Y-96437344D01*
X62681583Y-96272932D01*
X62745733Y-96118060D01*
X62838865Y-95978679D01*
X62957399Y-95860145D01*
X63096780Y-95767013D01*
X63251652Y-95702863D01*
X63416064Y-95670160D01*
X63583696Y-95670160D01*
X63748108Y-95702863D01*
G37*
G36*
X84068108Y-95702863D02*
G01*
X84222980Y-95767013D01*
X84362361Y-95860145D01*
X84480895Y-95978679D01*
X84574027Y-96118060D01*
X84638177Y-96272932D01*
X84670880Y-96437344D01*
X84670880Y-96604976D01*
X84638177Y-96769388D01*
X84574027Y-96924260D01*
X84480895Y-97063641D01*
X84362361Y-97182175D01*
X84222980Y-97275307D01*
X84068108Y-97339457D01*
X83903696Y-97372160D01*
X83736064Y-97372160D01*
X83571652Y-97339457D01*
X83416780Y-97275307D01*
X83277399Y-97182175D01*
X83158865Y-97063641D01*
X83065733Y-96924260D01*
X83001583Y-96769388D01*
X82968880Y-96604976D01*
X82968880Y-96437344D01*
X83001583Y-96272932D01*
X83065733Y-96118060D01*
X83158865Y-95978679D01*
X83277399Y-95860145D01*
X83416780Y-95767013D01*
X83571652Y-95702863D01*
X83736064Y-95670160D01*
X83903696Y-95670160D01*
X84068108Y-95702863D01*
G37*
G36*
X79211000Y-96236000D02*
G01*
X77609000Y-96236000D01*
X77609000Y-95534000D01*
X79211000Y-95534000D01*
X79211000Y-96236000D01*
G37*
G36*
X69711000Y-96236000D02*
G01*
X68109000Y-96236000D01*
X68109000Y-95534000D01*
X69711000Y-95534000D01*
X69711000Y-96236000D01*
G37*
G36*
X87243228Y-93756703D02*
G01*
X87398100Y-93820853D01*
X87537481Y-93913985D01*
X87656015Y-94032519D01*
X87749147Y-94171900D01*
X87813297Y-94326772D01*
X87846000Y-94491184D01*
X87846000Y-94658816D01*
X87813297Y-94823228D01*
X87749147Y-94978100D01*
X87656015Y-95117481D01*
X87537481Y-95236015D01*
X87398100Y-95329147D01*
X87243228Y-95393297D01*
X87078816Y-95426000D01*
X86911184Y-95426000D01*
X86746772Y-95393297D01*
X86591900Y-95329147D01*
X86452519Y-95236015D01*
X86333985Y-95117481D01*
X86240853Y-94978100D01*
X86176703Y-94823228D01*
X86144000Y-94658816D01*
X86144000Y-94491184D01*
X86176703Y-94326772D01*
X86240853Y-94171900D01*
X86333985Y-94032519D01*
X86452519Y-93913985D01*
X86591900Y-93820853D01*
X86746772Y-93756703D01*
X86911184Y-93724000D01*
X87078816Y-93724000D01*
X87243228Y-93756703D01*
G37*
G36*
X79211000Y-94966000D02*
G01*
X77609000Y-94966000D01*
X77609000Y-94264000D01*
X79211000Y-94264000D01*
X79211000Y-94966000D01*
G37*
G36*
X69711000Y-94966000D02*
G01*
X68109000Y-94966000D01*
X68109000Y-94264000D01*
X69711000Y-94264000D01*
X69711000Y-94966000D01*
G37*
G36*
X84068108Y-93162863D02*
G01*
X84222980Y-93227013D01*
X84362361Y-93320145D01*
X84480895Y-93438679D01*
X84574027Y-93578060D01*
X84638177Y-93732932D01*
X84670880Y-93897344D01*
X84670880Y-94064976D01*
X84638177Y-94229388D01*
X84574027Y-94384260D01*
X84480895Y-94523641D01*
X84362361Y-94642175D01*
X84222980Y-94735307D01*
X84068108Y-94799457D01*
X83903696Y-94832160D01*
X83736064Y-94832160D01*
X83571652Y-94799457D01*
X83416780Y-94735307D01*
X83277399Y-94642175D01*
X83158865Y-94523641D01*
X83065733Y-94384260D01*
X83001583Y-94229388D01*
X82968880Y-94064976D01*
X82968880Y-93897344D01*
X83001583Y-93732932D01*
X83065733Y-93578060D01*
X83158865Y-93438679D01*
X83277399Y-93320145D01*
X83416780Y-93227013D01*
X83571652Y-93162863D01*
X83736064Y-93130160D01*
X83903696Y-93130160D01*
X84068108Y-93162863D01*
G37*
G36*
X63748108Y-93162863D02*
G01*
X63902980Y-93227013D01*
X64042361Y-93320145D01*
X64160895Y-93438679D01*
X64254027Y-93578060D01*
X64318177Y-93732932D01*
X64350880Y-93897344D01*
X64350880Y-94064976D01*
X64318177Y-94229388D01*
X64254027Y-94384260D01*
X64160895Y-94523641D01*
X64042361Y-94642175D01*
X63902980Y-94735307D01*
X63748108Y-94799457D01*
X63583696Y-94832160D01*
X63416064Y-94832160D01*
X63251652Y-94799457D01*
X63096780Y-94735307D01*
X62957399Y-94642175D01*
X62838865Y-94523641D01*
X62745733Y-94384260D01*
X62681583Y-94229388D01*
X62648880Y-94064976D01*
X62648880Y-93897344D01*
X62681583Y-93732932D01*
X62745733Y-93578060D01*
X62838865Y-93438679D01*
X62957399Y-93320145D01*
X63096780Y-93227013D01*
X63251652Y-93162863D01*
X63416064Y-93130160D01*
X63583696Y-93130160D01*
X63748108Y-93162863D01*
G37*
G36*
X79211000Y-93696000D02*
G01*
X77609000Y-93696000D01*
X77609000Y-92994000D01*
X79211000Y-92994000D01*
X79211000Y-93696000D01*
G37*
G36*
X69711000Y-93696000D02*
G01*
X68109000Y-93696000D01*
X68109000Y-92994000D01*
X69711000Y-92994000D01*
X69711000Y-93696000D01*
G37*
G36*
X87243228Y-91256703D02*
G01*
X87398100Y-91320853D01*
X87537481Y-91413985D01*
X87656015Y-91532519D01*
X87749147Y-91671900D01*
X87813297Y-91826772D01*
X87846000Y-91991184D01*
X87846000Y-92158816D01*
X87813297Y-92323228D01*
X87749147Y-92478100D01*
X87656015Y-92617481D01*
X87537481Y-92736015D01*
X87398100Y-92829147D01*
X87243228Y-92893297D01*
X87078816Y-92926000D01*
X86911184Y-92926000D01*
X86746772Y-92893297D01*
X86591900Y-92829147D01*
X86452519Y-92736015D01*
X86333985Y-92617481D01*
X86240853Y-92478100D01*
X86176703Y-92323228D01*
X86144000Y-92158816D01*
X86144000Y-91991184D01*
X86176703Y-91826772D01*
X86240853Y-91671900D01*
X86333985Y-91532519D01*
X86452519Y-91413985D01*
X86591900Y-91320853D01*
X86746772Y-91256703D01*
X86911184Y-91224000D01*
X87078816Y-91224000D01*
X87243228Y-91256703D01*
G37*
G36*
X79211000Y-92426000D02*
G01*
X77609000Y-92426000D01*
X77609000Y-91724000D01*
X79211000Y-91724000D01*
X79211000Y-92426000D01*
G37*
G36*
X69711000Y-92426000D02*
G01*
X68109000Y-92426000D01*
X68109000Y-91724000D01*
X69711000Y-91724000D01*
X69711000Y-92426000D01*
G37*
G36*
X63748108Y-90622863D02*
G01*
X63902980Y-90687013D01*
X64042361Y-90780145D01*
X64160895Y-90898679D01*
X64254027Y-91038060D01*
X64318177Y-91192932D01*
X64350880Y-91357344D01*
X64350880Y-91524976D01*
X64318177Y-91689388D01*
X64254027Y-91844260D01*
X64160895Y-91983641D01*
X64042361Y-92102175D01*
X63902980Y-92195307D01*
X63748108Y-92259457D01*
X63583696Y-92292160D01*
X63416064Y-92292160D01*
X63251652Y-92259457D01*
X63096780Y-92195307D01*
X62957399Y-92102175D01*
X62838865Y-91983641D01*
X62745733Y-91844260D01*
X62681583Y-91689388D01*
X62648880Y-91524976D01*
X62648880Y-91357344D01*
X62681583Y-91192932D01*
X62745733Y-91038060D01*
X62838865Y-90898679D01*
X62957399Y-90780145D01*
X63096780Y-90687013D01*
X63251652Y-90622863D01*
X63416064Y-90590160D01*
X63583696Y-90590160D01*
X63748108Y-90622863D01*
G37*
G36*
X84068108Y-90622863D02*
G01*
X84222980Y-90687013D01*
X84362361Y-90780145D01*
X84480895Y-90898679D01*
X84574027Y-91038060D01*
X84638177Y-91192932D01*
X84670880Y-91357344D01*
X84670880Y-91524976D01*
X84638177Y-91689388D01*
X84574027Y-91844260D01*
X84480895Y-91983641D01*
X84362361Y-92102175D01*
X84222980Y-92195307D01*
X84068108Y-92259457D01*
X83903696Y-92292160D01*
X83736064Y-92292160D01*
X83571652Y-92259457D01*
X83416780Y-92195307D01*
X83277399Y-92102175D01*
X83158865Y-91983641D01*
X83065733Y-91844260D01*
X83001583Y-91689388D01*
X82968880Y-91524976D01*
X82968880Y-91357344D01*
X83001583Y-91192932D01*
X83065733Y-91038060D01*
X83158865Y-90898679D01*
X83277399Y-90780145D01*
X83416780Y-90687013D01*
X83571652Y-90622863D01*
X83736064Y-90590160D01*
X83903696Y-90590160D01*
X84068108Y-90622863D01*
G37*
G36*
X79211000Y-91156000D02*
G01*
X77609000Y-91156000D01*
X77609000Y-90454000D01*
X79211000Y-90454000D01*
X79211000Y-91156000D01*
G37*
G36*
X69711000Y-91156000D02*
G01*
X68109000Y-91156000D01*
X68109000Y-90454000D01*
X69711000Y-90454000D01*
X69711000Y-91156000D01*
G37*
G36*
X79211000Y-89886000D02*
G01*
X77609000Y-89886000D01*
X77609000Y-89184000D01*
X79211000Y-89184000D01*
X79211000Y-89886000D01*
G37*
G36*
X69711000Y-89886000D02*
G01*
X68109000Y-89886000D01*
X68109000Y-89184000D01*
X69711000Y-89184000D01*
X69711000Y-89886000D01*
G37*
G36*
X63748108Y-88082863D02*
G01*
X63902980Y-88147013D01*
X64042361Y-88240145D01*
X64160895Y-88358679D01*
X64254027Y-88498060D01*
X64318177Y-88652932D01*
X64350880Y-88817344D01*
X64350880Y-88984976D01*
X64318177Y-89149388D01*
X64254027Y-89304260D01*
X64160895Y-89443641D01*
X64042361Y-89562175D01*
X63902980Y-89655307D01*
X63748108Y-89719457D01*
X63583696Y-89752160D01*
X63416064Y-89752160D01*
X63251652Y-89719457D01*
X63096780Y-89655307D01*
X62957399Y-89562175D01*
X62838865Y-89443641D01*
X62745733Y-89304260D01*
X62681583Y-89149388D01*
X62648880Y-88984976D01*
X62648880Y-88817344D01*
X62681583Y-88652932D01*
X62745733Y-88498060D01*
X62838865Y-88358679D01*
X62957399Y-88240145D01*
X63096780Y-88147013D01*
X63251652Y-88082863D01*
X63416064Y-88050160D01*
X63583696Y-88050160D01*
X63748108Y-88082863D01*
G37*
G36*
X84068108Y-88082863D02*
G01*
X84222980Y-88147013D01*
X84362361Y-88240145D01*
X84480895Y-88358679D01*
X84574027Y-88498060D01*
X84638177Y-88652932D01*
X84670880Y-88817344D01*
X84670880Y-88984976D01*
X84638177Y-89149388D01*
X84574027Y-89304260D01*
X84480895Y-89443641D01*
X84362361Y-89562175D01*
X84222980Y-89655307D01*
X84068108Y-89719457D01*
X83903696Y-89752160D01*
X83736064Y-89752160D01*
X83571652Y-89719457D01*
X83416780Y-89655307D01*
X83277399Y-89562175D01*
X83158865Y-89443641D01*
X83065733Y-89304260D01*
X83001583Y-89149388D01*
X82968880Y-88984976D01*
X82968880Y-88817344D01*
X83001583Y-88652932D01*
X83065733Y-88498060D01*
X83158865Y-88358679D01*
X83277399Y-88240145D01*
X83416780Y-88147013D01*
X83571652Y-88082863D01*
X83736064Y-88050160D01*
X83903696Y-88050160D01*
X84068108Y-88082863D01*
G37*
G36*
X79211000Y-88616000D02*
G01*
X77609000Y-88616000D01*
X77609000Y-87914000D01*
X79211000Y-87914000D01*
X79211000Y-88616000D01*
G37*
G36*
X69711000Y-88616000D02*
G01*
X68109000Y-88616000D01*
X68109000Y-87914000D01*
X69711000Y-87914000D01*
X69711000Y-88616000D01*
G37*
G36*
X69711000Y-87346000D02*
G01*
X68109000Y-87346000D01*
X68109000Y-86644000D01*
X69711000Y-86644000D01*
X69711000Y-87346000D01*
G37*
G36*
X79211000Y-87346000D02*
G01*
X77609000Y-87346000D01*
X77609000Y-86644000D01*
X79211000Y-86644000D01*
X79211000Y-87346000D01*
G37*
G36*
X84068108Y-85542863D02*
G01*
X84222980Y-85607013D01*
X84362361Y-85700145D01*
X84480895Y-85818679D01*
X84574027Y-85958060D01*
X84638177Y-86112932D01*
X84670880Y-86277344D01*
X84670880Y-86444976D01*
X84638177Y-86609388D01*
X84574027Y-86764260D01*
X84480895Y-86903641D01*
X84362361Y-87022175D01*
X84222980Y-87115307D01*
X84068108Y-87179457D01*
X83903696Y-87212160D01*
X83736064Y-87212160D01*
X83571652Y-87179457D01*
X83416780Y-87115307D01*
X83277399Y-87022175D01*
X83158865Y-86903641D01*
X83065733Y-86764260D01*
X83001583Y-86609388D01*
X82968880Y-86444976D01*
X82968880Y-86277344D01*
X83001583Y-86112932D01*
X83065733Y-85958060D01*
X83158865Y-85818679D01*
X83277399Y-85700145D01*
X83416780Y-85607013D01*
X83571652Y-85542863D01*
X83736064Y-85510160D01*
X83903696Y-85510160D01*
X84068108Y-85542863D01*
G37*
G36*
X63748108Y-85542863D02*
G01*
X63902980Y-85607013D01*
X64042361Y-85700145D01*
X64160895Y-85818679D01*
X64254027Y-85958060D01*
X64318177Y-86112932D01*
X64350880Y-86277344D01*
X64350880Y-86444976D01*
X64318177Y-86609388D01*
X64254027Y-86764260D01*
X64160895Y-86903641D01*
X64042361Y-87022175D01*
X63902980Y-87115307D01*
X63748108Y-87179457D01*
X63583696Y-87212160D01*
X63416064Y-87212160D01*
X63251652Y-87179457D01*
X63096780Y-87115307D01*
X62957399Y-87022175D01*
X62838865Y-86903641D01*
X62745733Y-86764260D01*
X62681583Y-86609388D01*
X62648880Y-86444976D01*
X62648880Y-86277344D01*
X62681583Y-86112932D01*
X62745733Y-85958060D01*
X62838865Y-85818679D01*
X62957399Y-85700145D01*
X63096780Y-85607013D01*
X63251652Y-85542863D01*
X63416064Y-85510160D01*
X63583696Y-85510160D01*
X63748108Y-85542863D01*
G37*
G36*
X87184890Y-85829017D02*
G01*
X87303364Y-85878091D01*
X87409988Y-85949335D01*
X87500665Y-86040012D01*
X87571909Y-86146636D01*
X87620983Y-86265110D01*
X87646000Y-86390882D01*
X87646000Y-86519118D01*
X87620983Y-86644890D01*
X87571909Y-86763364D01*
X87500665Y-86869988D01*
X87409988Y-86960665D01*
X87303364Y-87031909D01*
X87303363Y-87031910D01*
X87303362Y-87031910D01*
X87184890Y-87080983D01*
X87059119Y-87106000D01*
X86930881Y-87106000D01*
X86805110Y-87080983D01*
X86686638Y-87031910D01*
X86686637Y-87031910D01*
X86686636Y-87031909D01*
X86580012Y-86960665D01*
X86489335Y-86869988D01*
X86418091Y-86763364D01*
X86369017Y-86644890D01*
X86344000Y-86519118D01*
X86344000Y-86390882D01*
X86369017Y-86265110D01*
X86418091Y-86146636D01*
X86489335Y-86040012D01*
X86580012Y-85949335D01*
X86686636Y-85878091D01*
X86805110Y-85829017D01*
X86930881Y-85804000D01*
X87059119Y-85804000D01*
X87184890Y-85829017D01*
G37*
G36*
X79211000Y-86076000D02*
G01*
X77609000Y-86076000D01*
X77609000Y-85374000D01*
X79211000Y-85374000D01*
X79211000Y-86076000D01*
G37*
G36*
X69711000Y-86076000D02*
G01*
X68109000Y-86076000D01*
X68109000Y-85374000D01*
X69711000Y-85374000D01*
X69711000Y-86076000D01*
G37*
G36*
X87646000Y-85106000D02*
G01*
X86344000Y-85106000D01*
X86344000Y-83804000D01*
X87646000Y-83804000D01*
X87646000Y-85106000D01*
G37*
G36*
X79211000Y-84806000D02*
G01*
X77609000Y-84806000D01*
X77609000Y-84104000D01*
X79211000Y-84104000D01*
X79211000Y-84806000D01*
G37*
G36*
X69711000Y-84806000D02*
G01*
X68109000Y-84806000D01*
X68109000Y-84104000D01*
X69711000Y-84104000D01*
X69711000Y-84806000D01*
G37*
G36*
X84068108Y-83002863D02*
G01*
X84222980Y-83067013D01*
X84362361Y-83160145D01*
X84480895Y-83278679D01*
X84574027Y-83418060D01*
X84638177Y-83572932D01*
X84670880Y-83737344D01*
X84670880Y-83904976D01*
X84638177Y-84069388D01*
X84574027Y-84224260D01*
X84480895Y-84363641D01*
X84362361Y-84482175D01*
X84222980Y-84575307D01*
X84068108Y-84639457D01*
X83903696Y-84672160D01*
X83736064Y-84672160D01*
X83571652Y-84639457D01*
X83416780Y-84575307D01*
X83277399Y-84482175D01*
X83158865Y-84363641D01*
X83065733Y-84224260D01*
X83001583Y-84069388D01*
X82968880Y-83904976D01*
X82968880Y-83737344D01*
X83001583Y-83572932D01*
X83065733Y-83418060D01*
X83158865Y-83278679D01*
X83277399Y-83160145D01*
X83416780Y-83067013D01*
X83571652Y-83002863D01*
X83736064Y-82970160D01*
X83903696Y-82970160D01*
X84068108Y-83002863D01*
G37*
G36*
X63748108Y-83002863D02*
G01*
X63902980Y-83067013D01*
X64042361Y-83160145D01*
X64160895Y-83278679D01*
X64254027Y-83418060D01*
X64318177Y-83572932D01*
X64350880Y-83737344D01*
X64350880Y-83904976D01*
X64318177Y-84069388D01*
X64254027Y-84224260D01*
X64160895Y-84363641D01*
X64042361Y-84482175D01*
X63902980Y-84575307D01*
X63748108Y-84639457D01*
X63583696Y-84672160D01*
X63416064Y-84672160D01*
X63251652Y-84639457D01*
X63096780Y-84575307D01*
X62957399Y-84482175D01*
X62838865Y-84363641D01*
X62745733Y-84224260D01*
X62681583Y-84069388D01*
X62648880Y-83904976D01*
X62648880Y-83737344D01*
X62681583Y-83572932D01*
X62745733Y-83418060D01*
X62838865Y-83278679D01*
X62957399Y-83160145D01*
X63096780Y-83067013D01*
X63251652Y-83002863D01*
X63416064Y-82970160D01*
X63583696Y-82970160D01*
X63748108Y-83002863D01*
G37*
G36*
X72678228Y-81096703D02*
G01*
X72833100Y-81160853D01*
X72972481Y-81253985D01*
X73091015Y-81372519D01*
X73184147Y-81511900D01*
X73248297Y-81666772D01*
X73281000Y-81831184D01*
X73281000Y-81998816D01*
X73248297Y-82163228D01*
X73184147Y-82318100D01*
X73091015Y-82457481D01*
X72972481Y-82576015D01*
X72833100Y-82669147D01*
X72678228Y-82733297D01*
X72513816Y-82766000D01*
X72346184Y-82766000D01*
X72181772Y-82733297D01*
X72026900Y-82669147D01*
X71887519Y-82576015D01*
X71768985Y-82457481D01*
X71675853Y-82318100D01*
X71611703Y-82163228D01*
X71579000Y-81998816D01*
X71579000Y-81831184D01*
X71611703Y-81666772D01*
X71675853Y-81511900D01*
X71768985Y-81372519D01*
X71887519Y-81253985D01*
X72026900Y-81160853D01*
X72181772Y-81096703D01*
X72346184Y-81064000D01*
X72513816Y-81064000D01*
X72678228Y-81096703D01*
G37*
G36*
X75178228Y-81096703D02*
G01*
X75333100Y-81160853D01*
X75472481Y-81253985D01*
X75591015Y-81372519D01*
X75684147Y-81511900D01*
X75748297Y-81666772D01*
X75781000Y-81831184D01*
X75781000Y-81998816D01*
X75748297Y-82163228D01*
X75684147Y-82318100D01*
X75591015Y-82457481D01*
X75472481Y-82576015D01*
X75333100Y-82669147D01*
X75178228Y-82733297D01*
X75013816Y-82766000D01*
X74846184Y-82766000D01*
X74681772Y-82733297D01*
X74526900Y-82669147D01*
X74387519Y-82576015D01*
X74268985Y-82457481D01*
X74175853Y-82318100D01*
X74111703Y-82163228D01*
X74079000Y-81998816D01*
X74079000Y-81831184D01*
X74111703Y-81666772D01*
X74175853Y-81511900D01*
X74268985Y-81372519D01*
X74387519Y-81253985D01*
X74526900Y-81160853D01*
X74681772Y-81096703D01*
X74846184Y-81064000D01*
X75013816Y-81064000D01*
X75178228Y-81096703D01*
G37*
M02*
